<?xml version="1.0" standalone="no"?>
<!DOCTYPE svg PUBLIC "-//W3C//DTD SVG 1.1//EN" "http://www.w3.org/Graphics/SVG/1.1/DTD/svg11.dtd" >
<!--
2016-6-23: Created with FontForge (http://fontforge.org)
-->
<svg xmlns="http://www.w3.org/2000/svg" xmlns:xlink="http://www.w3.org/1999/xlink" version="1.1">
<metadata>
Created by FontForge 20150501 at Tue Oct 18 15:12:48 2016
 By Giulia Munari
Copyright (c) 2016, Giulia Munari
</metadata>
<defs>
<font id="SDLfont" horiz-adv-x="1000" >
  <font-face 
    font-family="SDLfont"
    font-weight="400"
    font-stretch="normal"
    units-per-em="1000"
    panose-1="2 0 5 9 0 0 0 0 0 0"
    ascent="800"
    descent="-200"
    bbox="-0.893066 -200.224 1003.57 800"
    underline-thickness="50"
    underline-position="-100"
    unicode-range="U+E000-E056"
  />
    <missing-glyph />
    <glyph glyph-name="Analytics" unicode="&#xe000;" 
d="M892.857 657.143c58.9287 0 110.714 -48.2139 110.714 -107.143s-48.2139 -107.143 -107.143 -107.143c-21.4287 0 -41.0713 5.35645 -57.1426 16.0713l-289.286 -289.286l-144.643 144.644l-207.144 -207.144c8.92871 -16.0713 16.0723 -35.7139 16.0723 -57.1426
c0 -58.9287 -48.2148 -107.143 -107.144 -107.143c-58.9287 0 -107.143 48.2139 -107.143 107.143c0 58.9287 48.2139 107.143 107.143 107.143c12.5 0 23.2148 -1.78516 33.9287 -5.35645l262.5 264.285l144.643 -144.643l242.857 242.857
c-3.57129 12.5 -5.35742 23.2139 -5.35742 35.7139c0 58.9287 48.2148 107.143 107.144 107.143zM107.143 14.2861c19.6436 0 35.7148 16.0713 35.7148 35.7139s-16.0713 35.7139 -35.7148 35.7139c-19.6426 0 -35.7139 -16.0713 -35.7139 -35.7139
s16.0713 -35.7139 35.7139 -35.7139zM892.857 514.286c19.6426 0 35.7139 16.0713 35.7139 35.7139s-16.0713 35.7139 -35.7139 35.7139c-19.6436 0 -35.7148 -16.0713 -35.7148 -35.7139s16.0713 -35.7139 35.7148 -35.7139z" />
    <glyph glyph-name="Down" unicode="&#xe001;" 
d="M735.714 341.071l-185.714 -183.929c-28.5713 -28.5713 -73.2139 -28.5713 -101.786 0l-183.928 183.929c-44.6436 44.6426 -12.5 121.429 50 121.429h369.643c64.2852 1.78613 96.4287 -75 51.7852 -121.429z" />
    <glyph glyph-name="Up" unicode="&#xe002;" 
d="M264.286 258.929l185.714 183.929c28.5713 28.5713 73.2139 28.5713 101.786 0l183.928 -183.929c44.6436 -44.6426 12.5 -121.429 -50 -121.429h-369.643c-64.2852 -1.78613 -96.4287 75 -51.7852 121.429z" />
    <glyph glyph-name="Bag" unicode="&#xe003;" 
d="M919.643 -121.429c5.35742 -41.0713 -28.5713 -78.5713 -69.6426 -78.5713h-698.214c-42.8574 0 -76.7861 35.7139 -71.4287 78.5713l62.5 564.286h142.856v142.856c0 117.857 96.4287 214.286 214.286 214.286s214.286 -96.4287 214.286 -214.286v-142.856h142.856z
M355.357 585.714c0 -8.92773 0 -17.8564 1.78516 -26.7852v-116.071h285.715v116.071c0 8.92871 1.78516 17.8574 1.78516 26.7852c0 80.3574 -64.2852 144.644 -144.643 144.644s-144.643 -64.2861 -144.643 -144.644z" />
    <glyph glyph-name="Bell" unicode="&#xe004;" 
d="M857.143 85.7139c0 0 71.4287 -41.0713 71.4287 -141.071c0 -41.0713 -32.1426 -73.2139 -73.2139 -73.2139h-283.929c0 -39.2861 -32.1426 -71.4287 -71.4287 -71.4287s-71.4287 32.1426 -71.4287 71.4287h-283.929c-41.0713 0 -73.2139 32.1426 -73.2139 73.2139
c0 44.6436 17.8574 87.5 50 119.644l21.4287 21.4277v283.929v1.78613v1.78516c0 171.429 123.214 316.072 285.714 348.215v7.14258c0 39.2861 32.1426 71.4287 71.4287 71.4287s71.4287 -32.1426 71.4287 -71.4287v-7.14258
c162.5 -32.1426 283.929 -176.786 285.714 -348.215v-1.78516v-1.78613v-283.929zM855.357 -57.1426c1.78516 55.3564 -28.5713 78.5713 -33.9287 80.3564l-35.7148 19.6436v42.8564v283.929v3.57129c-1.78516 157.144 -128.571 283.929 -285.714 283.929
s-283.929 -126.785 -285.714 -283.929v-3.57129v-283.929v-42.8564l-28.5723 -14.2861l-14.2852 -14.2852c-17.8574 -19.6436 -28.5713 -42.8574 -28.5713 -69.6436c0 -1.78516 0 -1.78516 1.78516 -1.78516h710.715z" />
    <glyph glyph-name="Bolt" unicode="&#xe005;" 
d="M666.071 371.429c64.2861 0 96.4287 -76.7861 50 -121.429l-450 -450l107.143 428.571h-112.5c-62.5 0 -94.6426 76.7861 -50 121.429l450 450h150l-233.928 -428.571h89.2852z" />
    <glyph glyph-name="bookmark" unicode="&#xe006;" 
d="M750 -135.714l-250 150l-248.214 -150c-48.2148 -28.5723 -108.929 7.14258 -108.929 62.5v873.214h714.285v-873.214c1.78613 -57.1436 -58.9287 -91.0723 -107.143 -62.5z" />
    <glyph glyph-name="Burger" unicode="&#xe007;" 
d="M928.571 585.714h-857.143v71.4287c0 39.2861 32.1426 71.4287 71.4287 71.4287h714.285c39.2861 0 71.4287 -32.1426 71.4287 -71.4287v-71.4287zM71.4287 228.571v142.857h857.143v-142.857h-857.143zM857.143 -128.571h-714.285
c-39.2861 0 -71.4287 32.1426 -71.4287 71.4287v71.4287h857.143v-71.4287c0 -39.2861 -32.1426 -71.4287 -71.4287 -71.4287z" />
    <glyph glyph-name="Calendar" unicode="&#xe008;" 
d="M214.286 228.571v142.857h142.856v-142.857h-142.856zM428.571 228.571v142.857h142.857v-142.857h-142.857zM642.857 228.571v142.857h142.856v-142.857h-142.856zM214.286 14.2861v142.856h142.856v-142.856h-142.856zM428.571 14.2861v142.856h142.857v-142.856
h-142.857zM642.857 14.2861v142.856h142.856v-142.856h-142.856zM857.143 728.571c39.2861 0 71.4287 -32.1426 71.4287 -71.4287v-214.285v-500c0 -39.2861 -32.1426 -71.4287 -71.4287 -71.4287h-714.285c-39.2861 0 -71.4287 32.1426 -71.4287 71.4287v500v214.285
c0 39.2861 32.1426 71.4287 71.4287 71.4287h71.4287v71.4287h71.4277v-71.4287h428.572v71.4287h71.4277v-71.4287h71.4287zM857.143 -57.1426v500h-714.285v-500h714.285z" />
    <glyph glyph-name="Cloud" unicode="&#xe009;" 
d="M833.929 353.571c91.0713 0 166.071 -76.7852 164.285 -169.643v-3.57129c0 -91.0713 -73.2139 -166.071 -166.071 -166.071h-666.071c-91.0713 0 -166.071 75 -164.285 167.856c0 83.9287 62.5 153.571 142.856 164.286c5.35742 132.143 116.071 239.285 250 239.285
c91.0713 0 171.429 -48.2139 214.286 -121.428c21.4287 30.3564 58.9287 51.7852 100 51.7852c69.6426 0 125 -53.5713 125 -123.214c0 -16.0713 -1.78613 -39.2861 -7.14258 -39.2861h7.14258z" />
    <glyph glyph-name="Cross" unicode="&#xe00a;" 
d="M571.429 316.071l321.429 -321.429c19.6426 -19.6426 19.6426 -51.7852 0 -71.4287c-19.6436 -19.6426 -51.7861 -19.6426 -71.4287 0l-321.429 321.429l-321.429 -321.429c-19.6426 -19.6426 -51.7852 -19.6426 -71.4287 0c-19.6426 19.6436 -19.6426 51.7861 0 71.4287
l321.429 321.429l-321.429 321.429c-19.6426 19.6426 -19.6426 51.7861 0 71.4287c19.6436 19.6426 51.7861 19.6426 71.4287 0l321.429 -321.429l321.429 321.429c19.6426 19.6426 51.7852 19.6426 71.4287 0c19.6426 -19.6426 19.6426 -51.7861 0 -71.4287z" />
    <glyph glyph-name="Developer" unicode="&#xe00b;" 
d="M928.571 657.143c39.2861 0 71.4287 -32.1426 71.4287 -71.4287v-571.428c0 -39.2861 -32.1426 -71.4287 -71.4287 -71.4287h-857.143c-39.2861 0 -71.4287 32.1426 -71.4287 71.4287v571.428c0 39.2861 32.1426 71.4287 71.4287 71.4287h857.143zM407.143 87.5
l-214.285 212.5l214.285 214.286l-50 50l-264.285 -264.286l264.285 -262.5zM644.643 35.7139l262.5 264.286l-264.285 264.286l-50 -50l214.285 -214.286l-212.5 -214.286z" />
    <glyph glyph-name="Dots" unicode="&#xe00c;" 
d="M0 300c0 59.1738 47.9697 107.143 107.143 107.143c59.1738 0 107.144 -47.9688 107.144 -107.143s-47.9697 -107.143 -107.144 -107.143c-59.1729 0 -107.143 47.9688 -107.143 107.143zM785.714 300c0 59.1738 47.9697 107.143 107.144 107.143
c59.1729 0 107.143 -47.9688 107.143 -107.143s-47.9697 -107.143 -107.143 -107.143c-59.1738 0 -107.144 47.9688 -107.144 107.143zM392.857 300c0 59.1738 47.9688 107.143 107.143 107.143s107.143 -47.9688 107.143 -107.143s-47.9688 -107.143 -107.143 -107.143
s-107.143 47.9688 -107.143 107.143z" />
    <glyph glyph-name="File" unicode="&#xe00d;" 
d="M573.214 800l283.929 -285.714v-642.857c0 -39.2861 -32.1426 -71.4287 -71.4287 -71.4287h-571.428c-39.2861 0 -71.4287 32.1426 -71.4287 71.4287v857.143c0 39.2861 32.1426 71.4287 71.4287 71.4287h285.714h71.4287h1.78516zM755.357 514.286l-183.929 185.714
v-185.714h183.929zM214.286 -128.571h571.428v571.429h-212.5h-1.78516c-39.2861 0 -71.4287 32.1426 -71.4287 71.4287v214.285h-285.714v-857.143z" />
    <glyph glyph-name="gallery" unicode="&#xe00e;" 
d="M292.857 487.5h-214.286v142.857c0 39.2852 32.1426 71.4287 71.4287 71.4287h142.857v-214.286zM364.286 487.5v214.286h285.714v-214.286h-285.714zM935.714 487.5h-214.285v214.286h142.857c39.2852 0 71.4277 -32.1436 71.4277 -71.4287v-142.857zM292.857 -83.9287
h-142.857c-39.2861 0 -71.4287 32.1426 -71.4287 71.4287v142.857h214.286v-214.286zM364.286 -83.9287v214.286h285.714v-214.286h-285.714zM864.286 -83.9287h-142.857v214.286h214.285v-142.857c0 -39.2861 -32.1426 -71.4287 -71.4277 -71.4287zM78.5713 201.786
v214.285h214.286v-214.285h-214.286zM364.286 201.786v214.285h285.714v-214.285h-285.714zM721.429 201.786v214.285h214.285v-214.285h-214.285z" />
    <glyph glyph-name="Headphones" unicode="&#xe00f;" 
d="M500 728.571c237.5 0 428.571 -191.071 428.571 -428.571v-160.714c0 -58.9287 -48.2139 -125 -107.143 -125c-58.9287 0 -107.143 48.2139 -107.143 107.143v107.143c0 39.2861 32.1426 71.4287 71.4277 71.4287h71.4287c0 196.429 -160.714 357.143 -357.143 357.143
s-357.143 -160.714 -357.143 -357.143h71.4287c39.2852 0 71.4277 -32.1426 71.4277 -71.4287v-107.143c0 -58.9287 -48.2139 -107.143 -107.143 -107.143c-58.9287 0 -107.143 48.2139 -107.143 107.143v178.571c0 237.5 191.071 428.571 428.571 428.571z
M857.143 -57.1426c0 -35.7148 -35.7139 -71.4287 -71.4287 -71.4287h-125h-148.214c-3.57129 0 -8.92871 -1.78613 -12.5 -1.78613c-41.0713 0 -73.2139 33.9287 -73.2139 73.2148c0 41.0713 33.9277 73.2139 73.2139 73.2139c41.0713 0 73.2139 -37.5 73.2139 -73.2139
h87.5h125h71.4287z" />
    <glyph glyph-name="Idea" unicode="&#xe010;" 
d="M469.643 798.214c210.715 17.8574 387.5 -148.214 387.5 -355.356c0 -117.857 -53.5713 -221.429 -142.856 -285.715v-71.4287c0 -39.2852 -32.1436 -71.4277 -71.4287 -71.4277h-285.715c-39.2852 0 -71.4287 32.1426 -71.4287 71.4277v71.4287
c-89.2852 62.5 -139.285 160.715 -142.856 273.215c-5.35742 189.285 139.285 353.571 326.785 367.856zM689.286 228.571c58.9277 51.7861 96.4277 128.571 96.4277 214.286c0 157.143 -128.571 285.714 -285.714 285.714s-285.714 -128.571 -285.714 -285.714
c0 -85.7148 37.5 -162.5 96.4277 -214.286c14.2861 -12.5 28.5723 -23.2139 46.4287 -32.1426v-110.715h285.715v110.715c17.8564 8.92871 32.1426 19.6426 46.4287 32.1426zM642.857 -128.571c0 -35.7148 -32.1436 -71.4287 -71.4287 -71.4287h-142.857
c-39.2852 0 -71.4287 32.1426 -71.4287 71.4287v71.4287h285.715v-71.4287z" />
    <glyph glyph-name="uniE011" unicode="&#xe011;" 
d="M500 760.714c255.357 0 464.286 -207.143 464.286 -464.285c0 -257.143 -207.144 -464.286 -464.286 -464.286s-464.286 207.144 -464.286 464.286c0 257.143 208.929 464.285 464.286 464.285zM605.357 16.0713c5.35645 -30.3574 5.35645 -32.1426 12.5 -96.4287
c8.92871 3.57129 17.8564 7.14355 26.7852 10.7148c19.6436 50 26.7861 25 50 37.5c51.7861 32.1426 108.929 85.7139 108.929 137.5v78.5713s8.92871 5.35742 8.92871 12.5c-7.14258 26.7852 -5.35742 46.4287 -37.5 46.4287c-12.5 0 -32.1426 5.35645 -39.2861 12.5
c-26.7852 26.7852 -46.4277 58.9287 -73.2139 85.7139c0 0 -7.14258 7.14258 -14.2861 7.14258c-46.4277 0 -94.6426 7.14355 -148.214 7.14355v-91.0713c0 -26.7861 -10.7139 -51.7861 -3.57129 -78.5723c7.14258 -44.6426 23.2139 -91.0713 69.6426 -110.714
c19.6426 -12.5 39.2861 -32.1426 39.2861 -58.9287zM500 689.286c-110.714 0 -214.286 -46.4287 -285.714 -121.429c1.78516 -7.14355 3.57129 -14.2861 12.5 -19.6436c19.6426 -19.6426 23.2139 -32.1426 23.2139 -58.9277v-46.4287
c107.143 -7.14355 155.357 -98.2148 232.143 -139.286l10.7148 7.14258c-12.5 19.6436 -26.7861 39.2861 -39.2861 58.9287c-32.1426 39.2861 -58.9287 71.4287 -32.1426 130.357c14.2852 26.7861 26.7852 32.1426 46.4287 32.1426h46.4287
c25 0 39.2852 14.2861 51.7852 41.0713c5.35742 19.6436 19.6426 28.5723 32.1426 41.0723c23.2148 10.7139 42.8574 23.2139 64.2861 39.2852c-50 23.2148 -103.571 35.7148 -162.5 35.7148z" />
    <glyph glyph-name="uniE012" unicode="&#xe012;" 
d="M75 125v496.429c0 37.5 30.3574 67.8574 67.8574 67.8574h714.285c37.5 0 67.8574 -30.3574 67.8574 -67.8574v-496.429h-850zM139.286 187.5h723.214v437.5h-723.214v-437.5zM857.143 683.929h-714.285c-33.9287 0 -62.5 -28.5713 -62.5 -62.5v-491.071h839.285v491.071
c0 33.9287 -28.5713 62.5 -62.5 62.5zM133.929 183.929v8.92871v428.571v8.92871h8.92871h714.285h8.92871v-8.92871v-428.571v-8.92871h-8.92871h-714.285h-8.92871zM857.143 692.857c39.2861 0 71.4287 -32.1436 71.4287 -71.4287v-500h-857.143v500
c0 39.2852 32.1426 71.4287 71.4287 71.4287h714.285zM142.857 192.857h714.285v428.571h-714.285v-428.571zM71.4287 -17.8574c-35.7148 0 -64.2861 26.7861 -66.0713 62.5h991.071c-1.78613 -35.7139 -32.1426 -62.5 -66.0713 -62.5h-858.929zM991.071 41.0713h-982.143
c5.35742 -30.3574 30.3574 -53.5713 62.5 -53.5713h857.143c32.1426 0 58.9287 23.2139 62.5 53.5713zM1000 50c0 -39.2861 -32.1426 -71.4287 -71.4287 -71.4287h-857.143c-39.2861 0 -71.4287 32.1426 -71.4287 71.4287h1000z" />
    <glyph glyph-name="uniE013" unicode="&#xe013;" 
d="M739.286 317.857l-35.7148 -35.7148l-357.143 -357.143c-19.6426 -19.6426 -51.7861 -19.6426 -71.4287 0s-19.6426 51.7861 0 71.4287l321.429 321.429l-321.429 321.429c-19.6426 19.6426 -19.6426 51.7852 0 71.4277c19.6426 19.6436 51.7861 19.6436 71.4287 0
l357.143 -357.143z" />
    <glyph glyph-name="uniE014" unicode="&#xe014;" 
d="M71.4287 201.786v214.285h214.285v-214.285h-214.285zM357.143 201.786v214.285h571.429v-214.285h-571.429zM289.286 -83.9287h-146.429c-39.2861 0 -71.4287 32.1426 -71.4287 71.4287v142.857h217.857v-214.286zM857.143 -83.9287h-500v214.286h571.429v-142.857
c0 -39.2861 -32.1426 -71.4287 -71.4287 -71.4287zM285.714 487.5h-214.285v142.857c0 39.2852 32.1426 71.4287 71.4287 71.4287h142.856v-214.286zM928.571 487.5h-571.429v214.286h500c39.2861 0 71.4287 -32.1436 71.4287 -71.4287v-142.857z" />
    <glyph glyph-name="uniE015" unicode="&#xe015;" 
d="M928.571 14.2861v446.428l71.4287 39.2861v-491.071c0 -39.2861 -32.1426 -66.0713 -71.4287 -66.0713h-857.143c-39.2861 0 -71.4287 26.7852 -71.4287 66.0713v480.357l71.4287 -35.7148v-439.285h857.143zM1000 580.357h1.78613v-19.6436l-50 -26.7852
l-1.78613 -1.78613l-382.143 -194.643l-69.6436 -35.7139l-69.6426 33.9277l-357.143 178.572l-71.4287 35.7139v30.3574c0 39.2852 32.1426 76.7852 71.4287 76.7852h857.143c39.2861 0 71.4287 -37.5 71.4287 -76.7852zM500 371.429l428.571 214.285h-857.143z" />
    <glyph glyph-name="uniE016" unicode="&#xe016;" 
d="M428.571 -57.1426h-214.285c-39.2861 0 -71.4287 32.1426 -71.4287 71.4287v571.428c0 39.2861 32.1426 71.4287 71.4287 71.4287h214.285v-714.285zM785.714 -57.1426h-214.285v714.285h214.285c39.2861 0 71.4287 -32.1426 71.4287 -71.4287v-571.428
c0 -39.2861 -32.1426 -71.4287 -71.4287 -71.4287z" />
    <glyph glyph-name="uniE017" unicode="&#xe017;" 
d="M500 800c214.286 0 389.286 -173.214 389.286 -389.286c0 -216.071 -389.286 -610.714 -389.286 -610.714s-389.286 396.429 -389.286 610.714c0 214.286 175 389.286 389.286 389.286zM500 198.214c110.714 0 200 89.2861 200 200c0 110.715 -89.2861 200 -200 200
s-200 -89.2852 -200 -200c0 -110.714 89.2861 -200 200 -200z" />
    <glyph glyph-name="uniE018" unicode="&#xe018;" 
d="M317.857 655.357l442.856 -294.644c42.8574 -28.5713 42.8574 -91.0713 0 -119.643l-442.856 -296.429c-48.2148 -32.1426 -110.715 1.78613 -110.715 58.9287v591.071c0 57.1436 64.2861 91.0713 110.715 60.7148z" />
    <glyph glyph-name="uniE019" unicode="&#xe019;" 
d="M500 800c280.357 0 500 -219.643 500 -500c0 -273.214 -226.786 -500 -500 -500s-500 219.643 -500 500c0 275 217.857 500 500 500zM500 698.214c-198.214 0 -239.286 -150 -246.429 -253.571h137.5c7.14258 19.6436 12.5 123.215 108.929 123.215
c53.5713 0 101.786 -33.9287 101.786 -101.786c0 -60.7139 -67.8574 -101.785 -116.072 -150c-48.2139 -53.5713 -53.5713 -108.929 -53.5713 -150v-12.5h142.857v12.5c0 108.929 171.429 137.5 171.429 316.071c0 98.2148 -75 216.071 -246.429 216.071zM505.357 73.2139
c-41.0713 0 -82.1436 -33.9277 -82.1436 -82.1426c0 -41.0713 33.9287 -82.1426 82.1436 -82.1426c48.2139 0 82.1426 41.0713 82.1426 82.1426s-33.9287 82.1426 -82.1426 82.1426z" />
    <glyph glyph-name="uniE01A" unicode="&#xe01a;" 
d="M403.571 317.857l321.429 -321.429c19.6426 -19.6426 19.6426 -51.7861 0 -71.4287s-51.7861 -19.6426 -71.4287 0l-321.429 321.429l-71.4287 71.4287l71.4287 71.4287l321.429 321.428c19.6426 19.6436 51.7861 19.6436 71.4287 0
c19.6426 -19.6426 19.6426 -51.7852 0 -71.4277z" />
    <glyph glyph-name="uniE01B" unicode="&#xe01b;" 
d="M964.286 -92.8574l-71.4287 -71.4287l-223.215 225c-67.8564 -51.7852 -150 -82.1426 -241.071 -82.1426c-216.071 0 -392.857 176.786 -392.857 392.857c0 216.071 178.572 392.857 394.644 392.857s392.856 -175 392.856 -392.857
c0 -91.0713 -30.3564 -175 -82.1426 -241.071zM107.143 371.429c0 -178.571 144.644 -323.215 321.429 -321.429c176.786 0 321.429 144.643 321.429 321.429c0 176.785 -144.643 321.429 -321.429 321.429c-176.785 0 -321.429 -144.644 -321.429 -321.429z" />
    <glyph glyph-name="uniE01C" unicode="&#xe01c;" 
d="M735.714 107.143l-185.714 -185.714c-28.5713 -28.5713 -73.2139 -28.5713 -101.786 0l-183.928 185.714c-44.6436 44.6436 -12.5 121.429 50 121.429h369.643c64.2852 0 96.4287 -76.7852 51.7852 -121.429zM264.286 492.857l185.714 185.714
c28.5713 28.5713 73.2139 28.5713 101.786 0l183.928 -183.929c44.6436 -44.6426 12.5 -121.429 -50 -121.429h-369.643c-64.2852 -1.78516 -96.4287 75 -51.7852 119.644z" />
    <glyph glyph-name="uniE01D" unicode="&#xe01d;" 
d="M900 53.5713c28.5713 -28.5713 41.0713 -62.5 41.0713 -103.571c0 -39.2861 -14.2852 -75 -41.0713 -103.571c-28.5713 -28.5713 -62.5 -41.0713 -103.571 -41.0713c-39.2861 0 -75 14.2852 -103.571 41.0713c-28.5713 28.5713 -41.0713 60.7139 -41.0713 103.571
c0 8.92871 1.78516 19.6426 5.35645 33.9287l-351.785 203.571c-30.3574 -26.7861 -64.2861 -39.2861 -103.571 -39.2861c-39.2861 0 -75 16.0723 -105.357 42.8574c-30.3574 26.7861 -42.8574 66.0713 -42.8574 107.143c0 39.2861 14.2861 75 42.8574 105.357
c28.5713 30.3574 62.5 42.8574 103.571 42.8574c39.2861 0 73.2139 -12.5 103.571 -39.2861l351.786 201.786c-3.57129 16.0713 -5.35742 26.7852 -5.35742 35.7139c0 39.2861 16.0713 75 42.8574 105.357c30.3564 28.5713 64.2852 42.8574 103.571 42.8574
c39.2852 0 75 -16.0713 105.357 -42.8574c30.3564 -28.5713 44.6426 -64.2861 44.6426 -105.357s-16.0713 -75 -42.8574 -105.356c-30.3574 -28.5723 -64.2852 -42.8574 -105.357 -42.8574c-39.2852 0 -73.2139 12.5 -103.571 39.2852l-350 -201.785
c3.57129 -16.0713 5.35742 -26.7861 5.35742 -35.7148c0 -8.92773 -1.78613 -19.6426 -5.35742 -35.7139l355.357 -203.571c25 25 57.1426 37.5 98.2139 37.5c41.0723 0 73.2148 -16.0713 101.786 -42.8574z" />
    <glyph glyph-name="uniE01E" unicode="&#xe01e;" 
d="M928.571 603.571c39.2861 0 71.4287 -32.1426 71.4287 -71.4287v-214.285l-214.286 -214.286h-571.428v-71.4287h537.5c58.9277 0 107.143 -48.2139 107.143 -107.143c0 -58.9287 -48.2148 -107.143 -107.143 -107.143c-58.9287 0 -107.144 48.2139 -107.144 107.143
c0 12.5 1.78613 25 5.35742 35.7139h-369.643c3.57129 -10.7139 5.35645 -23.2139 5.35645 -35.7139c0 -58.9287 -48.2139 -107.143 -107.143 -107.143c-58.9287 0 -107.143 48.2139 -107.143 107.143c0 48.2139 35.7139 87.5 71.4287 101.786v76.7852v142.857v357.143
v71.4287h-142.857v71.4287h142.857c39.2852 0 71.4287 -32.1426 71.4287 -71.4287v-71.4287h714.285zM178.571 -110.714c19.6426 0 35.7148 16.0713 35.7148 35.7139s-16.0723 35.7139 -35.7148 35.7139c-19.6426 0 -35.7139 -16.0713 -35.7139 -35.7139
s16.0713 -35.7139 35.7139 -35.7139zM785.714 -75c0 19.6426 -16.0713 35.7139 -35.7139 35.7139s-35.7139 -16.0713 -35.7139 -35.7139s16.0713 -35.7139 35.7139 -35.7139s35.7139 16.0713 35.7139 35.7139zM928.571 392.857v139.285h-214.285v-141.071zM428.571 389.286
h214.286v142.856h-214.286v-142.856zM642.857 317.857h-214.286v-142.857h214.286v142.857zM357.143 532.143h-142.856v-146.429l142.856 1.78613v144.643zM214.286 246.429v-71.4287h142.856v142.857l-142.856 -1.78613v-69.6426zM755.357 175l146.429 146.429
l-187.5 -1.78613v-144.643h41.0713z" />
    <glyph glyph-name="uniE01F" unicode="&#xe01f;" 
d="M928.571 442.857h-857.143v-571.429h857.143v571.429zM928.571 514.286c39.2861 0 71.4287 -32.1436 71.4287 -71.4287v-571.429c0 -39.2861 -32.1426 -71.4287 -71.4287 -71.4287h-857.143c-39.2861 0 -71.4287 32.1426 -71.4287 71.4287v571.429
c0 39.2852 32.1426 71.4287 71.4287 71.4287h857.143zM71.4287 585.714v69.6436h857.143v-69.6436h-857.143zM142.857 730.357v69.6426h714.285v-69.6426h-714.285z" />
    <glyph glyph-name="uniE020" unicode="&#xe020;" 
d="M532.143 714.286l121.429 -246.429l271.429 -39.2861c28.5713 -3.57129 41.0713 -41.0713 19.6426 -60.7139l-196.429 -191.071l46.4287 -269.644c5.35742 -28.5713 -25 -51.7852 -51.7852 -37.5l-242.857 126.786l-242.857 -126.786
c-26.7852 -14.2852 -57.1426 8.92871 -51.7852 37.5l46.4287 269.644l-196.429 191.071c-21.4287 21.4287 -8.92871 57.1426 19.6426 62.5l271.429 39.2852l121.429 246.429c12.5 25 51.7852 25 64.2852 -1.78516z" />
    <glyph glyph-name="uniE021" unicode="&#xe021;" 
d="M785.714 -57.1426h-571.428c-39.2861 0 -71.4287 32.1426 -71.4287 71.4287v571.428c0 39.2861 32.1426 71.4287 71.4287 71.4287h571.428c39.2861 0 71.4287 -32.1426 71.4287 -71.4287v-571.428c0 -39.2861 -32.1426 -71.4287 -71.4287 -71.4287z" />
    <glyph glyph-name="uniE022" unicode="&#xe022;" 
d="M892.857 264.286c28.5713 -28.5723 28.5713 -73.2148 0 -101.786l-255.357 -255.357c-28.5713 -28.5713 -73.2139 -28.5713 -101.786 0l-450 450v285.715c0 39.2852 32.1436 71.4287 71.4287 71.4287h285.715zM228.571 500c39.2861 0 71.4287 32.1426 71.4287 71.4287
c0 39.2852 -32.1426 71.4287 -71.4287 71.4287c-39.2852 0 -71.4287 -32.1436 -71.4287 -71.4287c0 -39.2861 32.1436 -71.4287 71.4287 -71.4287z" />
    <glyph glyph-name="uniE023" unicode="&#xe023;" 
d="M915.361 -181.325h-43.0283h-55.3203h-307.381h-307.38h-55.3613h-43.0273h-67.6152c36.8809 116.789 147.523 178.297 147.523 178.297c6.14648 6.14746 153.67 92.2021 178.297 110.643l6.14746 6.14648c30.7334 24.5879 43.0273 55.3213 36.8809 86.0557
c0 6.14648 -6.14746 18.4404 -12.2939 30.7344c-30.7344 30.7334 -49.1748 67.6143 -67.6152 116.789c-6.14648 12.293 -12.293 24.5869 -24.5869 36.8809c-18.4404 18.4404 -24.5869 43.0273 -6.14648 67.6143c6.14648 12.2939 12.293 24.5879 12.293 36.8809v49.1748
v73.7617c6.14746 86.0547 61.4688 141.376 147.523 153.67c18.4404 0 30.7344 6.14648 49.1748 6.14648s30.7334 0 49.1738 -6.14648c92.2021 -12.2939 141.377 -67.6152 147.523 -153.67v-73.7617v-49.1748c0 -12.293 6.14648 -24.5869 12.2939 -36.8809
c12.293 -24.5869 12.293 -49.1738 -6.14746 -67.6143c-12.293 -6.14746 -18.4404 -18.4404 -24.5869 -36.8809c-18.4404 -49.1748 -36.8809 -86.0557 -67.6143 -116.789c-12.2939 -12.2939 -12.2939 -24.5879 -12.2939 -30.7344
c-6.14648 -36.8809 6.14648 -67.6152 36.8809 -86.0557l6.14648 -6.14648c24.5879 -18.4404 172.15 -110.643 178.298 -110.643c0 0 110.643 -55.3213 147.522 -178.297h-55.2803z" />
    <glyph glyph-name="uniE024" unicode="&#xe024;" 
d="M714.286 800c39.2852 0 71.4277 -32.1426 71.4277 -71.4287v-857.143c0 -39.2861 -32.1426 -71.4287 -71.4277 -71.4287h-428.572c-39.2852 0 -71.4277 32.1426 -71.4277 71.4287v857.143c0 39.2861 32.1426 71.4287 71.4277 71.4287h428.572zM500 -146.429
c30.3574 0 53.5713 23.2148 53.5713 53.5713c0 30.3574 -23.2139 53.5713 -53.5713 53.5713s-53.5713 -23.2139 -53.5713 -53.5713c0 -30.3564 23.2139 -53.5713 53.5713 -53.5713zM714.286 14.2861v642.856h-428.572v-642.856h428.572z" />
    <glyph glyph-name="uniE025" unicode="&#xe025;" 
d="M928.571 157.143h71.4287v-142.856c0 -39.2861 -32.1426 -71.4287 -71.4287 -71.4287h-857.143c-39.2861 0 -71.4287 32.1426 -71.4287 71.4287v142.856h71.4287v-71.4287v-71.4277h857.143v71.4277v71.4287zM500 85.7139l-216.071 214.286
c-19.6426 19.6426 -19.6426 51.7861 0 71.4287c19.6426 19.6426 51.7852 19.6426 71.4287 0l91.0713 -92.8574v400c0 26.7861 25 50 53.5713 50s53.5713 -23.2139 53.5713 -50v-400l91.0713 92.8574c19.6436 19.6426 50 19.6426 69.6436 0
c19.6426 -19.6426 19.6426 -51.7861 0 -71.4287z" />
    <glyph glyph-name="uniE026" unicode="&#xe026;" 
d="M857.143 728.571c39.2861 0 71.4287 -32.1426 71.4287 -71.4287v-321.429c0 -19.6426 -16.0713 -35.7139 -35.7139 -35.7139c-19.6436 0 -35.7148 16.0713 -35.7148 35.7139v250l-342.856 -342.856c-19.6436 -19.6436 -51.7861 -19.6436 -71.4287 0
c-19.6436 19.6426 -19.6436 51.7852 0 71.4287l342.856 342.856h-250c-19.6426 0 -35.7139 16.0713 -35.7139 35.7148c0 19.6426 16.0713 35.7139 35.7139 35.7139h321.429zM857.143 -57.1426v285.714h71.4287v-285.714c0 -39.2861 -32.1426 -71.4287 -71.4287 -71.4287
h-714.285c-39.2861 0 -71.4287 32.1426 -71.4287 71.4287v714.285c0 39.2861 32.1426 71.4287 71.4287 71.4287h285.714v-71.4287h-285.714v-714.285h714.285z" />
    <glyph glyph-name="uniE027" unicode="&#xe027;" 
d="M594.643 -8.92871l119.644 -10.7139l25 -16.0713l-1.78613 -1.78613c-60.7139 -41.0713 -135.714 -66.0713 -216.071 -66.0713c-214.286 0 -387.5 173.214 -387.5 387.5c0 39.2852 7.14258 78.5713 17.8574 114.285v1.78613l3.57129 -3.57129
c82.1426 -69.6426 189.285 -155.357 308.929 -242.857c35.7139 -25 69.6426 -50 101.785 -73.2139l37.5 -25h-7.14258h8.92871l8.92871 -7.14355c16.0713 -10.7139 30.3564 -21.4277 46.4277 -32.1426l26.7861 -17.8574zM885.714 16.0713
c78.5723 -71.4287 121.429 -125 112.5 -137.5c-12.5 -17.8574 -110.714 28.5713 -250 117.857l-8.92773 8.92871c-80.3574 51.7852 -175 119.643 -275 192.856c-275 201.786 -482.144 385.715 -462.5 414.286c8.92773 14.2861 71.4277 -12.5 162.5 -66.0713
l3.57129 -1.78613l-7.14355 3.57129c-44.6426 23.2148 -71.4277 32.1436 -73.2139 28.5723c-5.35742 -8.92871 30.3574 -50 96.4287 -107.144c64.2852 119.644 192.857 201.786 339.285 201.786c80.3574 0 153.572 -25 216.072 -66.0713l21.4277 -17.8574l-164.285 -12.5
l200 -17.8574c8.92871 -8.92871 17.8574 -17.8564 25 -26.7852l3.57129 -3.57129l-228.571 -17.8574l255.357 -21.4287l10.7139 -17.8574l1.78613 -1.78516l-267.857 -21.4287l287.5 -25l5.35742 -16.0713l-294.644 -23.2148l307.144 -26.7852l1.78516 -12.5
l1.78613 -3.57129l-308.929 -23.2148l314.285 -26.7852v-3.57227l-1.78516 -8.92773l-314.286 -25l308.929 -26.7861l-1.78516 -16.0713l-305.357 -23.2148l292.857 -25l-7.14355 -19.6426l-248.214 -19.6426c3.57129 -1.78613 7.14258 -5.35742 10.7139 -7.14258
l217.857 -17.8574l-14.2861 -21.4287l-128.571 -10.7139c12.5 -8.92871 25 -16.0723 35.7148 -23.2148l64.2852 -5.35742l-19.6426 -21.4277c80.3574 -48.2148 132.143 -73.2148 139.286 -64.2861c5.35645 5.35742 -12.5 28.5713 -48.2148 62.5l-7.14258 5.35742z" />
    <glyph glyph-name="uniE028" unicode="&#xe028;" 
d="M75 300c0 28.5713 21.4287 50 50 50h753.571c26.7861 0 50 -21.4287 50 -50c0 -26.7861 -21.4287 -50 -50 -50h-753.571c-26.7861 0 -50 21.4287 -50 50z" />
    <glyph glyph-name="uniE029" unicode="&#xe029;" 
d="M878.571 353.571c26.7861 0 50 -25 50 -53.5713s-21.4287 -53.5713 -50 -53.5713h-325v-321.429c0 -26.7861 -25 -50 -53.5713 -50s-53.5713 21.4287 -53.5713 50v321.429h-321.429c-26.7861 0 -50 25 -50 53.5713s21.4287 53.5713 50 53.5713h321.429v321.429
c0 28.5713 25 50 53.5713 50s53.5713 -21.4287 53.5713 -50v-321.429h325z" />
    <glyph glyph-name="uniE02A" unicode="&#xe02a;" 
d="M107.143 142.857l392.857 392.856l392.857 -392.856c19.6426 -19.6436 19.6426 -51.7861 0 -71.4287c-19.6436 -19.6426 -51.7861 -19.6426 -71.4287 0l-321.429 321.429l-321.429 -321.429c-19.6426 -19.6426 -51.7852 -19.6426 -71.4287 0
c-19.6426 19.6426 -19.6426 51.7852 0 71.4287z" />
    <glyph glyph-name="uniE02B" unicode="&#xe02b;" 
d="M500 235.714l321.429 321.429c19.6426 19.6436 51.7852 19.6436 71.4287 0c19.6426 -19.6426 19.6426 -51.7852 0 -71.4287l-392.857 -392.856l-392.857 392.856c-19.6426 19.6436 -19.6426 51.7861 0 71.4287c19.6436 19.6436 51.7861 19.6436 71.4287 0z" />
    <glyph glyph-name="uniE02C" unicode="&#xe02c;" 
d="M928.571 157.143h71.4287v-142.856c0 -39.2861 -32.1426 -71.4287 -71.4287 -71.4287h-857.143c-39.2861 0 -71.4287 32.1426 -71.4287 71.4287v142.856h71.4287v-71.4287v-71.4277h857.143v71.4277v71.4287zM285.714 442.857
c-19.6426 19.6426 -19.6426 51.7852 0 71.4287l214.286 214.285l214.286 -214.285c19.6426 -19.6436 19.6426 -51.7861 0 -71.4287c-19.6436 -19.6436 -50 -19.6436 -69.6436 0l-91.0713 92.8564v-400c0 -26.7852 -25 -50 -53.5713 -50s-53.5713 21.4287 -53.5713 50v400
l-91.0713 -92.8564c-19.6436 -19.6436 -50 -19.6436 -69.6436 0z" />
    <glyph glyph-name="uniE02D" unicode="&#xe02d;" 
d="M467.857 798.214c291.071 19.6436 533.929 -212.5 532.143 -498.214c0 -119.643 -41.0713 -230.357 -112.5 -316.071c-19.6426 -26.7861 -51.7861 -41.0713 -83.9287 -41.0713h-607.143c-32.1426 0 -62.5 14.2852 -82.1426 39.2852
c-78.5723 94.6436 -123.215 219.644 -112.5 355.357c17.8564 246.429 219.643 446.429 466.071 460.714zM500 728.571c-39.2861 0 -71.4287 -32.1426 -71.4287 -71.4287c0 -39.2852 32.1426 -71.4287 71.4287 -71.4287s71.4287 32.1436 71.4287 71.4287
c0 39.2861 -32.1426 71.4287 -71.4287 71.4287zM142.857 157.143c39.2852 0 71.4287 32.1436 71.4287 71.4287c0 39.2861 -32.1436 71.4287 -71.4287 71.4287c-39.2861 0 -71.4287 -32.1426 -71.4287 -71.4287c0 -39.2852 32.1426 -71.4287 71.4287 -71.4287z
M214.286 442.857c39.2852 0 71.4277 32.1426 71.4277 71.4287c0 39.2852 -32.1426 71.4277 -71.4277 71.4277c-39.2861 0 -71.4287 -32.1426 -71.4287 -71.4277c0 -39.2861 32.1426 -71.4287 71.4287 -71.4287zM675 375c10.7139 25 -1.78613 53.5713 -25 62.5
c-25 10.7139 -53.5713 0 -64.2861 -25l-110.714 -260.714c-26.7861 -8.92871 -46.4287 -35.7148 -46.4287 -66.0723c0 -39.2852 32.1426 -71.4277 71.4287 -71.4277s71.4287 32.1426 71.4287 71.4277c0 10.7148 -3.57129 21.4287 -7.14258 30.3574zM714.286 514.286
c0 -39.2861 32.1426 -71.4287 71.4277 -71.4287c39.2861 0 71.4287 32.1426 71.4287 71.4287c0 39.2852 -32.1426 71.4277 -71.4287 71.4277c-39.2852 0 -71.4277 -32.1426 -71.4277 -71.4277zM857.143 157.143c39.2861 0 71.4287 32.1436 71.4287 71.4287
c0 39.2861 -32.1426 71.4287 -71.4287 71.4287c-39.2852 0 -71.4287 -32.1426 -71.4287 -71.4287c0 -39.2852 32.1436 -71.4287 71.4287 -71.4287z" />
    <glyph glyph-name="uniE02E" unicode="&#xe02e;" 
d="M500 800c276.786 0 500 -223.214 500 -500c0 -276.786 -223.214 -500 -500 -500s-500 223.214 -500 500c0 276.786 223.214 500 500 500zM769.643 101.786l-201.785 201.785l201.785 201.786c19.6436 19.6426 19.6436 51.7852 0 71.4287
c-19.6426 19.6426 -51.7852 19.6426 -71.4287 0l-201.785 -201.786l-201.786 201.786c-19.6426 19.6426 -51.7852 19.6426 -71.4287 0c-19.6426 -19.6436 -19.6426 -51.7861 0 -71.4287l201.786 -201.786l-201.786 -201.785c-19.6426 -19.6436 -19.6426 -51.7861 0 -71.4287
c19.6436 -19.6436 51.7861 -19.6436 71.4287 0l201.786 201.785l201.785 -201.785c19.6436 -19.6436 51.7861 -19.6436 71.4287 0c19.6436 19.6426 19.6436 51.7852 0 71.4287z" />
    <glyph glyph-name="uniE02F" unicode="&#xe02f;" 
d="M853.571 653.571c194.643 -194.643 194.643 -510.714 0 -707.143c-196.429 -194.643 -512.5 -196.429 -707.143 0c-194.643 196.429 -194.643 512.5 0 707.143c194.643 194.643 510.714 194.643 707.143 0zM550 -30.3574v285.715h285.714c26.7861 0 50 21.4287 50 50
c0 26.7852 -21.4277 50 -50 50h-285.714v285.714c0 26.7861 -23.2139 50 -50 50s-50 -21.4287 -50 -50v-285.714h-285.714c-26.7861 0 -50 -21.4287 -50 -50c0 -26.7861 21.4277 -50 50 -50h285.714v-285.715c0 -26.7852 21.4287 -50 50 -50c26.7861 0 50 21.4287 50 50z
" />
    <glyph glyph-name="uniE030" unicode="&#xe030;" 
d="M853.571 653.571c194.643 -194.643 194.643 -510.714 0 -707.143c-196.429 -194.643 -512.5 -196.429 -707.143 0c-194.643 196.429 -194.643 512.5 0 707.143c194.643 194.643 512.5 194.643 707.143 0zM450 255.357h101.786h285.714c26.7861 0 50 21.4287 50 50
c0 26.7852 -21.4287 50 -50 50h-285.714h-101.786h-285.714c-26.7861 0 -50 -21.4287 -50 -50c0 -26.7861 21.4277 -50 50 -50h285.714z" />
    <glyph glyph-name="uniE031" unicode="&#xe031;" 
d="M857.143 657.143h-714.285v-714.285h714.285v714.285zM857.143 728.571c39.2861 0 71.4287 -32.1426 71.4287 -71.4287v-714.285c0 -39.2861 -32.1426 -71.4287 -71.4287 -71.4287h-714.285c-39.2861 0 -71.4287 32.1426 -71.4287 71.4287v714.285
c0 39.2861 32.1426 71.4287 71.4287 71.4287h714.285zM785.714 303.571v-3.57129c0 -26.7861 -28.5713 -53.5713 -57.1426 -53.5713h-175v-169.643c0 -26.7861 -25 -50 -53.5713 -50s-53.5713 21.4277 -53.5713 50v169.643h-175c-26.7861 0 -50 25 -50 53.5713
s21.4287 53.5713 50 53.5713h175v180.357c0 28.5713 25 51.7852 53.5713 51.7852h1.78613c26.7852 0 51.7852 -23.2139 51.7852 -51.7852v-180.357h175c28.5713 0 57.1426 -21.4287 57.1426 -50z" />
    <glyph glyph-name="uniE032" unicode="&#xe032;" 
d="M857.143 657.143h-714.285v-714.285h714.285v714.285zM857.143 728.571c39.2861 0 71.4287 -32.1426 71.4287 -71.4287v-714.285c0 -39.2861 -32.1426 -71.4287 -71.4287 -71.4287h-714.285c-39.2861 0 -71.4287 32.1426 -71.4287 71.4287v714.285
c0 39.2861 32.1426 71.4287 71.4287 71.4287h714.285zM271.429 246.429c-28.5713 0 -50 25 -50 53.5713s23.2139 53.5713 50 53.5713h458.929c28.5713 0 57.1426 -21.4287 57.1426 -50v-3.57129c0 -28.5713 -28.5713 -53.5713 -57.1426 -53.5713h-458.929z" />
    <glyph glyph-name="uniE033" unicode="&#xe033;" 
d="M857.143 657.143h-714.285v-714.285h714.285v714.285zM857.143 728.571c39.2861 0 71.4287 -32.1426 71.4287 -71.4287v-714.285c0 -39.2861 -32.1426 -71.4287 -71.4287 -71.4287h-714.285c-39.2861 0 -71.4287 32.1426 -71.4287 71.4287v714.285
c0 39.2861 32.1426 71.4287 71.4287 71.4287h714.285z" />
    <glyph glyph-name="uniE034" unicode="&#xe034;" 
d="M857.143 728.571c39.2861 0 71.4287 -32.1426 71.4287 -71.4287v-714.285c0 -39.2861 -32.1426 -71.4287 -71.4287 -71.4287h-714.285c-39.2861 0 -71.4287 32.1426 -71.4287 71.4287v714.285c0 39.2861 32.1426 71.4287 71.4287 71.4287h714.285zM785.714 450
c19.6436 19.6426 19.6436 51.7861 0 71.4287c-19.6426 19.6426 -51.7852 19.6426 -71.4277 0l-285.715 -285.715l-125 125c-19.6426 19.6436 -51.7852 19.6436 -71.4287 0c-19.6426 -19.6426 -19.6426 -51.7852 0 -71.4277l196.429 -196.429z" />
    <glyph glyph-name="uniE035" unicode="&#xe035;" 
d="M500 728.571c-114.286 0 -221.429 -44.6426 -303.571 -125c-166.071 -167.857 -166.071 -439.285 0 -605.357c82.1426 -80.3564 189.285 -125 303.571 -125s223.214 44.6436 303.571 125c166.071 166.072 166.071 439.286 0 605.357
c-82.1426 80.3574 -189.285 125 -303.571 125zM500 800c128.571 0 255.357 -48.2139 353.571 -146.429c194.643 -196.429 194.643 -512.5 0 -707.143c-98.2139 -98.2148 -225 -146.429 -353.571 -146.429s-255.357 50 -353.571 146.429
c-194.643 196.429 -194.643 512.5 0 707.143c98.2139 98.2148 225 146.429 353.571 146.429z" />
    <glyph glyph-name="uniE036" unicode="&#xe036;" 
d="M853.571 653.571c194.643 -194.643 194.643 -510.714 0 -707.143c-196.429 -194.643 -512.5 -194.643 -707.143 0c-194.643 196.429 -194.643 512.5 0 707.143c194.643 194.643 512.5 194.643 707.143 0zM639.286 160.714c76.7852 76.7861 76.7852 201.786 0 278.572
c-76.7861 76.7852 -201.786 76.7852 -278.572 0c-76.7852 -76.7861 -76.7852 -201.786 0 -278.572c76.7861 -76.7852 201.786 -76.7852 278.572 0z" />
    <glyph glyph-name="uniE037" unicode="&#xe037;" 
d="M485.714 264.286l-35.7139 35.7139l392.857 392.857c19.6426 19.6426 51.7852 19.6426 71.4287 0c19.6426 -19.6436 19.6426 -51.7861 0 -71.4287l-321.429 -321.429l321.429 -321.429c19.6426 -19.6426 19.6426 -51.7852 0 -71.4287
c-19.6436 -19.6426 -51.7861 -19.6426 -71.4287 0l-321.429 321.429zM110.714 264.286l-35.7139 35.7139l392.857 392.857c19.6426 19.6426 51.7852 19.6426 71.4287 0c19.6426 -19.6436 19.6426 -51.7861 0 -71.4287l-321.429 -321.429l321.429 -321.429
c19.6426 -19.6426 19.6426 -51.7852 0 -71.4287c-19.6436 -19.6426 -51.7861 -19.6426 -71.4287 0l-321.429 321.429z" />
    <glyph glyph-name="uniE038" unicode="&#xe038;" 
d="M517.857 335.714l35.7139 -35.7139l-392.857 -392.857c-19.6426 -19.6426 -51.7852 -19.6426 -71.4277 0c-19.6436 19.6436 -19.6436 51.7861 0 71.4287l321.428 321.429l-321.428 321.429c-19.6436 19.6426 -19.6436 51.7852 0 71.4287
c19.6426 19.6426 51.7852 19.6426 71.4277 0l321.429 -321.429zM892.857 335.714l35.7139 -35.7139l-392.857 -392.857c-19.6426 -19.6426 -51.7852 -19.6426 -71.4277 0c-19.6436 19.6436 -19.6436 51.7861 0 71.4287l321.428 321.429l-321.428 321.429
c-19.6436 19.6426 -19.6436 51.7852 0 71.4287c19.6426 19.6426 51.7852 19.6426 71.4277 0l321.429 -321.429z" />
    <glyph glyph-name="uniE039" unicode="&#xe039;" 
d="M355.357 153.571l419.643 419.643c28.5713 28.5723 76.7861 28.5723 105.357 0c28.5713 -28.5713 28.5713 -76.7852 0 -105.356l-525 -525l-271.429 271.429c-28.5713 28.5713 -28.5713 76.7852 0 105.356s76.7852 28.5713 105.357 0z" />
    <glyph glyph-name="uniE03A" unicode="&#xe03a;" 
d="M142.857 -128.571v642.857h714.285v-642.857c0 -39.2861 -32.1426 -71.4287 -71.4287 -71.4287h-571.428c-39.2861 0 -71.4287 32.1426 -71.4287 71.4287zM642.857 442.857v-464.286c0 -19.6426 16.0713 -35.7139 35.7139 -35.7139
c19.6426 0 35.7148 16.0713 35.7148 35.7139v464.286h-71.4287zM428.571 442.857v-428.571c0 -39.2861 32.1426 -71.4287 71.4287 -71.4287s71.4287 32.1426 71.4287 71.4287v428.571h-142.857zM285.714 442.857v-464.286c0 -19.6426 16.0723 -35.7139 35.7148 -35.7139
c19.6426 0 35.7139 16.0713 35.7139 35.7139v464.286h-71.4287zM857.143 657.143c39.2861 0 71.4287 -32.1426 71.4287 -71.4287h-857.143c0 39.2861 32.1426 71.4287 71.4287 71.4287h214.285v71.4287c0 39.2861 32.1436 71.4287 71.4287 71.4287h142.857
c39.2852 0 71.4287 -32.1426 71.4287 -71.4287v-71.4287h214.285zM571.429 657.143v71.4287h-142.857v-71.4287h142.857z" />
    <glyph glyph-name="uniE03B" unicode="&#xe03b;" 
d="M605.357 728.571c50 0 89.2852 -1.78516 117.856 -5.35742v-137.5h-80.3564c-30.3574 0 -50 -5.35645 -58.9287 -17.8564c-10.7148 -12.5 -16.0713 -30.3574 -16.0713 -55.3574v-98.2139h151.785l-23.2139 -151.786h-130.357v-391.071h-157.143v391.071h-132.143v151.786
h132.143v112.5c0 64.2852 17.8574 114.285 53.5713 148.214c35.7139 35.7139 83.9287 53.5713 142.857 53.5713z" />
    <glyph glyph-name="uniE03C" unicode="&#xe03c;" 
d="M271.429 603.571c0 -26.7852 -8.92871 -50 -28.5713 -69.6426c-19.6436 -17.8574 -44.6436 -28.5713 -76.7861 -28.5713h-1.78516c-30.3574 0 -55.3574 8.92871 -75 28.5713c-19.6436 17.8574 -28.5723 41.0713 -28.5723 69.6426
c0 28.5713 8.92871 51.7861 28.5723 69.6426c19.6426 17.8574 44.6426 26.7861 76.7852 26.7861c32.1426 0 57.1426 -8.92871 75 -26.7861c19.6426 -19.6426 28.5713 -41.0713 30.3574 -69.6426zM258.929 430.357v-558.929h-185.715v558.929h185.715zM928.571 191.071
v-321.429h-185.714v300c0 39.2861 -7.14355 69.6436 -23.2148 92.8574s-39.2852 33.9287 -71.4287 33.9287c-23.2139 0 -42.8564 -7.14258 -58.9277 -19.6426c-16.0723 -12.5 -28.5723 -28.5723 -35.7148 -48.2148c-3.57129 -10.7139 -5.35742 -26.7852 -5.35742 -46.4287
v-310.714h-185.714c0 150 1.78613 271.429 1.78613 366.071v167.857v26.7852h185.714v-82.1426h-1.78613c7.14355 12.5 16.0723 23.2139 23.2148 32.1426c7.14258 8.92871 17.8574 19.6436 32.1426 28.5713c12.5 10.7148 30.3574 17.8574 50 25
c19.6426 5.35742 41.0713 8.92871 64.2861 8.92871c64.2852 0 116.071 -21.4287 155.356 -64.2852c37.5 -42.8574 55.3574 -107.144 55.3574 -189.286z" />
    <glyph glyph-name="uniE03D" unicode="&#xe03d;" 
d="M842.857 285.714c8.92871 -35.7139 12.5 -91.0713 12.5 -167.856c0 -75 -3.57129 -130.357 -12.5 -167.857c-5.35742 -19.6426 -14.2861 -33.9287 -28.5713 -48.2139c-14.2861 -12.5 -30.3574 -19.6436 -48.2148 -21.4287
c-58.9287 -5.35742 -148.214 -8.92871 -266.071 -8.92871s-207.143 3.57129 -266.071 10.7139c-17.8574 1.78613 -35.7148 8.92871 -48.2148 21.4287c-14.2852 12.5 -23.2139 28.5713 -26.7852 48.2148c-8.92871 35.7139 -12.5 91.0713 -12.5 167.856
c0 75 3.57129 130.357 12.5 167.857c3.57129 19.6426 14.2852 33.9287 28.5713 48.2139c14.2861 12.5 30.3574 19.6436 50 23.2148c58.9287 7.14258 146.429 8.92871 264.286 8.92871c117.856 0 207.143 -3.57129 266.071 -8.92871
c17.8564 -1.78613 35.7139 -8.92871 48.2139 -23.2148c12.5 -16.0713 21.4287 -32.1426 26.7861 -50zM296.429 237.5h51.7852v44.6426h-150v-44.6426h50v-271.429h48.2148v271.429zM376.786 728.571h48.2139l-57.1426 -191.071v-130.357h-48.2148v130.357
c-5.35645 23.2139 -14.2852 57.1426 -28.5713 101.786c-12.5 32.1426 -21.4287 62.5 -30.3574 89.2852h50l33.9287 -125zM433.929 -35.7139h42.8574v237.5h-42.8574v-180.357c-8.92871 -14.2861 -17.8574 -19.6426 -26.7861 -19.6426
c-5.35645 0 -8.92871 3.57129 -10.7139 10.7139v16.0713v175h-42.8574v-189.285c0 -16.0723 1.78613 -26.7861 3.57129 -35.7148c3.57129 -12.5 12.5 -17.8574 28.5713 -17.8574c16.0723 0 32.1436 8.92871 48.2148 28.5723v-25zM541.071 625
c8.92871 -12.5 14.2861 -30.3574 14.2861 -55.3574v-83.9287c0 -25 -5.35742 -44.6426 -14.2861 -57.1426c-12.5 -16.0713 -28.5713 -25 -50 -25c-21.4287 0 -37.5 8.92871 -50 25c-8.92871 12.5 -14.2852 30.3574 -14.2852 57.1426v83.9287
c0 25 3.57129 44.6436 14.2852 55.3574c12.5 16.0713 28.5713 25 50 25c21.4287 0 37.5 -8.92871 50 -25zM510.714 476.786v100c0 21.4277 -7.14258 32.1426 -21.4277 32.1426c-14.2861 0 -21.4287 -10.7148 -21.4287 -32.1426v-100
c0 -23.2148 7.14258 -33.9287 21.4287 -33.9287c14.2852 1.78516 21.4277 12.5 21.4277 33.9287zM635.714 -12.5c3.57227 8.92871 3.57227 25 3.57227 48.2139v94.6436c0 23.2139 -1.78613 39.2852 -3.57227 48.2139c-5.35645 17.8574 -16.0713 26.7861 -33.9277 26.7861
c-16.0723 0 -30.3574 -8.92871 -44.6436 -25v101.785h-42.8564v-317.856h42.8564v23.2139c14.2861 -17.8574 28.5713 -26.7861 44.6436 -26.7861c16.0713 1.78613 28.5713 10.7148 33.9277 26.7861zM578.571 166.071c12.5 0 17.8574 -10.7139 17.8574 -32.1426v-101.786
c0 -21.4287 -5.35742 -32.1426 -17.8574 -32.1426c-7.14258 0 -14.2852 3.57129 -21.4287 10.7139v144.644c7.14355 7.14258 14.2861 10.7139 21.4287 10.7139zM714.286 646.429v-239.286h-42.8574v26.7861c-16.0713 -19.6426 -33.9287 -30.3574 -50 -30.3574
c-14.2861 0 -23.2148 5.35742 -28.5713 17.8574c-1.78613 7.14258 -3.57129 19.6426 -3.57129 35.7139v189.286h42.8564v-175v-16.0713c1.78613 -7.14355 3.57129 -10.7148 10.7148 -10.7148c8.92871 0 17.8564 7.14355 26.7852 21.4287v180.357h44.6436zM800 12.5
c0 3.57129 1.78613 12.5 1.78613 28.5713v5.35742h-42.8574c0 -16.0713 0 -26.7861 -1.78613 -28.5713c-1.78516 -10.7148 -8.92871 -17.8574 -19.6426 -17.8574c-14.2861 0 -21.4287 10.7139 -21.4287 32.1426v41.0713h85.7148v50c0 25 -3.57227 42.8574 -12.5 55.3574
c-12.5 16.0713 -28.5723 25 -50 25c-21.4287 0 -39.2861 -8.92871 -51.7861 -25c-8.92871 -12.5 -14.2861 -30.3574 -14.2861 -55.3574v-82.1426c0 -25 5.35742 -42.8574 14.2861 -55.3574c12.5 -16.0713 30.3574 -25 51.7861 -25c23.2139 0 39.2852 8.92871 51.7852 25
c5.35742 10.7148 8.92871 17.8574 8.92871 26.7861zM758.929 133.929v-21.4287h-42.8574v21.4287c0 21.4287 7.14258 32.1426 21.4287 32.1426s21.4287 -10.7139 21.4287 -32.1426z" />
    <glyph glyph-name="uniE03E" unicode="&#xe03e;" 
d="M617.857 233.929c3.57129 -17.8574 5.35645 -35.7148 5.35645 -53.5713c0 -60.7148 -12.5 -114.286 -37.5 -160.715s-60.7139 -83.9287 -107.143 -110.714c-46.4287 -26.7861 -100 -39.2861 -160.714 -39.2861c-42.8574 0 -83.9287 8.92871 -123.215 25
c-39.2852 16.0713 -73.2139 39.2861 -101.785 67.8574c-28.5713 28.5713 -51.7861 62.5 -67.8574 101.786c-16.0713 39.2852 -25 82.1426 -25 125c0 42.8564 8.92871 83.9277 25 123.214s39.2861 73.2139 67.8574 101.786c28.5713 28.5713 62.5 51.7852 101.785 67.8564
c39.2861 16.0713 80.3574 25 123.215 25c82.1426 0 153.571 -28.5713 212.5 -83.9287l-85.7148 -82.1426c-33.9287 32.1426 -75 48.2148 -126.785 48.2148c-35.7148 0 -67.8574 -8.92871 -98.2148 -26.7861c-30.3564 -17.8574 -53.5713 -42.8574 -71.4287 -73.2139
c-17.8564 -30.3574 -26.7852 -64.2861 -26.7852 -101.786s8.92871 -69.6426 26.7852 -101.786c17.8574 -30.3564 41.0723 -55.3564 71.4287 -73.2139c30.3574 -17.8574 62.5 -26.7861 98.2148 -26.7861c23.2139 0 46.4287 3.57227 66.0713 10.7148
c19.6426 7.14258 37.5 14.2852 50 25c12.5 10.7139 25 21.4287 33.9287 33.9287s16.0713 25 21.4287 35.7139c5.35645 10.7148 7.14258 21.4287 8.92773 32.1426h-180.356v108.929h300v1.78613zM1000 233.929v-91.0713h-91.0713v-91.0713h-91.0713v91.0713h-91.0713v91.0713
h91.0713v91.0713h91.0713v-91.0713h91.0713z" />
    <glyph glyph-name="uniE03F" unicode="&#xe03f;" 
d="M826.786 537.5c33.9277 3.57129 67.8564 12.5 101.785 26.7861c-25 -35.7148 -53.5713 -66.0723 -87.5 -91.0723v-23.2139c0 -46.4287 -7.14258 -94.6426 -21.4287 -141.071c-12.5 -44.6426 -33.9287 -91.0713 -62.5 -133.929s-60.7139 -82.1426 -100 -114.286
c-39.2852 -33.9277 -85.7139 -58.9277 -141.071 -78.5713c-55.3574 -19.6426 -112.5 -30.3564 -175 -30.3564c-98.2139 0 -187.5 26.7852 -269.643 78.5713c12.5 -1.78613 26.7852 -1.78613 42.8574 -1.78613c82.1426 0 153.571 25 217.856 75
c-37.5 0 -71.4287 12.5 -101.785 35.7148c-30.3574 23.2139 -50 51.7852 -62.5 87.5c12.5 -1.78613 23.2139 -3.57227 33.9287 -3.57227c16.0713 0 30.3564 1.78613 46.4277 5.35742c-41.0713 8.92871 -75 28.5713 -100 60.7148
c-26.7852 32.1426 -39.2852 69.6426 -39.2852 112.5v1.78516c25 -14.2852 51.7852 -21.4287 78.5713 -21.4287c-25 14.2861 -44.6426 35.7148 -58.9287 60.7148c-14.2852 26.7852 -21.4287 53.5713 -21.4287 83.9287c0 32.1426 7.14355 60.7139 23.2148 89.2852
c44.6426 -53.5713 96.4287 -96.4287 160.714 -130.357c62.5 -32.1426 130.357 -50 201.786 -53.5713c-3.57129 14.2861 -3.57129 26.7861 -3.57129 41.0713c0 48.2148 17.8564 89.2861 51.7852 125c33.9287 35.7148 75 51.7861 125 51.7861
s92.8574 -17.8574 128.571 -55.3574c39.2861 7.14355 76.7861 21.4287 110.715 42.8574c-14.2861 -44.6426 -39.2861 -76.7861 -78.5713 -100z" />
    <glyph glyph-name="uniE040" unicode="&#xe040;" 
d="M946.429 -103.571c0 -10.7148 -3.57129 -21.4287 -10.7148 -30.3574c-7.14258 -8.92871 -17.8564 -12.5 -28.5713 -12.5h-91.0713c-10.7139 0 -19.6426 3.57129 -28.5713 10.7148c-7.14258 7.14258 -12.5 16.0713 -12.5 26.7852
c-5.35742 91.0713 -26.7861 176.786 -64.2861 258.929s-85.7139 153.571 -146.428 212.5c-60.7148 58.9287 -130.357 108.929 -212.5 146.429c-82.1436 37.5 -167.857 58.9287 -258.929 64.2852c-10.7148 0 -19.6436 5.35742 -26.7861 12.5
c-7.14258 7.14355 -10.7139 17.8574 -10.7139 26.7861v92.8574c0 12.5 3.57129 21.4287 12.5 28.5713c5.35645 8.92871 16.0713 12.5 26.7852 12.5h1.78613c110.714 -5.35742 216.071 -30.3574 317.857 -76.7861c101.785 -44.6426 191.071 -107.143 269.643 -185.714
c78.5713 -78.5713 141.071 -167.857 185.714 -269.643c46.4287 -101.786 71.4287 -207.144 76.7861 -317.857zM621.429 -101.786c0 -12.5 -3.57129 -21.4277 -10.7148 -30.3564c-7.14258 -8.92871 -17.8564 -12.5 -30.3564 -12.5h-85.7148
c-10.7139 0 -19.6426 3.57129 -26.7852 10.7139c-7.14355 7.14258 -12.5 16.0713 -12.5 26.7861c-8.92871 94.6426 -48.2148 176.785 -116.071 246.429c-67.8574 67.8564 -151.786 107.143 -248.215 117.856c-10.7139 0 -19.6426 5.35742 -26.7852 12.5
c-7.14355 7.14355 -10.7148 16.0713 -10.7148 26.7861v85.7139c0 12.5 3.57129 21.4287 12.5 30.3574c7.14258 7.14258 16.0713 10.7139 26.7861 10.7139h3.57129c67.8574 -5.35645 132.143 -23.2139 194.643 -51.7852c62.5 -28.5713 116.071 -66.0713 164.286 -114.286
c48.2139 -48.2139 85.7139 -101.785 114.285 -164.285c30.3574 -62.5 46.4287 -128.571 51.7861 -194.644zM260.714 60.7139c23.2148 -23.2139 35.7148 -51.7852 35.7148 -85.7139s-12.5 -62.5 -35.7148 -85.7139c-23.2139 -23.2148 -51.7852 -35.7148 -85.7139 -35.7148
s-62.5 12.5 -85.7139 35.7148c-23.2148 23.2139 -35.7148 51.7852 -35.7148 85.7139s12.5 62.5 35.7148 85.7139c23.2139 23.2148 51.7852 35.7148 85.7139 35.7148s62.5 -10.7148 85.7139 -35.7148z" />
    <glyph glyph-name="uniE041" unicode="&#xe041;" 
d="M169.643 421.429c0 37.5 7.14355 71.4287 19.6436 105.357c12.5 32.1426 30.3564 60.7139 53.5713 85.7139c23.2139 23.2139 48.2139 44.6426 78.5713 62.5c30.3574 17.8574 60.7139 30.3574 94.6426 39.2861c33.9287 8.92773 69.6426 14.2852 105.357 14.2852
c53.5713 0 105.357 -10.7139 151.785 -33.9287c46.4287 -23.2139 83.9287 -55.3564 114.286 -100c28.5713 -42.8564 44.6426 -92.8564 44.6426 -148.214c0 -32.1426 -3.57129 -66.0713 -8.92871 -96.4287c-7.14258 -32.1426 -16.0713 -62.5 -30.3564 -91.0713
c-14.2861 -28.5713 -32.1436 -55.3574 -51.7861 -76.7861c-19.6426 -21.4287 -44.6426 -39.2852 -75 -53.5713c-30.3574 -12.5 -62.5 -19.6426 -98.2139 -19.6426c-23.2148 0 -46.4287 5.35742 -69.6436 16.0713c-23.2139 10.7139 -39.2852 26.7861 -50 44.6426
c-3.57129 -14.2852 -8.92773 -32.1426 -14.2852 -57.1426c-5.35742 -25 -10.7148 -41.0713 -12.5 -48.2139c-1.78613 -7.14355 -5.35742 -19.6436 -10.7148 -35.7148c-5.35645 -16.0713 -8.92773 -28.5713 -14.2852 -35.7139
c-3.57129 -7.14355 -8.92871 -17.8574 -16.0713 -32.1436c-7.14355 -14.2852 -14.2861 -26.7852 -23.2148 -39.2852s-19.6426 -26.7861 -32.1426 -44.6426l-8.92871 -5.35742l-5.35742 5.35742c-5.35645 53.5713 -7.14258 85.7139 -7.14258 96.4277
c0 32.1436 3.57129 67.8574 10.7148 107.144c7.14258 39.2852 19.6426 89.2852 33.9277 148.214c16.0723 58.9287 25 94.6426 26.7861 105.357c-10.7139 21.4287 -16.0713 51.7852 -16.0713 87.5c0 28.5713 8.92871 55.3574 26.7852 80.3574
c17.8574 25 41.0723 37.5 67.8574 37.5c21.4287 0 37.5 -7.14355 48.2148 -21.4287c12.5 -14.2861 17.8564 -32.1436 17.8564 -53.5713c0 -23.2148 -7.14258 -55.3574 -23.2139 -98.2148c-14.2861 -42.8574 -23.2148 -75 -23.2148 -96.4287
s7.14355 -39.2852 23.2148 -53.5713c16.0713 -14.2852 33.9287 -21.4287 55.3574 -21.4287c19.6426 0 35.7139 3.57129 51.7852 12.5c16.0713 8.92871 30.3574 19.6436 41.0713 35.7148c10.7148 14.2852 19.6436 30.3564 28.5713 48.2139
c8.92871 17.8574 14.2861 37.5 19.6436 57.1426c5.35645 19.6436 8.92871 39.2861 10.7139 57.1436c1.78613 17.8564 3.57129 35.7139 3.57129 51.7852c0 58.9287 -19.6426 105.357 -57.1426 139.286c-37.5 33.9287 -87.5 50 -146.429 50
c-67.8574 0 -126.785 -21.4287 -171.429 -66.0713c-46.4287 -44.6436 -69.6426 -100 -69.6426 -169.644c0 -14.2852 1.78613 -30.3564 7.14258 -44.6426c3.57129 -14.2852 8.92871 -25 14.2861 -33.9287c5.35742 -8.92871 8.92871 -16.0713 14.2852 -23.2139
c3.57227 -7.14258 7.14355 -12.5 7.14355 -16.0713c0 -8.92871 -1.78613 -21.4287 -7.14355 -37.5c-5.35645 -16.0713 -10.7139 -23.2148 -19.6426 -23.2148c0 0 -3.57129 0 -8.92871 1.78613c-17.8564 5.35742 -33.9287 14.2852 -46.4287 28.5713
c-14.2852 14.2861 -23.2139 30.3574 -32.1426 48.2139c-7.14258 17.8574 -12.5 37.5 -16.0713 55.3574c-3.57129 19.6426 -5.35742 37.5 -5.35742 55.3574z" />
    <glyph glyph-name="uniE042" unicode="&#xe042;" 
d="M885.714 123.214c0 -23.2139 -5.35645 -46.4277 -17.8564 -69.6426c-12.5 -23.2139 -30.3574 -46.4287 -53.5713 -67.8574c-23.2148 -21.4277 -51.7861 -41.0713 -83.9287 -58.9277c-32.1436 -17.8574 -69.6436 -30.3574 -112.5 -41.0723
c-44.6436 -10.7139 -89.2861 -14.2852 -135.715 -14.2852s-92.8564 5.35742 -137.5 16.0713c-44.6426 10.7139 -83.9287 26.7861 -119.643 46.4287s-64.2861 44.6426 -85.7139 75c-21.4287 30.3574 -32.1436 64.2852 -32.1436 100c0 37.5 10.7148 78.5713 33.9287 121.429
c23.2148 42.8564 55.3574 85.7139 98.2148 128.571c55.3564 55.3574 112.5 94.6426 169.643 117.857c57.1426 21.4277 98.2139 21.4277 123.214 -3.57227c21.4287 -21.4277 25 -55.3564 10.7148 -103.571c-1.78613 -5.35645 -1.78613 -7.14258 0 -10.7139
c1.78516 -1.78613 1.78516 -3.57129 5.35645 -3.57129h7.14355c1.78516 0 5.35645 1.78516 7.14258 1.78516l3.57129 1.78613c46.4287 19.6426 87.5 28.5713 123.215 28.5713c35.7139 0 60.7139 -10.7139 76.7852 -30.3574c14.2861 -21.4287 14.2861 -50 0 -89.2852
c0 -3.57129 -1.78516 -7.14355 -1.78516 -10.7148c0 -1.78516 0 -3.57129 1.78516 -5.35645c1.78613 -1.78613 3.57129 -3.57227 5.35742 -3.57227c1.78516 0 5.35742 -1.78516 8.92871 -3.57129c19.6426 -5.35645 35.7139 -14.2852 51.7852 -23.2139
c16.0713 -8.92871 28.5713 -23.2148 39.2861 -41.0713c8.92871 -16.0713 14.2852 -35.7148 14.2852 -57.1436zM732.143 125c-3.57129 32.1426 -17.8564 60.7139 -44.6426 83.9287c-26.7861 25 -60.7139 42.8574 -103.571 53.5713
c-42.8574 12.5 -87.5 14.2861 -137.5 10.7139c-73.2148 -7.14258 -135.715 -30.3564 -183.929 -69.6426c-48.2139 -39.2852 -71.4287 -83.9287 -66.0713 -132.143c3.57129 -32.1426 17.8574 -60.7148 44.6426 -83.9287c26.7861 -25 60.7148 -42.8574 103.571 -53.5713
c42.8574 -12.5 87.5 -14.2861 137.5 -10.7148c73.2148 7.14355 135.715 30.3574 183.929 69.6436c48.2148 41.0713 71.4287 83.9287 66.0713 132.143zM576.786 46.4287c-14.2861 -33.9287 -41.0723 -58.9287 -78.5723 -75s-75 -17.8574 -110.714 -5.35742
c-35.7139 10.7148 -60.7139 32.1426 -73.2139 62.5c-14.2861 30.3574 -12.5 62.5 3.57129 92.8574c16.0713 30.3574 41.0713 53.5713 75 69.6426c33.9287 16.0713 69.6426 17.8574 105.356 8.92871c37.5 -8.92871 62.5 -30.3574 78.5723 -58.9287
c14.2852 -30.3574 14.2852 -62.5 0 -94.6426zM442.857 39.2861c7.14258 10.7139 8.92871 23.2139 5.35645 33.9277c-3.57129 12.5 -10.7139 19.6436 -23.2139 25c-10.7139 5.35742 -23.2139 5.35742 -35.7139 0c-12.5 -3.57129 -23.2148 -12.5 -30.3574 -23.2139
c-7.14258 -10.7139 -8.92871 -23.2139 -7.14258 -33.9287c3.57129 -10.7139 10.7139 -19.6426 21.4277 -25c10.7148 -5.35742 23.2148 -5.35742 37.5 -1.78516c14.2861 5.35645 25 12.5 32.1436 25zM489.286 100c1.78516 3.57129 3.57129 8.92871 1.78516 12.5
c-1.78516 5.35742 -3.57129 7.14258 -8.92871 8.92871c-5.35645 1.78516 -8.92871 1.78516 -14.2852 0c-5.35742 -1.78613 -8.92871 -5.35742 -10.7148 -8.92871c-5.35645 -10.7139 -3.57129 -17.8574 7.14355 -23.2139c5.35645 -1.78613 8.92773 -1.78613 14.2852 0
c5.35742 1.78516 8.92871 5.35645 10.7148 10.7139zM939.286 516.071c28.5713 -32.1426 48.2139 -69.6426 55.3564 -110.714c8.92871 -42.8574 5.35742 -82.1436 -7.14258 -119.644c-3.57129 -8.92773 -8.92871 -16.0713 -16.0713 -19.6426
c-8.92871 -3.57129 -16.0713 -5.35742 -26.7861 -1.78516c-8.92871 3.57129 -16.0713 8.92773 -19.6426 16.0713c-3.57129 8.92871 -5.35742 16.0713 -1.78613 26.7852c8.92871 26.7861 10.7148 55.3574 5.35742 85.7148
c-5.35742 30.3564 -19.6426 55.3564 -39.2852 78.5713c-21.4287 23.2139 -44.6436 39.2852 -73.2148 48.2139c-28.5713 8.92871 -57.1426 10.7148 -85.7139 3.57129c-8.92871 -1.78516 -17.8574 0 -26.7861 5.35742c-7.14258 5.35742 -12.5 12.5 -14.2852 21.4287
c-1.78613 8.92871 0 17.8574 5.35645 25c5.35742 7.14258 12.5 12.5 21.4287 14.2861c41.0713 8.92773 82.1426 7.14258 121.429 -5.35742c37.5 -14.2861 73.2139 -35.7148 101.786 -67.8574zM739.286 469.643c19.6426 3.57129 39.2852 3.57129 58.9277 -3.57129
c19.6436 -5.35742 35.7148 -17.8574 50 -32.1426c14.2861 -16.0713 23.2148 -33.9287 26.7861 -53.5713c3.57129 -19.6436 3.57129 -39.2861 -3.57129 -58.9287c-1.78613 -7.14258 -7.14258 -12.5 -14.2861 -16.0713c-7.14258 -3.57129 -14.2852 -3.57129 -21.4287 -1.78613
c-7.14258 1.78613 -12.5 7.14258 -16.0713 14.2861c-3.57129 7.14258 -3.57129 14.2852 -1.78516 21.4287c7.14258 21.4277 1.78516 39.2852 -12.5 55.3564c-14.2861 16.0713 -32.1436 21.4287 -53.5713 17.8574c-7.14355 -1.78613 -16.0723 0 -23.2148 3.57129
c-7.14258 3.57129 -10.7139 10.7148 -12.5 17.8574c-1.78516 7.14258 0 16.0713 3.57129 21.4287c5.35742 8.92871 10.7148 12.5 19.6436 14.2852z" />
    <glyph glyph-name="uniE043" unicode="&#xe043;" 
d="M680.357 358.929c-8.92871 1.78516 -17.8574 1.78516 -28.5713 1.78516c-46.4287 0 -91.0723 -10.7139 -130.357 -32.1426c-39.2861 -21.4287 -71.4287 -50 -92.8574 -87.5c-23.2139 -37.5 -33.9287 -76.7852 -33.9287 -119.643
c0 -21.4287 3.57129 -42.8574 8.92871 -64.2861c-8.92871 0 -19.6426 -1.78516 -28.5713 -1.78516h-21.4287c-7.14258 0 -14.2852 1.78516 -23.2139 3.57129c-8.92871 1.78516 -14.2861 1.78516 -17.8574 3.57129c-3.57129 0 -10.7139 1.78613 -23.2139 3.57129
c-10.7148 1.78613 -17.8574 3.57129 -21.4287 3.57129l-105.357 -53.5713l30.3574 91.0713c-80.3574 58.9287 -121.429 126.786 -121.429 207.144c0 46.4277 14.2852 91.0713 41.0713 130.356c26.7861 39.2861 64.2861 71.4287 110.714 92.8574
c46.4287 23.2139 96.4287 33.9287 151.786 33.9287c48.2139 0 94.6426 -8.92871 139.286 -26.7861c42.8564 -17.8564 80.3564 -44.6426 108.928 -76.7852c30.3574 -32.1436 48.2148 -69.6436 57.1436 -108.929zM276.786 366.071c10.7139 0 21.4277 3.57129 26.7852 10.7148
c7.14258 7.14258 10.7148 16.0713 10.7148 26.7852c0 10.7148 -3.57227 21.4287 -10.7148 26.7861c-7.14258 7.14258 -16.0713 10.7139 -26.7852 10.7139c-12.5 0 -23.2148 -3.57129 -32.1436 -10.7139c-8.92871 -7.14355 -14.2852 -16.0713 -14.2852 -26.7861
c0 -10.7139 5.35645 -19.6426 14.2852 -26.7852c8.92871 -7.14355 19.6436 -10.7148 32.1436 -10.7148zM928.571 123.214c0 -32.1426 -8.92871 -64.2852 -28.5713 -92.8564c-19.6426 -30.3574 -44.6426 -57.1436 -76.7861 -80.3574l23.2148 -75l-83.9287 46.4287
c-41.0713 -10.7148 -71.4287 -16.0713 -91.0713 -16.0713c-46.4287 0 -91.0713 10.7139 -130.357 30.3564c-39.2852 19.6436 -71.4287 46.4287 -92.8574 80.3574c-23.2139 33.9287 -33.9277 71.4287 -33.9277 110.715c0 39.2852 10.7139 76.7852 33.9277 110.714
c23.2148 33.9287 53.5723 60.7139 92.8574 80.3574c39.2861 19.6426 82.1426 30.3564 130.357 30.3564c44.6426 0 87.5 -10.7139 126.785 -30.3564c39.2861 -19.6436 71.4287 -46.4287 94.6436 -80.3574c23.2139 -37.5 35.7139 -75 35.7139 -114.286zM489.286 366.071
c10.7139 0 21.4277 3.57129 26.7852 10.7148c7.14258 7.14258 10.7148 16.0713 10.7148 26.7852c0 10.7148 -3.57227 21.4287 -10.7148 26.7861c-7.14258 8.92871 -16.0713 12.5 -26.7852 12.5c-12.5 0 -23.2148 -3.57129 -32.1436 -10.7148
c-8.92871 -7.14258 -14.2852 -16.0713 -14.2852 -26.7852c0 -10.7148 5.35645 -19.6436 14.2852 -26.7861c8.92871 -7.14258 19.6436 -12.5 32.1436 -12.5zM625 192.857c0 7.14258 -3.57129 14.2852 -10.7139 21.4287c-7.14355 5.35645 -16.0723 8.92773 -26.7861 8.92773
c-7.14258 0 -14.2861 -3.57129 -21.4287 -8.92773c-7.14258 -7.14355 -8.92871 -12.5 -8.92871 -21.4287c0 -7.14355 3.57129 -14.2861 8.92871 -21.4287c7.14258 -7.14258 12.5 -8.92871 21.4287 -8.92871c10.7139 0 19.6426 3.57129 26.7861 8.92871
c7.14258 5.35742 10.7139 12.5 10.7139 21.4287zM792.857 192.857c0 7.14258 -3.57129 14.2852 -10.7148 21.4287c-7.14258 5.35645 -16.0713 8.92773 -26.7852 8.92773c-7.14355 0 -14.2861 -3.57129 -21.4287 -8.92773
c-7.14258 -7.14355 -8.92871 -12.5 -8.92871 -21.4287c0 -7.14355 3.57129 -14.2861 8.92871 -21.4287c7.14258 -7.14258 12.5 -8.92871 21.4287 -8.92871c10.7139 0 19.6426 3.57129 26.7852 8.92871c7.14355 5.35742 10.7148 12.5 10.7148 21.4287z" />
    <glyph glyph-name="uniE044" unicode="&#xe044;" 
d="M357.143 -57.1426l-153.571 -60.7148l-121.429 121.429l60.7148 153.571zM153.571 -139.286l-100 -39.2852c-19.6426 -8.92871 -41.0713 12.5 -32.1426 32.1426l41.0713 98.2148zM678.571 692.857c1.78613 1.78516 46.4287 46.4287 57.1426 60.7139
c28.5723 28.5713 73.2148 28.5713 101.786 0l114.286 -114.285c28.5713 -28.5723 28.5713 -73.2148 0 -101.786l-58.9287 -58.9287zM642.857 657.143l214.285 -214.285l-462.5 -462.5l-1.78516 -1.78613l-214.286 214.286zM664.286 535.714l-364.286 -364.285
l35.7139 -35.7148l364.286 364.286z" />
    <glyph glyph-name="uniE045" unicode="&#xe045;" 
d="M500 800c58.9287 0 107.143 -48.2139 107.143 -107.143s-48.2139 -107.144 -107.143 -107.144s-107.143 48.2148 -107.143 107.144s48.2139 107.143 107.143 107.143zM500 14.2861c58.9287 0 107.143 -48.2148 107.143 -107.144
c0 -58.9287 -48.2139 -107.143 -107.143 -107.143s-107.143 48.2139 -107.143 107.143c0 58.9287 48.2139 107.144 107.143 107.144zM500 407.143c58.9287 0 107.143 -48.2139 107.143 -107.143s-48.2139 -107.143 -107.143 -107.143s-107.143 48.2139 -107.143 107.143
s48.2139 107.143 107.143 107.143z" />
    <glyph glyph-name="uniE046" unicode="&#xe046;" 
d="M714.286 371.429h142.856v-571.429h-714.285v571.429h142.856v214.285c0 117.857 96.4287 214.286 214.286 214.286s214.286 -96.4287 214.286 -214.286v-214.285zM357.143 585.714v-214.285h285.715v214.285c0 78.5723 -64.2861 142.857 -142.857 142.857
s-142.857 -64.2852 -142.857 -142.857z" />
    <glyph glyph-name="uniE047" unicode="&#xe047;" 
d="M714.286 371.429h142.856v-571.429h-714.285v571.429h500v214.285c0 78.5723 -64.2861 142.857 -142.857 142.857s-142.857 -64.2852 -142.857 -142.857v-71.4277h-71.4287v71.4277c0 117.857 96.4287 214.286 214.286 214.286s214.286 -96.4287 214.286 -214.286
v-214.285z" />
    <glyph glyph-name="uniE048" unicode="&#xe048;" 
d="M500 728.571c-235.714 0 -428.571 -192.857 -428.571 -428.571c0 -235.714 192.857 -428.571 428.571 -428.571s428.571 192.857 428.571 428.571c0 235.714 -192.857 428.571 -428.571 428.571zM500 800c276.786 0 500 -223.214 500 -500
c0 -276.786 -223.214 -500 -500 -500s-500 223.214 -500 500c0 276.786 223.214 500 500 500zM696.429 126.786l-232.143 135.714v394.643h71.4277v-355.356l196.429 -114.286z" />
    <glyph glyph-name="uniE049" unicode="&#xe049;" 
d="M810.714 621.429c92.8574 -55.3574 139.286 -178.571 108.929 -282.143c-25 -75 -83.9287 -135.715 -146.429 -183.929c-78.5713 -60.7148 -255.356 -194.644 -273.214 -194.644s-194.643 133.929 -271.429 196.429c-64.2852 48.2148 -123.214 107.144 -146.429 183.929
c-32.1426 101.786 14.2861 225 107.144 280.357c51.7852 30.3574 114.285 39.2852 173.214 28.5713c30.3574 -7.14258 58.9287 -17.8574 85.7139 -33.9287c3.57227 -3.57129 51.7861 -39.2852 51.7861 -46.4287c1.78613 8.92871 46.4287 42.8574 51.7861 46.4287
c26.7852 16.0713 55.3564 28.5713 85.7139 33.9287c58.9287 10.7139 121.429 1.78613 173.214 -28.5713z" />
    <glyph glyph-name="uniE04A" unicode="&#xe04a;" 
d="M857.143 85.7139h-285.714l-214.286 -214.285v214.285h-214.285c-39.2861 0 -71.4287 32.1436 -71.4287 71.4287v500c0 39.2861 32.1426 71.4287 71.4287 71.4287h714.285c39.2861 0 71.4287 -32.1426 71.4287 -71.4287v-500
c0 -39.2852 -32.1426 -71.4287 -71.4287 -71.4287z" />
    <glyph glyph-name="uniE04B" unicode="&#xe04b;" 
d="M875 303.571c0 -17.8574 -7.14258 -33.9287 -19.6426 -46.4287l-330.357 -330.356c-12.5 -12.5 -28.5713 -19.6436 -46.4287 -19.6436c-17.8574 0 -32.1426 7.14355 -46.4287 19.6436l-37.5 37.5c-12.5 12.5 -19.6426 28.5713 -19.6426 46.4277
c0 17.8574 7.14258 33.9287 19.6426 46.4287l150 150h-360.714c-17.8574 0 -32.1426 7.14355 -42.8574 19.6436c-10.7139 10.7139 -16.0713 26.7852 -16.0713 44.6426v66.0713c0 17.8574 5.35742 33.9287 16.0713 46.4287c10.7148 12.5 25 19.6426 42.8574 19.6426h358.929
l-150 150c-12.5 12.5 -19.6436 26.7861 -19.6436 46.4287c0 17.8574 7.14355 33.9287 19.6436 46.4287l37.5 37.5c12.5 12.5 28.5713 19.6426 46.4287 19.6426c17.8564 0 33.9277 -7.14258 46.4277 -19.6426l333.929 -333.929c12.5 -12.5 17.8574 -26.7861 17.8574 -46.4287
z" />
    <glyph glyph-name="uniE04C" unicode="&#xe04c;" 
d="M928.571 416.071c0 -8.92871 -3.57129 -16.0713 -8.92871 -21.4287l-244.643 -246.429c-7.14258 -5.35645 -14.2861 -8.92773 -21.4287 -8.92773c-8.92871 0 -16.0713 3.57129 -21.4287 8.92773c-5.35645 5.35742 -8.92871 12.5 -8.92871 21.4287v123.215h-107.143
c-32.1426 0 -58.9287 -1.78613 -83.9287 -3.57129c-25 -1.78613 -50 -5.35742 -73.2139 -10.7148c-25 -5.35742 -46.4287 -12.5 -64.2861 -19.6426c-17.8564 -7.14258 -35.7139 -19.6426 -50 -33.9287c-14.2852 -14.2861 -28.5713 -30.3574 -37.5 -48.2139
c-8.92871 -17.8574 -17.8564 -41.0723 -23.2139 -66.0723c-5.35742 -25 -8.92871 -53.5713 -8.92871 -87.5c0 -17.8564 0 -37.5 1.78613 -58.9277c0 -1.78613 0 -5.35742 1.78516 -10.7148c0 -5.35742 1.78613 -8.92871 1.78613 -12.5
c0 -5.35742 -1.78613 -8.92871 -3.57129 -12.5c-5.35742 -1.78516 -8.92871 -3.57129 -14.2861 -3.57129s-8.92871 3.57129 -14.2861 8.92871c0 1.78516 -1.78516 5.35742 -5.35645 8.92871c-1.78613 3.57129 -3.57129 8.92871 -7.14355 14.2852
c-1.78516 5.35742 -3.57129 8.92871 -5.35645 10.7148c-39.2861 92.8564 -58.9287 164.285 -58.9287 217.856c0 64.2861 8.92871 116.072 25 158.929c51.7852 128.571 191.071 192.857 417.857 192.857h107.143v123.214c0 8.92871 3.57129 16.0723 8.92871 21.4287
c5.35645 5.35742 12.5 8.92871 21.4287 8.92871c8.92773 0 16.0713 -3.57129 21.4277 -8.92871l244.644 -244.643c7.14258 -7.14258 10.7139 -14.2861 10.7139 -21.4287z" />
    <glyph glyph-name="uniE04D" unicode="&#xe04d;" 
d="M857.143 728.571c39.2861 0 71.4287 -32.1426 71.4287 -71.4287v-714.285c0 -39.2861 -32.1426 -71.4287 -71.4287 -71.4287h-714.285c-39.2861 0 -71.4287 32.1426 -71.4287 71.4287v714.285c0 39.2861 32.1426 71.4287 71.4287 71.4287h714.285zM857.143 -57.1426
v714.285h-714.285v-714.285h714.285zM425 96.4287c-30.3574 -17.8574 -67.8574 1.78516 -67.8574 35.7139v337.5c0 32.1436 39.2861 51.7861 67.8574 33.9287l267.857 -169.643c25 -16.0713 25 -51.7861 0 -67.8574z" />
    <glyph glyph-name="uniE04E" unicode="&#xe04e;" 
d="M498.214 -69.6426c-17.8564 0 -33.9277 7.14258 -46.4277 19.6426l-330.357 330.357c-12.5 12.5 -19.6426 28.5713 -19.6426 46.4287c0 17.8564 7.14258 32.1426 19.6426 46.4277l37.5 37.5c12.5 12.5 28.5713 19.6436 46.4287 19.6436
c17.8564 0 33.9287 -7.14355 46.4287 -19.6436l150 -150v360.715c0 17.8574 7.14258 32.1426 19.6426 42.8574c10.7139 10.7139 26.7852 16.0713 44.6426 16.0713h66.0713c17.8574 0 33.9287 -5.35742 46.4287 -16.0713c12.5 -10.7148 19.6426 -25 19.6426 -42.8574
v-358.929l150 150c12.5 12.5 26.7861 19.6426 46.4287 19.6426c17.8574 0 33.9287 -7.14258 46.4287 -19.6426l37.5 -37.5c12.5 -12.5 19.6426 -28.5713 19.6426 -46.4287c0 -17.8574 -7.14258 -33.9287 -19.6426 -46.4287l-333.929 -333.929
c-12.5 -12.5 -26.7852 -17.8564 -46.4287 -17.8564z" />
    <glyph glyph-name="uniE04F" unicode="&#xe04f;" 
d="M125 307.143c0 17.8574 7.14258 33.9287 19.6426 46.4287l330.357 330.357c12.5 12.5 28.5713 19.6426 46.4287 19.6426c17.8574 0 32.1426 -7.14258 46.4287 -19.6426l37.5 -37.5c12.5 -12.5 19.6426 -28.5713 19.6426 -46.4287s-7.14258 -33.9287 -19.6426 -46.4287
l-150 -150h360.714c17.8574 0 32.1426 -7.14258 42.8574 -19.6426c10.7139 -10.7148 16.0713 -26.7861 16.0713 -44.6426v-66.0723c0 -17.8564 -5.35742 -33.9277 -16.0713 -46.4277c-10.7148 -12.5 -25 -19.6436 -42.8574 -19.6436h-358.929l150 -150
c12.5 -12.5 19.6436 -26.7852 19.6436 -46.4287c0 -17.8564 -7.14355 -33.9277 -19.6436 -46.4277l-37.5 -37.5c-12.5 -12.5 -28.5713 -19.6436 -46.4287 -19.6436c-17.8564 0 -33.9277 7.14355 -46.4277 19.6436l-333.929 333.928
c-12.5 12.5 -17.8574 26.7861 -17.8574 46.4287z" />
    <glyph glyph-name="uniE050" unicode="&#xe050;" 
d="M501.786 680.357c17.8564 0 33.9277 -7.14355 46.4277 -19.6436l330.357 -330.356c12.5 -12.5 19.6426 -28.5713 19.6426 -46.4287c0 -17.8574 -7.14258 -32.1426 -19.6426 -46.4287l-37.5 -37.5c-12.5 -12.5 -28.5713 -19.6426 -46.4287 -19.6426
c-17.8564 0 -33.9287 7.14258 -46.4287 19.6426l-150 150v-360.714c0 -17.8574 -7.14258 -32.1436 -19.6426 -42.8574c-10.7139 -10.7148 -26.7852 -16.0713 -44.6426 -16.0713h-66.0713c-17.8574 0 -33.9287 5.35645 -46.4287 16.0713
c-12.5 10.7139 -19.6426 25 -19.6426 42.8574v358.928l-150 -150c-12.5 -12.5 -26.7861 -19.6426 -46.4287 -19.6426c-17.8574 0 -33.9287 7.14258 -46.4287 19.6426l-37.5 37.5c-12.5 12.5 -19.6426 28.5723 -19.6426 46.4287c0 17.8574 7.14258 33.9287 19.6426 46.4287
l333.929 333.929c12.5 12.5 26.7852 17.8574 46.4287 17.8574z" />
    <glyph glyph-name="uniE051" unicode="&#xe051;" 
d="M857.143 728.571c39.2861 0 71.4287 -32.1426 71.4287 -71.4287v-500c0 -39.2852 -32.1426 -71.4287 -71.4287 -71.4287h-285.714l-214.286 -214.285v214.285h-214.285c-39.2861 0 -71.4287 32.1436 -71.4287 71.4287v500c0 39.2861 32.1426 71.4287 71.4287 71.4287
h714.285zM248.214 335.714c37.5 0 67.8574 32.1436 69.6436 69.6436c0 39.2852 -30.3574 69.6426 -69.6436 69.6426c-39.2852 0 -69.6426 -32.1426 -69.6426 -69.6426c0 -39.2861 32.1426 -69.6436 69.6426 -69.6436zM500 335.714c37.5 0 69.6426 32.1436 69.6426 69.6436
c0 39.2852 -30.3564 69.6426 -69.6426 69.6426s-69.6426 -32.1426 -69.6426 -69.6426c0 -39.2861 32.1426 -69.6436 69.6426 -69.6436zM751.786 335.714c37.5 0 69.6426 32.1436 69.6426 69.6436s-30.3574 69.6426 -69.6426 69.6426
c-39.2861 0 -69.6436 -32.1426 -69.6436 -69.6426c0 -39.2861 32.1436 -69.6436 69.6436 -69.6436z" />
    <glyph glyph-name="uniE052" unicode="&#xe052;" 
d="M853.571 653.571c194.643 -196.429 194.643 -512.5 0 -707.143c-196.429 -194.643 -512.5 -194.643 -707.143 0c-194.643 196.429 -194.643 512.5 0 707.143c194.643 194.643 510.714 194.643 707.143 0zM785.714 450c19.6436 19.6426 19.6436 51.7861 0 71.4287
c-19.6426 19.6426 -51.7852 19.6426 -71.4277 0l-285.715 -285.715l-125 125c-19.6426 19.6436 -51.7852 19.6436 -71.4287 0c-19.6426 -19.6426 -19.6426 -51.7852 0 -71.4277l196.429 -196.429z" />
    <glyph glyph-name="uniE053" unicode="&#xe053;" 
d="M953.571 303.571c32.1426 -33.9287 46.4287 -71.4287 44.6426 -117.857v-3.57129c0 -46.4287 -16.0713 -85.7139 -48.2139 -117.856c-32.1426 -33.9287 -71.4287 -50 -117.857 -50h-667.856c-46.4287 0 -85.7148 16.0713 -117.857 50
c-32.1426 33.9277 -48.2148 73.2139 -46.4287 119.643c0 41.0713 14.2861 78.5713 41.0713 108.929c26.7861 32.1426 60.7148 50 101.786 55.3564c1.78516 67.8574 28.5713 125 76.7852 171.429c50 46.4287 107.144 69.6436 175 69.6436
c28.5713 0 57.1436 -5.35742 85.7148 -16.0723c28.5713 -10.7139 53.5713 -25 75 -42.8564c23.2139 -17.8574 41.0713 -39.2861 55.3564 -64.2861c10.7148 16.0713 25 28.5713 42.8574 37.5c17.8574 8.92871 37.5 14.2861 57.1426 14.2861
c21.4287 0 42.8574 -5.35742 62.5 -16.0713c19.6436 -10.7148 35.7148 -25 46.4287 -44.6436c10.7148 -17.8564 16.0713 -39.2852 16.0713 -62.5c0 -26.7852 -1.78516 -41.0713 -7.14258 -41.0713h7.14258c46.4287 0 85.7148 -16.0713 117.857 -50zM623.214 253.571
c5.35742 3.57129 7.14355 8.92871 7.14355 14.2861c0 5.35645 -1.78613 10.7139 -5.35742 14.2852l-12.5 12.5c-3.57129 5.35742 -8.92871 7.14355 -14.2861 7.14355c-5.35645 0 -10.7139 -3.57227 -14.2852 -7.14355l-48.2148 -48.2139v117.857
c0 5.35645 -5.35645 12.5 -8.92773 16.0713c-3.57227 3.57129 -10.7148 7.14258 -16.0723 7.14258h-21.4277c-5.35742 0 -12.5 -3.57129 -16.0723 -7.14258c-5.35645 -3.57129 -8.92773 -10.7148 -8.92773 -16.0713v-117.857l-46.4287 50
c-5.35742 5.35742 -7.14355 7.14258 -14.2861 7.14258c-7.14258 0 -12.5 -3.57129 -16.0713 -7.14258l-12.5 -12.5c-3.57129 -3.57129 -5.35742 -8.92871 -5.35742 -14.2861c0 -7.14258 1.78613 -12.5 5.35742 -16.0713l108.929 -108.929
c5.35742 -3.57129 10.7139 -5.35645 16.0713 -5.35645s10.7139 1.78516 14.2861 5.35645z" />
    <glyph glyph-name="uniE054" unicode="&#xe054;" 
d="M994.643 357.143c3.57129 -37.5 3.57129 -75 0 -112.5c-1.78516 -8.92871 -8.92871 -16.0713 -17.8564 -16.0713h-92.8574c-8.92871 -53.5713 -30.3574 -103.571 -62.5 -150l64.2852 -66.0713c7.14355 -5.35742 7.14355 -16.0713 1.78613 -23.2139
c-12.5 -14.2861 -25 -28.5723 -37.5 -41.0723c-12.5 -14.2852 -26.7861 -26.7852 -41.0713 -37.5c-7.14258 -5.35645 -16.0713 -5.35645 -23.2148 1.78613l-66.0713 66.0713c-46.4287 -32.1426 -96.4287 -53.5713 -150 -62.5v-92.8574
c0 -8.92773 -7.14258 -16.0713 -16.0713 -17.8564c-37.5 -5.35742 -71.4287 -3.57129 -112.5 0c-8.92871 1.78516 -14.2852 8.92871 -14.2852 17.8564v92.8574c-53.5723 10.7148 -105.357 30.3574 -151.786 62.5l-66.0713 -66.0713
c-5.35742 -7.14258 -16.0713 -7.14258 -23.2148 -1.78613c-14.2852 12.5 -28.5713 25 -41.0713 37.5c-12.5 14.2861 -25 28.5723 -37.5 42.8574c-5.35645 7.14258 -5.35645 16.0713 1.78613 23.2148l66.0713 66.0713c-32.1426 46.4287 -53.5713 94.6426 -62.5 148.214
h-92.8574c-8.92871 0 -16.0713 7.14258 -17.8564 16.0713c-3.57227 37.5 -3.57227 75 0 112.5c1.78516 8.92871 8.92773 14.2861 17.8564 14.2861h92.8574c8.92871 53.5713 30.3574 105.357 62.5 153.571l-66.0713 66.0713
c-7.14258 5.35742 -7.14258 16.0713 -1.78613 23.2148c12.5 14.2852 25 28.5713 37.5 41.0713c14.2861 14.2852 26.7861 26.7852 42.8574 39.2852c7.14258 5.35742 16.0713 5.35742 23.2139 -1.78516l66.0723 -66.0713c46.4277 32.1426 98.2139 53.5713 151.785 62.5
v92.8564c0 8.92871 5.35742 14.2861 14.2861 16.0713c17.8564 1.78613 37.5 1.78613 55.3564 1.78613v0c17.8574 0 37.5 0 57.1436 -3.57129c8.92871 0 16.0713 -7.14258 16.0713 -16.0713v-92.8574c53.5713 -8.92871 103.571 -30.3574 150 -62.5l64.2852 66.0713
c5.35742 7.14258 16.0723 7.14258 23.2148 1.78613c14.2852 -10.7148 28.5713 -23.2148 42.8574 -37.5c14.2852 -14.2861 26.7852 -28.5713 37.5 -42.8574c5.35645 -7.14258 5.35645 -16.0713 -1.78613 -23.2139l-66.0713 -66.0723
c32.1426 -46.4277 53.5713 -98.2139 62.5 -151.785h92.8574c8.92773 0 16.0713 -5.35742 17.8564 -14.2861zM371.429 175c69.6426 -69.6426 182.143 -69.6426 253.571 0s71.4287 183.929 1.78613 255.357c-71.4287 69.6426 -185.715 69.6426 -255.357 0
c-69.6426 -71.4287 -69.6426 -185.715 0 -255.357z" />
    <glyph glyph-name="uniE055" unicode="&#xe055;" 
d="M500 -57.1426c171.429 0 316.071 123.214 348.214 285.714h73.2148c-33.9287 -203.571 -208.929 -357.143 -421.429 -357.143c-155.357 0 -291.071 82.1426 -366.071 205.357l-10.7148 -10.7148c-19.6426 -19.6426 -51.7852 -5.35742 -51.7852 21.4287v110.714
c0 7.14355 3.57129 14.2861 8.92871 21.4287c5.35645 5.35742 12.5 8.92871 21.4287 8.92871h48.2139h64.2861c26.7852 0 41.0713 -32.1426 21.4277 -51.7852l-48.2139 -48.2148c58.9287 -110.714 176.786 -185.714 312.5 -185.714zM928.571 512.5l-1.78516 -110.714
c0 -8.92871 -3.57227 -16.0723 -8.92871 -21.4287c-5.35742 -5.35742 -12.5 -8.92871 -21.4287 -8.92871h-48.2148h-62.5c-26.7852 0 -41.0713 32.1426 -21.4277 51.7852l48.2139 48.2148c-58.9287 110.714 -176.786 185.714 -312.5 185.714
c-171.429 0 -316.071 -123.214 -348.214 -285.714h-73.2148c33.9287 201.785 208.929 357.143 421.429 357.143c155.357 0 291.071 -82.1426 366.071 -205.357l10.7148 10.7148c19.6426 19.6426 51.7852 5.35742 51.7852 -21.4287z" />
    <glyph glyph-name="uniE056" unicode="&#xe056;" 
d="M423.214 608.929c12.5 0 23.2148 -3.57129 32.1436 -12.5s12.5 -17.8574 12.5 -30.3574c0 -19.6426 -12.5 -35.7139 -35.7148 -48.2139c-57.1426 -30.3574 -100 -60.7148 -126.785 -89.2861c-25 -25 -37.5 -44.6426 -37.5 -57.1426s8.92871 -19.6426 28.5713 -21.4287
l10.7139 -1.78613l16.0713 -1.78516c41.0723 -5.35742 75 -25 100 -57.1426c25 -32.1436 37.5 -71.4287 37.5 -117.857s-16.0713 -87.5 -48.2139 -123.215c-35.7139 -39.2852 -82.1426 -58.9277 -139.286 -58.9277c-55.3564 0 -101.785 21.4277 -139.285 64.2852
c-39.2861 42.8574 -60.7148 98.2148 -60.7148 164.286c0 57.1426 19.6436 117.856 60.7148 180.356c39.2852 62.5 92.8574 114.286 157.143 157.144c57.1426 35.7139 101.786 53.5713 132.143 53.5713zM880.357 608.929c12.5 0 23.2139 -3.57129 32.1426 -12.5
c8.92871 -7.14258 12.5 -17.8574 12.5 -30.3574c0 -19.6426 -12.5 -35.7139 -35.7139 -48.2139c-57.1436 -30.3574 -100 -60.7148 -126.786 -89.2861c-25 -26.7852 -37.5 -48.2139 -37.5 -60.7139s8.92871 -19.6436 28.5713 -21.4287l10.7148 -1.78613l16.0713 -1.78516
c41.0713 -5.35742 75 -25 100 -57.1436c25 -32.1426 37.5 -71.4277 37.5 -117.856s-16.0713 -87.5 -48.2148 -123.215c-35.7139 -39.2852 -82.1426 -58.9287 -139.285 -58.9287c-55.3574 0 -101.786 21.4287 -139.286 64.2861
c-39.2852 42.8574 -60.7139 98.2139 -60.7139 164.286c0 57.1426 19.6426 117.856 60.7139 180.356c39.2861 62.5 92.8574 114.286 157.143 157.144c57.1436 39.2852 100 57.1426 132.144 57.1426z" />
  </font>
</defs>
</svg>
