<?xml version="1.0" standalone="no"?>
<!DOCTYPE svg PUBLIC "-//W3C//DTD SVG 1.1//EN" "http://www.w3.org/Graphics/SVG/1.1/DTD/svg11.dtd" >
<svg>
<metadata>
Created by FontForge 20120731 at Thu Aug  4 19:09:59 2016
 By www
Copyright (c) 2008 by Jeremy Dooley. All rights reserved.
</metadata>
<defs>
<font id="SommetRoundedW00-Regular" horiz-adv-x="0" >
  <font-face 
    font-family="Sommet Rounded Regular"
    font-weight="400"
    font-stretch="normal"
    units-per-em="1000"
    panose-1="2 0 5 3 0 0 0 2 0 4"
    ascent="800"
    descent="-200"
    x-height="527"
    cap-height="732"
    bbox="-122.882 -346 1188 1005.25"
    underline-thickness="50"
    underline-position="-125"
    unicode-range="U+0020-FB06"
  />
<missing-glyph horiz-adv-x="278" 
 />
    <glyph glyph-name="uniE02E" unicode="ffj" horiz-adv-x="904" 
d="M595 -105q18 -5 38.5 -8.5t34.5 1.5q27 9 36 47.5t9 110.5v410h-227v-442q0 -9 -2.5 -15.5t-12.5 -8.5q-5 -1 -9.5 -1.5t-8.5 0.5q-6 1 -14.5 2t-16.5 2.5t-13.5 4t-5.5 6.5v452h-210v-442q0 -9 -2.5 -15.5t-12.5 -8.5q-17 -2 -26 1q-5 0 -12.5 1t-14 2.5t-11.5 4t-5 5.5
v452h-77q-8 0 -13 2.5t-7 10.5q-2 12 1 22q0 4 1 10.5t2 12.5t3 10t5 4h85v25q2 92 28 138t81 55q9 2 19 2.5t21 0.5q9 0 26.5 -2t34.5 -6t29.5 -10t12.5 -14q-2 -15 -5 -22q-2 -4 -4 -10t-5 -11t-6 -9t-6 -3q-25 2 -44 8.5t-31 6.5q-19 1 -29 -3q-26 -9 -31 -42.5t-5 -91.5
v-12h208v25q1 92 27.5 138t80.5 55q10 2 20 2.5t21 0.5q9 0 26.5 -2t34 -6t29 -10t12.5 -14q0 -7 -1 -12t-3 -10q-2 -4 -4 -10t-5 -11t-6 -9t-6 -3q-25 2 -44 8.5t-31 6.5q-19 1 -29 -3q-26 -9 -31.5 -42.5t-5.5 -91.5v-12h289q12 0 15.5 -8.5t3.5 -19.5v-481
q0 -109 -33 -159t-103 -50q-17 0 -33.5 2.5t-48.5 13.5q-10 4 -14 9t-2 15q2 8 5 14t6 5q2 3 4.5 7.5l5 9t6 7.5t6.5 2zM713 735q0 4 6 7t15 5t19.5 3t19.5 1q18 0 20.5 -10.5t2.5 -24.5v-55q0 -14 -2.5 -24.5t-20.5 -10.5q-9 0 -19.5 1t-19.5 2.5t-15 4.5t-6 8v93z" />
    <glyph glyph-name="uniFB00" unicode="ff" horiz-adv-x="681" 
d="M328 663q-48 14 -68 14q-19 1 -29 -3q-25 -9 -30.5 -41t-5.5 -88v-17h225v25q1 105 33.5 151t101.5 46q10 0 29.5 -2t39 -5.5t33.5 -10t14 -15.5q-2 -23 -10 -27q-2 -3 -4.5 -8t-5.5 -9.5t-6 -7.5t-6 -2q-48 14 -68 14q-19 1 -29 -3q-23 -8 -30 -37.5t-7 -82.5v-26h108
q8 0 13.5 -2.5t6.5 -10.5q2 -13 -1 -21q0 -4 -1 -10.5t-2 -12.5t-3 -10.5t-5 -4.5h-118v-442q0 -9 -2.5 -15.5t-12.5 -8.5q-15 -2 -26 1q-5 0 -12 1t-14 2.5t-11.5 4t-4.5 5.5v452h-227v-442q0 -9 -2.5 -15.5t-12.5 -8.5q-17 -2 -26 1q-5 0 -12.5 1t-14.5 2.5t-11.5 4
t-4.5 5.5v452h-77q-8 0 -13 2.5t-7 10.5q-2 12 1 22q0 4 1 10.5t2 12.5t3 10t5 4h85v25q2 94 29 140t84 54q8 2 17 2h19q9 0 26.5 -2t34.5 -6t29.5 -10t12.5 -14q-2 -11 -4.5 -18t-6.5 -9q-2 -3 -4.5 -8t-5 -9.5t-6 -7.5t-6.5 -2z" />
    <glyph glyph-name="uniFB01" unicode="fi" horiz-adv-x="618" 
d="M589 75q4 1 8 -3.5t7.5 -12t6 -16t4.5 -15.5q3 -9 -1.5 -14t-13.5 -9q-46 -17 -88 -17q-53 0 -78 34.5t-25 122.5v311h-216v-442q0 -9 -2.5 -15.5t-12.5 -8.5q-17 -2 -26 1q-5 0 -12.5 1t-14.5 2.5t-11.5 4t-4.5 5.5v452h-77q-8 0 -13 2.5t-7 10.5q-2 12 1 22q0 4 1 10.5
t2 12.5t3 10t5 4h85v25q2 94 29 140t84 54q8 2 17 2h19q9 0 26.5 -2t34.5 -6t29.5 -10t12.5 -14q-2 -11 -4.5 -18t-6.5 -9q-2 -3 -4.5 -8t-5 -9.5t-6 -7.5t-6.5 -2q-48 14 -68 14q-19 1 -29 -3q-25 -9 -30.5 -41t-5.5 -88v-17h276q9 0 15.5 -4.5t6.5 -15.5v-356q0 -35 5 -57
t20 -28q7 -3 13 -3t13.5 2t18 4.5t26.5 4.5zM409 735q0 4 6 7t15 5t19.5 3t19.5 1q18 0 21 -10.5t3 -24.5v-55q0 -14 -3 -24.5t-21 -10.5q-9 0 -19.5 1t-19.5 2.5t-15 4.5t-6 8v93z" />
    <glyph glyph-name="uniFB02" unicode="fl" horiz-adv-x="612" 
d="M404 456h-211v-442q0 -9 -2.5 -15.5t-12.5 -8.5q-17 -2 -26 1q-5 0 -12.5 1t-14.5 2.5t-11.5 4t-4.5 5.5v452h-77q-8 0 -13 2.5t-7 10.5q-2 12 1 22q0 4 1 10.5t2 12.5t3 10t5 4h85v25q2 92 28 138t81 55q9 2 19 2.5t21 0.5q9 0 26.5 -2t34.5 -6t29.5 -10t12.5 -14
q-2 -11 -4.5 -18t-6.5 -9q-2 -3 -4.5 -8t-5 -9.5t-6 -7.5t-6.5 -2q-48 14 -68 14q-19 1 -29 -3q-25 -9 -30.5 -41t-5.5 -88v-17h209v215q0 3 4.5 5.5t11.5 4t14 2t12 1.5q10 3 26 1q10 -2 12.5 -8.5t2.5 -15.5v-581q0 -35 5.5 -57t20.5 -28q7 -3 13 -2.5t13.5 2t18 4
t26.5 4.5q4 1 7.5 -3.5t7 -12t6.5 -16t5 -15.5q2 -9 -2 -14t-14 -9q-46 -17 -88 -17q-22 0 -40.5 6.5t-32 22t-21.5 40t-8 60.5v339z" />
    <glyph glyph-name="uniFB04" unicode="ffl" horiz-adv-x="921" 
d="M712 456h-213v-442q0 -9 -2.5 -15.5t-12.5 -8.5q-15 -2 -26 1q-5 0 -12 1t-14 2.5t-11.5 4t-4.5 5.5v452h-223v-442q0 -9 -2.5 -15.5t-12.5 -8.5q-17 -2 -26 1q-5 0 -12.5 1t-14.5 2.5t-11.5 4t-4.5 5.5v452h-77q-8 0 -13 2.5t-7 10.5q-2 12 1 22q0 4 1 10.5t2 12.5t3 10
t5 4h85v25q2 92 28 138t81 55q9 2 19 2.5t21 0.5q9 0 26.5 -2t34.5 -6t29.5 -10t12.5 -14q-2 -11 -4.5 -18t-6.5 -9q-2 -3 -4.5 -8t-5 -9.5t-6 -7.5t-6.5 -2q-48 14 -68 14q-19 1 -29 -3q-25 -9 -30.5 -41t-5.5 -88v-17h221v25q1 105 33.5 151t101.5 46q6 0 25 -1.5t39 -5
t36 -10t16 -16.5q-2 -23 -10 -27q-2 -3 -4.5 -8t-5.5 -9.5t-6 -7.5t-6 -2q-48 14 -68 14q-19 1 -29 -3q-25 -9 -31 -41t-6 -88v-17h211v215q0 3 4.5 5.5t11.5 4t14.5 2t12.5 1.5q9 3 26 1q10 -2 12.5 -8.5t2.5 -15.5v-581q0 -30 3.5 -50.5t14.5 -28.5q16 -16 60 -3l18 5
q4 1 8 -3.5t7.5 -12t6 -16t4.5 -15.5q3 -9 -1.5 -14t-13.5 -9q-46 -17 -88 -17q-22 0 -41 6.5t-32.5 22t-21.5 40t-8 60.5v339z" />
    <glyph glyph-name="f_j.liga" unicode="fj" horiz-adv-x="558" 
d="M405 456h-212v-442q0 -9 -2.5 -15.5t-12.5 -8.5q-17 -2 -26 1q-5 0 -12.5 1t-14.5 2.5t-11.5 4t-4.5 5.5v452h-77q-8 0 -13 2.5t-7 10.5q-2 12 1 22q0 4 1 10.5t2 12.5t3 10t5 4h85v25q2 92 28 138t81 55q8 2 18 2.5t22 0.5t30.5 -2.5t35.5 -7.5t28 -12.5t9 -17.5
q-2 -7 -4.5 -15.5t-6 -16t-7.5 -12t-8 -3.5q-25 2 -44 8.5t-31 6.5q-19 1 -29 -3q-22 -8 -29 -37.5t-7 -82.5v-26h274q11 0 15 -8.5t4 -19.5v-481q0 -108 -35 -158.5t-101 -50.5q-16 0 -33.5 2.5t-48.5 13.5q-21 7 -16 24q1 7 4 15.5t6.5 15.5t7.5 12t8 4q15 -5 33.5 -8.5
t30.5 -3.5q22 0 34 13.5t18 36t7.5 51.5t1.5 60v410zM488 645q-2 -19 -24 -19q-7 0 -17 1t-19.5 2.5t-16 4.5t-6.5 8v93q0 4 6 7.5t15 5t19.5 2.5t18.5 1q18 0 21 -10.5t3 -24.5v-71z" />
    <glyph glyph-name=".notdef" horiz-adv-x="278" 
 />
    <glyph glyph-name=".null" 
 />
    <glyph glyph-name="nonmarkingreturn" horiz-adv-x="333" 
 />
    <glyph glyph-name="space" unicode=" " horiz-adv-x="207" 
 />
    <glyph glyph-name="exclam" unicode="!" horiz-adv-x="224" 
d="M71 729q0 4 6 7t15 5t19.5 3t18.5 1q13 0 18.5 -7.5t5.5 -18.5v-493q0 -11 -5.5 -18.5t-18.5 -7.5q-8 0 -18.5 1t-19.5 3t-15 5t-6 7v513zM70 107q0 4 6 7t15 5t19.5 3t19.5 1q13 0 18.5 -7.5t5.5 -18.5v-73q0 -11 -5.5 -18.5t-18.5 -7.5q-9 0 -19.5 1t-19.5 3t-15 5
t-6 7v93z" />
    <glyph glyph-name="quotedbl" unicode="&#x22;" horiz-adv-x="324" 
d="M132 520q0 -11 -5 -19t-17 -8q-8 0 -18.5 1t-19.5 3.5t-15.5 5.5t-6.5 7v221q0 4 6.5 7t15.5 5.5t19.5 3.5t18.5 1q12 0 17 -8t5 -19v-201zM274 520q0 -11 -5 -19t-17 -8q-8 0 -18.5 1t-19.5 3.5t-15.5 5.5t-6.5 7v221q0 4 6.5 7t15.5 5.5t19.5 3.5t18.5 1q12 0 17 -8
t5 -19v-201z" />
    <glyph glyph-name="numbersign" unicode="#" horiz-adv-x="626" 
d="M425 211l-36 -206q-2 -8 -8 -13t-15 -4q-6 1 -14 2.5t-15 4t-11.5 5.5t-3.5 7l36 204h-110l-36 -206q-2 -8 -7.5 -13t-14.5 -4q-6 1 -14.5 2.5t-15.5 4t-11.5 5.5t-3.5 7l37 204h-101q-8 0 -14 4.5t-6 15.5q0 7 1 15.5t2.5 16t4 13t5.5 5.5h121l29 164h-104q-8 0 -14 5
t-6 15q0 7 1 15.5t2.5 16t4 13t6.5 5.5h123l34 185q2 8 7 13.5t16 4.5q6 -1 13.5 -2.5t14.5 -4t11.5 -6t3.5 -6.5l-33 -184h110l33 185q2 8 7.5 13.5t15.5 4.5q6 -1 13.5 -2.5t14.5 -4t12 -6t4 -6.5l-33 -184h88q8 0 14 -4.5t6 -15.5q0 -6 -1 -15t-2.5 -16.5t-4 -13
t-6.5 -5.5h-108l-28 -164h91q8 0 13.5 -4.5t5.5 -15.5q0 -7 -0.5 -15.5t-2 -16t-4 -13t-6.5 -5.5h-111zM262 281h109l30 164h-110z" />
    <glyph glyph-name="dollar" unicode="$" horiz-adv-x="538" 
d="M299 -124q-8 0 -17.5 1t-18 2.5t-14 4.5t-5.5 7v99q-8 -1 -15 -0.5t-15 0.5q-24 1 -54 5t-57 11t-45 15t-18 16q0 6 2 12t4 11q2 4 4.5 10l5 12t6 10t6.5 4q17 -2 38.5 -7t45 -10t48.5 -9t49 -4q29 0 54.5 5.5t44 16t29 26.5t10.5 37q0 26 -9 47t-25 41
q-32 41 -78.5 75.5t-90 71t-74.5 80.5t-31 105q0 36 13 62.5t35.5 45.5t52.5 30t63 17v120q0 7 15.5 9.5t24.5 3.5q5 1 11 1.5t13 -0.5q14 -3 14 -22v-108q10 0 34 -2t48.5 -6.5t43 -12t18.5 -17.5q0 -12 -5 -24q-3 -8 -9 -19t-11 -13q-9 -1 -23.5 1.5t-32 6.5t-36 7
t-36.5 3q-26 0 -51.5 -4t-45.5 -13t-32.5 -24.5t-12.5 -38.5q0 -44 41 -89q18 -20 43 -41t53.5 -43t56.5 -46.5t51.5 -53t40 -62t21.5 -72.5q1 -10 0 -20q-2 -33 -14 -58.5t-33 -43.5t-48.5 -30t-60.5 -18v-98q0 -10 -5 -16.5t-17 -6.5z" />
    <glyph glyph-name="percent" unicode="%" horiz-adv-x="882" 
d="M54 591q0 67 34.5 102.5t105.5 35.5t105.5 -35.5t34.5 -102.5v-113q0 -66 -34.5 -101.5t-105.5 -35.5t-105.5 35.5t-34.5 101.5v113zM548 238q0 67 34.5 102t105.5 35q72 0 106 -35t34 -102v-113q0 -67 -34 -102t-106 -35q-71 0 -105.5 35t-34.5 102v113zM273 -28
q-7 -13 -15 -13q-2 -1 -4 -0.5t-4 0.5t-10 3.5t-16.5 9t-15 12t-6.5 11.5l19 35l396 719q1 4 9 4q9 0 18.5 -3t18 -7.5t14 -10t5.5 -11.5q0 -7 -3 -13zM129 509q0 -21 2 -38t9 -29.5t20 -19t34 -6.5t33.5 6.5t19 19t8.5 29.5t2 38v52q0 43 -10.5 67.5t-52.5 24.5t-53.5 -23
t-11.5 -64v-57zM624 155q0 -21 2 -38t8.5 -29t19.5 -18.5t34 -6.5t33.5 6.5t19.5 18.5t9 29t2 38v52q0 44 -11 68t-53 24q-41 0 -52.5 -23t-11.5 -65v-56z" />
    <glyph glyph-name="ampersand" unicode="&#x26;" horiz-adv-x="751" 
d="M551 232l71 73q5 5 11 10t11 7q4 2 10 -1t12.5 -8.5t12.5 -11.5t9 -10q4 -6 7 -12t3 -9q1 -6 -2 -9l-89 -93l90 -109q5 -7 10 -13t8 -12q1 -4 -2 -9.5t-8 -11.5t-11.5 -12t-10.5 -9q-6 -5 -12.5 -6.5t-10.5 -2.5q-7 0 -10 4l-108 122q-50 -54 -109 -87.5t-124 -33.5
q-122 0 -183 56t-61 159q0 66 52 125t140 115q-28 32 -50.5 65.5t-30.5 70.5q-5 24 -3 48q3 35 17.5 62.5t38 46t54.5 28.5t66 10t67.5 -10.5t57 -30.5t39 -49t14.5 -66q0 -30 -13.5 -56t-35 -48.5t-47.5 -42.5t-51 -38zM307 384q-26 -18 -53.5 -38t-50 -42t-37 -46.5
t-14.5 -52.5q0 -27 7.5 -52t25.5 -45t47 -32t73 -12q27 0 51.5 9.5t48 24.5t44.5 34t40 37zM258 620q0 -16 7 -33t17.5 -33.5t23 -32.5t24.5 -29q32 22 53 39t33.5 32t17.5 28t5 28q0 41 -26 62.5t-66 21.5q-37 0 -63 -22.5t-26 -60.5z" />
    <glyph glyph-name="quotesingle" unicode="'" horiz-adv-x="176" 
d="M132 520q0 -11 -5 -19t-17 -8q-8 0 -18.5 1t-19.5 3.5t-15.5 5.5t-6.5 7v221q0 4 6.5 7t15.5 5.5t19.5 3.5t18.5 1q12 0 17 -8t5 -19v-201z" />
    <glyph glyph-name="parenleft" unicode="(" horiz-adv-x="301" 
d="M231 766q4 0 10.5 -4.5t12 -10.5t9.5 -12.5t4 -9.5q-26 -41 -46 -90.5t-33.5 -104t-20.5 -111.5t-7 -114q0 -58 6.5 -115.5t19.5 -111.5t33.5 -103t47.5 -89q1 -3 -3 -9.5t-10 -13t-12.5 -11t-9.5 -3.5q-41 39 -72 91.5t-51.5 113t-31 126t-10.5 131.5q0 64 10.5 128
t31 123t51 110t71.5 90z" />
    <glyph glyph-name="parenright" unicode=")" horiz-adv-x="301" 
d="M70 766q40 -39 71 -90t51.5 -110t31 -123t10.5 -128q0 -66 -10.5 -131.5t-31.5 -126t-52 -113t-71 -91.5q-4 -1 -10 3.5t-12 10.5t-10 13t-3 10q27 40 47 89.5t33.5 103.5t20 111.5t6.5 114.5t-7 114t-20.5 111t-33.5 103.5t-46 90.5q0 3 4 9.5t9.5 13t12 11t10.5 4.5z
" />
    <glyph glyph-name="asterisk" unicode="*" horiz-adv-x="538" 
d="M266 512q-9 -14 -19 -32t-20.5 -33.5t-20 -26t-16.5 -10.5q-1 0 -8.5 3t-16 7.5t-15.5 11t-7 12.5q0 7 2.5 10.5t7.5 8.5l68 82l-74 21q-17 5 -33 11t-16 19q0 1 2 8.5t5.5 16t8.5 15t12 6.5q6 0 11 -2.5t10 -4.5q23 -11 46 -19.5t46 -17.5l-6 73q-1 25 0 42q2 11 8.5 13
t20.5 2q20 0 27.5 -1t9.5 -14q1 -17 0 -42l-6 -73l92 37q5 2 10 4.5t11 2.5q7 0 12 -6.5t8.5 -15t5.5 -16t2 -8.5q0 -13 -16.5 -19t-32.5 -11l-73 -21l68 -82q4 -5 6.5 -8.5t2.5 -10.5q0 -6 -7 -12.5t-15.5 -11t-16 -7.5l-7.5 -3q-10 0 -15 6t-10 14z" />
    <glyph glyph-name="plus" unicode="+" horiz-adv-x="636" 
d="M357 24h-77v206h-210v75h210v205h77v-205h206v-75h-206v-206z" />
    <glyph glyph-name="comma" unicode="," horiz-adv-x="257" 
d="M90 -84q-8 -11 -16 -17.5t-23 -6.5q-7 0 -8 5.5t0 10.5q0 2 0.5 4t0.5 4l40 159q1 4 8.5 7t18 4.5t22 2.5t20.5 1q12 0 19 -6t7 -14q0 -6 -3 -10z" />
    <glyph glyph-name="hyphen" unicode="-" horiz-adv-x="366" 
d="M82 250q-11 0 -18 5t-7 18q0 9 1 19t3 19t5 15t7 6h221q10 0 17.5 -5.5t7.5 -18.5q0 -8 -1 -18t-3 -19t-5 -15t-7 -6h-221z" />
    <glyph glyph-name="period" unicode="." horiz-adv-x="184" 
d="M50 97q0 4 6 7t15 5t19.5 3t19.5 1q13 0 18 -7.5t5 -18.5v-73q0 -11 -5 -18.5t-18 -7.5q-9 0 -19.5 1t-19.5 3t-15 5t-6 7v93z" />
    <glyph glyph-name="slash" unicode="/" horiz-adv-x="473" 
d="M386 770q6 -3 14.5 -6t15.5 -7t11 -8t2 -8l-310 -788q-3 -9 -10 -14t-18 -2q-7 3 -15.5 6.5t-15.5 8t-11.5 8.5t-2.5 8l309 789q4 8 12 12.5t19 0.5z" />
    <glyph glyph-name="zero" unicode="0" horiz-adv-x="653" 
d="M60 441q0 66 16.5 119.5t49.5 91t83 57.5t118 20q67 0 117 -20t83 -57.5t49.5 -91t16.5 -119.5v-165q0 -67 -16.5 -120.5t-49.5 -90.5t-83 -57t-117 -20q-68 0 -118 20t-83 57t-49.5 90.5t-16.5 120.5v165zM499 407q0 51 -8.5 96.5t-28.5 79.5t-53 54t-82 20t-82 -20
t-53.5 -54t-29 -79.5t-8.5 -96.5v-98q0 -51 8.5 -96t29 -78.5t53.5 -52.5t82 -19t82 19t53 52.5t28.5 78.5t8.5 96v98z" />
    <glyph glyph-name="one" unicode="1" horiz-adv-x="445" 
d="M294 11q-1 -10 -7 -16.5t-17 -6.5q-8 0 -19 1.5t-21 3.5t-16.5 5.5t-6.5 7.5v616l-67 -57q-2 -2 -6.5 0t-9.5 5q-11 7 -25.5 16t-14.5 24q0 9 12 19l104 88q8 8 28 10t43 2q8 0 15.5 -5t7.5 -14v-699v0z" />
    <glyph glyph-name="two" unicode="2" horiz-adv-x="540" 
d="M70 0q-26 0 -26 23q0 15 4.5 33t13.5 29q77 87 131.5 151t91.5 110.5t58.5 78t33 53.5t15 36.5t3.5 27.5q0 54 -38 83t-108 29q-29 0 -56.5 -2.5t-70.5 -9.5q-4 -1 -8 4t-7 12.5t-6 16.5t-4 16q-2 13 4.5 18t15.5 7q37 7 68 10.5t62 3.5q46 0 90 -9.5t78 -32t54.5 -59.5
t20.5 -91q0 -15 -3.5 -32t-15.5 -40t-34 -55t-58 -78.5t-89 -109.5t-126 -148h318q11 0 17.5 -5t6.5 -16q0 -8 -1 -17.5t-2.5 -17.5t-4.5 -13.5t-7 -5.5h-421z" />
    <glyph glyph-name="three" unicode="3" horiz-adv-x="529" 
d="M62 75q23 -5 50.5 -8.5t60.5 -3.5q36 0 72 4t65 17t47 36t18 61v26q0 31 -13 53.5t-35.5 37.5t-52 22t-63.5 7h-30q-4 0 -7.5 5.5t-6.5 14t-5 18t-2 17.5q0 10 6 15.5t14 5.5h18q34 0 64 7t52.5 21t35.5 36.5t13 53.5v14q0 28 -9 50.5t-30 38.5t-55 24.5t-83 8.5
q-26 0 -52 -3.5t-56 -7.5q-4 0 -8 5.5t-7.5 13.5t-6 17.5t-2.5 17.5q0 10 16.5 16t38 9.5t42.5 4.5t30 1q62 0 113 -9.5t87 -32t55.5 -60t19.5 -94.5v-14q0 -25 -7 -49t-18.5 -44.5t-27.5 -36t-34 -22.5q21 -8 39 -24.5t31.5 -38t21.5 -47t8 -52.5v-26q0 -56 -25 -93
t-65 -59.5t-91 -32t-102 -9.5q-16 0 -41.5 1.5t-50 5.5t-42 11t-17.5 17q0 2 2 10.5t5.5 18t8.5 17t11 7.5z" />
    <glyph glyph-name="four" unicode="4" horiz-adv-x="551" 
d="M27 165q-11 0 -18 5t-7 17q0 13 3 29t9 24l347 475q8 11 24.5 17t30.5 6q11 0 16 -7t5 -17v-474h76q9 0 16 -5t7 -16q0 -8 -1 -17.5t-3 -17.5t-4.5 -13.5t-6.5 -5.5h-84v-151q0 -11 -5.5 -18.5t-18.5 -7.5q-9 0 -19.5 1t-20.5 3t-16.5 5t-6.5 7v161h-323zM350 587
l-248 -347h248v347z" />
    <glyph glyph-name="five" unicode="5" horiz-adv-x="580" 
d="M223 641l-32 -206q23 17 51 22.5t53 5.5q112 0 168.5 -55.5t56.5 -180.5v-4q0 -67 -21.5 -112t-57.5 -72.5t-84.5 -39t-102.5 -11.5q-18 0 -42 2t-50 5.5t-50.5 8.5t-42.5 11q-5 2 -9 4t-5 6q-4 12 3 27q3 8 8.5 21t12.5 12q46 -8 87.5 -14.5t83.5 -6.5q36 0 68 7.5
t56 25.5t38 48t14 74q0 41 -6.5 72.5t-24 52.5t-47 32t-74.5 11q-20 0 -41 -5.5t-38 -16.5q-8 -6 -15.5 -10t-19.5 -4h-44q-11 0 -15.5 4.5t-1.5 17.5q0 4 0.5 7.5t0.5 7.5l38 275q3 23 6 37q4 16 25.5 16.5t50.5 0.5h253q7 0 13 -2.5t7 -11.5q2 -4 2 -8v-9q-1 -5 -2 -13
t-2.5 -15t-4 -12t-6.5 -5h-257z" />
    <glyph glyph-name="six" unicode="6" horiz-adv-x="599" 
d="M430 650q-84 -43 -139 -93.5t-93 -119.5q22 9 49.5 17.5t70.5 7.5q59 -2 102.5 -15t72 -40.5t42.5 -71.5t14 -108v-4q0 -66 -15 -111t-45.5 -72.5t-77 -39.5t-108.5 -12h-7q-62 0 -108 12t-77 39.5t-46 72.5t-15 111v4q0 87 26.5 162t72.5 136.5t109.5 109.5t138.5 80
q10 4 16.5 1t11 -10t7.5 -16.5t5 -18.5q5 -16 -7 -21zM296 387q-50 0 -80 -11t-46 -32t-21 -52t-5 -71q0 -42 5 -72t20.5 -48.5t45.5 -27.5t81 -9h7q50 0 80 8.5t46 27.5t21 48.5t5 70.5t-5 72.5t-21 52.5t-46 32t-80 11h-7z" />
    <glyph glyph-name="seven" unicode="7" horiz-adv-x="523" 
d="M406 641h-365q-4 0 -6.5 5.5t-4.5 14t-3 17.5t-1 17q0 12 7 17t16 5h440q10 0 17.5 -5t7.5 -18q0 -12 -4 -29.5t-9 -24.5l-337 -643q-5 -10 -22 -7.5t-30 9.5t-21 17.5t-4 18.5z" />
    <glyph glyph-name="eight" unicode="8" horiz-adv-x="632" 
d="M547 534q0 -51 -16 -91.5t-45 -54.5q39 -22 62.5 -67.5t23.5 -113.5v-4q0 -66 -15 -108t-45.5 -66t-76.5 -32.5t-108 -8.5h-22q-62 0 -108 8.5t-76.5 32.5t-45.5 66t-15 108v4q0 68 23.5 113.5t62.5 68.5q-29 13 -45.5 54t-16.5 91v4q0 59 13.5 96.5t41 58.5t69 28.5
t97.5 7.5h22q56 0 97.5 -7.5t68.5 -28.5t40.5 -58.5t13.5 -96.5v-4zM327 64q49 0 79 5.5t46 20.5t21 41t5 67t-5 69.5t-21 46t-46 25.5t-79 8h-22q-50 0 -79.5 -8t-45.5 -25.5t-21 -46t-5 -69.5t5 -67t21 -41t45.5 -20.5t79.5 -5.5h22zM328 422q40 0 65.5 4.5t40 17t20 35
t5.5 58.5q0 39 -5 62t-19.5 35t-40 15.5t-67.5 3.5h-22q-42 0 -67.5 -3.5t-40 -15.5t-19.5 -35t-5 -62q0 -36 5.5 -58.5t20 -35t40 -17t65.5 -4.5h24z" />
    <glyph glyph-name="nine" unicode="9" horiz-adv-x="599" 
d="M169 60q83 42 138.5 92.5t93.5 119.5q-23 -9 -50.5 -17t-69.5 -7q-59 2 -102.5 15t-72 40.5t-42.5 71t-14 107.5v4q0 66 15 111t45.5 72.5t76.5 39.5t108 12h7q63 0 109.5 -11.5t77 -39t45.5 -72.5t15 -112v-4q0 -86 -26.5 -161t-72.5 -137t-109.5 -110t-138.5 -80
q-9 -4 -16 -1.5t-11.5 9t-8 16t-5.5 20.5q-3 17 8 22zM302 322q50 0 80.5 11t46.5 32t21 52t5 72q0 42 -5 71.5t-21 48.5t-46 27.5t-81 8.5h-7q-50 0 -79.5 -8.5t-45.5 -27.5t-21 -48t-5 -70t5 -72.5t21 -53t45.5 -32.5t79.5 -11h7z" />
    <glyph glyph-name="colon" unicode=":" horiz-adv-x="304" 
d="M111 105q0 4 6 7t15 5t19.5 3t18.5 1q13 0 18.5 -7.5t5.5 -18.5v-73q0 -11 -5.5 -18.5t-18.5 -7.5q-8 0 -18.5 1t-19.5 3t-15 5t-6 7v93zM111 524q0 4 6 7.5t15 5.5t19.5 3t18.5 1q13 0 18.5 -7.5t5.5 -18.5v-74q0 -11 -5.5 -18.5t-18.5 -7.5q-8 0 -18.5 1t-19.5 3t-15 5
t-6 8v92z" />
    <glyph glyph-name="semicolon" unicode=";" horiz-adv-x="310" 
d="M111 524q0 4 6 7.5t15 5.5t19.5 3t19.5 1q18 0 20.5 -10.5t2.5 -24.5v-56q0 -14 -2.5 -24.5t-20.5 -10.5q-9 0 -19.5 1t-19.5 3t-15 5t-6 8v92zM116 -62q-8 -12 -16 -18t-23 -6q-7 0 -7.5 5t-0.5 10q0 4 2 8l40 159q1 4 8 7t16.5 5t21 3t20.5 1q12 0 19 -6t7 -14
q0 -5 -3 -11z" />
    <glyph glyph-name="less" unicode="&#x3c;" horiz-adv-x="550" 
d="M485 413l-343 -148l343 -148v-76l-458 195v57l458 197v-77z" />
    <glyph glyph-name="equal" unicode="=" horiz-adv-x="633" 
d="M565 398v-73h-496v73h496zM565 142h-497v73h497v-73z" />
    <glyph glyph-name="greater" unicode="&#x3e;" horiz-adv-x="551" 
d="M65 490l459 -197v-57l-459 -195v76l344 148l-344 148v77z" />
    <glyph glyph-name="question" unicode="?" horiz-adv-x="515" 
d="M170 190q0 48 6.5 81.5t26.5 65.5q13 22 35 45.5t42.5 48.5t35.5 51.5t15 55.5q0 64 -32.5 91.5t-96.5 27.5q-11 0 -21.5 -0.5t-22.5 -2t-26.5 -4t-34.5 -5.5q-4 -1 -7.5 4t-6.5 12t-6 15.5t-4 15.5q-2 11 3 16.5t15 7.5q26 6 52 9.5t59 3.5q46 0 85.5 -8t69 -27.5
t47 -53t19.5 -85.5q2 -24 -3 -45q-5 -29 -19.5 -53.5t-33.5 -46.5t-39 -43.5t-37 -44t-28 -47.5t-11 -55v-13t-0.5 -13.5t-3.5 -11.5t-9 -5q-7 -2 -14 -1.5t-12 1.5t-12.5 1.5t-14.5 2t-11.5 4t-4.5 5.5zM170 102q0 4 6 7t15 5t19.5 3t19.5 1q18 0 21 -10.5t3 -24.5v-55
q0 -14 -3 -24.5t-21 -10.5q-9 0 -19.5 1t-19.5 2.5t-15 4.5t-6 8v93z" />
    <glyph glyph-name="at" unicode="@" horiz-adv-x="855" 
d="M622 86q11 8 21 -6q18 -32 14 -39q-42 -42 -97.5 -58t-115.5 -16q-82 0 -152.5 25.5t-122 73.5t-80.5 117t-29 155q0 82 32.5 151.5t86.5 119.5t123 78.5t142 28.5q75 0 139.5 -24.5t111.5 -66.5t73.5 -99t26.5 -123q0 -51 -14 -98t-39 -83.5t-60 -60t-77 -27.5
q-14 -2 -28.5 0t-29 9.5t-26.5 20t-21 31.5q-27 -36 -61 -49.5t-63 -13.5q-30 0 -55.5 10.5t-43.5 29.5t-28.5 44t-10.5 54q0 45 13.5 87.5t40.5 76t67.5 53.5t93.5 20q35 0 60.5 -10.5t42 -28t24.5 -39t8 -43.5q0 -17 -3 -34t-7 -34.5t-7.5 -34.5t-4.5 -35q-2 -24 6 -38
t25 -14q22 0 44 13t40 38.5t29 63t11 87.5q0 55 -21.5 101.5t-59 80.5t-88 53t-108.5 19q-69 0 -126 -27.5t-98 -72t-63.5 -101t-22.5 -113.5q0 -73 25 -130t67.5 -96t99 -59.5t120.5 -20.5q50 0 91.5 10t84.5 44zM392 196q29 0 52.5 18t40.5 44t26 55t9 52q0 37 -19 58.5
t-61 21.5q-30 0 -54.5 -15t-42.5 -38t-27.5 -51t-9.5 -55q0 -37 20.5 -63.5t65.5 -26.5z" />
    <glyph glyph-name="A" unicode="A" horiz-adv-x="591" 
d="M412 212h-234l-55 -193q-3 -10 -10.5 -16t-17 -9.5t-19 -4.5t-16.5 -1q-14 0 -25 5t-11 16q0 3 1 6t2 7l223 695q2 6 15 10.5t27 4.5q11 0 28 -3.5t20 -12.5l224 -694q1 -4 1.5 -7t0.5 -6q0 -11 -10.5 -16t-24.5 -5q-7 0 -17 1t-19 4.5t-16.5 9.5t-10.5 16zM202 289h187
l-94 329z" />
    <glyph glyph-name="B" unicode="B" horiz-adv-x="653" 
d="M75 693q0 16 7.5 21t29.5 5h254q59 0 99.5 -12t65.5 -36.5t36.5 -60.5t11.5 -84q0 -25 -6.5 -50t-18 -46.5t-27 -37.5t-33.5 -22q22 -5 40 -21.5t31 -39t20.5 -49.5t7.5 -54v-8q0 -48 -10 -85t-36 -62t-70 -38t-111 -13h-248q-13 0 -28 5t-15 12v676zM164 327v-250h205
q72 0 102 25.5t31 90.5v16q-1 63 -29 90.5t-96 27.5h-213zM164 642v-238h202q68 0 95 29t27 92q-1 63 -27.5 90t-94.5 27h-202z" />
    <glyph glyph-name="C" unicode="C" horiz-adv-x="540" 
d="M482 81q4 0 9 -6t9 -15t7 -18.5t3 -17.5q0 -10 -17.5 -17t-42.5 -11t-52.5 -6t-47.5 -2h-9q-71 0 -124 13.5t-88 45t-52 83t-17 126.5v206q0 76 17 127.5t52 83t88 45t124 13.5h9q20 0 47.5 -2t52.5 -6t42.5 -11t17.5 -17q0 -8 -3 -17.5t-7 -18t-9 -15t-9 -6.5
q-33 8 -64 12t-68 4q-68 0 -107 -13t-58.5 -40.5t-24.5 -70.5t-5 -102v-137q0 -57 4.5 -100t23.5 -71t56 -42t102 -14q41 0 73.5 4.5t67.5 12.5z" />
    <glyph glyph-name="D" unicode="D" horiz-adv-x="651" 
d="M310 719q71 0 124 -13.5t88 -45t52 -83t17 -127.5v-181q0 -76 -17 -127.5t-52 -83t-88 -45t-124 -13.5h-192q-13 0 -28 5t-15 12v676q0 11 4.5 16.5t12 7.5t16.5 2h18h184zM164 642v-565h146q64 0 101.5 14t56 42t23.5 70.5t5 99.5v113q0 57 -5 99.5t-23.5 70.5t-56 42
t-101.5 14h-146z" />
    <glyph glyph-name="E" unicode="E" horiz-adv-x="563" 
d="M75 693q0 11 5.5 18.5t18.5 7.5h388q9 0 16 -5t7 -17q0 -8 -1 -17.5t-3 -18t-5 -14t-7 -5.5h-330v-238h293q10 0 16.5 -5t6.5 -16q0 -8 -1 -17.5t-3 -18t-4.5 -14.5t-6.5 -6h-301v-250h323q9 0 16 -5t7 -17q0 -8 -1 -17.5t-3 -18t-5 -14t-7 -5.5h-375q-13 0 -28.5 5
t-15.5 12v676z" />
    <glyph glyph-name="F" unicode="F" horiz-adv-x="521" 
d="M164 16q0 -11 -5.5 -19.5t-18.5 -8.5q-8 0 -19.5 1.5t-21.5 3.5t-17 5.5t-7 7.5v692q0 13 9.5 17t26.5 4h376q9 0 16 -5t7 -17q0 -8 -1 -17.5t-3 -18t-5 -14t-7 -5.5h-330v-238h277q10 0 16.5 -5t6.5 -16q0 -8 -1 -17.5t-3 -18t-4.5 -14.5t-6.5 -6h-285v-311z" />
    <glyph glyph-name="G" unicode="G" horiz-adv-x="622" 
d="M341 654q-65 0 -102 -14t-56 -42t-23.5 -70.5t-4.5 -99.5v-137q0 -57 4.5 -99.5t23.5 -70.5t56 -42t102 -14h9q25 0 52 3.5t71 17.5v207q0 6 5 11t12.5 8.5t16 5.5t15.5 2q16 0 28 -6t12 -13v-236q0 -10 -2 -19.5t-11 -14.5q-45 -24 -96 -33t-103 -10h-9q-71 0 -124 13.5
t-88 45t-52 83t-17 127.5v205q0 76 17 127.5t52 83t88 45t124 13.5h9q78 0 142 -19q20 -6 17 -22q-1 -8 -4 -17.5t-7 -17.5t-8 -13t-8 -4q-33 8 -64 12t-68 4h-9z" />
    <glyph glyph-name="H" unicode="H" horiz-adv-x="682" 
d="M607 16q0 -11 -5.5 -19.5t-18.5 -8.5q-9 0 -20 1.5t-21 3.5t-17 5.5t-7 7.5v330h-354v-320q0 -11 -5.5 -19.5t-18.5 -8.5q-8 0 -19.5 1.5t-21.5 3.5t-17 5.5t-7 7.5v708q0 4 7 7.5t17 5.5t21.5 3.5t19.5 1.5q13 0 18.5 -8.5t5.5 -19.5v-291h354v301q0 4 7 7.5t17 5.5
t21 3.5t20 1.5q13 0 18.5 -8.5t5.5 -19.5v-688z" />
    <glyph glyph-name="I" unicode="I" horiz-adv-x="239" 
d="M164 14q0 -11 -5.5 -18.5t-18.5 -7.5q-8 0 -19.5 1t-21.5 3t-17 5t-7 7v712q0 4 7 7t17 5t21.5 3t19.5 1q13 0 18.5 -7.5t5.5 -18.5v-692v0z" />
    <glyph glyph-name="J" unicode="J" horiz-adv-x="243" 
d="M-55 -162q20 -5 33.5 -7t25.5 -3q24 -2 40 5q23 11 29 48.5t6 111.5v723q0 3 5.5 5.5t13 4t15.5 2t13 1.5q11 3 27 1q10 -2 12.5 -8.5t2.5 -15.5v-741q0 -114 -32.5 -165.5t-105.5 -51.5q-24 0 -48 5t-50 13q-10 3 -14.5 9t-0.5 17q2 7 5 15.5t6.5 15.5t8 11.5t8.5 3.5z
" />
    <glyph glyph-name="K" unicode="K" horiz-adv-x="632" 
d="M164 14q0 -11 -5.5 -18.5t-18.5 -7.5q-8 0 -19.5 1t-21.5 3t-17 5t-7 7v712q0 4 7 7t17 5t21.5 3t19.5 1q13 0 18.5 -7.5t5.5 -18.5v-340l309 348q8 10 26 14t38 4q11 0 24.5 -3.5t13.5 -13.5q0 -11 -20 -34l-262 -295l281 -343q10 -12 16 -21t6 -16q0 -11 -14 -14.5
t-26 -3.5q-21 0 -40 4t-28 14l-257 316l-67 -77v-231v0z" />
    <glyph glyph-name="L" unicode="L" horiz-adv-x="535" 
d="M140 0q-8 0 -19.5 1t-21.5 3t-17 5t-7 7v700q0 4 7 7t17 5t21.5 3t19.5 1q13 0 18.5 -7.5t5.5 -18.5v-629h334q9 0 16 -5t7 -17q0 -8 -1 -17.5t-3 -18t-4.5 -14t-6.5 -5.5h-366z" />
    <glyph glyph-name="M" unicode="M" horiz-adv-x="1022" 
d="M753 575l-198 -568q-3 -8 -8.5 -13.5t-16.5 -5.5q-9 0 -20 1t-20.5 3.5t-16 6t-7.5 8.5l-197 569l-118 -573q-2 -5 -7.5 -8t-13 -4.5t-16 -2t-14.5 -0.5q-15 0 -27 4.5t-10 20.5l4 18t4 19l147 666q1 5 7.5 8t15.5 5t19.5 3t18.5 1q19 0 26 -17l207 -590l206 589q1 5 8 8
t16 5t19.5 3t18.5 1q21 0 24 -17l146 -665q2 -10 4 -19l4 -18q2 -16 -10.5 -20.5t-26.5 -4.5q-6 0 -14.5 0.5t-16 2t-13.5 4.5t-7 8z" />
    <glyph glyph-name="N" unicode="N" horiz-adv-x="745" 
d="M672 14q0 -11 -5.5 -18.5t-18.5 -7.5q-8 0 -18.5 1t-20 3.5t-16.5 5.5t-10 6l-420 561v-549q0 -11 -5.5 -19.5t-18.5 -8.5q-9 0 -20 1.5t-21 3.5t-17 5.5t-7 7.5v701q0 13 16 19t30 6q16 0 27 -6t16 -11l420 -562v554q0 6 5 11t12.5 8t16 4.5t15.5 1.5q15 0 27.5 -5
t12.5 -12v-701v0z" />
    <glyph glyph-name="O" unicode="O" horiz-adv-x="690" 
d="M341 -12q-71 0 -124 13.5t-88 45t-52 83t-17 127.5v205q0 76 17 127.5t52 83t88 45t124 13.5h8q71 0 124 -13.5t88 -45t52 -83t17 -127.5v-205q0 -76 -17 -127.5t-52 -83t-88 -45t-124 -13.5h-8zM155 291q0 -57 4.5 -99.5t23.5 -70.5t56 -42t102 -14h8q65 0 102 14t56 42
t23.5 70.5t4.5 99.5v137q0 57 -4.5 99.5t-23.5 70.5t-56 42t-102 14h-8q-65 0 -102 -14t-56 -42t-23.5 -70.5t-4.5 -99.5v-137z" />
    <glyph glyph-name="P" unicode="P" horiz-adv-x="603" 
d="M75 693q0 11 5.5 18.5t18.5 7.5h217q62 0 108.5 -8.5t77 -32t46 -64.5t15.5 -106t-15.5 -106t-46 -64t-77 -31.5t-108.5 -8.5h-152v-284q0 -11 -5.5 -18.5t-18.5 -7.5q-8 0 -19.5 1t-21.5 3.5t-17 5.5t-7 7v688zM164 642v-267h152q49 0 79 5.5t46 20.5t21 40.5t5 66.5
t-5 67t-21 41t-46 20.5t-79 5.5h-152z" />
    <glyph glyph-name="Q" unicode="Q" horiz-adv-x="690" 
d="M520 -126q6 2 11.5 -2.5t9 -12t6.5 -16t5 -14.5q4 -16 -15 -23q-27 -8 -51.5 -13t-47.5 -5q-72 0 -103 48.5t-34 152.5q-62 4 -107 20.5t-75 48.5t-44.5 81t-14.5 118v205q0 76 17 127.5t52 83t88 45t124 13.5h8q71 0 124 -13.5t88 -45t52 -83t17 -127.5v-205
q0 -69 -15 -118t-45.5 -81t-76.5 -48t-107 -20q0 -33 2.5 -57.5t8.5 -40.5t17.5 -23.5t30.5 -7.5q14 0 30.5 2.5t44.5 10.5zM155 291q0 -57 4.5 -99.5t23.5 -70.5t56 -42t102 -14h8q65 0 102 14t56 42t23.5 70.5t4.5 99.5v137q0 57 -4.5 99.5t-23.5 70.5t-56 42t-102 14h-8
q-65 0 -102 -14t-56 -42t-23.5 -70.5t-4.5 -99.5v-137z" />
    <glyph glyph-name="R" unicode="R" horiz-adv-x="624" 
d="M75 693q0 11 5.5 18.5t18.5 7.5h217q62 0 108.5 -8.5t77 -32t46 -64.5t15.5 -106q0 -51 -9.5 -86t-28.5 -59t-47.5 -38t-66.5 -21l155 -276q11 -18 5 -29t-25 -11q-8 0 -18.5 1.5t-20 5t-18 8.5t-12.5 12l-163 283h-150v-284q0 -11 -5.5 -18.5t-18.5 -7.5q-8 0 -19.5 1
t-21.5 3.5t-17 5.5t-7 7v688zM164 642v-267h152q49 0 79 5.5t46 20.5t21 40.5t5 66.5t-5 67t-21 41t-46 20.5t-79 5.5h-152z" />
    <glyph glyph-name="S" unicode="S" horiz-adv-x="522" 
d="M71 95q41 -14 86 -21.5t90 -7.5q48 0 83 13.5t47 41.5q8 17 6 39q-1 26 -12 48.5t-30 42.5q-33 39 -78 73.5t-86.5 71t-70.5 79t-29 96.5q0 44 20 74.5t52.5 49.5t73.5 27.5t84 8.5q3 0 6 -0.5t7 -0.5q14 0 38 -2.5t47.5 -7.5t40.5 -12t17 -16q0 -11 -4 -20
q-2 -7 -7 -18.5t-10 -15.5q-5 -5 -17 -1q-29 7 -57.5 12t-57.5 5q-26 0 -51.5 -4t-45.5 -13t-32.5 -24.5t-12.5 -38.5q0 -44 41 -89q17 -18 43 -39.5t56 -46t60 -51.5t54 -58t39 -65t15 -71q0 -47 -20.5 -78.5t-55 -50.5t-79 -27.5t-91.5 -8.5q-50 0 -94 9.5t-82 23.5
q-9 4 -13.5 9t-1.5 15q1 5 4.5 14t7.5 17.5t9 14t11 3.5z" />
    <glyph glyph-name="T" unicode="T" horiz-adv-x="558" 
d="M324 14q0 -11 -5.5 -18.5t-18.5 -7.5q-9 0 -20 1t-21 3t-17 5t-7 7v638h-208q-11 0 -17.5 5t-6.5 17q0 8 1 17.5t3 18t5 14t7 5.5h510q10 0 17 -5t7 -17q0 -8 -1 -17.5t-3 -18t-4.5 -14t-6.5 -5.5h-214v-628v0z" />
    <glyph glyph-name="U" unicode="U" horiz-adv-x="710" 
d="M551 714q0 4 7 7.5t17 5.5t21.5 3.5t19.5 1.5q13 0 18.5 -8.5t5.5 -19.5v-447q0 -76 -17 -127.5t-52 -83t-88 -45t-124 -13.5h-8q-71 0 -124 13.5t-88 45t-52 83t-17 127.5v457q0 4 7 7.5t17 5.5t21.5 3.5t19.5 1.5q13 0 18.5 -8.5t5.5 -19.5v-413q0 -57 5.5 -99.5
t25.5 -70.5t58 -42t103 -14h8q65 0 103 14t58 42t25.5 70.5t5.5 99.5v423z" />
    <glyph glyph-name="V" unicode="V" horiz-adv-x="602" 
d="M475 707q2 8 10 13t19 7.5t23 3.5t22 1q11 0 18.5 -5.5t5.5 -16.5l-12 -38l-212 -661q-2 -9 -8.5 -16t-17.5 -7q-10 0 -21.5 1.5t-21.5 3.5t-17.5 5.5t-8.5 8.5l-213 665l-12 38q-2 11 5.5 16.5t18.5 5.5h16t18 -1.5t16.5 -4t10.5 -6.5q7 -9 12.5 -19t8.5 -21l169 -573z
" />
    <glyph glyph-name="W" unicode="W" horiz-adv-x="883" 
d="M474 707q2 8 10 13t19 7.5t23 3.5t22 1t18 -5.5t5 -16.5q-2 -8 -4 -15.5t-4 -15.5l-74 -230l100 -342l172 600q2 8 10 13t19 7.5t23 3.5t22 1q11 0 18.5 -5.5t5.5 -16.5l-10 -35l-214 -664q-2 -9 -8.5 -16t-17.5 -7q-10 0 -21.5 1.5t-21.5 3.5t-17.5 5.5t-8.5 8.5
l-97 303l-95 -299q-2 -9 -8.5 -16t-17.5 -7q-10 0 -21.5 1.5t-21.5 3.5t-17.5 5.5t-8.5 8.5l-215 668q-3 8 -5.5 17.5t-4.5 17.5q-3 11 5 16.5t18 5.5q14 0 34.5 -1.5t27.5 -10.5q13 -16 20 -37l168 -576z" />
    <glyph glyph-name="X" unicode="X" horiz-adv-x="584" 
d="M352 363l193 -338q12 -21 5 -29t-25 -8q-20 0 -39.5 5t-27.5 19l-166 290l-166 -290q-8 -14 -27 -19t-40 -5q-17 0 -24 8t5 29l192 338l-191 332q-13 22 -5.5 29.5t25.5 7.5q20 0 39.5 -5t27.5 -19l164 -284l166 284q8 14 27 19t40 5q17 0 24.5 -7.5t-5.5 -29.5z" />
    <glyph glyph-name="Y" unicode="Y" horiz-adv-x="591" 
d="M340 14q0 -11 -5 -18.5t-18 -7.5q-9 0 -20 1t-21.5 3t-17.5 5t-7 7v285l-213 406q-10 20 -3.5 28.5t23.5 8.5q20 0 40.5 -5t28.5 -19l169 -336l167 336q8 14 28.5 19t41.5 5q17 0 23.5 -8.5t-4.5 -28.5l-212 -405v-276v0z" />
    <glyph glyph-name="Z" unicode="Z" horiz-adv-x="598" 
d="M49 0q-8 0 -12.5 6.5t-4.5 16.5q0 15 3.5 33.5t10.5 25.5l413 560h-366q-4 0 -6.5 5.5t-4.5 14t-3 18t-1 17.5q0 12 6.5 17t16.5 5h439q11 0 18.5 -5t7.5 -19t-4.5 -32.5t-9.5 -24.5l-407 -560h395q9 0 16 -5.5t7 -17.5q0 -8 -1 -17.5t-3 -18t-5 -14t-7 -5.5h-498z" />
    <glyph glyph-name="bracketleft" unicode="[" horiz-adv-x="285" 
d="M80 740q0 13 4 17.5t15 4.5h124q8 0 14.5 -4.5t6.5 -15.5q0 -7 -1 -15.5t-2.5 -16t-4.5 -13t-6 -5.5h-67v-791h61q10 0 15 -13.5t5 -26.5q0 -12 -5 -21t-10 -9h-115q-13 0 -23.5 4t-10.5 13v892z" />
    <glyph glyph-name="backslash" unicode="\" horiz-adv-x="419" 
d="M67 791q8 1 14.5 -2t9.5 -10l308 -790q2 -4 -2 -8.5t-11 -9t-15.5 -8t-15.5 -5.5q-11 -3 -18.5 2t-10.5 14l-308 786q-2 6 3 11t13 9.5t17.5 7.5t15.5 3z" />
    <glyph glyph-name="bracketright" unicode="]" horiz-adv-x="346" 
d="M266 -152q0 -9 -10.5 -13t-23.5 -4h-115q-6 0 -10.5 9t-4.5 21q0 13 5 26.5t15 13.5h60v791h-66q-3 0 -6 5.5t-4.5 13t-2.5 16t-1 15.5q0 11 6 15.5t15 4.5h124q11 0 15 -4.5t4 -17.5v-892z" />
    <glyph glyph-name="asciicircum" unicode="^" horiz-adv-x="624" 
d="M312 584l-177 -224l-56 33l233 289l233 -289l-56 -33z" />
    <glyph glyph-name="underscore" unicode="_" horiz-adv-x="544" 
d="M44 -72h-11t-9 2q-5 10 -5 23q0 17 3 31t6 22h468h10t10 -2q5 -10 5 -24q0 -17 -3 -30.5t-6 -21.5h-468z" />
    <glyph glyph-name="grave" unicode="`" horiz-adv-x="257" 
d="M141 696q3 -5 5.5 -9.5t3.5 -7.5q2 -3 -2.5 -6.5t-11.5 -6t-13.5 -4t-8.5 -1.5q-3 0 -9 4t-10 8l-126 114q-3 4 -5.5 7t-2.5 6q0 11 17 16q19 4 36 6.5t22 2.5q9 0 15 -6z" />
    <glyph glyph-name="a" unicode="a" horiz-adv-x="496" 
d="M431 53q0 -14 -17 -24t-43 -17.5t-57 -12t-60 -7t-51.5 -3.5t-31.5 -1q-38 0 -62.5 11t-38.5 31t-19.5 49t-5.5 65q0 31 3.5 59.5t16.5 50.5t38 35.5t67 13.5q49 0 94 -6.5t83 -21.5q0 54 -5 91.5t-18 60t-35 32.5t-58 10q-14 0 -28 -1.5t-37 -5.5l-42 -7q-4 0 -8 4.5
t-7 12t-5.5 16t-3.5 15.5q-2 11 3 16.5t14 7.5l30 6q20 3 42.5 5t51.5 2q96 0 143 -52t47 -144v-291zM186 59q59 0 100 7t61 14v121q-12 10 -52 20t-100 10q-35 0 -49.5 -19t-15.5 -60q0 -41 10.5 -67t45.5 -26z" />
    <glyph glyph-name="b" unicode="b" horiz-adv-x="521" 
d="M335 -12q-21 0 -50.5 1.5t-61.5 6t-64.5 12.5t-59.5 21q-24 11 -24 40v675q0 4 6 7t15 5t19.5 3t19.5 1q13 0 18.5 -7.5t5.5 -18.5v-231q40 23 84.5 30t91.5 7t72.5 -15.5t37 -42t13.5 -61t2 -72.5v-168q0 -38 -2 -73t-14 -61.5t-37.5 -42.5t-71.5 -16zM159 86
q5 -3 19.5 -7.5t36 -9t48.5 -7.5t58 -3q21 0 32 11.5t16 31.5t6 46.5t1 57.5v153q0 24 -1.5 44t-7 35t-16.5 23t-30 8q-34 0 -63.5 -5t-51.5 -11.5t-34.5 -13.5t-12.5 -11v-342z" />
    <glyph glyph-name="c" unicode="c" horiz-adv-x="432" 
d="M372 74q4 1 7.5 -4t6.5 -12.5t5.5 -16t4.5 -15.5q2 -11 -3 -16.5t-15 -7.5q-54 -15 -128 -15q-101 0 -145.5 52.5t-44.5 152.5v143q0 100 44.5 152.5t145.5 52.5q39 0 68.5 -3.5t59.5 -11.5q21 -3 18 -23q-2 -7 -4.5 -16t-5.5 -16.5t-6.5 -12t-7.5 -4.5q-29 5 -48 8.5
t-31.5 5t-22 2t-20.5 0.5q-33 0 -53.5 -12t-32.5 -33.5t-16 -51.5t-4 -65v-87q0 -35 4 -64.5t16 -51t32.5 -33.5t53.5 -12q11 0 20 0.5t22 2t31.5 4.5t48.5 8z" />
    <glyph glyph-name="d" unicode="d" horiz-adv-x="520" 
d="M445 71q0 -19 -7.5 -28.5t-23.5 -16.5q-26 -12 -57 -19.5t-62.5 -11.5t-60 -5.5t-48.5 -1.5q-47 0 -72 16t-37 42.5t-14 61.5t-2 73v168q0 38 2 72.5t13.5 61t36.5 42t72 15.5q48 0 92 -8t85 -31v234q0 13 16 19t30 6q16 0 26.5 -5t10.5 -12v-672zM362 428q0 4 -13 11
t-35 13.5t-51.5 11.5t-63.5 5q-18 0 -29 -8t-16.5 -23t-7 -35t-1.5 -44v-153q0 -31 1 -57.5t6 -46.5t16 -31.5t32 -11.5q31 0 58 3t48.5 7.5t36 9t19.5 7.5v342z" />
    <glyph glyph-name="e" unicode="e" horiz-adv-x="494" 
d="M400 5q-26 -7 -60.5 -12t-77.5 -5q-100 0 -151 52.5t-51 152.5v67q0 92 11.5 147.5t37.5 85t67.5 38.5t101.5 9q54 0 85.5 -13t48 -35t21.5 -51t5 -60v-60q0 -14 -10 -27.5t-41.5 -24t-89.5 -17t-153 -6.5q0 -39 4 -73.5t16.5 -59.5t36 -39.5t61.5 -14.5q15 0 29 1
t29 3.5l33 5.5t41 7q4 1 8 -3.5t7 -12t5 -16t4 -15.5q2 -11 -3 -16.5t-15 -7.5zM354 387q0 38 -19.5 60t-58.5 22q-36 0 -61 -6.5t-40.5 -24t-22.5 -48.5t-8 -79q89 2 144 9.5t66 26.5v40z" />
    <glyph glyph-name="f" unicode="f" horiz-adv-x="371" 
d="M328 663q-26 8 -43 11t-28 4q-13 0 -22 -3q-25 -8 -32.5 -37.5t-7.5 -83.5v-26h108q7 0 12.5 -2.5t6.5 -10.5q2 -6 1.5 -11t-1.5 -10q-1 -4 -1.5 -10.5t-2 -12.5t-3.5 -10.5t-5 -4.5h-117v-442q0 -26 -24 -26q-8 0 -18 0.5t-19.5 2.5t-16 5t-6.5 8v452h-77q-8 0 -13 2.5
t-7 10.5q-2 12 1 22q0 4 1 10l2 12t3 10.5t5 4.5h85v25q2 105 34 151t101 46q7 0 11 -1q9 0 27 -2t35.5 -6t30.5 -10t13 -14q-3 -20 -11 -20q-1 -2 -1 -3.5t-2 -3.5q-2 -3 -4 -7.5l-4 -9t-5 -8t-6 -2.5z" />
    <glyph glyph-name="g" unicode="g" horiz-adv-x="520" 
d="M100 -141q45 -17 89.5 -28.5t96.5 -13.5q35 -2 51 14t21.5 43.5t4.5 63.5t-1 75q-17 -9 -41 -14t-49.5 -8t-48.5 -3.5t-37 -0.5q-47 0 -72.5 16t-37.5 42.5t-13.5 61.5t-1.5 73v168q0 38 1.5 72.5t13 61t37 42t72.5 15.5q54 0 101.5 -7t83 -19t55.5 -28.5t20 -36.5v-486
q0 -57 -3.5 -98.5t-17 -67.5t-41.5 -38.5t-76 -12.5q-46 0 -91.5 7t-92.5 23q-8 2 -17.5 5t-18.5 7t-15 8.5t-6 10.5q0 7 2.5 17t7 18.5t11 14t13.5 3.5zM362 434q0 6 -11 12.5t-30.5 11t-45.5 7.5t-56 3t-52 -12q-15 -11 -18.5 -37t-3.5 -61v-153q0 -50 3 -87.5t24 -50.5
q16 -9 42 -9q57 0 99 9.5t49 20.5v346z" />
    <glyph glyph-name="h" unicode="h" horiz-adv-x="534" 
d="M159 503q35 20 82.5 28.5t94.5 8.5q52 0 78.5 -19.5t37.5 -51.5t11.5 -72.5t0.5 -83.5v-299q0 -11 -5.5 -18.5t-18.5 -7.5q-9 0 -19.5 1t-19.5 3t-15 5t-6 7v317q0 30 -1 57t-6.5 47.5t-17 32t-33.5 11.5q-32 0 -60.5 -4.5t-51 -10.5t-36 -12.5t-15.5 -11.5v-416
q0 -11 -5.5 -18.5t-18.5 -7.5q-9 0 -19.5 1t-19.5 3t-15 5t-6 7v740q0 4 6.5 7t15.5 5t19 3t19 1q13 0 18.5 -7.5t5.5 -18.5v-231z" />
    <glyph glyph-name="i" unicode="i" horiz-adv-x="279" 
d="M250 75q4 1 7.5 -3.5t7 -12t6.5 -16t5 -15.5q2 -9 -2 -14t-14 -9q-46 -17 -88 -17q-22 0 -40.5 6.5t-32 22t-21.5 40t-8 60.5v407q0 4 6 7.5t15 5.5t19.5 3t19.5 1q13 0 18 -7.5t5 -18.5v-363q0 -56 15 -75.5t59 -6.5q3 1 7.5 1.5t15.5 3.5zM70 735q0 4 6 7t15 5t19.5 3
t19.5 1q13 0 18 -7.5t5 -18.5v-73q0 -11 -5 -18.5t-18 -7.5q-9 0 -19.5 1t-19.5 3t-15 5t-6 7v93z" />
    <glyph glyph-name="j" unicode="j" horiz-adv-x="224" 
d="M-55 -103q15 -5 33.5 -8.5t30.5 -3.5q22 0 34 13.5t18 36t7.5 51.5t1.5 60v478q0 4 6 7.5t15 5.5t19.5 3t19.5 1q13 0 18 -7.5t5 -18.5v-496q0 -108 -34.5 -158.5t-101.5 -50.5q-15 0 -32.5 2.5t-49.5 13.5q-20 6 -16 24q2 7 5 15.5t6.5 15.5t7 12t7.5 4zM70 735q0 4 6 7
t15 5t19.5 3t19.5 1q13 0 18 -7.5t5 -18.5v-73q0 -11 -5 -18.5t-18 -7.5q-9 0 -19.5 1t-19.5 3t-15 5t-6 7v93z" />
    <glyph glyph-name="k" unicode="k" horiz-adv-x="507" 
d="M353 524q8 8 26.5 12.5t35.5 4.5t25 -5t8 -13q0 -11 -14 -25l-207 -220l234 -247q9 -9 11.5 -14t2.5 -11q0 -8 -7.5 -13t-24.5 -5q-15 0 -36 5t-29 14l-219 234v-227q0 -11 -5.5 -18.5t-18.5 -7.5q-9 0 -19.5 1t-19.5 3t-15 5t-6 7v740q0 4 6.5 7t15.5 5t19 3t19 1
q13 0 18.5 -7.5t5.5 -18.5v-419z" />
    <glyph glyph-name="l" unicode="l" horiz-adv-x="283" 
d="M74 743q0 4 6 7t15 5t19.5 3t19.5 1q10 0 15 -4.5t7 -12t1.5 -16t-0.5 -16.5v-558q0 -35 5.5 -57t20.5 -28q7 -3 13 -2.5t13.5 2t18 4t26.5 4.5q4 1 7.5 -3.5t7 -12t6.5 -16t5 -15.5q2 -9 -2 -14t-14 -9q-46 -17 -88 -17q-22 0 -40.5 6.5t-32 22t-21.5 40t-8 60.5v626z
" />
    <glyph glyph-name="m" unicode="m" horiz-adv-x="814" 
d="M366 365q0 45 -12 74.5t-47 29.5q-34 0 -62 -4t-48.5 -10t-31.5 -13t-11 -13v-415q0 -11 -5.5 -18.5t-18.5 -7.5q-8 0 -18.5 1t-19.5 3t-15 5t-6 7v445q0 14 18 30t50.5 29.5t78.5 22.5t102 9q32 0 56.5 -12t38.5 -29q37 18 86.5 29.5t113.5 11.5q46 0 72 -15t38.5 -40.5
t15 -58.5t2.5 -70v-342q0 -11 -5 -18.5t-18 -7.5q-9 0 -19.5 1t-19.5 3t-15 5t-6 7v326q0 29 -1.5 54.5t-7 44t-17 29.5t-32.5 11q-34 0 -62 -4t-48.5 -10t-31.5 -13t-11 -13v-415q0 -11 -5.5 -18.5t-18.5 -7.5q-8 0 -18.5 1t-19.5 3t-15 5t-6 7v361v0z" />
    <glyph glyph-name="n" unicode="n" horiz-adv-x="529" 
d="M375 330q0 29 -1.5 54.5t-7 44t-17.5 29.5t-33 11q-34 0 -63.5 -4t-51.5 -10t-35 -13t-13 -13v-415q0 -11 -5 -18.5t-18 -7.5q-9 0 -19.5 1t-19.5 3t-15.5 5t-6.5 7v445q0 14 20 30t55 29.5t82.5 22.5t103.5 9q46 0 72 -15t38.5 -40.5t15.5 -58.5t3 -70v-342
q0 -11 -5.5 -18.5t-18.5 -7.5q-9 0 -19.5 1t-19.5 3t-15 5t-6 7v326v0z" />
    <glyph glyph-name="o" unicode="o" horiz-adv-x="511" 
d="M60 345q0 96 47 145.5t149 49.5q101 0 148 -49.5t47 -145.5v-162q0 -96 -47 -145.5t-148 -49.5q-102 0 -149 49.5t-47 145.5v162zM144 210q0 -35 3.5 -62.5t15.5 -47.5t34 -30.5t59 -10.5t59 10.5t33.5 30.5t15 47.5t3.5 62.5v108q0 34 -3.5 62t-15 48t-33.5 30.5
t-59 10.5t-59 -10.5t-34 -30.5t-15.5 -48t-3.5 -62v-108z" />
    <glyph glyph-name="p" unicode="p" horiz-adv-x="521" 
d="M75 448q0 16 20.5 32t55.5 29.5t82.5 22t101.5 8.5q52 0 78.5 -20t36.5 -52.5t10 -73.5v-84v-129q0 -38 -1.5 -73t-13 -61.5t-37 -42.5t-73.5 -16q-29 0 -78 2.5t-98 16.5v-242q0 -11 -5.5 -18.5t-18.5 -7.5q-9 0 -19.5 1t-19.5 3t-15 5t-6 8v692zM159 89
q4 -6 17.5 -11.5t34.5 -9.5t47 -6.5t56 -2.5q21 0 35 9q21 13 24 50.5t3 87.5v142q0 38 -3 68t-20 41q-10 6 -18.5 9t-21.5 3q-32 0 -60 -4t-49 -10.5t-33 -13.5t-12 -13v-339z" />
    <glyph glyph-name="q" unicode="q" horiz-adv-x="521" 
d="M363 10q-53 -17 -100.5 -20t-76.5 -3q-47 0 -72 15.5t-37 41t-14 59.5t-2 72v201q0 33 3 63t15.5 52t37.5 35t68 13q54 0 102 -8t83 -20.5t55.5 -29t20.5 -33.5v-683q0 -11 -5.5 -18.5t-17.5 -7.5q-9 0 -19.5 1t-19.5 3t-15 5t-6 8v254zM362 429q0 6 -13 13t-35 13
t-51.5 9.5t-63.5 3.5q-18 0 -29 -8t-16.5 -23t-7 -35t-1.5 -44v-165q0 -29 1 -53.5t6 -42.5t16.5 -28.5t31.5 -10.5q62 0 107 9.5t55 20.5v341z" />
    <glyph glyph-name="r" unicode="r" horiz-adv-x="383" 
d="M331 463q-11 2 -25 3.5t-28 1.5q-36 0 -71.5 -9.5t-53.5 -32.5v-412q0 -11 -5 -18.5t-18 -7.5q-9 0 -19.5 1t-19.5 3t-15 5t-6 7v445q6 24 25.5 41t47.5 28t61.5 16.5t66.5 5.5q12 0 26 -1t26 -2.5t21.5 -4.5t12.5 -7q4 -11 1 -20t-6 -14q-2 -3 -4 -8t-5 -9.5t-6 -8
t-6 -2.5z" />
    <glyph glyph-name="s" unicode="s" horiz-adv-x="443" 
d="M60 87q32 -10 66.5 -17.5t71.5 -7.5q22 0 43.5 2.5t38.5 9t27 17.5t10 29q0 17 -13.5 34.5t-33 34.5t-41.5 32t-39 27q-23 14 -46.5 29.5t-43 35t-31.5 43t-12 54.5q0 41 18.5 67t47 40.5t64 19.5t70.5 5q29 0 58 -4.5t56 -11.5q21 -5 18 -23q-2 -7 -4.5 -16t-5.5 -16.5
t-6.5 -12.5t-7.5 -4q-38 8 -64 11t-52 3q-19 0 -38 -2.5t-34 -8.5t-24 -17t-9 -28q0 -14 8 -26t20.5 -24t29 -23l34.5 -23q35 -23 66 -45.5t54 -46t36.5 -47.5t13.5 -51q0 -38 -17 -64t-45 -42.5t-64 -24t-74 -7.5q-42 0 -82.5 8t-75.5 20q-9 4 -14 9.5t-2 14.5q2 7 5 15.5
t6.5 16t8 12t8.5 3.5z" />
    <glyph glyph-name="t" unicode="t" horiz-adv-x="340" 
d="M301 5q-20 -8 -39 -11.5t-36 -4.5h-16.5t-15.5 1q-24 4 -41 14.5t-27.5 31t-15.5 50.5t-5 73v297h-70q-7 0 -12.5 2.5t-6.5 10.5q-2 5 -1.5 11t1.5 11q0 4 1 10.5t2 12.5t3.5 10t5.5 4h77v138q0 4 4.5 6t11.5 3.5t14 2.5t12 2q6 1 12 1.5t13 -0.5q10 -2 13 -8.5t3 -15.5
v-129h104q8 0 13.5 -2.5t6.5 -10.5q2 -13 -1 -21q0 -4 -1 -10.5t-2 -12.5t-3 -10.5t-5 -4.5h-112v-306q0 -30 3.5 -50.5t14.5 -28.5q9 -8 27 -7.5t49 11.5q2 0 5 1t5 1q5 0 10 -7q8 -11 11 -26.5t4 -22.5q0 -11 -16 -16z" />
    <glyph glyph-name="u" unicode="u" horiz-adv-x="529" 
d="M69 515q0 13 16 19t31 6t26 -5t11 -12v-325q0 -29 1.5 -54.5t7 -44.5t17.5 -29.5t33 -10.5q34 0 63.5 4t51.5 10t35 13t13 13v416q0 13 16 19t30 6q15 0 26.5 -5t11.5 -12v-444q0 -14 -20 -30t-55 -29.5t-82.5 -22.5t-103.5 -9q-46 0 -72 15t-38.5 40.5t-15.5 58.5t-3 70
v343z" />
    <glyph glyph-name="v" unicode="v" horiz-adv-x="419" 
d="M301 516q2 8 8.5 13t16 7.5t20.5 3.5t21 1q12 0 18 -6t3 -20q0 -2 -0.5 -5t-0.5 -5l-139 -498q-2 -8 -7 -13.5t-14 -5.5q-8 0 -17 1t-17 3t-14 5t-7 7l-139 501q-2 6 -2 10q-3 14 3.5 20t18.5 6q10 0 20.5 -1t20 -3.5t16 -7.5t8.5 -13l93 -408z" />
    <glyph glyph-name="w" unicode="w" horiz-adv-x="690" 
d="M579 524q1 5 8 8t15.5 5t18 3t16.5 1q12 0 17.5 -7.5t3.5 -18.5q0 -2 -0.5 -5t-0.5 -5l-139 -498q-2 -8 -7 -13.5t-14 -5.5q-8 0 -17 1t-17 3t-14 5t-7 7l-98 363l-96 -360q-2 -8 -7.5 -13.5t-13.5 -5.5q-15 0 -34 4t-22 12l-139 501q0 2 -0.5 5t-0.5 5q-2 11 3 18.5
t18 7.5q7 0 16.5 -0.5t18 -2.5t14.5 -5t8 -9l102 -409l97 412q2 8 14 11t23 3q14 0 25 -5t14 -18l97 -403z" />
    <glyph glyph-name="x" unicode="x" horiz-adv-x="472" 
d="M430 24q6 -11 2 -23.5t-21 -12.5q-20 0 -40 5t-28 19l-103 197l-105 -197q-8 -14 -27.5 -19t-40.5 -5q-17 0 -21.5 12.5t2.5 23.5l138 242l-131 239q-6 11 -1.5 23.5t20.5 12.5q21 0 40.5 -5.5t26.5 -19.5l99 -191l97 191q8 14 27.5 19.5t39.5 5.5q17 0 21.5 -12
t-2.5 -24l-131 -239z" />
    <glyph glyph-name="y" unicode="y" horiz-adv-x="529" 
d="M317 -184q21 0 33 9.5t18 29t7 49t1 70.5v48q-36 -20 -83 -27.5t-95 -7.5q-47 0 -73 15.5t-38 41.5t-14.5 60t-2.5 72v347q0 8 11 13t26 5q14 0 30.5 -6t16.5 -17v-331q0 -27 1.5 -50.5t7.5 -41t18 -27t32 -9.5q32 0 61 3.5t51 8.5t35.5 11.5t15.5 12.5v428q0 8 10.5 13
t26.5 5q14 0 30 -6.5t16 -18.5v-551q0 -57 -3.5 -99t-18 -69t-43.5 -40t-79 -13q-57 0 -112 11t-110 35q-10 5 -14 10t-1 14q3 14 10.5 30t15.5 16q4 0 12 -2q48 -18 96 -30t105 -12z" />
    <glyph glyph-name="z" unicode="z" horiz-adv-x="482" 
d="M81 0q-14 0 -26.5 1.5t-20.5 7.5q-8 10 -5 25q1 6 5.5 15.5t9.5 20.5t11 21.5t12 18.5l265 346h-263q-4 0 -6.5 5.5t-4 13t-2.5 16.5t-1 16q0 11 6.5 15.5t15.5 4.5h340q8 0 13 -2t7 -10q1 -11 -2 -24q-3 -16 -15 -39.5t-23 -37.5l-260 -342h298q9 0 15.5 -5t6.5 -16
q0 -7 -1 -16t-2.5 -16.5t-4.5 -13t-6 -5.5h-362v0z" />
    <glyph glyph-name="braceleft" unicode="{" horiz-adv-x="373" 
d="M311 766q7 0 13 -3t8 -13q2 -6 2 -17t-2 -21q-1 -12 -8 -15q-18 -7 -32.5 -11t-24.5 -10.5t-15.5 -18.5t-5.5 -36q0 -32 3 -66t3 -74q0 -25 -3 -53t-10.5 -53.5t-22 -46.5t-36.5 -33q22 -12 36.5 -33t22 -46.5t10.5 -53t3 -52.5q0 -40 -3 -74t-3 -66q0 -23 8.5 -42.5
t28.5 -27.5q7 -2 15.5 -2.5t15.5 -2t12 -5t6 -11.5q2 -11 2 -21.5t-2 -16.5q-2 -11 -8 -13.5t-13 -2.5h-18q-37 0 -62 12.5t-41 33.5t-23.5 49t-8.5 58q0 8 0.5 16t0.5 16q1 30 3 58.5t2 54.5q0 21 -2.5 43t-10.5 40.5t-23 33t-40 22.5q-14 3 -17.5 16.5t-3.5 29.5
q0 10 6 14t13 6q26 7 41.5 22t23.5 34t10.5 40.5t2.5 43.5q0 26 -2 54.5t-3 58.5q0 8 -0.5 15.5t-0.5 15.5q1 29 8 56.5t22 49t38.5 34.5t57.5 14h27z" />
    <glyph glyph-name="bar" unicode="|" horiz-adv-x="273" 
d="M98 738q0 4 6 7t14.5 4.5t18 2.5t17.5 1q11 0 16 -6.5t5 -16.5v-919q0 -10 -5 -17t-16 -7q-8 0 -17.5 1t-18 3t-14.5 5t-6 7v935z" />
    <glyph glyph-name="braceright" unicode="}" horiz-adv-x="361" 
d="M79 766q37 0 62.5 -12.5t41 -33.5t23 -49t8.5 -59v-31q-2 -30 -4 -58.5t-2 -54.5q0 -22 2.5 -44t10.5 -40.5t23.5 -33.5t41.5 -22q7 -2 13 -6t6 -14q0 -16 -3.5 -29.5t-16.5 -16.5q-25 -8 -40 -22.5t-23.5 -33t-11 -40.5t-2.5 -43q0 -26 2 -54.5t4 -58.5v-32
q-1 -30 -8.5 -58t-23 -49t-41 -33.5t-62.5 -12.5h-18q-8 0 -13.5 3t-7.5 13q-1 6 -1.5 16.5t1.5 21.5q2 13 9 14q18 7 32.5 11t24 10.5t15 19t5.5 36.5q0 32 -2.5 66t-2.5 74q0 25 2.5 52.5t10.5 53t22 46.5t37 33q-23 12 -37 33t-22 46.5t-10.5 53.5t-2.5 53q0 40 2.5 74
t2.5 66q0 22 -8.5 42t-28.5 28q-8 2 -16 2.5t-15 2t-12 5t-6 11.5q-2 10 -1.5 21t1.5 17t4.5 11t8.5 5h26z" />
    <glyph glyph-name="asciitilde" unicode="~" horiz-adv-x="640" 
d="M412 172q-27 0 -50 9t-45.5 20t-44.5 20t-47 9q-23 0 -39.5 -10.5t-33.5 -38.5q-10 -3 -19 0q-8 3 -23 8.5t-21 12.5q12 32 28.5 54.5t36 36.5t40 20.5t38.5 6.5q26 0 49 -9t45.5 -20t45 -20t47.5 -9q23 0 40 10.5t34 38.5q9 3 18 0q8 -3 22.5 -8t20.5 -13
q-11 -33 -27 -55.5t-35.5 -36.5t-40 -20t-39.5 -6z" />
    <glyph glyph-name="exclamdown" unicode="&#xa1;" horiz-adv-x="342" 
d="M140 532q3 3 9.5 4.5t14.5 2t15.5 0t12.5 -1.5q8 -2 14 -5.5t6 -8.5v-91q0 -5 -6 -9t-14 -6t-21 -2t-24 2q-16 2 -17 12.5t-1 21.5v52q0 11 1.5 18.5t9.5 10.5zM129 313q0 23 33 25q9 0 17 -0.5t14 -1.5q19 -3 19 -15v-511q0 -12 -19 -15q-8 -2 -21.5 -2t-24.5 2
q-8 1 -12 5t-5.5 9.5t-1 12t0.5 12.5v479z" />
    <glyph glyph-name="cent" unicode="&#xa2;" horiz-adv-x="429" 
d="M276 -133q-8 0 -17.5 1t-18 2.5t-14.5 4.5t-6 7v107q-85 8 -122.5 59.5t-37.5 143.5v143q0 92 37.5 143.5t122.5 59.5v104q0 7 15.5 9.5t24.5 3.5q5 1 11 1.5t13 -0.5q14 -3 14 -22v-96q16 -1 33 -3t30.5 -5t23 -8t10.5 -12q0 -14 -4 -22q-3 -8 -8 -22t-11 -13
q-29 6 -54 10t-48 4q-11 1 -20.5 0.5t-20.5 -2.5q-26 -3 -42.5 -16.5t-26 -34t-13 -48t-3.5 -59.5v-87q0 -32 3.5 -61t15.5 -51.5t34.5 -35.5t60.5 -13q10 0 20.5 1.5t23 3.5t29.5 5t41 5q7 1 12 -13t8 -22q3 -11 3 -23q-1 -7 -10 -11.5t-22.5 -7.5t-30.5 -4.5t-34 -2.5
v-100q0 -10 -5.5 -16.5t-16.5 -6.5z" />
    <glyph glyph-name="sterling" unicode="&#xa3;" horiz-adv-x="588" 
d="M525 643q-24 5 -49.5 9t-53.5 4q-26 0 -50 -5t-42 -18.5t-28.5 -37t-10.5 -60.5v-14q0 -23 2 -47.5t4 -48.5h73q11 0 19.5 -5t8.5 -17q0 -8 -1 -18t-3.5 -18.5t-6 -14t-8.5 -5.5h-70q3 -23 5.5 -47.5t2.5 -50.5q0 -17 -4.5 -40t-15 -47t-28 -46.5t-42.5 -40.5h311
q9 0 15.5 -5t6.5 -16q0 -8 -1 -17.5t-2.5 -17.5t-4.5 -13.5t-7 -5.5h-428q-9 0 -15 5t-6 17q0 15 3.5 28.5t8.5 17.5q59 38 86 83t27 108q0 17 -2.5 39.5t-5.5 48.5h-71q-11 0 -19 5t-8 17q0 8 1 18t3 18.5t5.5 14t8.5 5.5h71q-3 26 -5 50.5t-2 45.5v14q0 55 16.5 92.5
t45.5 60.5t67.5 33t83.5 10q30 0 61.5 -5t62.5 -13q8 -2 13.5 -6t3.5 -13q-1 -7 -3.5 -15.5t-6 -16.5t-8 -13.5t-8.5 -5.5z" />
    <glyph glyph-name="currency" unicode="&#xa4;" horiz-adv-x="620" 
d="M490 147q-32 -38 -79 -60.5t-102 -22.5t-102 22t-80 60l-60 -35q-11 -6 -23.5 -1.5t-12.5 20.5q0 21 5 41t19 28l27 13q-8 21 -13 43.5t-5 46.5t5 47t13 44l-27 14q-14 8 -19 27.5t-5 39.5q0 17 12 21.5t24 -2.5l61 -35q32 38 79 60.5t102 22.5q54 0 101.5 -23t79.5 -61
l61 36q11 7 23.5 2.5t12.5 -21.5q0 -20 -5 -39.5t-19 -27.5l-28 -15q18 -41 18 -90t-18 -89l28 -14q14 -8 19 -28t5 -41q0 -16 -12 -21t-24 2zM135 302q0 -35 13.5 -65.5t37.5 -53.5t55.5 -36t67.5 -13t67.5 13t55 36t37 53.5t13.5 65.5t-13.5 65.5t-37 53.5t-55 36
t-67.5 13t-67.5 -13t-55.5 -36t-37.5 -53.5t-13.5 -65.5z" />
    <glyph glyph-name="yen" unicode="&#xa5;" horiz-adv-x="591" 
d="M340 14q0 -11 -5 -18.5t-18 -7.5q-9 0 -20 1t-21.5 3t-17.5 5t-7 7v115h-160q-11 0 -18.5 5.5t-7.5 17.5q0 9 1 19t3 19t5 15t8 6h169v59h-160q-11 0 -18.5 5t-7.5 18q0 9 1 19t3 19t5 15t8 6h141l-185 353q-8 14 -2.5 25.5t22.5 11.5q20 0 40.5 -5t28.5 -19l169 -336
l167 336q8 14 28.5 19t41.5 5q17 0 22 -11.5t-3 -25.5l-184 -353h133q11 0 18.5 -5.5t7.5 -18.5q0 -8 -1 -18t-3.5 -19t-5.5 -15t-7 -6h-170v-59h161q11 0 18.5 -5t7.5 -19q0 -8 -1 -18t-3.5 -19t-5.5 -15t-7 -6h-170v-105v0z" />
    <glyph glyph-name="brokenbar" unicode="&#xa6;" horiz-adv-x="273" 
d="M98 746q0 4 6 7t14.5 4.5t18 2.5t17.5 1q11 0 16 -6.5t5 -16.5v-342q0 -10 -5 -17t-16 -7q-8 0 -17.5 1t-18 3t-14.5 5t-6 7v358zM98 264q0 4 6 7t14.5 5t18 3t17.5 1q11 0 16 -7t5 -17v-342q0 -10 -5 -16.5t-16 -6.5q-8 0 -17.5 1t-18 2.5t-14.5 4.5t-6 7v358z" />
    <glyph glyph-name="section" unicode="&#xa7;" horiz-adv-x="446" 
d="M50 17q24 -8 55 -14.5t63 -8.5q12 -1 24 -0.5t24 1.5q36 4 60.5 16t24.5 38q0 16 -12.5 33.5t-31.5 34.5t-41.5 32.5t-42.5 28.5q-23 15 -46.5 30.5t-43 35t-31.5 43t-12 54.5q0 50 27 77.5t67 39.5q-15 12 -29.5 24.5t-25.5 27.5t-17.5 32.5t-6.5 39.5q0 41 18.5 67
t47 40.5t64 19.5t70.5 5q15 0 37.5 -2t43 -5.5t35.5 -9.5t15 -14q0 -14 -4 -23q-2 -4 -4 -10t-4 -11.5t-5 -9.5t-6 -3q-30 3 -59 8.5t-57 5.5q-20 0 -39 -2.5t-33.5 -9t-23.5 -17.5t-9 -27q0 -26 25.5 -48t66.5 -48q35 -23 66 -45.5t54 -46t36.5 -47.5t13.5 -51
q0 -48 -25.5 -77t-65.5 -43q35 -29 55.5 -59t20.5 -62q0 -38 -17 -64.5t-45 -43t-64 -23.5t-74 -7q-42 0 -82.5 8t-75.5 20q-17 5 -17 16q2 11 4.5 18.5t7.5 9.5q2 3 4.5 7.5t6 9t7 7.5t6.5 2zM127 343q0 -18 12.5 -35.5t31 -32t39 -26t36.5 -17.5q28 2 49 15.5t21 43.5
q0 16 -10 32t-26 30.5t-35 27t-38 21.5q-30 -2 -55 -14.5t-25 -44.5z" />
    <glyph glyph-name="dieresis" unicode="&#xa8;" horiz-adv-x="248" 
d="M175 777q0 4 6 7t15 5t19.5 3t19.5 1q13 0 18 -7.5t5 -18.5v-73q0 -11 -5 -18.5t-18 -7.5q-9 0 -19.5 1t-19.5 3t-15 5t-6 7v93zM-10 777q0 4 6 7t15 5t19.5 3t19.5 1q13 0 18 -7.5t5 -18.5v-73q0 -11 -5 -18.5t-18 -7.5q-9 0 -19.5 1t-19.5 3t-15 5t-6 7v93z" />
    <glyph glyph-name="copyright" unicode="&#xa9;" horiz-adv-x="845" 
d="M422 -14q-80 0 -148.5 31t-118.5 83t-78 118.5t-28 138.5q0 76 30 143.5t81 118t119 79.5t144 29q81 0 149.5 -30.5t118 -82.5t77.5 -121t28 -147q0 -84 -32.5 -150.5t-85.5 -113t-120 -71.5t-136 -25zM422 31q60 0 118.5 22t104 63t74 99.5t28.5 132.5q0 69 -24.5 130
t-67.5 106.5t-102.5 72t-129.5 26.5q-67 0 -126 -25.5t-103 -70t-69.5 -104t-25.5 -126.5q0 -63 24.5 -122t67.5 -104t102 -72.5t129 -27.5zM534 164q5 0 10.5 -11.5t7.5 -22.5q0 -7 -7 -9q-6 -5 -17.5 -8.5t-25.5 -5.5t-28.5 -3t-26.5 -1h-6q-47 0 -81.5 9t-57.5 29.5
t-34.5 54.5t-11.5 84v136q0 50 11.5 84t34.5 55t57.5 30t81.5 9h6q12 0 26.5 -1t28.5 -3t25.5 -5.5t17.5 -8.5q7 -4 7 -9q-2 -11 -7.5 -23t-10.5 -12q-22 5 -42.5 8t-44.5 3h-6q-42 0 -66.5 -9t-37 -27.5t-15.5 -46.5t-3 -66v-91q0 -38 3 -66.5t15.5 -47t37 -27.5t66.5 -9h6
q24 0 44.5 3t42.5 8z" />
    <glyph glyph-name="ordfeminine" unicode="&#xaa;" horiz-adv-x="507" 
d="M331 364q0 -10 -12 -17t-31 -12.5t-41.5 -9t-43.5 -5t-37.5 -2.5t-22.5 -1q-28 0 -45.5 8t-27.5 22.5t-14 35.5t-4 47q0 22 2.5 43t11.5 37.5t27 26t49 9.5q35 0 68 -5t60 -16q0 39 -3.5 66t-13 43.5t-25.5 24t-42 7.5q-10 0 -20 -1.5t-27 -3.5l-30 -5q-6 -1 -11 11.5
t-7 22.5q-3 15 13 18l21 4q14 2 31 3.5t37 1.5q69 0 103.5 -37.5t34.5 -104.5v-211zM154 369q42 0 72 5t44 10v88q-8 7 -37 14t-73 7q-26 0 -36 -14t-11 -43q0 -30 7.5 -48.5t33.5 -18.5z" />
    <glyph glyph-name="guillemotleft" unicode="&#xab;" horiz-adv-x="489" 
d="M229 289l159 195q6 8 10 11t11 3q2 0 7 -3.5t10.5 -9t9.5 -11t4 -8.5q0 -4 -1 -8.5t-6 -10.5l-119 -158l119 -159q5 -5 6 -9.5t1 -8.5q0 -3 -4 -9t-9.5 -11t-10.5 -9t-7 -4q-7 0 -11 3.5t-10 10.5zM37 289l159 195q6 8 10 11t10 3q2 0 7.5 -3.5t11 -9t9.5 -11t4 -8.5
q0 -8 -7 -19l-119 -158l119 -159q7 -10 7 -18q0 -3 -4 -9t-9.5 -11t-11 -9t-7.5 -4q-6 0 -10 3.5t-10 10.5z" />
    <glyph glyph-name="logicalnot" unicode="&#xac;" horiz-adv-x="632" 
d="M564 399v-266h-72v194h-424v72h496z" />
    <glyph glyph-name="registered" unicode="&#xae;" horiz-adv-x="845" 
d="M422 -14q-80 0 -148.5 31t-118.5 83t-78 118.5t-28 138.5q0 76 30 143.5t81 118t119 79.5t144 29q81 0 149.5 -30.5t118 -82.5t77.5 -121t28 -147q0 -84 -32.5 -150.5t-85.5 -113t-120 -71.5t-136 -25zM422 31q60 0 118.5 22t104 63t74 99.5t28.5 132.5q0 69 -24.5 130
t-67.5 106.5t-102.5 72t-129.5 26.5q-67 0 -126 -25.5t-103 -70t-69.5 -104t-25.5 -126.5q0 -63 24.5 -122t67.5 -104t102 -72.5t129 -27.5zM284 572q0 17 16 17h143q40 0 71 -5.5t51 -21t30.5 -42.5t10.5 -70q0 -67 -25 -96t-75 -39l102 -183q7 -11 3 -18.5t-16 -7.5
q-11 0 -26 4t-20 14l-107 187h-99v-188q0 -7 -3.5 -12t-12.5 -5q-5 0 -12.5 0.5t-14.5 2t-11.5 4t-4.5 5.5v454zM343 539v-178h100q33 0 52.5 4t30 13.5t14 27t3.5 44.5t-3.5 44.5t-14 27t-30 13.5t-52.5 4h-100z" />
    <glyph glyph-name="macron" unicode="&#xaf;" horiz-adv-x="258" 
d="M13 667q-15 0 -15 15q0 11 2 25.5t8 14.5h236q6 0 11 -4t5 -12q0 -11 -3 -25t-8 -14h-236z" />
    <glyph glyph-name="degree" unicode="&#xb0;" horiz-adv-x="439" 
d="M219 724q29 0 55 -11t45.5 -29.5t31 -44t11.5 -53.5q0 -29 -11.5 -54t-31.5 -43.5t-46 -29t-54 -10.5q-29 0 -54.5 11t-45 29.5t-31 43.5t-11.5 54t11.5 54t31 43.5t45 29t54.5 10.5zM220 502q36 0 61 24t25 59q0 17 -6.5 32.5t-18 27.5t-27 19t-33.5 7q-37 0 -62.5 -24
t-25.5 -59q0 -36 25 -61t62 -25z" />
    <glyph glyph-name="plusminus" unicode="&#xb1;" horiz-adv-x="638" 
d="M357 53h-77v206h-210v75h210v205h77v-205h206v-75h-206v-206zM96 -72h-11t-9 2q-5 10 -5 23q0 17 3 31t6 22h468h10t10 -2q5 -10 5 -24q0 -17 -3 -30.5t-6 -21.5h-468z" />
    <glyph glyph-name="uni00B2" unicode="&#xb2;" horiz-adv-x="88" 
 />
    <glyph glyph-name="uni00B3" unicode="&#xb3;" 
 />
    <glyph glyph-name="acute" unicode="&#xb4;" horiz-adv-x="263" 
d="M50 703q11 14 22 29t23 30q17 29 30 48t25 37q2 3 23 1t46 -7q8 -2 12 -7t2 -10q0 -3 -6 -9l-122 -120q-5 -5 -11.5 -9.5t-13.5 -2.5q-3 1 -8.5 3t-11 4.5t-9 6t-1.5 6.5z" />
    <glyph glyph-name="mu" unicode="&#xb5;" horiz-adv-x="569" 
d="M174 -268q-8 -7 -17 -12t-26 -5q-14 0 -25 2.5t-15 5.5v805q12 3 30.5 5.5t41.5 2.5q6 -3 8.5 -11.5t3 -20t0 -24.5t-0.5 -23v-248q0 -29 1 -56t6.5 -48t17.5 -33.5t34 -12.5q34 0 63.5 3.5t51.5 9t35 12.5t13 13v431q11 3 30 5.5t42 2.5q8 -3 9.5 -11t1.5 -18v-431
q0 -13 -19.5 -28.5t-54.5 -28.5t-82.5 -22t-103.5 -9q-11 0 -26.5 6.5t-18.5 20.5v-283v0z" />
    <glyph glyph-name="mu" unicode="&#x3bc;" horiz-adv-x="569" 
d="M174 -268q-8 -7 -17 -12t-26 -5q-14 0 -25 2.5t-15 5.5v805q12 3 30.5 5.5t41.5 2.5q6 -3 8.5 -11.5t3 -20t0 -24.5t-0.5 -23v-248q0 -29 1 -56t6.5 -48t17.5 -33.5t34 -12.5q34 0 63.5 3.5t51.5 9t35 12.5t13 13v431q11 3 30 5.5t42 2.5q8 -3 9.5 -11t1.5 -18v-431
q0 -13 -19.5 -28.5t-54.5 -28.5t-82.5 -22t-103.5 -9q-11 0 -26.5 6.5t-18.5 20.5v-283v0z" />
    <glyph glyph-name="paragraph" unicode="&#xb6;" horiz-adv-x="639" 
d="M531 -97q0 -10 -1.5 -19t-8.5 -14q-21 0 -38.5 2.5t-28.5 5.5v789h-100v-745q0 -15 -2 -28.5t-8 -23.5q-21 0 -39 2.5t-29 5.5v451q-47 1 -85.5 16.5t-65.5 41.5t-42 62.5t-15 80.5q0 45 15.5 82.5t43.5 64t67.5 41.5t87.5 15h208q11 0 24 -2.5t17 -7.5v-820z" />
    <glyph glyph-name="periodcentered" unicode="&#xb7;" horiz-adv-x="357" 
d="M117 343q0 4 6 7t15 5t19.5 3t19.5 1q13 0 18 -7.5t5 -18.5v-73q0 -11 -5 -18.5t-18 -7.5q-9 0 -19.5 1t-19.5 3t-15 5t-6 7v93z" />
    <glyph glyph-name="cedilla" unicode="&#xb8;" horiz-adv-x="223" 
d="M77 20l56 -5l-26 -58q41 -4 62 -24t21 -46q0 -53 -33 -82.5t-90 -29.5q-20 0 -40.5 5.5t-34.5 16.5q-5 2 -8 8t6 26q2 6 8 5t10 -3q10 -5 23.5 -8.5t27.5 -3.5q32 0 49.5 15t17.5 40q0 14 -16 28t-49 14q-15 0 -22.5 2.5t-0.5 16.5z" />
    <glyph glyph-name="uni00B9" unicode="&#xb9;" horiz-adv-x="350" 
 />
    <glyph glyph-name="ordmasculine" unicode="&#xba;" horiz-adv-x="402" 
d="M202 408q-78 0 -121 45.5t-43 120.5t43 119.5t121 44.5q76 0 119 -44.5t43 -119.5t-43 -120.5t-119 -45.5zM300 574q0 116 -99 116q-100 0 -100 -117q0 -116 100 -116q99 0 99 117z" />
    <glyph glyph-name="guillemotright" unicode="&#xbb;" horiz-adv-x="526" 
d="M113 93q-6 -7 -10 -10.5t-10 -3.5q-2 0 -7.5 4t-11 9t-9.5 11t-4 9q0 8 7 18l119 159l-119 158q-7 11 -7 19q0 3 4 8.5t9.5 11t11 9t7.5 3.5q6 0 10 -3t10 -11l159 -195zM306 93q-6 -7 -10 -10.5t-11 -3.5q-2 0 -7.5 4t-10.5 9t-9 11t-4 9q0 4 1 8.5t6 9.5l119 159
l-119 158q-5 6 -6 10.5t-1 8.5q0 3 4 8.5t9 11t10.5 9t7.5 3.5q7 0 11 -3t10 -11l158 -195z" />
    <glyph glyph-name="onequarter" unicode="&#xbc;" horiz-adv-x="1106" 
d="M1045 186q9 0 15.5 -4t6.5 -15q0 -14 -3.5 -30.5t-10.5 -16.5h-61v-115q0 -8 -6.5 -12.5t-16.5 -4.5q-8 0 -18.5 1t-19.5 2.5t-15.5 4.5t-6.5 8v116h-233q-8 0 -13.5 2.5t-6.5 10.5q-1 5 -0.5 10t1.5 10q3 11 9 27t13 26l236 322q5 5 19 7t23 3q14 2 21 0q9 -1 11.5 -7.5
t2.5 -14.5v-330h53zM218 222q-1 -9 -7 -16t-17 -7q-8 0 -19 1.5t-21 3.5t-16.5 5.5t-6.5 7.5v433l-59 -52q-2 -2 -7 -0.5t-10 5.5q-12 7 -26 16t-14 24q0 6 10.5 17t25 24t30.5 25.5t27 21.5q13 11 31 18.5t56 7.5q8 0 15.5 -5t7.5 -14v-516zM909 430l-177 -244h177v244z
M713 759q10 -5 11.5 -13.5t-2.5 -17.5l-405 -733q-5 -8 -12.5 -12.5t-17.5 -0.5q-7 3 -15 8t-14.5 9.5t-10.5 9t-2 7.5l415 754q2 3 8 3.5t14 -1.5t16.5 -5.5t14.5 -7.5z" />
    <glyph glyph-name="onehalf" unicode="&#xbd;" horiz-adv-x="1052" 
d="M719 534q24 5 50.5 9.5t56.5 4.5q34 0 66 -6.5t57 -21.5t41 -40t19 -62q3 -16 1 -38q-3 -26 -16.5 -52.5t-39.5 -61t-67 -80.5t-101 -112h198q9 0 17 -1.5t12 -8.5q0 -20 -2.5 -36.5t-5.5 -27.5h-308q-11 0 -19.5 1t-13.5 8q0 17 2.5 30t4.5 24q54 60 93.5 105t67 78.5
t45 56.5t27.5 40t13.5 29t4.5 23t-1 20t-5 17q-9 26 -34 34t-55 8q-23 0 -44 -2.5t-58 -7.5q-4 -1 -7.5 3.5t-6.5 12t-5.5 16t-3.5 15.5q-2 11 3 16t14 7zM224 222q0 -9 -6 -16t-17 -7q-8 0 -19 1.5t-21 3.5t-17 5.5t-7 7.5v433l-66 -57q-2 -2 -7 0t-10 5q-11 7 -25 16
t-14 24q0 6 5 13q18 20 43 40.5t50 39.5q12 10 31 16.5t33 8.5q10 1 33 -2q13 -2 13.5 -15t0.5 -25v-492zM678 741q9 -5 10.5 -13.5t-2.5 -17.5l-405 -733q-5 -8 -12.5 -12.5t-17.5 -0.5q-7 3 -15 8t-14.5 9.5t-10 9t-1.5 7.5l414 754q2 3 8 3.5t14.5 -1.5t17 -5.5
t14.5 -7.5z" />
    <glyph glyph-name="threequarters" unicode="&#xbe;" horiz-adv-x="1186" 
d="M1058 186q9 0 15.5 -4t6.5 -15q0 -14 -3.5 -30.5t-10.5 -16.5h-61v-115q0 -8 -6.5 -12.5t-16.5 -4.5q-8 0 -18.5 1t-20 2.5t-16 4.5t-6.5 8v116h-233q-8 0 -13 2.5t-6 10.5q-3 9 1 20q3 11 9 27t13 26l236 322q5 5 19 7t23 3q13 2 21 0q9 -1 11.5 -7.5t2.5 -14.5v-330h53
zM921 430l-176 -244h176v244zM137 436q-7 0 -9 14.5t-4 23.5q-2 11 0 23q1 9 7 11t13 2h23q45 0 76.5 18t31.5 59v8q0 38 -25 58.5t-80 21.5q-26 1 -51 -2.5t-52 -7.5q-7 -2 -11.5 10t-7.5 26l-3 13q-3 17 19 22q25 5 49.5 8.5t50.5 3.5q40 0 76 -7t63.5 -24.5t43.5 -47
t16 -74.5v-8q0 -33 -14 -64.5t-39 -44.5q26 -15 44 -48t18 -70v-20q0 -44 -19 -72.5t-49 -45.5t-68.5 -24t-77.5 -7q-26 0 -51.5 3.5t-49.5 8.5q-10 2 -15 7.5t-3 16.5q1 7 3.5 15.5t5.5 16t7 12.5t8 4q19 -3 37.5 -6t40.5 -4q17 -2 34 0q21 1 41 5t35.5 12.5t24.5 22.5
t9 35v20q0 20 -9 34.5t-24 23.5t-35 13.5t-42 4.5h-38zM803 759q10 -5 11.5 -13.5t-2.5 -17.5l-405 -733q-5 -8 -12.5 -12.5t-17.5 -0.5q-7 3 -15 8t-14.5 9.5t-10.5 9t-2 7.5l415 754q2 3 8 3.5t14 -1.5t16.5 -5.5t14.5 -7.5z" />
    <glyph glyph-name="questiondown" unicode="&#xbf;" horiz-adv-x="515" 
d="M350 345q0 -48 -6.5 -81.5t-26.5 -65.5q-14 -22 -35.5 -45.5t-42 -48.5t-35.5 -52t-15 -55q0 -64 32.5 -91.5t96.5 -27.5q11 0 21.5 0.5t22.5 2t26.5 4t34.5 5.5q4 1 7.5 -4t6.5 -12t5.5 -15.5t4.5 -15.5q2 -11 -3 -16.5t-15 -7.5q-26 -6 -52 -9.5t-59 -3.5
q-47 0 -86.5 8t-68.5 27.5t-46.5 53t-19.5 85.5q-2 24 3 45q5 29 19.5 53.5t33.5 46.5t39 43.5t37 44t28 47.5t11 55v13t0.5 13.5t3.5 11.5t9 5q7 2 14 1.5t12 -1.5t12.5 -1.5t14 -2t11.5 -4t5 -5.5zM350 433q0 -4 -6 -7t-15 -5t-19.5 -3t-19.5 -1q-18 0 -21 10.5t-3 24.5
v55q0 14 3 24.5t21 10.5q9 0 19.5 -1t19.5 -2.5t15 -5t6 -7.5v-93z" />
    <glyph glyph-name="Agrave" unicode="&#xc0;" horiz-adv-x="595" 
d="M415 212h-234l-55 -193q-3 -10 -10.5 -16t-17 -9.5t-19 -4.5t-16.5 -1q-14 0 -25 5t-11 16q0 3 1 6t2 7l223 695q2 6 15 10.5t27 4.5q11 0 28 -3.5t20 -12.5l224 -694q1 -4 1.5 -7t0.5 -6q0 -11 -10.5 -16t-24.5 -5q-7 0 -17 1t-19 4.5t-16.5 9.5t-10.5 16zM205 289h187
l-94 329zM307 827q3 -5 5.5 -9.5t3.5 -7.5q2 -3 -2.5 -6.5t-11.5 -6t-13.5 -4t-8.5 -1.5q-3 0 -9 4t-10 8l-126 114q-3 4 -5.5 7t-2.5 6q0 11 17 16q19 4 36 6.5t22 2.5q9 0 15 -6z" />
    <glyph glyph-name="Aacute" unicode="&#xc1;" horiz-adv-x="595" 
d="M415 212h-234l-55 -193q-3 -10 -10.5 -16t-17 -9.5t-19 -4.5t-16.5 -1q-14 0 -25 5t-11 16q0 3 1 6t2 7l223 695q2 6 15 10.5t27 4.5q11 0 28 -3.5t20 -12.5l224 -694q1 -4 1.5 -7t0.5 -6q0 -11 -10.5 -16t-24.5 -5q-7 0 -17 1t-19 4.5t-16.5 9.5t-10.5 16zM205 289h187
l-94 329zM273 817q11 14 22 29t23 30q17 29 30 48t25 37q2 3 23 1t46 -7q8 -2 12 -7t2 -10q0 -3 -6 -9l-122 -120q-5 -5 -11.5 -9.5t-13.5 -2.5q-3 1 -8.5 3t-11 4.5t-9 6t-1.5 6.5z" />
    <glyph glyph-name="Acircumflex" unicode="&#xc2;" horiz-adv-x="595" 
d="M415 212h-234l-55 -193q-3 -10 -10.5 -16t-17 -9.5t-19 -4.5t-16.5 -1q-14 0 -25 5t-11 16q0 3 1 6t2 7l223 695q2 6 15 10.5t27 4.5q11 0 28 -3.5t20 -12.5l224 -694q1 -4 1.5 -7t0.5 -6q0 -11 -10.5 -16t-24.5 -5q-7 0 -17 1t-19 4.5t-16.5 9.5t-10.5 16zM205 289h187
l-94 329zM439 831q-4 -5 -10 -10.5t-12.5 -10t-11.5 -6.5t-8 0l-95 82l-94 -82q-3 -2 -8.5 0t-11.5 6.5t-12.5 10t-10.5 10.5q-7 8 -5 15t8 14l123 107q5 5 11 5t12 -5l122 -107q7 -7 9 -14t-6 -15z" />
    <glyph glyph-name="Atilde" unicode="&#xc3;" horiz-adv-x="595" 
d="M415 212h-234l-55 -193q-3 -10 -10.5 -16t-17 -9.5t-19 -4.5t-16.5 -1q-14 0 -25 5t-11 16q0 3 1 6t2 7l223 695q2 6 15 10.5t27 4.5q11 0 28 -3.5t20 -12.5l224 -694q1 -4 1.5 -7t0.5 -6q0 -11 -10.5 -16t-24.5 -5q-7 0 -17 1t-19 4.5t-16.5 9.5t-10.5 16zM205 289h187
l-94 329zM248 896q15 0 28 -5t26 -11t26.5 -11t28.5 -5q14 0 25 6t19 20q2 4 7.5 4.5t28.5 -6.5q13 -4 10 -13q-1 -6 -3.5 -11.5t-5.5 -10.5q-15 -28 -36.5 -39.5t-41.5 -13.5q-5 -1 -9.5 -0.5t-8.5 0.5q-13 2 -24.5 7t-23.5 10.5t-24 9.5t-26 4t-25 -5.5t-19 -20.5
q-2 -5 -8 -5.5t-28 7.5q-13 4 -10 14q4 13 9 21q17 30 40.5 42t44.5 12z" />
    <glyph glyph-name="Adieresis" unicode="&#xc4;" horiz-adv-x="595" 
d="M415 212h-234l-55 -193q-3 -10 -10.5 -16t-17 -9.5t-19 -4.5t-16.5 -1q-14 0 -25 5t-11 16q0 3 1 6t2 7l223 695q2 6 15 10.5t27 4.5q11 0 28 -3.5t20 -12.5l224 -694q1 -4 1.5 -7t0.5 -6q0 -11 -10.5 -16t-24.5 -5q-7 0 -17 1t-19 4.5t-16.5 9.5t-10.5 16zM205 289h187
l-94 329zM352 908q0 4 6 7t15 5t19.5 3t19.5 1q13 0 18 -7.5t5 -18.5v-73q0 -11 -5 -18.5t-18 -7.5q-9 0 -19.5 1t-19.5 3t-15 5t-6 7v93zM167 908q0 4 6 7t15 5t19.5 3t19.5 1q13 0 18 -7.5t5 -18.5v-73q0 -11 -5 -18.5t-18 -7.5q-9 0 -19.5 1t-19.5 3t-15 5t-6 7v93z" />
    <glyph glyph-name="Aring" unicode="&#xc5;" horiz-adv-x="595" 
d="M415 212h-234l-55 -193q-3 -10 -10.5 -16t-17 -9.5t-19 -4.5t-16.5 -1q-14 0 -25 5t-11 16q0 3 1 6t2 7l223 695q2 6 15 10.5t27 4.5q11 0 28 -3.5t20 -12.5l224 -694q1 -4 1.5 -7t0.5 -6q0 -11 -10.5 -16t-24.5 -5q-7 0 -17 1t-19 4.5t-16.5 9.5t-10.5 16zM205 289h187
l-94 329zM296 799q-45 0 -72 28t-27 65q0 38 27 66t72 28t71.5 -28t26.5 -66t-26.5 -65.5t-71.5 -27.5zM295 840q24 0 39.5 15.5t15.5 37.5q0 21 -15.5 36.5t-39.5 15.5t-40 -15.5t-16 -36.5q0 -22 16 -37.5t40 -15.5z" />
    <glyph glyph-name="AE" unicode="&#xc6;" horiz-adv-x="954" 
d="M466 212h-228l-107 -185q-6 -10 -15 -16t-19 -9.5t-20 -4.5t-17 -1q-15 0 -25 5.5t-3 18.5l15 27l389 636q15 25 26.5 30.5t26.5 5.5h388q10 0 16.5 -5t6.5 -17q0 -8 -1 -17.5t-3 -18t-4.5 -14t-6.5 -5.5h-330v-238h293q9 0 16 -5t7 -16q0 -8 -1 -17.5t-3 -18t-4.5 -14.5
t-6.5 -6h-301v-250h322q10 0 16.5 -5t6.5 -17q0 -8 -1 -17.5t-3 -18t-4.5 -14t-6.5 -5.5h-376q-13 0 -28 5t-15 12v195zM466 289v316l-182 -316h182z" />
    <glyph glyph-name="Ccedilla" unicode="&#xc7;" horiz-adv-x="562" 
d="M294 -10q-59 4 -103 20t-73 47.5t-43.5 80.5t-14.5 118v206q0 76 17 127.5t52 83t88 45t124 13.5h9q20 0 47.5 -2t52.5 -6t42.5 -11t17.5 -17q0 -8 -3 -17.5t-7 -18t-9 -15t-9 -6.5q-33 8 -64 12t-68 4q-68 0 -107 -13t-58.5 -40.5t-24.5 -70.5t-5 -102v-137
q0 -57 4.5 -100t23.5 -71t56 -42t102 -14q41 0 73.5 4.5t67.5 12.5q4 0 9 -6t9 -15t7 -18.5t3 -17.5q0 -10 -17.5 -17t-42 -11t-52 -6t-47.5 -2l-19 -44q41 -4 62 -24t21 -46q0 -53 -33 -82.5t-90 -29.5q-20 0 -40.5 5.5t-34.5 16.5q-5 2 -8 8t6 26q2 6 8 5t10 -3
q10 -5 23.5 -8.5t27.5 -3.5q32 0 49.5 15t17.5 40q0 14 -16 28t-49 14q-15 0 -22.5 2.5t-0.5 16.5z" />
    <glyph glyph-name="Egrave" unicode="&#xc8;" horiz-adv-x="563" 
d="M75 693q0 11 5.5 18.5t18.5 7.5h388q9 0 16 -5t7 -17q0 -8 -1 -17.5t-3 -18t-5 -14t-7 -5.5h-330v-238h293q10 0 16.5 -5t6.5 -16q0 -8 -1 -17.5t-3 -18t-4.5 -14.5t-6.5 -6h-301v-250h323q9 0 16 -5t7 -17q0 -8 -1 -17.5t-3 -18t-5 -14t-7 -5.5h-375q-13 0 -28.5 5
t-15.5 12v676zM334 827q3 -5 5.5 -9.5t3.5 -7.5q2 -3 -2.5 -6.5t-11.5 -6t-13.5 -4t-8.5 -1.5q-3 0 -9 4t-10 8l-126 114q-3 4 -5.5 7t-2.5 6q0 11 17 16q19 4 36 6.5t22 2.5q9 0 15 -6z" />
    <glyph glyph-name="Eacute" unicode="&#xc9;" horiz-adv-x="586" 
d="M75 693q0 11 5.5 18.5t18.5 7.5h388q9 0 16 -5t7 -17q0 -8 -1 -17.5t-3 -18t-5 -14t-7 -5.5h-330v-238h293q10 0 16.5 -5t6.5 -16q0 -8 -1 -17.5t-3 -18t-4.5 -14.5t-6.5 -6h-301v-250h323q9 0 16 -5t7 -17q0 -8 -1 -17.5t-3 -18t-5 -14t-7 -5.5h-375q-13 0 -28.5 5
t-15.5 12v676zM299 817q11 14 22 29t23 30q17 29 30 48t25 37q2 3 23 1t46 -7q8 -2 12 -7t2 -10q0 -3 -6 -9l-122 -120q-5 -5 -11.5 -9.5t-13.5 -2.5q-3 1 -8.5 3t-11 4.5t-9 6t-1.5 6.5z" />
    <glyph glyph-name="Ecircumflex" unicode="&#xca;" horiz-adv-x="573" 
d="M75 693q0 11 5.5 18.5t18.5 7.5h388q9 0 16 -5t7 -17q0 -8 -1 -17.5t-3 -18t-5 -14t-7 -5.5h-330v-238h293q10 0 16.5 -5t6.5 -16q0 -8 -1 -17.5t-3 -18t-4.5 -14.5t-6.5 -6h-301v-250h323q9 0 16 -5t7 -17q0 -8 -1 -17.5t-3 -18t-5 -14t-7 -5.5h-375q-13 0 -28.5 5
t-15.5 12v676zM452 831q-4 -5 -10 -10.5t-12.5 -10t-11.5 -6.5t-8 0l-95 82l-94 -82q-3 -2 -8.5 0t-11.5 6.5t-12.5 10t-10.5 10.5q-7 8 -5 15t8 14l123 107q5 5 11 5t12 -5l122 -107q7 -7 9 -14t-6 -15z" />
    <glyph glyph-name="Edieresis" unicode="&#xcb;" horiz-adv-x="563" 
d="M75 693q0 11 5.5 18.5t18.5 7.5h388q9 0 16 -5t7 -17q0 -8 -1 -17.5t-3 -18t-5 -14t-7 -5.5h-330v-238h293q10 0 16.5 -5t6.5 -16q0 -8 -1 -17.5t-3 -18t-4.5 -14.5t-6.5 -6h-301v-250h323q9 0 16 -5t7 -17q0 -8 -1 -17.5t-3 -18t-5 -14t-7 -5.5h-375q-13 0 -28.5 5
t-15.5 12v676zM370 908q0 4 6 7t15 5t19.5 3t19.5 1q13 0 18 -7.5t5 -18.5v-73q0 -11 -5 -18.5t-18 -7.5q-9 0 -19.5 1t-19.5 3t-15 5t-6 7v93zM185 908q0 4 6 7t15 5t19.5 3t19.5 1q13 0 18 -7.5t5 -18.5v-73q0 -11 -5 -18.5t-18 -7.5q-9 0 -19.5 1t-19.5 3t-15 5t-6 7v93z
" />
    <glyph glyph-name="Igrave" unicode="&#xcc;" horiz-adv-x="283" 
d="M184 14q0 -11 -5.5 -18.5t-18.5 -7.5q-8 0 -19.5 1t-21.5 3t-17 5t-7 7v712q0 4 7 7t17 5t21.5 3t19.5 1q13 0 18.5 -7.5t5.5 -18.5v-692zM151 827q3 -5 5.5 -9.5t3.5 -7.5q2 -3 -2.5 -6.5t-11.5 -6t-13.5 -4t-8.5 -1.5q-3 0 -9 4t-10 8l-126 114q-3 4 -5.5 7t-2.5 6
q0 11 17 16q19 4 36 6.5t22 2.5q9 0 15 -6z" />
    <glyph glyph-name="Iacute" unicode="&#xcd;" horiz-adv-x="274" 
d="M184 14q0 -11 -5.5 -18.5t-18.5 -7.5q-8 0 -19.5 1t-21.5 3t-17 5t-7 7v712q0 4 7 7t17 5t21.5 3t19.5 1q13 0 18.5 -7.5t5.5 -18.5v-692zM116 817q11 14 22 29t23 30q17 29 30 48t25 37q2 3 23 1t46 -7q8 -2 12 -7t2 -10q0 -3 -6 -9l-122 -120q-5 -5 -11.5 -9.5
t-13.5 -2.5q-3 1 -8.5 3t-11 4.5t-9 6t-1.5 6.5z" />
    <glyph glyph-name="Icircumflex" unicode="&#xce;" horiz-adv-x="287" 
d="M184 14q0 -11 -5.5 -18.5t-18.5 -7.5q-8 0 -19.5 1t-21.5 3t-17 5t-7 7v712q0 4 7 7t17 5t21.5 3t19.5 1q13 0 18.5 -7.5t5.5 -18.5v-692zM283 831q-4 -5 -10 -10.5t-12.5 -10t-11.5 -6.5t-8 0l-95 82l-94 -82q-3 -2 -8.5 0t-11.5 6.5t-12.5 10t-10.5 10.5q-7 8 -5 15
t8 14l123 107q5 5 11 5t12 -5l122 -107q7 -7 9 -14t-6 -15z" />
    <glyph glyph-name="Idieresis" unicode="&#xcf;" horiz-adv-x="281" 
d="M184 14q0 -11 -5.5 -18.5t-18.5 -7.5q-8 0 -19.5 1t-21.5 3t-17 5t-7 7v712q0 4 7 7t17 5t21.5 3t19.5 1q13 0 18.5 -7.5t5.5 -18.5v-692zM189 908q0 4 6 7t15 5t19.5 3t19.5 1q13 0 18 -7.5t5 -18.5v-73q0 -11 -5 -18.5t-18 -7.5q-9 0 -19.5 1t-19.5 3t-15 5t-6 7v93z
M4 908q0 4 6 7t15 5t19.5 3t19.5 1q13 0 18 -7.5t5 -18.5v-73q0 -11 -5 -18.5t-18 -7.5q-9 0 -19.5 1t-19.5 3t-15 5t-6 7v93z" />
    <glyph glyph-name="Eth" unicode="&#xd0;" horiz-adv-x="651" 
d="M310 719q71 0 124 -13.5t88 -45t52 -83t17 -127.5v-181q0 -76 -17 -127.5t-52 -83t-88 -45t-124 -13.5h-192q-13 0 -28 5t-15 12v320h-60q-11 0 -18.5 5t-7.5 18q0 9 1 19t3 18.5t5 14.5t8 6h69v275q0 11 5.5 18.5t18.5 7.5h211zM164 337v-260h146q64 0 101.5 14t56 42
t23.5 70.5t5 99.5v113q0 57 -5 99.5t-23.5 70.5t-56 42t-101.5 14h-146v-224h62q11 0 18.5 -5t7.5 -18q0 -9 -1 -19t-3.5 -18.5t-5.5 -14.5t-7 -6h-71z" />
    <glyph glyph-name="Ntilde" unicode="&#xd1;" horiz-adv-x="788" 
d="M695 14q0 -11 -5.5 -18.5t-18.5 -7.5q-8 0 -18.5 1t-20 3.5t-16.5 5.5t-10 6l-420 561v-549q0 -11 -5.5 -19.5t-18.5 -8.5q-9 0 -20 1.5t-21 3.5t-17 5.5t-7 7.5v701q0 13 16 19t30 6q16 0 27 -6t16 -11l420 -562v554q0 6 5 11t12.5 8t16 4.5t15.5 1.5q15 0 27.5 -5
t12.5 -12v-701zM344 896q15 0 28 -5t26 -11t26.5 -11t28.5 -5q14 0 25 6t19 20q2 4 7.5 4.5t28.5 -6.5q13 -4 10 -13q-1 -6 -3.5 -11.5t-5.5 -10.5q-15 -28 -36.5 -39.5t-41.5 -13.5q-5 -1 -9.5 -0.5t-8.5 0.5q-13 2 -24.5 7t-23.5 10.5t-24 9.5t-26 4t-25 -5.5t-19 -20.5
q-2 -5 -8 -5.5t-28 7.5q-13 4 -10 14q4 13 9 21q17 30 40.5 42t44.5 12z" />
    <glyph glyph-name="Ograve" unicode="&#xd2;" horiz-adv-x="690" 
d="M341 -12q-71 0 -124 13.5t-88 45t-52 83t-17 127.5v205q0 76 17 127.5t52 83t88 45t124 13.5h8q71 0 124 -13.5t88 -45t52 -83t17 -127.5v-205q0 -76 -17 -127.5t-52 -83t-88 -45t-124 -13.5h-8zM155 291q0 -57 4.5 -99.5t23.5 -70.5t56 -42t102 -14h8q65 0 102 14t56 42
t23.5 70.5t4.5 99.5v137q0 57 -4.5 99.5t-23.5 70.5t-56 42t-102 14h-8q-65 0 -102 -14t-56 -42t-23.5 -70.5t-4.5 -99.5v-137zM357 827q3 -5 5.5 -9.5t3.5 -7.5q2 -3 -2.5 -6.5t-11.5 -6t-13.5 -4t-8.5 -1.5q-3 0 -9 4t-10 8l-126 114q-3 4 -5.5 7t-2.5 6q0 11 17 16
q19 4 36 6.5t22 2.5q9 0 15 -6z" />
    <glyph glyph-name="Oacute" unicode="&#xd3;" horiz-adv-x="690" 
d="M341 -12q-71 0 -124 13.5t-88 45t-52 83t-17 127.5v205q0 76 17 127.5t52 83t88 45t124 13.5h8q71 0 124 -13.5t88 -45t52 -83t17 -127.5v-205q0 -76 -17 -127.5t-52 -83t-88 -45t-124 -13.5h-8zM155 291q0 -57 4.5 -99.5t23.5 -70.5t56 -42t102 -14h8q65 0 102 14t56 42
t23.5 70.5t4.5 99.5v137q0 57 -4.5 99.5t-23.5 70.5t-56 42t-102 14h-8q-65 0 -102 -14t-56 -42t-23.5 -70.5t-4.5 -99.5v-137zM321 817q11 14 22 29t23 30q17 29 30 48t25 37q2 3 23 1t46 -7q8 -2 12 -7t2 -10q0 -3 -6 -9l-122 -120q-5 -5 -11.5 -9.5t-13.5 -2.5
q-3 1 -8.5 3t-11 4.5t-9 6t-1.5 6.5z" />
    <glyph glyph-name="Ocircumflex" unicode="&#xd4;" horiz-adv-x="690" 
d="M341 -12q-71 0 -124 13.5t-88 45t-52 83t-17 127.5v205q0 76 17 127.5t52 83t88 45t124 13.5h8q71 0 124 -13.5t88 -45t52 -83t17 -127.5v-205q0 -76 -17 -127.5t-52 -83t-88 -45t-124 -13.5h-8zM155 291q0 -57 4.5 -99.5t23.5 -70.5t56 -42t102 -14h8q65 0 102 14t56 42
t23.5 70.5t4.5 99.5v137q0 57 -4.5 99.5t-23.5 70.5t-56 42t-102 14h-8q-65 0 -102 -14t-56 -42t-23.5 -70.5t-4.5 -99.5v-137zM480 831q-4 -5 -10 -10.5t-12.5 -10t-11.5 -6.5t-8 0l-95 82l-94 -82q-3 -2 -8.5 0t-11.5 6.5t-12.5 10t-10.5 10.5q-7 8 -5 15t8 14l123 107
q5 5 11 5t12 -5l122 -107q7 -7 9 -14t-6 -15z" />
    <glyph glyph-name="Otilde" unicode="&#xd5;" horiz-adv-x="690" 
d="M341 -12q-71 0 -124 13.5t-88 45t-52 83t-17 127.5v205q0 76 17 127.5t52 83t88 45t124 13.5h8q71 0 124 -13.5t88 -45t52 -83t17 -127.5v-205q0 -76 -17 -127.5t-52 -83t-88 -45t-124 -13.5h-8zM155 291q0 -57 4.5 -99.5t23.5 -70.5t56 -42t102 -14h8q65 0 102 14t56 42
t23.5 70.5t4.5 99.5v137q0 57 -4.5 99.5t-23.5 70.5t-56 42t-102 14h-8q-65 0 -102 -14t-56 -42t-23.5 -70.5t-4.5 -99.5v-137zM298 896q15 0 28 -5t26 -11t26.5 -11t28.5 -5q14 0 25 6t19 20q2 4 7.5 4.5t28.5 -6.5q13 -4 10 -13q-1 -6 -3.5 -11.5t-5.5 -10.5
q-15 -28 -36.5 -39.5t-41.5 -13.5q-5 -1 -9.5 -0.5t-8.5 0.5q-13 2 -24.5 7t-23.5 10.5t-24 9.5t-26 4t-25 -5.5t-19 -20.5q-2 -5 -8 -5.5t-28 7.5q-13 4 -10 14q4 13 9 21q17 30 40.5 42t44.5 12z" />
    <glyph glyph-name="Odieresis" unicode="&#xd6;" horiz-adv-x="690" 
d="M341 -12q-71 0 -124 13.5t-88 45t-52 83t-17 127.5v205q0 76 17 127.5t52 83t88 45t124 13.5h8q71 0 124 -13.5t88 -45t52 -83t17 -127.5v-205q0 -76 -17 -127.5t-52 -83t-88 -45t-124 -13.5h-8zM155 291q0 -57 4.5 -99.5t23.5 -70.5t56 -42t102 -14h8q65 0 102 14t56 42
t23.5 70.5t4.5 99.5v137q0 57 -4.5 99.5t-23.5 70.5t-56 42t-102 14h-8q-65 0 -102 -14t-56 -42t-23.5 -70.5t-4.5 -99.5v-137zM396 908q0 4 6 7t15 5t19.5 3t19.5 1q13 0 18 -7.5t5 -18.5v-73q0 -11 -5 -18.5t-18 -7.5q-9 0 -19.5 1t-19.5 3t-15 5t-6 7v93zM211 908
q0 4 6 7t15 5t19.5 3t19.5 1q13 0 18 -7.5t5 -18.5v-73q0 -11 -5 -18.5t-18 -7.5q-9 0 -19.5 1t-19.5 3t-15 5t-6 7v93z" />
    <glyph glyph-name="multiply" unicode="&#xd7;" horiz-adv-x="663" 
d="M144 36q-14 14 -26 24.5t-26 23.5l187 182l-185 183q14 14 25 24t25 24l187 -182l188 182q14 -14 26 -24.5t26 -23.5l-187 -183l186 -181l-53 -49l-186 182z" />
    <glyph glyph-name="Oslash" unicode="&#xd8;" horiz-adv-x="694" 
d="M492 773q6 -3 14.5 -6t15.5 -7t11 -8t2 -8l-17 -43q58 -27 86 -84.5t28 -154.5v-205q0 -76 -17 -127.5t-52 -83t-88 -45t-124 -13.5h-8q-57 0 -102 9l-16 -41q-3 -9 -10 -14t-18 -2q-7 3 -15.5 6.5t-15.5 8t-11.5 8.5t-2.5 8l19 48q-56 29 -82.5 85.5t-26.5 152.5v205
q0 76 17 127.5t52 83t88 45t124 13.5h8q26 0 50 -2t45 -6l15 37q4 8 12 12.5t19 0.5zM537 428q0 72 -8 120t-42 74l-217 -551q30 -6 73 -6h8q65 0 102 14t56 42t23.5 70.5t4.5 99.5v137zM157 291q0 -69 7.5 -116.5t38.5 -74.5l214 549q-14 2 -30.5 3.5t-35.5 1.5h-8
q-65 0 -102 -14t-56 -42t-23.5 -70.5t-4.5 -99.5v-137z" />
    <glyph glyph-name="Ugrave" unicode="&#xd9;" horiz-adv-x="710" 
d="M551 714q0 4 7 7.5t17 5.5t21.5 3.5t19.5 1.5q13 0 18.5 -8.5t5.5 -19.5v-447q0 -76 -17 -127.5t-52 -83t-88 -45t-124 -13.5h-8q-71 0 -124 13.5t-88 45t-52 83t-17 127.5v457q0 4 7 7.5t17 5.5t21.5 3.5t19.5 1.5q13 0 18.5 -8.5t5.5 -19.5v-413q0 -57 5.5 -99.5
t25.5 -70.5t58 -42t103 -14h8q65 0 103 14t58 42t25.5 70.5t5.5 99.5v423zM370 827q3 -5 5.5 -9.5t3.5 -7.5q2 -3 -2.5 -6.5t-11.5 -6t-13.5 -4t-8.5 -1.5q-3 0 -9 4t-10 8l-126 114q-3 4 -5.5 7t-2.5 6q0 11 17 16q19 4 36 6.5t22 2.5q9 0 15 -6z" />
    <glyph glyph-name="Uacute" unicode="&#xda;" horiz-adv-x="710" 
d="M551 714q0 4 7 7.5t17 5.5t21.5 3.5t19.5 1.5q13 0 18.5 -8.5t5.5 -19.5v-447q0 -76 -17 -127.5t-52 -83t-88 -45t-124 -13.5h-8q-71 0 -124 13.5t-88 45t-52 83t-17 127.5v457q0 4 7 7.5t17 5.5t21.5 3.5t19.5 1.5q13 0 18.5 -8.5t5.5 -19.5v-413q0 -57 5.5 -99.5
t25.5 -70.5t58 -42t103 -14h8q65 0 103 14t58 42t25.5 70.5t5.5 99.5v423zM330 817q11 14 22 29t23 30q17 29 30 48t25 37q2 3 23 1t46 -7q8 -2 12 -7t2 -10q0 -3 -6 -9l-122 -120q-5 -5 -11.5 -9.5t-13.5 -2.5q-3 1 -8.5 3t-11 4.5t-9 6t-1.5 6.5z" />
    <glyph glyph-name="Ucircumflex" unicode="&#xdb;" horiz-adv-x="710" 
d="M551 714q0 4 7 7.5t17 5.5t21.5 3.5t19.5 1.5q13 0 18.5 -8.5t5.5 -19.5v-447q0 -76 -17 -127.5t-52 -83t-88 -45t-124 -13.5h-8q-71 0 -124 13.5t-88 45t-52 83t-17 127.5v457q0 4 7 7.5t17 5.5t21.5 3.5t19.5 1.5q13 0 18.5 -8.5t5.5 -19.5v-413q0 -57 5.5 -99.5
t25.5 -70.5t58 -42t103 -14h8q65 0 103 14t58 42t25.5 70.5t5.5 99.5v423zM492 831q-4 -5 -10 -10.5t-12.5 -10t-11.5 -6.5t-8 0l-95 82l-94 -82q-3 -2 -8.5 0t-11.5 6.5t-12.5 10t-10.5 10.5q-7 8 -5 15t8 14l123 107q5 5 11 5t12 -5l122 -107q7 -7 9 -14t-6 -15z" />
    <glyph glyph-name="Udieresis" unicode="&#xdc;" horiz-adv-x="710" 
d="M551 714q0 4 7 7.5t17 5.5t21.5 3.5t19.5 1.5q13 0 18.5 -8.5t5.5 -19.5v-447q0 -76 -17 -127.5t-52 -83t-88 -45t-124 -13.5h-8q-71 0 -124 13.5t-88 45t-52 83t-17 127.5v457q0 4 7 7.5t17 5.5t21.5 3.5t19.5 1.5q13 0 18.5 -8.5t5.5 -19.5v-413q0 -57 5.5 -99.5
t25.5 -70.5t58 -42t103 -14h8q65 0 103 14t58 42t25.5 70.5t5.5 99.5v423zM407 908q0 4 6 7t15 5t19.5 3t19.5 1q13 0 18 -7.5t5 -18.5v-73q0 -11 -5 -18.5t-18 -7.5q-9 0 -19.5 1t-19.5 3t-15 5t-6 7v93zM222 908q0 4 6 7t15 5t19.5 3t19.5 1q13 0 18 -7.5t5 -18.5v-73
q0 -11 -5 -18.5t-18 -7.5q-9 0 -19.5 1t-19.5 3t-15 5t-6 7v93z" />
    <glyph glyph-name="Yacute" unicode="&#xdd;" horiz-adv-x="591" 
d="M340 14q0 -11 -5 -18.5t-18 -7.5q-9 0 -20 1t-21.5 3t-17.5 5t-7 7v285l-213 406q-10 20 -3.5 28.5t23.5 8.5q20 0 40.5 -5t28.5 -19l169 -336l167 336q8 14 28.5 19t41.5 5q17 0 23.5 -8.5t-4.5 -28.5l-212 -405v-276zM279 817q11 14 22 29t23 30q17 29 30 48t25 37
q2 3 23 1t46 -7q8 -2 12 -7t2 -10q0 -3 -6 -9l-122 -120q-5 -5 -11.5 -9.5t-13.5 -2.5q-3 1 -8.5 3t-11 4.5t-9 6t-1.5 6.5z" />
    <glyph glyph-name="Thorn" unicode="&#xde;" horiz-adv-x="603" 
d="M164 14q0 -11 -5.5 -18.5t-18.5 -7.5q-8 0 -19.5 1t-21.5 3t-17 5t-7 7v712q0 4 7 7t17 5t21.5 3t19.5 1q13 0 18.5 -7.5t5.5 -18.5v-130h152q62 0 108.5 -8.5t77 -32t46 -64.5t15.5 -106q0 -64 -15 -104.5t-45 -64t-75 -32.5t-105 -10h-159v-140zM164 499v-268h152
q49 0 79 5.5t46 20.5t21 41t5 67t-5 67t-21 41t-46 20.5t-79 5.5h-152z" />
    <glyph glyph-name="germandbls" unicode="&#xdf;" horiz-adv-x="598" 
d="M254 618q-15 -2 -31 -10t-29 -21.5t-21.5 -34t-8.5 -47.5v-489q0 -12 -5.5 -20t-19.5 -8q-9 0 -20.5 1t-21 3.5t-16 5.5t-6.5 7v520q0 51 19 88t48 60.5t65 34.5t71 11q42 0 78.5 -12.5t63.5 -37t42.5 -61.5t15.5 -85t-24.5 -88.5t-60.5 -63.5q23 -10 51.5 -27t54 -40
t42.5 -51.5t17 -60.5q0 -95 -65.5 -143.5t-198.5 -48.5h-27q-10 0 -16.5 5t-6.5 16q0 8 1 17.5t2.5 17.5t4.5 13.5t7 5.5h42q34 0 65 6.5t53.5 20.5t36 36t13.5 54q0 24 -13.5 42t-33.5 32t-43 25.5t-43 23t-33.5 23.5t-13.5 28q0 22 15.5 36t34.5 29t34.5 36t15.5 58
q0 32 -14 55t-35 36q-20 12 -44.5 13.5t-41.5 -11.5z" />
    <glyph glyph-name="agrave" unicode="&#xe0;" horiz-adv-x="496" 
d="M431 53q0 -14 -17 -24t-43 -17.5t-57 -12t-60 -7t-51.5 -3.5t-31.5 -1q-38 0 -62.5 11t-38.5 31t-19.5 49t-5.5 65q0 31 3.5 59.5t16.5 50.5t38 35.5t67 13.5q49 0 94 -6.5t83 -21.5q0 54 -5 91.5t-18 60t-35 32.5t-58 10q-14 0 -28 -1.5t-37 -5.5l-42 -7q-4 0 -8 4.5
t-7 12t-5.5 16t-3.5 15.5q-2 11 3 16.5t14 7.5l30 6q20 3 42.5 5t51.5 2q96 0 143 -52t47 -144v-291zM186 59q59 0 100 7t61 14v121q-12 10 -52 20t-100 10q-35 0 -49.5 -19t-15.5 -60q0 -41 10.5 -67t45.5 -26zM254 647q3 -5 5.5 -9.5t3.5 -7.5q2 -3 -2.5 -6.5t-11.5 -6
t-13.5 -4t-8.5 -1.5q-3 0 -9 4t-10 8l-126 114q-3 4 -5.5 7t-2.5 6q0 11 17 16q19 4 36 6.5t22 2.5q9 0 15 -6z" />
    <glyph glyph-name="aacute" unicode="&#xe1;" horiz-adv-x="496" 
d="M431 53q0 -14 -17 -24t-43 -17.5t-57 -12t-60 -7t-51.5 -3.5t-31.5 -1q-38 0 -62.5 11t-38.5 31t-19.5 49t-5.5 65q0 31 3.5 59.5t16.5 50.5t38 35.5t67 13.5q49 0 94 -6.5t83 -21.5q0 54 -5 91.5t-18 60t-35 32.5t-58 10q-14 0 -28 -1.5t-37 -5.5l-42 -7q-4 0 -8 4.5
t-7 12t-5.5 16t-3.5 15.5q-2 11 3 16.5t14 7.5l30 6q20 3 42.5 5t51.5 2q96 0 143 -52t47 -144v-291zM186 59q59 0 100 7t61 14v121q-12 10 -52 20t-100 10q-35 0 -49.5 -19t-15.5 -60q0 -41 10.5 -67t45.5 -26zM219 637q11 14 22 29t23 30q17 29 30 48t25 37q2 3 23 1
t46 -7q8 -2 12 -7t2 -10q0 -3 -6 -9l-122 -120q-5 -5 -11.5 -9.5t-13.5 -2.5q-3 1 -8.5 3t-11 4.5t-9 6t-1.5 6.5z" />
    <glyph glyph-name="acircumflex" unicode="&#xe2;" horiz-adv-x="496" 
d="M431 53q0 -14 -17 -24t-43 -17.5t-57 -12t-60 -7t-51.5 -3.5t-31.5 -1q-38 0 -62.5 11t-38.5 31t-19.5 49t-5.5 65q0 31 3.5 59.5t16.5 50.5t38 35.5t67 13.5q49 0 94 -6.5t83 -21.5q0 54 -5 91.5t-18 60t-35 32.5t-58 10q-14 0 -28 -1.5t-37 -5.5l-42 -7q-4 0 -8 4.5
t-7 12t-5.5 16t-3.5 15.5q-2 11 3 16.5t14 7.5l30 6q20 3 42.5 5t51.5 2q96 0 143 -52t47 -144v-291zM186 59q59 0 100 7t61 14v121q-12 10 -52 20t-100 10q-35 0 -49.5 -19t-15.5 -60q0 -41 10.5 -67t45.5 -26zM384 651q-4 -5 -10 -10.5t-12.5 -10t-11.5 -6.5t-8 0l-95 82
l-94 -82q-3 -2 -8.5 0t-11.5 6.5t-12.5 10t-10.5 10.5q-7 8 -5 15t8 14l123 107q5 5 11 5t12 -5l122 -107q7 -7 9 -14t-6 -15z" />
    <glyph glyph-name="atilde" unicode="&#xe3;" horiz-adv-x="496" 
d="M431 53q0 -14 -17 -24t-43 -17.5t-57 -12t-60 -7t-51.5 -3.5t-31.5 -1q-38 0 -62.5 11t-38.5 31t-19.5 49t-5.5 65q0 31 3.5 59.5t16.5 50.5t38 35.5t67 13.5q49 0 94 -6.5t83 -21.5q0 54 -5 91.5t-18 60t-35 32.5t-58 10q-14 0 -28 -1.5t-37 -5.5l-42 -7q-4 0 -8 4.5
t-7 12t-5.5 16t-3.5 15.5q-2 11 3 16.5t14 7.5l30 6q20 3 42.5 5t51.5 2q96 0 143 -52t47 -144v-291zM186 59q59 0 100 7t61 14v121q-12 10 -52 20t-100 10q-35 0 -49.5 -19t-15.5 -60q0 -41 10.5 -67t45.5 -26zM194 716q15 0 28 -5t26 -11t26.5 -11t28.5 -5q14 0 25 6
t19 20q2 4 7.5 4.5t28.5 -6.5q13 -4 10 -13q-1 -6 -3.5 -11.5t-5.5 -10.5q-15 -28 -36.5 -39.5t-41.5 -13.5q-5 -1 -9.5 -0.5t-8.5 0.5q-13 2 -24.5 7t-23.5 10.5t-24 9.5t-26 4t-25 -5.5t-19 -20.5q-2 -5 -8 -5.5t-28 7.5q-13 4 -10 14q4 13 9 21q17 30 40.5 42t44.5 12z
" />
    <glyph glyph-name="adieresis" unicode="&#xe4;" horiz-adv-x="496" 
d="M431 53q0 -14 -17 -24t-43 -17.5t-57 -12t-60 -7t-51.5 -3.5t-31.5 -1q-38 0 -62.5 11t-38.5 31t-19.5 49t-5.5 65q0 31 3.5 59.5t16.5 50.5t38 35.5t67 13.5q49 0 94 -6.5t83 -21.5q0 54 -5 91.5t-18 60t-35 32.5t-58 10q-14 0 -28 -1.5t-37 -5.5l-42 -7q-4 0 -8 4.5
t-7 12t-5.5 16t-3.5 15.5q-2 11 3 16.5t14 7.5l30 6q20 3 42.5 5t51.5 2q96 0 143 -52t47 -144v-291zM186 59q59 0 100 7t61 14v121q-12 10 -52 20t-100 10q-35 0 -49.5 -19t-15.5 -60q0 -41 10.5 -67t45.5 -26zM298 728q0 4 6 7t15 5t19.5 3t19.5 1q13 0 18 -7.5t5 -18.5
v-73q0 -11 -5 -18.5t-18 -7.5q-9 0 -19.5 1t-19.5 3t-15 5t-6 7v93zM113 728q0 4 6 7t15 5t19.5 3t19.5 1q13 0 18 -7.5t5 -18.5v-73q0 -11 -5 -18.5t-18 -7.5q-9 0 -19.5 1t-19.5 3t-15 5t-6 7v93z" />
    <glyph glyph-name="aring" unicode="&#xe5;" horiz-adv-x="496" 
d="M431 53q0 -14 -17 -24t-43 -17.5t-57 -12t-60 -7t-51.5 -3.5t-31.5 -1q-38 0 -62.5 11t-38.5 31t-19.5 49t-5.5 65q0 31 3.5 59.5t16.5 50.5t38 35.5t67 13.5q49 0 94 -6.5t83 -21.5q0 54 -5 91.5t-18 60t-35 32.5t-58 10q-14 0 -28 -1.5t-37 -5.5l-42 -7q-4 0 -8 4.5
t-7 12t-5.5 16t-3.5 15.5q-2 11 3 16.5t14 7.5l30 6q20 3 42.5 5t51.5 2q96 0 143 -52t47 -144v-291zM186 59q59 0 100 7t61 14v121q-12 10 -52 20t-100 10q-35 0 -49.5 -19t-15.5 -60q0 -41 10.5 -67t45.5 -26zM242 619q-45 0 -72 28t-27 65q0 38 27 66t72 28t71.5 -28
t26.5 -66t-26.5 -65.5t-71.5 -27.5zM241 660q24 0 39.5 15.5t15.5 37.5q0 21 -15.5 36.5t-39.5 15.5t-40 -15.5t-16 -36.5q0 -22 16 -37.5t40 -15.5z" />
    <glyph glyph-name="ae" unicode="&#xe6;" horiz-adv-x="780" 
d="M549 -12q-89 0 -139 43q-20 -14 -53 -22.5t-67 -13t-64 -6t-44 -1.5q-42 0 -69 9.5t-42 29t-21 49t-6 68.5q0 29 3 56t14 48.5t32 35t57 16.5q13 2 26.5 2t28.5 -1q38 -2 74 -8t67 -18q-1 82 -14 126t-50 58q-18 5 -36 6.5t-42 0.5q-10 0 -19.5 -1t-26.5 -3l-43 -7
q-5 10 -10.5 25t-9.5 34q4 6 17.5 11t33 8.5t44 5t50.5 1.5q51 0 88.5 -17t60.5 -49q25 41 68 53.5t109 12.5q54 0 85.5 -13t48 -35t21 -51t4.5 -60v-60q0 -14 -10 -27.5t-41.5 -24t-89.5 -17t-153 -6.5q0 -35 3 -64.5t12 -53t25.5 -40t43.5 -23.5q10 -3 21.5 -4t24.5 -1
t25.5 1.5t26.5 3.5l31.5 4.5t40.5 6.5q5 -9 10 -25t9 -34q-3 -7 -17.5 -12.5t-35.5 -9t-47.5 -5.5t-54.5 -2zM184 59q66 0 108.5 7t53.5 15v120q-11 9 -53.5 19.5t-105.5 10.5q-32 0 -45 -20.5t-13 -58.5q0 -41 10 -67t45 -26zM641 387q0 38 -19.5 60t-57.5 22
q-36 0 -61 -6.5t-40.5 -23.5t-23 -46t-8.5 -75q100 0 155 5.5t55 21.5v42z" />
    <glyph glyph-name="ccedilla" unicode="&#xe7;" horiz-adv-x="438" 
d="M207 -10q-78 11 -112.5 62.5t-34.5 139.5v143q0 100 44.5 152.5t145.5 52.5q39 0 68.5 -3.5t59.5 -11.5q21 -3 18 -23q-2 -7 -4.5 -16t-5.5 -16.5t-6.5 -12t-7.5 -4.5q-29 5 -48 8.5t-31.5 5t-22 2t-20.5 0.5q-33 0 -53.5 -12t-32.5 -33.5t-16 -51.5t-4 -65v-87
q0 -35 4 -64.5t16 -51t32.5 -33.5t53.5 -12q11 0 20 0.5t22 2t31.5 4.5t48.5 8q4 1 7.5 -4t6.5 -12.5t5.5 -16t4.5 -15.5q2 -11 -3 -16.5t-15 -7.5q-48 -13 -113 -15l-6 -15q41 -4 62 -24t21 -46q0 -53 -33 -82.5t-90 -29.5q-20 0 -40.5 5.5t-34.5 16.5q-5 2 -8 8t6 26
q2 6 8 5t10 -3q10 -5 23.5 -8.5t27.5 -3.5q32 0 49.5 15t17.5 40q0 14 -16 28t-49 14q-15 0 -22.5 2.5t-0.5 16.5z" />
    <glyph glyph-name="egrave" unicode="&#xe8;" horiz-adv-x="494" 
d="M400 5q-26 -7 -60.5 -12t-77.5 -5q-100 0 -151 52.5t-51 152.5v67q0 92 11.5 147.5t37.5 85t67.5 38.5t101.5 9q54 0 85.5 -13t48 -35t21.5 -51t5 -60v-60q0 -14 -10 -27.5t-41.5 -24t-89.5 -17t-153 -6.5q0 -39 4 -73.5t16.5 -59.5t36 -39.5t61.5 -14.5q15 0 29 1
t29 3.5l33 5.5t41 7q4 1 8 -3.5t7 -12t5 -16t4 -15.5q2 -11 -3 -16.5t-15 -7.5zM354 387q0 38 -19.5 60t-58.5 22q-36 0 -61 -6.5t-40.5 -24t-22.5 -48.5t-8 -79q89 2 144 9.5t66 26.5v40zM278 647q3 -5 5.5 -9.5t3.5 -7.5q2 -3 -2.5 -6.5t-11.5 -6t-13.5 -4t-8.5 -1.5
q-3 0 -9 4t-10 8l-126 114q-3 4 -5.5 7t-2.5 6q0 11 17 16q19 4 36 6.5t22 2.5q9 0 15 -6z" />
    <glyph glyph-name="eacute" unicode="&#xe9;" horiz-adv-x="494" 
d="M400 5q-26 -7 -60.5 -12t-77.5 -5q-100 0 -151 52.5t-51 152.5v67q0 92 11.5 147.5t37.5 85t67.5 38.5t101.5 9q54 0 85.5 -13t48 -35t21.5 -51t5 -60v-60q0 -14 -10 -27.5t-41.5 -24t-89.5 -17t-153 -6.5q0 -39 4 -73.5t16.5 -59.5t36 -39.5t61.5 -14.5q15 0 29 1
t29 3.5l33 5.5t41 7q4 1 8 -3.5t7 -12t5 -16t4 -15.5q2 -11 -3 -16.5t-15 -7.5zM354 387q0 38 -19.5 60t-58.5 22q-36 0 -61 -6.5t-40.5 -24t-22.5 -48.5t-8 -79q89 2 144 9.5t66 26.5v40zM244 637q11 14 22 29t23 30q17 29 30 48t25 37q2 3 23 1t46 -7q8 -2 12 -7t2 -10
q0 -3 -6 -9l-122 -120q-5 -5 -11.5 -9.5t-13.5 -2.5q-3 1 -8.5 3t-11 4.5t-9 6t-1.5 6.5z" />
    <glyph glyph-name="ecircumflex" unicode="&#xea;" horiz-adv-x="494" 
d="M400 5q-26 -7 -60.5 -12t-77.5 -5q-100 0 -151 52.5t-51 152.5v67q0 92 11.5 147.5t37.5 85t67.5 38.5t101.5 9q54 0 85.5 -13t48 -35t21.5 -51t5 -60v-60q0 -14 -10 -27.5t-41.5 -24t-89.5 -17t-153 -6.5q0 -39 4 -73.5t16.5 -59.5t36 -39.5t61.5 -14.5q15 0 29 1
t29 3.5l33 5.5t41 7q4 1 8 -3.5t7 -12t5 -16t4 -15.5q2 -11 -3 -16.5t-15 -7.5zM354 387q0 38 -19.5 60t-58.5 22q-36 0 -61 -6.5t-40.5 -24t-22.5 -48.5t-8 -79q89 2 144 9.5t66 26.5v40zM400 651q-4 -5 -10 -10.5t-12.5 -10t-11.5 -6.5t-8 0l-95 82l-94 -82q-3 -2 -8.5 0
t-11.5 6.5t-12.5 10t-10.5 10.5q-7 8 -5 15t8 14l123 107q5 5 11 5t12 -5l122 -107q7 -7 9 -14t-6 -15z" />
    <glyph glyph-name="edieresis" unicode="&#xeb;" horiz-adv-x="494" 
d="M400 5q-26 -7 -60.5 -12t-77.5 -5q-100 0 -151 52.5t-51 152.5v67q0 92 11.5 147.5t37.5 85t67.5 38.5t101.5 9q54 0 85.5 -13t48 -35t21.5 -51t5 -60v-60q0 -14 -10 -27.5t-41.5 -24t-89.5 -17t-153 -6.5q0 -39 4 -73.5t16.5 -59.5t36 -39.5t61.5 -14.5q15 0 29 1
t29 3.5l33 5.5t41 7q4 1 8 -3.5t7 -12t5 -16t4 -15.5q2 -11 -3 -16.5t-15 -7.5zM354 387q0 38 -19.5 60t-58.5 22q-36 0 -61 -6.5t-40.5 -24t-22.5 -48.5t-8 -79q89 2 144 9.5t66 26.5v40zM323 728q0 4 6 7t15 5t19.5 3t19.5 1q13 0 18 -7.5t5 -18.5v-73q0 -11 -5 -18.5
t-18 -7.5q-9 0 -19.5 1t-19.5 3t-15 5t-6 7v93zM138 728q0 4 6 7t15 5t19.5 3t19.5 1q13 0 18 -7.5t5 -18.5v-73q0 -11 -5 -18.5t-18 -7.5q-9 0 -19.5 1t-19.5 3t-15 5t-6 7v93z" />
    <glyph glyph-name="igrave" unicode="&#xec;" horiz-adv-x="289" 
d="M131 647q3 -5 5.5 -9.5t3.5 -7.5q2 -3 -2.5 -6.5t-11.5 -6t-13.5 -4t-8.5 -1.5q-3 0 -9 4t-10 8l-126 114q-3 4 -5.5 7t-2.5 6q0 11 17 16q19 4 36 6.5t22 2.5q9 0 15 -6zM259 75q4 1 8 -3.5t7.5 -12t6 -16t4.5 -15.5q3 -9 -1.5 -14t-13.5 -9q-46 -17 -88 -17
q-22 0 -41 6.5t-32.5 22t-21.5 40t-8 60.5v407q0 4 6 7.5t15 5.5t19.5 3t19.5 1q13 0 18.5 -7.5t5.5 -18.5v-363q0 -56 14.5 -75.5t58.5 -6.5q3 1 7.5 1.5t15.5 3.5z" />
    <glyph glyph-name="iacute" unicode="&#xed;" horiz-adv-x="280" 
d="M97 637q11 14 22 29t23 30q17 29 30 48t25 37q2 3 23 1t46 -7q8 -2 12 -7t2 -10q0 -3 -6 -9l-122 -120q-5 -5 -11.5 -9.5t-13.5 -2.5q-3 1 -8.5 3t-11 4.5t-9 6t-1.5 6.5zM259 75q4 1 8 -3.5t7.5 -12t6 -16t4.5 -15.5q3 -9 -1.5 -14t-13.5 -9q-46 -17 -88 -17
q-22 0 -41 6.5t-32.5 22t-21.5 40t-8 60.5v407q0 4 6 7.5t15 5.5t19.5 3t19.5 1q13 0 18.5 -7.5t5.5 -18.5v-363q0 -56 14.5 -75.5t58.5 -6.5q3 1 7.5 1.5t15.5 3.5z" />
    <glyph glyph-name="icircumflex" unicode="&#xee;" horiz-adv-x="287" 
d="M259 75q4 1 8 -3.5t7.5 -12t6 -16t4.5 -15.5q3 -9 -1.5 -14t-13.5 -9q-46 -17 -88 -17q-22 0 -41 6.5t-32.5 22t-21.5 40t-8 60.5v407q0 4 6 7.5t15 5.5t19.5 3t19.5 1q13 0 18.5 -7.5t5.5 -18.5v-363q0 -56 14.5 -75.5t58.5 -6.5q3 1 7.5 1.5t15.5 3.5zM263 651
q-4 -5 -10 -10.5t-12.5 -10t-11.5 -6.5t-8 0l-95 82l-94 -82q-3 -2 -8.5 0t-11.5 6.5t-12.5 10t-10.5 10.5q-7 8 -5 15t8 14l123 107q5 5 11 5t12 -5l122 -107q7 -7 9 -14t-6 -15z" />
    <glyph glyph-name="idieresis" unicode="&#xef;" horiz-adv-x="289" 
d="M175 728q0 4 6 7t15 5t19.5 3t19.5 1q13 0 18 -7.5t5 -18.5v-73q0 -11 -5 -18.5t-18 -7.5q-9 0 -19.5 1t-19.5 3t-15 5t-6 7v93zM-10 728q0 4 6 7t15 5t19.5 3t19.5 1q13 0 18 -7.5t5 -18.5v-73q0 -11 -5 -18.5t-18 -7.5q-9 0 -19.5 1t-19.5 3t-15 5t-6 7v93zM259 75
q4 1 8 -3.5t7.5 -12t6 -16t4.5 -15.5q3 -9 -1.5 -14t-13.5 -9q-46 -17 -88 -17q-22 0 -41 6.5t-32.5 22t-21.5 40t-8 60.5v407q0 4 6 7.5t15 5.5t19.5 3t19.5 1q13 0 18.5 -7.5t5.5 -18.5v-363q0 -56 14.5 -75.5t58.5 -6.5q3 1 7.5 1.5t15.5 3.5z" />
    <glyph glyph-name="eth" unicode="&#xf0;" horiz-adv-x="607" 
d="M169 650q-10 3 -10 15q1 9 4.5 20t8.5 19t12.5 11.5t17.5 -0.5q14 -7 28 -14.5t28 -16.5l40 47q7 8 16 10.5t19 -5.5q13 -11 27 -25.5t10 -21.5l-42 -46q49 -36 90 -80t70 -96.5t45 -112.5t16 -127v-4q0 -67 -15 -112t-45.5 -72.5t-77 -39t-109.5 -11.5h-7q-62 0 -108 12
t-76.5 39.5t-45.5 72.5t-15 111v4q0 64 14 108t42.5 71.5t72 40.5t102.5 15q44 1 71 -7t49 -18q-24 44 -53.5 78.5t-66.5 64.5l-43 -49q-8 -8 -16.5 -11t-17.5 5q-14 11 -28 25.5t-9 22.5l45 50q-11 8 -21.5 14.5t-21.5 12.5zM295 387q-50 0 -79.5 -11t-45.5 -32t-21 -52.5
t-5 -72.5t5 -70.5t21 -48.5t45.5 -27.5t79.5 -8.5h7q51 0 81 9t46 27.5t21 48.5t5 72q0 40 -5 71t-21 52t-46.5 32t-80.5 11h-7z" />
    <glyph glyph-name="ntilde" unicode="&#xf1;" horiz-adv-x="528" 
d="M374 330q0 29 -1.5 54.5t-7 44t-17.5 29.5t-33 11q-34 0 -63.5 -4t-51.5 -10t-35 -13t-13 -13v-415q0 -11 -5 -18.5t-18 -7.5q-9 0 -19.5 1t-19.5 3t-15.5 5t-6.5 7v445q0 14 20 30t55 29.5t82.5 22.5t103.5 9q46 0 72 -15t38.5 -40.5t15.5 -58.5t3 -70v-342
q0 -11 -5.5 -18.5t-18.5 -7.5q-9 0 -19.5 1t-19.5 3t-15 5t-6 7v326zM220 765q15 0 28 -5t26 -11t26.5 -11t28.5 -5q14 0 25 6t19 20q2 4 7.5 4.5t28.5 -6.5q13 -4 10 -13q-1 -6 -3.5 -11.5t-5.5 -10.5q-15 -28 -36.5 -39.5t-41.5 -13.5q-5 -1 -9.5 -0.5t-8.5 0.5
q-13 2 -24.5 7t-23.5 10.5t-24 9.5t-26 4t-25 -5.5t-19 -20.5q-2 -5 -8 -5.5t-28 7.5q-13 4 -10 14q4 13 9 21q17 30 40.5 42t44.5 12z" />
    <glyph glyph-name="ograve" unicode="&#xf2;" horiz-adv-x="511" 
d="M60 345q0 96 47 145.5t149 49.5q101 0 148 -49.5t47 -145.5v-162q0 -96 -47 -145.5t-148 -49.5q-102 0 -149 49.5t-47 145.5v162zM144 210q0 -35 3.5 -62.5t15.5 -47.5t34 -30.5t59 -10.5t59 10.5t33.5 30.5t15 47.5t3.5 62.5v108q0 34 -3.5 62t-15 48t-33.5 30.5
t-59 10.5t-59 -10.5t-34 -30.5t-15.5 -48t-3.5 -62v-108zM267 647q3 -5 5.5 -9.5t3.5 -7.5q2 -3 -2.5 -6.5t-11.5 -6t-13.5 -4t-8.5 -1.5q-3 0 -9 4t-10 8l-126 114q-3 4 -5.5 7t-2.5 6q0 11 17 16q19 4 36 6.5t22 2.5q9 0 15 -6z" />
    <glyph glyph-name="oacute" unicode="&#xf3;" horiz-adv-x="511" 
d="M60 345q0 96 47 145.5t149 49.5q101 0 148 -49.5t47 -145.5v-162q0 -96 -47 -145.5t-148 -49.5q-102 0 -149 49.5t-47 145.5v162zM144 210q0 -35 3.5 -62.5t15.5 -47.5t34 -30.5t59 -10.5t59 10.5t33.5 30.5t15 47.5t3.5 62.5v108q0 34 -3.5 62t-15 48t-33.5 30.5
t-59 10.5t-59 -10.5t-34 -30.5t-15.5 -48t-3.5 -62v-108zM233 637q11 14 22 29t23 30q17 29 30 48t25 37q2 3 23 1t46 -7q8 -2 12 -7t2 -10q0 -3 -6 -9l-122 -120q-5 -5 -11.5 -9.5t-13.5 -2.5q-3 1 -8.5 3t-11 4.5t-9 6t-1.5 6.5z" />
    <glyph glyph-name="ocircumflex" unicode="&#xf4;" horiz-adv-x="511" 
d="M60 345q0 96 47 145.5t149 49.5q101 0 148 -49.5t47 -145.5v-162q0 -96 -47 -145.5t-148 -49.5q-102 0 -149 49.5t-47 145.5v162zM144 210q0 -35 3.5 -62.5t15.5 -47.5t34 -30.5t59 -10.5t59 10.5t33.5 30.5t15 47.5t3.5 62.5v108q0 34 -3.5 62t-15 48t-33.5 30.5
t-59 10.5t-59 -10.5t-34 -30.5t-15.5 -48t-3.5 -62v-108zM393 651q-4 -5 -10 -10.5t-12.5 -10t-11.5 -6.5t-8 0l-95 82l-94 -82q-3 -2 -8.5 0t-11.5 6.5t-12.5 10t-10.5 10.5q-7 8 -5 15t8 14l123 107q5 5 11 5t12 -5l122 -107q7 -7 9 -14t-6 -15z" />
    <glyph glyph-name="otilde" unicode="&#xf5;" horiz-adv-x="511" 
d="M60 345q0 96 47 145.5t149 49.5q101 0 148 -49.5t47 -145.5v-162q0 -96 -47 -145.5t-148 -49.5q-102 0 -149 49.5t-47 145.5v162zM144 210q0 -35 3.5 -62.5t15.5 -47.5t34 -30.5t59 -10.5t59 10.5t33.5 30.5t15 47.5t3.5 62.5v108q0 34 -3.5 62t-15 48t-33.5 30.5
t-59 10.5t-59 -10.5t-34 -30.5t-15.5 -48t-3.5 -62v-108zM203 716q15 0 28 -5t26 -11t26.5 -11t28.5 -5q14 0 25 6t19 20q2 4 7.5 4.5t28.5 -6.5q13 -4 10 -13q-1 -6 -3.5 -11.5t-5.5 -10.5q-15 -28 -36.5 -39.5t-41.5 -13.5q-5 -1 -9.5 -0.5t-8.5 0.5q-13 2 -24.5 7
t-23.5 10.5t-24 9.5t-26 4t-25 -5.5t-19 -20.5q-2 -5 -8 -5.5t-28 7.5q-13 4 -10 14q4 13 9 21q17 30 40.5 42t44.5 12z" />
    <glyph glyph-name="odieresis" unicode="&#xf6;" horiz-adv-x="511" 
d="M60 345q0 96 47 145.5t149 49.5q101 0 148 -49.5t47 -145.5v-162q0 -96 -47 -145.5t-148 -49.5q-102 0 -149 49.5t-47 145.5v162zM144 210q0 -35 3.5 -62.5t15.5 -47.5t34 -30.5t59 -10.5t59 10.5t33.5 30.5t15 47.5t3.5 62.5v108q0 34 -3.5 62t-15 48t-33.5 30.5
t-59 10.5t-59 -10.5t-34 -30.5t-15.5 -48t-3.5 -62v-108zM306 728q0 4 6 7t15 5t19.5 3t19.5 1q13 0 18 -7.5t5 -18.5v-73q0 -11 -5 -18.5t-18 -7.5q-9 0 -19.5 1t-19.5 3t-15 5t-6 7v93zM121 728q0 4 6 7t15 5t19.5 3t19.5 1q13 0 18 -7.5t5 -18.5v-73q0 -11 -5 -18.5
t-18 -7.5q-9 0 -19.5 1t-19.5 3t-15 5t-6 7v93z" />
    <glyph glyph-name="divide" unicode="&#xf7;" horiz-adv-x="502" 
d="M208 105q0 4 6 7t15 5t19.5 3t18.5 1q13 0 18.5 -7.5t5.5 -18.5v-73q0 -11 -5.5 -18.5t-18.5 -7.5q-8 0 -18.5 1t-19.5 3t-15 5t-6 7v93zM208 524q0 4 6 7.5t15 5.5t19.5 3t18.5 1q13 0 18.5 -7.5t5.5 -18.5v-74q0 -11 -5.5 -18.5t-18.5 -7.5q-8 0 -18.5 1t-19.5 3t-15 5
t-6 8v92zM46 229q-11 0 -18.5 5t-7.5 18q0 9 1 19t3 19t5 15t8 6h420q10 0 17.5 -5.5t7.5 -18.5q0 -8 -1 -18t-3 -19t-5 -15t-7 -6h-420z" />
    <glyph glyph-name="oslash" unicode="&#xf8;" horiz-adv-x="523" 
d="M63 345q0 96 47 145.5t149 49.5q45 0 81 -11l43 84q8 12 18 20q8 6 19.5 1t21 -14.5t15.5 -19t4 -12.5l-46 -101l-2 -4q41 -50 41 -138v-162q0 -96 -47 -145.5t-148 -49.5q-29 0 -53 4t-44 12q-14 -33 -30 -67t-32 -51q-8 -8 -24 1q-17 10 -28.5 24.5t-7.5 19.5l59 119
q-36 48 -36 133v162zM370 307q0 24 -1 45t-5 39l-168 -319q24 -13 63 -13q37 0 59 10.5t33.5 30.5t15 47.5t3.5 62.5v97zM147 221q0 -20 0.5 -37t2.5 -32l3 5l154 305q-18 7 -48 7q-37 0 -59 -10.5t-34 -30.5t-15.5 -48t-3.5 -62v-97z" />
    <glyph glyph-name="ugrave" unicode="&#xf9;" horiz-adv-x="529" 
d="M69 515q0 13 16 19t31 6t26 -5t11 -12v-325q0 -29 1.5 -54.5t7 -44.5t17.5 -29.5t33 -10.5q34 0 63.5 4t51.5 10t35 13t13 13v416q0 13 16 19t30 6q15 0 26.5 -5t11.5 -12v-444q0 -14 -20 -30t-55 -29.5t-82.5 -22.5t-103.5 -9q-46 0 -72 15t-38.5 40.5t-15.5 58.5t-3 70
v343zM276 647q3 -5 5.5 -9.5t3.5 -7.5q2 -3 -2.5 -6.5t-11.5 -6t-13.5 -4t-8.5 -1.5q-3 0 -9 4t-10 8l-126 114q-3 4 -5.5 7t-2.5 6q0 11 17 16q19 4 36 6.5t22 2.5q9 0 15 -6z" />
    <glyph glyph-name="uacute" unicode="&#xfa;" horiz-adv-x="529" 
d="M69 515q0 13 16 19t31 6t26 -5t11 -12v-325q0 -29 1.5 -54.5t7 -44.5t17.5 -29.5t33 -10.5q34 0 63.5 4t51.5 10t35 13t13 13v416q0 13 16 19t30 6q15 0 26.5 -5t11.5 -12v-444q0 -14 -20 -30t-55 -29.5t-82.5 -22.5t-103.5 -9q-46 0 -72 15t-38.5 40.5t-15.5 58.5t-3 70
v343zM242 637q11 14 22 29t23 30q17 29 30 48t25 37q2 3 23 1t46 -7q8 -2 12 -7t2 -10q0 -3 -6 -9l-122 -120q-5 -5 -11.5 -9.5t-13.5 -2.5q-3 1 -8.5 3t-11 4.5t-9 6t-1.5 6.5z" />
    <glyph glyph-name="ucircumflex" unicode="&#xfb;" horiz-adv-x="529" 
d="M69 515q0 13 16 19t31 6t26 -5t11 -12v-325q0 -29 1.5 -54.5t7 -44.5t17.5 -29.5t33 -10.5q34 0 63.5 4t51.5 10t35 13t13 13v416q0 13 16 19t30 6q15 0 26.5 -5t11.5 -12v-444q0 -14 -20 -30t-55 -29.5t-82.5 -22.5t-103.5 -9q-46 0 -72 15t-38.5 40.5t-15.5 58.5t-3 70
v343zM401 651q-4 -5 -10 -10.5t-12.5 -10t-11.5 -6.5t-8 0l-95 82l-94 -82q-3 -2 -8.5 0t-11.5 6.5t-12.5 10t-10.5 10.5q-7 8 -5 15t8 14l123 107q5 5 11 5t12 -5l122 -107q7 -7 9 -14t-6 -15z" />
    <glyph glyph-name="udieresis" unicode="&#xfc;" horiz-adv-x="529" 
d="M69 515q0 13 16 19t31 6t26 -5t11 -12v-325q0 -29 1.5 -54.5t7 -44.5t17.5 -29.5t33 -10.5q34 0 63.5 4t51.5 10t35 13t13 13v416q0 13 16 19t30 6q15 0 26.5 -5t11.5 -12v-444q0 -14 -20 -30t-55 -29.5t-82.5 -22.5t-103.5 -9q-46 0 -72 15t-38.5 40.5t-15.5 58.5t-3 70
v343zM313 728q0 4 6 7t15 5t19.5 3t19.5 1q13 0 18 -7.5t5 -18.5v-73q0 -11 -5 -18.5t-18 -7.5q-9 0 -19.5 1t-19.5 3t-15 5t-6 7v93zM128 728q0 4 6 7t15 5t19.5 3t19.5 1q13 0 18 -7.5t5 -18.5v-73q0 -11 -5 -18.5t-18 -7.5q-9 0 -19.5 1t-19.5 3t-15 5t-6 7v93z" />
    <glyph glyph-name="yacute" unicode="&#xfd;" horiz-adv-x="555" 
d="M330 -184q21 0 33 9.5t18 29t7 49t1 70.5v48q-36 -20 -83 -27.5t-95 -7.5q-47 0 -73 15.5t-38 41.5t-14.5 60t-2.5 72v347q0 8 11 13t26 5q14 0 30.5 -6t16.5 -17v-331q0 -27 1.5 -50.5t7.5 -41t18 -27t32 -9.5q32 0 61 3.5t51 8.5t35.5 11.5t15.5 12.5v428q0 8 10.5 13
t26.5 5q14 0 30 -6.5t16 -18.5v-551q0 -57 -3.5 -99t-18 -69t-43.5 -40t-79 -13q-57 0 -112 11t-110 35q-10 5 -14 10t-1 14q3 14 10.5 30t15.5 16q4 0 12 -2q48 -18 96 -30t105 -12zM258 637q11 14 22 29t23 30q17 29 30 48t25 37q2 3 23 1t46 -7q8 -2 12 -7t2 -10
q0 -3 -6 -9l-122 -120q-5 -5 -11.5 -9.5t-13.5 -2.5q-3 1 -8.5 3t-11 4.5t-9 6t-1.5 6.5z" />
    <glyph glyph-name="thorn" unicode="&#xfe;" horiz-adv-x="520" 
d="M75 753q0 4 6.5 7.5t16 5t20 2.5t18.5 1q11 0 16.5 -7t5.5 -18v-241q80 37 177 37q47 0 72.5 -15.5t37 -42t13 -61t1.5 -72.5v-168q0 -38 -1.5 -73t-13.5 -61.5t-37.5 -42.5t-72.5 -16q-29 0 -76.5 3.5t-99.5 15.5v-251q0 -11 -5.5 -18t-16.5 -7q-8 0 -18.5 1t-20 3
t-16 5t-6.5 7v1006zM158 89q4 -6 17.5 -11.5t34.5 -9.5t47 -6.5t56 -2.5q17 0 31 6q12 6 18.5 18.5t9 31t3 42t0.5 49.5v142q0 42 -4.5 73t-24.5 41q-8 3 -16.5 5t-17.5 2q-32 0 -60 -4t-49 -10t-33 -13t-12 -13v-340z" />
    <glyph glyph-name="ydieresis" unicode="&#xff;" horiz-adv-x="555" 
d="M330 -184q21 0 33 9.5t18 29t7 49t1 70.5v48q-36 -20 -83 -27.5t-95 -7.5q-47 0 -73 15.5t-38 41.5t-14.5 60t-2.5 72v347q0 8 11 13t26 5q14 0 30.5 -6t16.5 -17v-331q0 -27 1.5 -50.5t7.5 -41t18 -27t32 -9.5q32 0 61 3.5t51 8.5t35.5 11.5t15.5 12.5v428q0 8 10.5 13
t26.5 5q14 0 30 -6.5t16 -18.5v-551q0 -57 -3.5 -99t-18 -69t-43.5 -40t-79 -13q-57 0 -112 11t-110 35q-10 5 -14 10t-1 14q3 14 10.5 30t15.5 16q4 0 12 -2q48 -18 96 -30t105 -12zM330 728q0 4 6 7t15 5t19.5 3t19.5 1q13 0 18 -7.5t5 -18.5v-73q0 -11 -5 -18.5t-18 -7.5
q-9 0 -19.5 1t-19.5 3t-15 5t-6 7v93zM145 728q0 4 6 7t15 5t19.5 3t19.5 1q13 0 18 -7.5t5 -18.5v-73q0 -11 -5 -18.5t-18 -7.5q-9 0 -19.5 1t-19.5 3t-15 5t-6 7v93z" />
    <glyph glyph-name="Amacron" unicode="&#x100;" horiz-adv-x="595" 
d="M415 212h-234l-55 -193q-3 -10 -10.5 -16t-17 -9.5t-19 -4.5t-16.5 -1q-14 0 -25 5t-11 16q0 3 1 6t2 7l223 695q2 6 15 10.5t27 4.5q11 0 28 -3.5t20 -12.5l224 -694q1 -4 1.5 -7t0.5 -6q0 -11 -10.5 -16t-24.5 -5q-7 0 -17 1t-19 4.5t-16.5 9.5t-10.5 16zM205 289h187
l-94 329zM179 798q-15 0 -15 15q0 11 2 25.5t8 14.5h236q6 0 11 -4t5 -12q0 -11 -3 -25t-8 -14h-236z" />
    <glyph glyph-name="amacron" unicode="&#x101;" horiz-adv-x="496" 
d="M431 53q0 -14 -17 -24t-43 -17.5t-57 -12t-60 -7t-51.5 -3.5t-31.5 -1q-38 0 -62.5 11t-38.5 31t-19.5 49t-5.5 65q0 31 3.5 59.5t16.5 50.5t38 35.5t67 13.5q49 0 94 -6.5t83 -21.5q0 54 -5 91.5t-18 60t-35 32.5t-58 10q-14 0 -28 -1.5t-37 -5.5l-42 -7q-4 0 -8 4.5
t-7 12t-5.5 16t-3.5 15.5q-2 11 3 16.5t14 7.5l30 6q20 3 42.5 5t51.5 2q96 0 143 -52t47 -144v-291zM186 59q59 0 100 7t61 14v121q-12 10 -52 20t-100 10q-35 0 -49.5 -19t-15.5 -60q0 -41 10.5 -67t45.5 -26zM126 618q-15 0 -15 15q0 11 2 25.5t8 14.5h236q6 0 11 -4
t5 -12q0 -11 -3 -25t-8 -14h-236z" />
    <glyph glyph-name="Abreve" unicode="&#x102;" horiz-adv-x="595" 
d="M415 212h-234l-55 -193q-3 -10 -10.5 -16t-17 -9.5t-19 -4.5t-16.5 -1q-14 0 -25 5t-11 16q0 3 1 6t2 7l223 695q2 6 15 10.5t27 4.5q11 0 28 -3.5t20 -12.5l224 -694q1 -4 1.5 -7t0.5 -6q0 -11 -10.5 -16t-24.5 -5q-7 0 -17 1t-19 4.5t-16.5 9.5t-10.5 16zM205 289h187
l-94 329zM148 911q0 19 17 19q12 0 28.5 -3t16.5 -10q0 -18 8 -31.5t20.5 -21.5t28 -12t30.5 -4t30 4t27.5 12t20.5 21.5t8 31.5q0 3 5 5.5t11.5 4t14 2.5t13.5 1q18 0 18 -19q0 -29 -13.5 -51.5t-34.5 -38t-47.5 -23.5t-53.5 -8q-26 0 -52.5 8t-47.5 23.5t-34.5 38
t-13.5 51.5z" />
    <glyph glyph-name="abreve" unicode="&#x103;" horiz-adv-x="496" 
d="M431 53q0 -14 -17 -24t-43 -17.5t-57 -12t-60 -7t-51.5 -3.5t-31.5 -1q-38 0 -62.5 11t-38.5 31t-19.5 49t-5.5 65q0 31 3.5 59.5t16.5 50.5t38 35.5t67 13.5q49 0 94 -6.5t83 -21.5q0 54 -5 91.5t-18 60t-35 32.5t-58 10q-14 0 -28 -1.5t-37 -5.5l-42 -7q-4 0 -8 4.5
t-7 12t-5.5 16t-3.5 15.5q-2 11 3 16.5t14 7.5l30 6q20 3 42.5 5t51.5 2q96 0 143 -52t47 -144v-291zM186 59q59 0 100 7t61 14v121q-12 10 -52 20t-100 10q-35 0 -49.5 -19t-15.5 -60q0 -41 10.5 -67t45.5 -26zM97 731q0 19 17 19q12 0 28.5 -3t16.5 -10q0 -18 8 -31.5
t20.5 -21.5t28 -12t30.5 -4t30 4t27.5 12t20.5 21.5t8 31.5q0 3 5 5.5t11.5 4t14 2.5t13.5 1q18 0 18 -19q0 -29 -13.5 -51.5t-34.5 -38t-47.5 -23.5t-53.5 -8q-26 0 -52.5 8t-47.5 23.5t-34.5 38t-13.5 51.5z" />
    <glyph glyph-name="Aogonek" unicode="&#x104;" horiz-adv-x="595" 
d="M556 -119q6 4 13.5 -5t10.5 -15q4 -8 -2 -14q-36 -45 -87 -45q-45 0 -75 27t-30 74q0 40 25.5 68t58.5 49l-55 192h-234l-55 -193q-3 -10 -10.5 -16t-17 -9.5t-19 -4.5t-16.5 -1q-14 0 -25 5t-11 16q0 3 1 6t2 7l223 695q2 6 15 10.5t27 4.5q11 0 28 -3.5t20 -12.5
l224 -694q1 -4 1.5 -7t0.5 -6q0 -11 -10.5 -16t-24.5 -5q-12 0 -27 3q-23 -21 -33.5 -40.5t-10.5 -35.5q0 -26 13 -37.5t33 -11.5q11 0 22 2.5t25 12.5zM205 289h187l-94 329z" />
    <glyph glyph-name="aogonek" unicode="&#x105;" horiz-adv-x="537" 
d="M422 -96q6 4 13.5 -5t10.5 -15q4 -8 -2 -14q-36 -45 -87 -45q-45 0 -75 27t-30 74q0 20 7 37.5t19 31.5q-36 -4 -66 -5.5t-41 -1.5q-38 0 -62.5 11t-38.5 31t-19.5 49t-5.5 65q0 31 3.5 59.5t16.5 50.5t38 35.5t67 13.5q49 0 94 -6.5t83 -21.5q0 54 -5 91.5t-18 60
t-35 32.5t-58 10q-14 0 -28 -1.5t-37 -5.5l-42 -7q-4 0 -8 4.5t-7 12t-5.5 16t-3.5 15.5q-2 11 3 16.5t14 7.5l30 6q20 3 42.5 5t51.5 2q96 0 143 -52t47 -144v-291q0 -14 -17.5 -24t-43.5 -18q-22 -20 -31.5 -38.5t-9.5 -34.5q0 -26 13 -37.5t33 -11.5q11 0 22 2.5t25 12.5
zM186 59q59 0 100 7t61 14v121q-12 10 -52 20t-100 10q-35 0 -49.5 -19t-15.5 -60q0 -41 10.5 -67t45.5 -26z" />
    <glyph glyph-name="Cacute" unicode="&#x106;" horiz-adv-x="559" 
d="M482 81q4 0 9 -6t9 -15t7 -18.5t3 -17.5q0 -10 -17.5 -17t-42.5 -11t-52.5 -6t-47.5 -2h-9q-71 0 -124 13.5t-88 45t-52 83t-17 126.5v206q0 76 17 127.5t52 83t88 45t124 13.5h9q20 0 47.5 -2t52.5 -6t42.5 -11t17.5 -17q0 -8 -3 -17.5t-7 -18t-9 -15t-9 -6.5
q-33 8 -64 12t-68 4q-68 0 -107 -13t-58.5 -40.5t-24.5 -70.5t-5 -102v-137q0 -57 4.5 -100t23.5 -71t56 -42t102 -14q41 0 73.5 4.5t67.5 12.5zM323 817q11 14 22 29t23 30q17 29 30 48t25 37q2 3 23 1t46 -7q8 -2 12 -7t2 -10q0 -3 -6 -9l-122 -120q-5 -5 -11.5 -9.5
t-13.5 -2.5q-3 1 -8.5 3t-11 4.5t-9 6t-1.5 6.5z" />
    <glyph glyph-name="cacute" unicode="&#x107;" horiz-adv-x="441" 
d="M372 74q4 1 7.5 -4t6.5 -12.5t5.5 -16t4.5 -15.5q2 -11 -3 -16.5t-15 -7.5q-54 -15 -128 -15q-101 0 -145.5 52.5t-44.5 152.5v143q0 100 44.5 152.5t145.5 52.5q39 0 68.5 -3.5t59.5 -11.5q21 -3 18 -23q-2 -7 -4.5 -16t-5.5 -16.5t-6.5 -12t-7.5 -4.5q-29 5 -48 8.5
t-31.5 5t-22 2t-20.5 0.5q-33 0 -53.5 -12t-32.5 -33.5t-16 -51.5t-4 -65v-87q0 -35 4 -64.5t16 -51t32.5 -33.5t53.5 -12q11 0 20 0.5t22 2t31.5 4.5t48.5 8zM231 637q11 14 22 29t23 30q17 29 30 48t25 37q2 3 23 1t46 -7q8 -2 12 -7t2 -10q0 -3 -6 -9l-122 -120
q-5 -5 -11.5 -9.5t-13.5 -2.5q-3 1 -8.5 3t-11 4.5t-9 6t-1.5 6.5z" />
    <glyph glyph-name="Ccircumflex" unicode="&#x108;" horiz-adv-x="562" 
d="M482 81q4 0 9 -6t9 -15t7 -18.5t3 -17.5q0 -10 -17.5 -17t-42.5 -11t-52.5 -6t-47.5 -2h-9q-71 0 -124 13.5t-88 45t-52 83t-17 126.5v206q0 76 17 127.5t52 83t88 45t124 13.5h9q20 0 47.5 -2t52.5 -6t42.5 -11t17.5 -17q0 -8 -3 -17.5t-7 -18t-9 -15t-9 -6.5
q-33 8 -64 12t-68 4q-68 0 -107 -13t-58.5 -40.5t-24.5 -70.5t-5 -102v-137q0 -57 4.5 -100t23.5 -71t56 -42t102 -14q41 0 73.5 4.5t67.5 12.5zM480 831q-4 -5 -10 -10.5t-12.5 -10t-11.5 -6.5t-8 0l-95 82l-94 -82q-3 -2 -8.5 0t-11.5 6.5t-12.5 10t-10.5 10.5q-7 8 -5 15
t8 14l123 107q5 5 11 5t12 -5l122 -107q7 -7 9 -14t-6 -15z" />
    <glyph glyph-name="ccircumflex" unicode="&#x109;" horiz-adv-x="441" 
d="M372 74q4 1 7.5 -4t6.5 -12.5t5.5 -16t4.5 -15.5q2 -11 -3 -16.5t-15 -7.5q-54 -15 -128 -15q-101 0 -145.5 52.5t-44.5 152.5v143q0 100 44.5 152.5t145.5 52.5q39 0 68.5 -3.5t59.5 -11.5q21 -3 18 -23q-2 -7 -4.5 -16t-5.5 -16.5t-6.5 -12t-7.5 -4.5q-29 5 -48 8.5
t-31.5 5t-22 2t-20.5 0.5q-33 0 -53.5 -12t-32.5 -33.5t-16 -51.5t-4 -65v-87q0 -35 4 -64.5t16 -51t32.5 -33.5t53.5 -12q11 0 20 0.5t22 2t31.5 4.5t48.5 8zM386 651q-4 -5 -10 -10.5t-12.5 -10t-11.5 -6.5t-8 0l-95 82l-94 -82q-3 -2 -8.5 0t-11.5 6.5t-12.5 10
t-10.5 10.5q-7 8 -5 15t8 14l123 107q5 5 11 5t12 -5l122 -107q7 -7 9 -14t-6 -15z" />
    <glyph glyph-name="Cdotaccent" unicode="&#x10a;" horiz-adv-x="562" 
d="M482 81q4 0 9 -6t9 -15t7 -18.5t3 -17.5q0 -10 -17.5 -17t-42.5 -11t-52.5 -6t-47.5 -2h-9q-71 0 -124 13.5t-88 45t-52 83t-17 126.5v206q0 76 17 127.5t52 83t88 45t124 13.5h9q20 0 47.5 -2t52.5 -6t42.5 -11t17.5 -17q0 -8 -3 -17.5t-7 -18t-9 -15t-9 -6.5
q-33 8 -64 12t-68 4q-68 0 -107 -13t-58.5 -40.5t-24.5 -70.5t-5 -102v-137q0 -57 4.5 -100t23.5 -71t56 -42t102 -14q41 0 73.5 4.5t67.5 12.5zM292 907q0 4 6 7t15 5t19.5 3t19.5 1q13 0 18 -7.5t5 -18.5v-73q0 -11 -5 -18.5t-18 -7.5q-9 0 -19.5 1t-19.5 3t-15 5t-6 7v93
z" />
    <glyph glyph-name="cdotaccent" unicode="&#x10b;" horiz-adv-x="433" 
d="M372 74q4 1 7.5 -4t6.5 -12.5t5.5 -16t4.5 -15.5q2 -11 -3 -16.5t-15 -7.5q-54 -15 -128 -15q-101 0 -145.5 52.5t-44.5 152.5v143q0 100 44.5 152.5t145.5 52.5q39 0 68.5 -3.5t59.5 -11.5q21 -3 18 -23q-2 -7 -4.5 -16t-5.5 -16.5t-6.5 -12t-7.5 -4.5q-29 5 -48 8.5
t-31.5 5t-22 2t-20.5 0.5q-33 0 -53.5 -12t-32.5 -33.5t-16 -51.5t-4 -65v-87q0 -35 4 -64.5t16 -51t32.5 -33.5t53.5 -12q11 0 20 0.5t22 2t31.5 4.5t48.5 8zM213 727q0 4 6 7t15 5t19.5 3t19.5 1q13 0 18 -7.5t5 -18.5v-73q0 -11 -5 -18.5t-18 -7.5q-9 0 -19.5 1t-19.5 3
t-15 5t-6 7v93z" />
    <glyph glyph-name="Ccaron" unicode="&#x10c;" horiz-adv-x="562" 
d="M482 81q4 0 9 -6t9 -15t7 -18.5t3 -17.5q0 -10 -17.5 -17t-42.5 -11t-52.5 -6t-47.5 -2h-9q-71 0 -124 13.5t-88 45t-52 83t-17 126.5v206q0 76 17 127.5t52 83t88 45t124 13.5h9q20 0 47.5 -2t52.5 -6t42.5 -11t17.5 -17q0 -8 -3 -17.5t-7 -18t-9 -15t-9 -6.5
q-33 8 -64 12t-68 4q-68 0 -107 -13t-58.5 -40.5t-24.5 -70.5t-5 -102v-137q0 -57 4.5 -100t23.5 -71t56 -42t102 -14q41 0 73.5 4.5t67.5 12.5zM474 940q2 -7 3 -13.5t-4 -11.5q-3 -4 -7.5 -8.5l-10.5 -10.5l-109 -96q-3 -4 -6 -4q-7 -4 -17 4q-15 13 -32.5 28t-34.5 30
t-32.5 29.5t-27.5 27.5q-7 9 0 25q1 3 5 8.5t9 10.5t10 8t9 2q5 -2 11 -6t11 -9l84 -74l83 74q11 11 22 15q4 1 9 -2t10 -8t9 -10.5t6 -8.5z" />
    <glyph glyph-name="ccaron" unicode="&#x10d;" horiz-adv-x="441" 
d="M372 74q4 1 7.5 -4t6.5 -12.5t5.5 -16t4.5 -15.5q2 -11 -3 -16.5t-15 -7.5q-54 -15 -128 -15q-101 0 -145.5 52.5t-44.5 152.5v143q0 100 44.5 152.5t145.5 52.5q39 0 68.5 -3.5t59.5 -11.5q21 -3 18 -23q-2 -7 -4.5 -16t-5.5 -16.5t-6.5 -12t-7.5 -4.5q-29 5 -48 8.5
t-31.5 5t-22 2t-20.5 0.5q-33 0 -53.5 -12t-32.5 -33.5t-16 -51.5t-4 -65v-87q0 -35 4 -64.5t16 -51t32.5 -33.5t53.5 -12q11 0 20 0.5t22 2t31.5 4.5t48.5 8zM389 760q2 -7 3 -13.5t-4 -11.5q-3 -4 -7.5 -8.5l-10.5 -10.5l-109 -96q-3 -4 -6 -4q-7 -4 -17 4
q-15 13 -32.5 28t-34.5 30t-32.5 29.5t-27.5 27.5q-7 9 0 25q1 3 5 8.5t9 10.5t10 8t9 2q5 -2 11 -6t11 -9l84 -74l83 74q11 11 22 15q4 1 9 -2t10 -8t9 -10.5t6 -8.5z" />
    <glyph glyph-name="Dcaron" unicode="&#x10e;" horiz-adv-x="651" 
d="M310 719q71 0 124 -13.5t88 -45t52 -83t17 -127.5v-181q0 -76 -17 -127.5t-52 -83t-88 -45t-124 -13.5h-192q-13 0 -28 5t-15 12v676q0 11 4.5 16.5t12 7.5t16.5 2h18h184zM164 642v-565h146q64 0 101.5 14t56 42t23.5 70.5t5 99.5v113q0 57 -5 99.5t-23.5 70.5t-56 42
t-101.5 14h-146zM439 932q2 -7 3 -13.5t-4 -11.5q-3 -4 -7.5 -8.5l-10.5 -10.5l-109 -96q-3 -4 -6 -4q-7 -4 -17 4q-15 13 -32.5 28t-34.5 30t-32.5 29.5t-27.5 27.5q-7 9 0 25q1 3 5 8.5t9 10.5t10 8t9 2q5 -2 11 -6t11 -9l84 -74l83 74q11 11 22 15q4 1 9 -2t10 -8
t9 -10.5t6 -8.5z" />
    <glyph glyph-name="dcaron" unicode="&#x10f;" horiz-adv-x="853" 
d="M447 71q0 -19 -7.5 -28.5t-23.5 -16.5q-26 -12 -57 -19.5t-62.5 -11.5t-60 -5.5t-48.5 -1.5q-47 0 -72 16t-37 42.5t-14 61.5t-2 73v168q0 38 2 72.5t13.5 61t36.5 42t72 15.5q48 0 92 -8t85 -31v234q0 13 16 19t30 6q16 0 26.5 -5t10.5 -12v-672zM364 428q0 4 -13 11
t-35 13.5t-51.5 11.5t-63.5 5q-18 0 -29 -8t-16.5 -23t-7 -35t-1.5 -44v-153q0 -31 1 -57.5t6 -46.5t16 -31.5t32 -11.5q31 0 58 3t48.5 7.5t36 9t19.5 7.5v342z" />
    <glyph glyph-name="Dcroat" unicode="&#x110;" horiz-adv-x="672" 
d="M329 719q71 0 124 -13.5t88 -45t52 -83t17 -127.5v-181q0 -76 -17 -127.5t-52 -83t-88 -45t-124 -13.5h-192q-13 0 -28 5t-15 12v350h-67q-15 0 -15 15q0 11 2 25.5t8 14.5h72v271q0 11 4.5 16.5t12 7.5t16.5 2h18h184zM183 367v-290h146q64 0 101.5 14t56 42t23.5 70.5
t5 99.5v113q0 57 -5 99.5t-23.5 70.5t-56 42t-101.5 14h-146v-220h75q6 0 11 -4t5 -12q0 -11 -3 -25t-8 -14h-80z" />
    <glyph glyph-name="dcroat" unicode="&#x111;" horiz-adv-x="543" 
d="M447 570v-499q0 -19 -7.5 -28.5t-23.5 -16.5q-26 -12 -57 -19.5t-62.5 -11.5t-60 -5.5t-48.5 -1.5q-47 0 -72 16t-37 42.5t-14 61.5t-2 73v168q0 38 2 72.5t13.5 61t36.5 42t72 15.5q48 0 92 -8t85 -31v69h-66q-11 0 -18 5t-7 18q0 9 1 19t3 19t5 15t7 6h75v83
q0 13 16 19t30 6q16 0 26.5 -5t10.5 -12v-91h63q10 0 17.5 -5.5t7.5 -18.5q0 -8 -1 -18t-3 -19t-5 -15t-7 -6h-72zM364 428q0 4 -13 11t-35 13.5t-51.5 11.5t-63.5 5q-18 0 -29 -8t-16.5 -23t-7 -35t-1.5 -44v-153q0 -31 1 -57.5t6 -46.5t16 -31.5t32 -11.5q31 0 58 3
t48.5 7.5t36 9t19.5 7.5v342z" />
    <glyph glyph-name="Emacron" unicode="&#x112;" horiz-adv-x="563" 
d="M75 693q0 11 5.5 18.5t18.5 7.5h388q9 0 16 -5t7 -17q0 -8 -1 -17.5t-3 -18t-5 -14t-7 -5.5h-330v-238h293q10 0 16.5 -5t6.5 -16q0 -8 -1 -17.5t-3 -18t-4.5 -14.5t-6.5 -6h-301v-250h323q9 0 16 -5t7 -17q0 -8 -1 -17.5t-3 -18t-5 -14t-7 -5.5h-375q-13 0 -28.5 5
t-15.5 12v676zM198 798q-15 0 -15 15q0 11 2 25.5t8 14.5h236q6 0 11 -4t5 -12q0 -11 -3 -25t-8 -14h-236z" />
    <glyph glyph-name="emacron" unicode="&#x113;" horiz-adv-x="494" 
d="M400 5q-26 -7 -60.5 -12t-77.5 -5q-100 0 -151 52.5t-51 152.5v67q0 92 11.5 147.5t37.5 85t67.5 38.5t101.5 9q54 0 85.5 -13t48 -35t21.5 -51t5 -60v-60q0 -14 -10 -27.5t-41.5 -24t-89.5 -17t-153 -6.5q0 -39 4 -73.5t16.5 -59.5t36 -39.5t61.5 -14.5q15 0 29 1
t29 3.5l33 5.5t41 7q4 1 8 -3.5t7 -12t5 -16t4 -15.5q2 -11 -3 -16.5t-15 -7.5zM354 387q0 38 -19.5 60t-58.5 22q-36 0 -61 -6.5t-40.5 -24t-22.5 -48.5t-8 -79q89 2 144 9.5t66 26.5v40zM150 618q-15 0 -15 15q0 11 2 25.5t8 14.5h236q6 0 11 -4t5 -12q0 -11 -3 -25
t-8 -14h-236z" />
    <glyph glyph-name="Ebreve" unicode="&#x114;" horiz-adv-x="563" 
d="M75 693q0 11 5.5 18.5t18.5 7.5h388q9 0 16 -5t7 -17q0 -8 -1 -17.5t-3 -18t-5 -14t-7 -5.5h-330v-238h293q10 0 16.5 -5t6.5 -16q0 -8 -1 -17.5t-3 -18t-4.5 -14.5t-6.5 -6h-301v-250h323q9 0 16 -5t7 -17q0 -8 -1 -17.5t-3 -18t-5 -14t-7 -5.5h-375q-13 0 -28.5 5
t-15.5 12v676zM170 911q0 19 17 19q12 0 28.5 -3t16.5 -10q0 -18 8 -31.5t20.5 -21.5t28 -12t30.5 -4t30 4t27.5 12t20.5 21.5t8 31.5q0 3 5 5.5t11.5 4t14 2.5t13.5 1q18 0 18 -19q0 -29 -13.5 -51.5t-34.5 -38t-47.5 -23.5t-53.5 -8q-26 0 -52.5 8t-47.5 23.5t-34.5 38
t-13.5 51.5z" />
    <glyph glyph-name="ebreve" unicode="&#x115;" horiz-adv-x="494" 
d="M400 5q-26 -7 -60.5 -12t-77.5 -5q-100 0 -151 52.5t-51 152.5v67q0 92 11.5 147.5t37.5 85t67.5 38.5t101.5 9q54 0 85.5 -13t48 -35t21.5 -51t5 -60v-60q0 -14 -10 -27.5t-41.5 -24t-89.5 -17t-153 -6.5q0 -39 4 -73.5t16.5 -59.5t36 -39.5t61.5 -14.5q15 0 29 1
t29 3.5l33 5.5t41 7q4 1 8 -3.5t7 -12t5 -16t4 -15.5q2 -11 -3 -16.5t-15 -7.5zM354 387q0 38 -19.5 60t-58.5 22q-36 0 -61 -6.5t-40.5 -24t-22.5 -48.5t-8 -79q89 2 144 9.5t66 26.5v40zM122 731q0 19 17 19q12 0 28.5 -3t16.5 -10q0 -18 8 -31.5t20.5 -21.5t28 -12
t30.5 -4t30 4t27.5 12t20.5 21.5t8 31.5q0 3 5 5.5t11.5 4t14 2.5t13.5 1q18 0 18 -19q0 -29 -13.5 -51.5t-34.5 -38t-47.5 -23.5t-53.5 -8q-26 0 -52.5 8t-47.5 23.5t-34.5 38t-13.5 51.5z" />
    <glyph glyph-name="Edotaccent" unicode="&#x116;" horiz-adv-x="563" 
d="M75 693q0 11 5.5 18.5t18.5 7.5h388q9 0 16 -5t7 -17q0 -8 -1 -17.5t-3 -18t-5 -14t-7 -5.5h-330v-238h293q10 0 16.5 -5t6.5 -16q0 -8 -1 -17.5t-3 -18t-4.5 -14.5t-6.5 -6h-301v-250h323q9 0 16 -5t7 -17q0 -8 -1 -17.5t-3 -18t-5 -14t-7 -5.5h-375q-13 0 -28.5 5
t-15.5 12v676zM276 907q0 4 6 7t15 5t19.5 3t19.5 1q13 0 18 -7.5t5 -18.5v-73q0 -11 -5 -18.5t-18 -7.5q-9 0 -19.5 1t-19.5 3t-15 5t-6 7v93z" />
    <glyph glyph-name="edotaccent" unicode="&#x117;" horiz-adv-x="494" 
d="M400 5q-26 -7 -60.5 -12t-77.5 -5q-100 0 -151 52.5t-51 152.5v67q0 92 11.5 147.5t37.5 85t67.5 38.5t101.5 9q54 0 85.5 -13t48 -35t21.5 -51t5 -60v-60q0 -14 -10 -27.5t-41.5 -24t-89.5 -17t-153 -6.5q0 -39 4 -73.5t16.5 -59.5t36 -39.5t61.5 -14.5q15 0 29 1
t29 3.5l33 5.5t41 7q4 1 8 -3.5t7 -12t5 -16t4 -15.5q2 -11 -3 -16.5t-15 -7.5zM354 387q0 38 -19.5 60t-58.5 22q-36 0 -61 -6.5t-40.5 -24t-22.5 -48.5t-8 -79q89 2 144 9.5t66 26.5v40zM226 727q0 4 6 7t15 5t19.5 3t19.5 1q13 0 18 -7.5t5 -18.5v-73q0 -11 -5 -18.5
t-18 -7.5q-9 0 -19.5 1t-19.5 3t-15 5t-6 7v93z" />
    <glyph glyph-name="Eogonek" unicode="&#x118;" horiz-adv-x="563" 
d="M368 -122q6 4 13.5 -5t10.5 -15q4 -8 -2 -14q-36 -45 -87 -45q-45 0 -75 27t-30 74q0 32 17 56t42 44h-138q-13 0 -28.5 5t-15.5 12v676q0 11 5.5 18.5t18.5 7.5h388q9 0 16 -5t7 -17q0 -8 -1 -17.5t-3 -18t-5 -14t-7 -5.5h-330v-238h293q10 0 16.5 -5t6.5 -16
q0 -8 -1 -17.5t-3 -18t-4.5 -14.5t-6.5 -6h-301v-250h323q9 0 16 -5t7 -17q0 -8 -1 -17.5t-3 -18t-5 -14t-7 -5.5h-162q-30 -24 -43.5 -47t-13.5 -41q0 -26 13 -37.5t33 -11.5q11 0 22 2.5t25 12.5z" />
    <glyph glyph-name="eogonek" unicode="&#x119;" horiz-adv-x="493" 
d="M356 -121q6 4 13.5 -5t10.5 -15q4 -8 -2 -14q-36 -45 -87 -45q-45 0 -75 27t-30 74q0 27 12.5 49t32.5 39q-85 8 -128 60t-43 144v67q0 92 11.5 147.5t37.5 85t67.5 38.5t101.5 9q54 0 85.5 -13t48 -35t21.5 -51t5 -60v-60q0 -14 -10 -27.5t-41.5 -24t-89.5 -17
t-153 -6.5q0 -39 4 -73.5t16.5 -59.5t36 -39.5t61.5 -14.5q15 0 29 1t29 3.5l33 5.5t41 7q4 1 8 -3.5t7 -12t5 -16t4 -15.5q2 -11 -3 -16.5t-15 -7.5q-20 -5 -43 -9t-50 -6q-23 -21 -33.5 -41t-10.5 -36q0 -26 13 -37.5t33 -11.5q11 0 22 2.5t25 12.5zM354 387
q0 38 -19.5 60t-58.5 22q-36 0 -61 -6.5t-40.5 -24t-22.5 -48.5t-8 -79q89 2 144 9.5t66 26.5v40z" />
    <glyph glyph-name="Ecaron" unicode="&#x11a;" horiz-adv-x="573" 
d="M75 693q0 11 5.5 18.5t18.5 7.5h388q9 0 16 -5t7 -17q0 -8 -1 -17.5t-3 -18t-5 -14t-7 -5.5h-330v-238h293q10 0 16.5 -5t6.5 -16q0 -8 -1 -17.5t-3 -18t-4.5 -14.5t-6.5 -6h-301v-250h323q9 0 16 -5t7 -17q0 -8 -1 -17.5t-3 -18t-5 -14t-7 -5.5h-375q-13 0 -28.5 5
t-15.5 12v676zM453 940q2 -7 3 -13.5t-4 -11.5q-3 -4 -7.5 -8.5l-10.5 -10.5l-109 -96q-3 -4 -6 -4q-7 -4 -17 4q-15 13 -32.5 28t-34.5 30t-32.5 29.5t-27.5 27.5q-7 9 0 25q1 3 5 8.5t9 10.5t10 8t9 2q5 -2 11 -6t11 -9l84 -74l83 74q11 11 22 15q4 1 9 -2t10 -8t9 -10.5
t6 -8.5z" />
    <glyph glyph-name="ecaron" unicode="&#x11b;" horiz-adv-x="494" 
d="M400 5q-26 -7 -60.5 -12t-77.5 -5q-100 0 -151 52.5t-51 152.5v67q0 92 11.5 147.5t37.5 85t67.5 38.5t101.5 9q54 0 85.5 -13t48 -35t21.5 -51t5 -60v-60q0 -14 -10 -27.5t-41.5 -24t-89.5 -17t-153 -6.5q0 -39 4 -73.5t16.5 -59.5t36 -39.5t61.5 -14.5q15 0 29 1
t29 3.5l33 5.5t41 7q4 1 8 -3.5t7 -12t5 -16t4 -15.5q2 -11 -3 -16.5t-15 -7.5zM354 387q0 38 -19.5 60t-58.5 22q-36 0 -61 -6.5t-40.5 -24t-22.5 -48.5t-8 -79q89 2 144 9.5t66 26.5v40zM402 760q2 -7 3 -13.5t-4 -11.5q-3 -4 -7.5 -8.5l-10.5 -10.5l-109 -96q-3 -4 -6 -4
q-7 -4 -17 4q-15 13 -32.5 28t-34.5 30t-32.5 29.5t-27.5 27.5q-7 9 0 25q1 3 5 8.5t9 10.5t10 8t9 2q5 -2 11 -6t11 -9l84 -74l83 74q11 11 22 15q4 1 9 -2t10 -8t9 -10.5t6 -8.5z" />
    <glyph glyph-name="Gcircumflex" unicode="&#x11c;" horiz-adv-x="625" 
d="M341 654q-65 0 -102 -14t-56 -42t-23.5 -70.5t-4.5 -99.5v-137q0 -57 4.5 -99.5t23.5 -70.5t56 -42t102 -14h9q25 0 52 3.5t71 17.5v207q0 6 5 11t12.5 8.5t16 5.5t15.5 2q16 0 28 -6t12 -13v-236q0 -10 -2 -19.5t-11 -14.5q-45 -24 -96 -33t-103 -10h-9q-71 0 -124 13.5
t-88 45t-52 83t-17 127.5v205q0 76 17 127.5t52 83t88 45t124 13.5h9q78 0 142 -19q20 -6 17 -22q-1 -8 -4 -17.5t-7 -17.5t-8 -13t-8 -4q-33 8 -64 12t-68 4h-9zM481 831q-4 -5 -10 -10.5t-12.5 -10t-11.5 -6.5t-8 0l-95 82l-94 -82q-3 -2 -8.5 0t-11.5 6.5t-12.5 10
t-10.5 10.5q-7 8 -5 15t8 14l123 107q5 5 11 5t12 -5l122 -107q7 -7 9 -14t-6 -15z" />
    <glyph glyph-name="gcircumflex" unicode="&#x11d;" horiz-adv-x="532" 
d="M101 -141q45 -17 89.5 -28.5t96.5 -13.5q35 -2 51 14t21.5 43.5t4.5 63.5t-1 75q-17 -9 -41 -14t-49.5 -8t-48.5 -3.5t-37 -0.5q-47 0 -72.5 16t-37.5 42.5t-13.5 61.5t-1.5 73v168q0 38 1.5 72.5t13 61t37 42t72.5 15.5q54 0 101.5 -7t83 -19t55.5 -28.5t20 -36.5v-486
q0 -57 -3.5 -98.5t-17 -67.5t-41.5 -38.5t-76 -12.5q-46 0 -91.5 7t-92.5 23q-8 2 -17.5 5t-18.5 7t-15 8.5t-6 10.5q0 7 2.5 17t7 18.5t11 14t13.5 3.5zM363 434q0 6 -11 12.5t-30.5 11t-45.5 7.5t-56 3t-52 -12q-15 -11 -18.5 -37t-3.5 -61v-153q0 -50 3 -87.5t24 -50.5
q16 -9 42 -9q57 0 99 9.5t49 20.5v346zM397 651q-4 -5 -10 -10.5t-12.5 -10t-11.5 -6.5t-8 0l-95 82l-94 -82q-3 -2 -8.5 0t-11.5 6.5t-12.5 10t-10.5 10.5q-7 8 -5 15t8 14l123 107q5 5 11 5t12 -5l122 -107q7 -7 9 -14t-6 -15z" />
    <glyph glyph-name="Gbreve" unicode="&#x11e;" horiz-adv-x="622" 
d="M341 654q-65 0 -102 -14t-56 -42t-23.5 -70.5t-4.5 -99.5v-137q0 -57 4.5 -99.5t23.5 -70.5t56 -42t102 -14h9q25 0 52 3.5t71 17.5v207q0 6 5 11t12.5 8.5t16 5.5t15.5 2q16 0 28 -6t12 -13v-236q0 -10 -2 -19.5t-11 -14.5q-45 -24 -96 -33t-103 -10h-9q-71 0 -124 13.5
t-88 45t-52 83t-17 127.5v205q0 76 17 127.5t52 83t88 45t124 13.5h9q78 0 142 -19q20 -6 17 -22q-1 -8 -4 -17.5t-7 -17.5t-8 -13t-8 -4q-33 8 -64 12t-68 4h-9zM204 911q0 19 17 19q12 0 28.5 -3t16.5 -10q0 -18 8 -31.5t20.5 -21.5t28 -12t30.5 -4t30 4t27.5 12
t20.5 21.5t8 31.5q0 3 5 5.5t11.5 4t14 2.5t13.5 1q18 0 18 -19q0 -29 -13.5 -51.5t-34.5 -38t-47.5 -23.5t-53.5 -8q-26 0 -52.5 8t-47.5 23.5t-34.5 38t-13.5 51.5z" />
    <glyph glyph-name="gbreve" unicode="&#x11f;" horiz-adv-x="532" 
d="M101 -141q45 -17 89.5 -28.5t96.5 -13.5q35 -2 51 14t21.5 43.5t4.5 63.5t-1 75q-17 -9 -41 -14t-49.5 -8t-48.5 -3.5t-37 -0.5q-47 0 -72.5 16t-37.5 42.5t-13.5 61.5t-1.5 73v168q0 38 1.5 72.5t13 61t37 42t72.5 15.5q54 0 101.5 -7t83 -19t55.5 -28.5t20 -36.5v-486
q0 -57 -3.5 -98.5t-17 -67.5t-41.5 -38.5t-76 -12.5q-46 0 -91.5 7t-92.5 23q-8 2 -17.5 5t-18.5 7t-15 8.5t-6 10.5q0 7 2.5 17t7 18.5t11 14t13.5 3.5zM363 434q0 6 -11 12.5t-30.5 11t-45.5 7.5t-56 3t-52 -12q-15 -11 -18.5 -37t-3.5 -61v-153q0 -50 3 -87.5t24 -50.5
q16 -9 42 -9q57 0 99 9.5t49 20.5v346zM114 731q0 19 17 19q12 0 28.5 -3t16.5 -10q0 -18 8 -31.5t20.5 -21.5t28 -12t30.5 -4t30 4t27.5 12t20.5 21.5t8 31.5q0 3 5 5.5t11.5 4t14 2.5t13.5 1q18 0 18 -19q0 -29 -13.5 -51.5t-34.5 -38t-47.5 -23.5t-53.5 -8q-26 0 -52.5 8
t-47.5 23.5t-34.5 38t-13.5 51.5z" />
    <glyph glyph-name="Gdotaccent" unicode="&#x120;" horiz-adv-x="622" 
d="M341 654q-65 0 -102 -14t-56 -42t-23.5 -70.5t-4.5 -99.5v-137q0 -57 4.5 -99.5t23.5 -70.5t56 -42t102 -14h9q25 0 52 3.5t71 17.5v207q0 6 5 11t12.5 8.5t16 5.5t15.5 2q16 0 28 -6t12 -13v-236q0 -10 -2 -19.5t-11 -14.5q-45 -24 -96 -33t-103 -10h-9q-71 0 -124 13.5
t-88 45t-52 83t-17 127.5v205q0 76 17 127.5t52 83t88 45t124 13.5h9q78 0 142 -19q20 -6 17 -22q-1 -8 -4 -17.5t-7 -17.5t-8 -13t-8 -4q-33 8 -64 12t-68 4h-9zM308 907q0 4 6 7t15 5t19.5 3t19.5 1q13 0 18 -7.5t5 -18.5v-73q0 -11 -5 -18.5t-18 -7.5q-9 0 -19.5 1
t-19.5 3t-15 5t-6 7v93z" />
    <glyph glyph-name="gdotaccent" unicode="&#x121;" horiz-adv-x="532" 
d="M101 -141q45 -17 89.5 -28.5t96.5 -13.5q35 -2 51 14t21.5 43.5t4.5 63.5t-1 75q-17 -9 -41 -14t-49.5 -8t-48.5 -3.5t-37 -0.5q-47 0 -72.5 16t-37.5 42.5t-13.5 61.5t-1.5 73v168q0 38 1.5 72.5t13 61t37 42t72.5 15.5q54 0 101.5 -7t83 -19t55.5 -28.5t20 -36.5v-486
q0 -57 -3.5 -98.5t-17 -67.5t-41.5 -38.5t-76 -12.5q-46 0 -91.5 7t-92.5 23q-8 2 -17.5 5t-18.5 7t-15 8.5t-6 10.5q0 7 2.5 17t7 18.5t11 14t13.5 3.5zM363 434q0 6 -11 12.5t-30.5 11t-45.5 7.5t-56 3t-52 -12q-15 -11 -18.5 -37t-3.5 -61v-153q0 -50 3 -87.5t24 -50.5
q16 -9 42 -9q57 0 99 9.5t49 20.5v346zM218 727q0 4 6 7t15 5t19.5 3t19.5 1q13 0 18 -7.5t5 -18.5v-73q0 -11 -5 -18.5t-18 -7.5q-9 0 -19.5 1t-19.5 3t-15 5t-6 7v93z" />
    <glyph glyph-name="uni0122" unicode="&#x122;" horiz-adv-x="622" 
d="M341 654q-65 0 -102 -14t-56 -42t-23.5 -70.5t-4.5 -99.5v-137q0 -57 4.5 -99.5t23.5 -70.5t56 -42t102 -14h9q25 0 52 3.5t71 17.5v207q0 6 5 11t12.5 8.5t16 5.5t15.5 2q16 0 28 -6t12 -13v-236q0 -10 -2 -19.5t-11 -14.5q-45 -24 -96 -33t-103 -10h-9q-71 0 -124 13.5
t-88 45t-52 83t-17 127.5v205q0 76 17 127.5t52 83t88 45t124 13.5h9q78 0 142 -19q20 -6 17 -22q-1 -8 -4 -17.5t-7 -17.5t-8 -13t-8 -4q-33 8 -64 12t-68 4h-9zM310 -322q-7 -12 -14.5 -18t-22.5 -6q-7 0 -8 5.5t0 10.5q0 2 0.5 4t0.5 4l38 159q1 3 7.5 6t16 5t20.5 3
t20 1q12 0 18 -6t6 -14q0 -6 -3 -10z" />
    <glyph glyph-name="uni0123" unicode="&#x123;" horiz-adv-x="532" 
d="M102 -141q45 -17 89.5 -28.5t96.5 -13.5q22 0 34.5 7.5t19.5 23.5t9.5 41t4.5 60q5 8 6.5 23.5t1.5 40.5q-17 -9 -41 -14t-49.5 -8t-48.5 -3.5t-37 -0.5q-47 0 -72.5 16t-37.5 42.5t-13.5 61.5t-1.5 73v168q0 38 1.5 72.5t13 61t37 42t72.5 15.5q54 0 101.5 -7t83 -19
t55.5 -28.5t20 -36.5v-486q0 -57 -3.5 -98.5t-17 -67.5t-41.5 -38.5t-76 -12.5q-46 0 -91.5 7t-92.5 23q-8 2 -17.5 5t-18.5 7t-15 8.5t-6 10.5q2 23 11 27q4 6 10 17t13 9zM364 434q0 6 -11 12.5t-30.5 11t-45.5 7.5t-56 3t-52 -12q-15 -11 -18.5 -37t-3.5 -61v-153
q0 -50 3 -87.5t24 -50.5q16 -9 42 -9q57 0 99 9.5t49 20.5v346z" />
    <glyph glyph-name="Hcircumflex" unicode="&#x124;" horiz-adv-x="720" 
d="M626 16q0 -11 -5.5 -19.5t-18.5 -8.5q-9 0 -20 1.5t-21 3.5t-17 5.5t-7 7.5v330h-354v-320q0 -11 -5.5 -19.5t-18.5 -8.5q-8 0 -19.5 1.5t-21.5 3.5t-17 5.5t-7 7.5v708q0 4 7 7.5t17 5.5t21.5 3.5t19.5 1.5q13 0 18.5 -8.5t5.5 -19.5v-291h354v301q0 4 7 7.5t17 5.5
t21 3.5t20 1.5q13 0 18.5 -8.5t5.5 -19.5v-688zM509 831q-4 -5 -10 -10.5t-12.5 -10t-11.5 -6.5t-8 0l-95 82l-94 -82q-3 -2 -8.5 0t-11.5 6.5t-12.5 10t-10.5 10.5q-7 8 -5 15t8 14l123 107q5 5 11 5t12 -5l122 -107q7 -7 9 -14t-6 -15z" />
    <glyph glyph-name="hcircumflex" unicode="&#x125;" horiz-adv-x="557" 
d="M169 503q35 20 82.5 28.5t94.5 8.5q52 0 78.5 -19.5t37.5 -51.5t11.5 -72.5t0.5 -83.5v-299q0 -11 -5.5 -18.5t-18.5 -7.5q-9 0 -19.5 1t-19.5 3t-15 5t-6 7v317q0 30 -1 57t-6.5 47.5t-17 32t-33.5 11.5q-32 0 -60.5 -4.5t-51 -10.5t-36 -12.5t-15.5 -11.5v-416
q0 -11 -5.5 -18.5t-18.5 -7.5q-9 0 -19.5 1t-19.5 3t-15 5t-6 7v740q0 4 6.5 7t15.5 5t19 3t19 1q13 0 18.5 -7.5t5.5 -18.5v-231zM268 836q-4 -5 -10 -10.5t-12.5 -10t-11.5 -6.5t-8 0l-95 82l-94 -82q-3 -2 -8.5 0t-11.5 6.5t-12.5 10t-10.5 10.5q-7 8 -5 15t8 14l123 107
q5 5 11 5t12 -5l122 -107q7 -7 9 -14t-6 -15z" />
    <glyph glyph-name="Hbar" unicode="&#x126;" horiz-adv-x="728" 
d="M625 608h21q13 0 23 -5.5t10 -17.5q0 -8 -1.5 -17.5t-4.5 -17.5t-7 -13.5t-9 -5.5h-32v-515q0 -11 -5 -19.5t-18 -8.5q-9 0 -20 1.5t-21.5 3.5t-17.5 5.5t-7 7.5v330h-353v-320q0 -11 -5.5 -19.5t-18.5 -8.5q-9 0 -20 1.5t-21 3.5t-17 5.5t-7 7.5v525h-24q-13 0 -22 4.5
t-9 16.5q0 8 1 17.5t3.5 18t6 14.5t9.5 6h35v106q0 4 7 7.5t17 5.5t21 3.5t20 1.5q13 0 18.5 -8.5t5.5 -19.5v-96h353v106q0 4 7 7.5t17.5 5.5t21.5 3.5t20 1.5q13 0 18 -8.5t5 -19.5v-96zM536 413v118h-353v-118h353z" />
    <glyph glyph-name="hbar" unicode="&#x127;" horiz-adv-x="557" 
d="M169 618v-115q35 20 82.5 28.5t94.5 8.5q52 0 78.5 -19.5t37.5 -51.5t11.5 -72.5t0.5 -83.5v-299q0 -11 -5.5 -18.5t-18.5 -7.5q-9 0 -19.5 1t-19.5 3t-15 5t-6 7v317q0 30 -1 57t-6.5 47.5t-17 32t-33.5 11.5q-32 0 -60.5 -4.5t-51 -10.5t-36 -12.5t-15.5 -11.5v-416
q0 -11 -5.5 -18.5t-18.5 -7.5q-9 0 -19.5 1t-19.5 3t-15 5t-6 7v614h-70q-15 0 -15 15q0 11 2 25.5t8 14.5h75v71q0 4 6.5 7t15.5 5t19 3t19 1q13 0 18.5 -7.5t5.5 -18.5v-61h77q6 0 11 -4t5 -12q0 -11 -3 -25t-8 -14h-82z" />
    <glyph glyph-name="Itilde" unicode="&#x128;" horiz-adv-x="284" 
d="M185 14q0 -11 -5.5 -18.5t-18.5 -7.5q-8 0 -19.5 1t-21.5 3t-17 5t-7 7v712q0 4 7 7t17 5t21.5 3t19.5 1q13 0 18.5 -7.5t5.5 -18.5v-692zM92 896q15 0 28 -5t26 -11t26.5 -11t28.5 -5q14 0 25 6t19 20q2 4 7.5 4.5t28.5 -6.5q13 -4 10 -13q-1 -6 -3.5 -11.5t-5.5 -10.5
q-15 -28 -36.5 -39.5t-41.5 -13.5q-5 -1 -9.5 -0.5t-8.5 0.5q-13 2 -24.5 7t-23.5 10.5t-24 9.5t-26 4t-25 -5.5t-19 -20.5q-2 -5 -8 -5.5t-28 7.5q-13 4 -10 14q4 13 9 21q17 30 40.5 42t44.5 12z" />
    <glyph glyph-name="itilde" unicode="&#x129;" horiz-adv-x="289" 
d="M72 716q15 0 28 -5t26 -11t26.5 -11t28.5 -5q14 0 25 6t19 20q2 4 7.5 4.5t28.5 -6.5q13 -4 10 -13q-1 -6 -3.5 -11.5t-5.5 -10.5q-15 -28 -36.5 -39.5t-41.5 -13.5q-5 -1 -9.5 -0.5t-8.5 0.5q-13 2 -24.5 7t-23.5 10.5t-24 9.5t-26 4t-25 -5.5t-19 -20.5q-2 -5 -8 -5.5
t-28 7.5q-13 4 -10 14q4 13 9 21q17 30 40.5 42t44.5 12zM259 75q4 1 8 -3.5t7.5 -12t6 -16t4.5 -15.5q3 -9 -1.5 -14t-13.5 -9q-46 -17 -88 -17q-22 0 -41 6.5t-32.5 22t-21.5 40t-8 60.5v407q0 4 6 7.5t15 5.5t19.5 3t19.5 1q13 0 18.5 -7.5t5.5 -18.5v-363
q0 -56 14.5 -75.5t58.5 -6.5q3 1 7.5 1.5t15.5 3.5z" />
    <glyph glyph-name="Imacron" unicode="&#x12a;" horiz-adv-x="280" 
d="M184 14q0 -11 -5.5 -18.5t-18.5 -7.5q-8 0 -19.5 1t-21.5 3t-17 5t-7 7v712q0 4 7 7t17 5t21.5 3t19.5 1q13 0 18.5 -7.5t5.5 -18.5v-692zM23 798q-15 0 -15 15q0 11 2 25.5t8 14.5h236q6 0 11 -4t5 -12q0 -11 -3 -25t-8 -14h-236z" />
    <glyph glyph-name="imacron" unicode="&#x12b;" horiz-adv-x="289" 
d="M3 618q-15 0 -15 15q0 11 2 25.5t8 14.5h236q6 0 11 -4t5 -12q0 -11 -3 -25t-8 -14h-236zM259 75q4 1 8 -3.5t7.5 -12t6 -16t4.5 -15.5q3 -9 -1.5 -14t-13.5 -9q-46 -17 -88 -17q-22 0 -41 6.5t-32.5 22t-21.5 40t-8 60.5v407q0 4 6 7.5t15 5.5t19.5 3t19.5 1
q13 0 18.5 -7.5t5.5 -18.5v-363q0 -56 14.5 -75.5t58.5 -6.5q3 1 7.5 1.5t15.5 3.5z" />
    <glyph glyph-name="Ibreve" unicode="&#x12c;" horiz-adv-x="281" 
d="M185 14q0 -11 -5.5 -18.5t-18.5 -7.5q-8 0 -19.5 1t-21.5 3t-17 5t-7 7v712q0 4 7 7t17 5t21.5 3t19.5 1q13 0 18.5 -7.5t5.5 -18.5v-692zM-5 911q0 19 17 19q12 0 28.5 -3t16.5 -10q0 -18 8 -31.5t20.5 -21.5t28 -12t30.5 -4t30 4t27.5 12t20.5 21.5t8 31.5q0 3 5 5.5
t11.5 4t14 2.5t13.5 1q18 0 18 -19q0 -29 -13.5 -51.5t-34.5 -38t-47.5 -23.5t-53.5 -8q-26 0 -52.5 8t-47.5 23.5t-34.5 38t-13.5 51.5z" />
    <glyph glyph-name="ibreve" unicode="&#x12d;" horiz-adv-x="289" 
d="M-25 731q0 19 17 19q12 0 28.5 -3t16.5 -10q0 -18 8 -31.5t20.5 -21.5t28 -12t30.5 -4t30 4t27.5 12t20.5 21.5t8 31.5q0 3 5 5.5t11.5 4t14 2.5t13.5 1q18 0 18 -19q0 -29 -13.5 -51.5t-34.5 -38t-47.5 -23.5t-53.5 -8q-26 0 -52.5 8t-47.5 23.5t-34.5 38t-13.5 51.5z
M259 75q4 1 8 -3.5t7.5 -12t6 -16t4.5 -15.5q3 -9 -1.5 -14t-13.5 -9q-46 -17 -88 -17q-22 0 -41 6.5t-32.5 22t-21.5 40t-8 60.5v407q0 4 6 7.5t15 5.5t19.5 3t19.5 1q13 0 18.5 -7.5t5.5 -18.5v-363q0 -56 14.5 -75.5t58.5 -6.5q3 1 7.5 1.5t15.5 3.5z" />
    <glyph glyph-name="Iogonek" unicode="&#x12e;" horiz-adv-x="281" 
d="M200 -117q6 4 13.5 -5t10.5 -15q4 -8 -2 -14q-36 -45 -87 -45q-45 0 -75 27t-30 74q0 35 19.5 60.5t48.5 45.5v705q0 4 7 7t17 5t21.5 3t19.5 1q13 0 18.5 -7.5t5.5 -18.5v-692q0 -11 -5.5 -18.5t-18.5 -7.5h-8t-9 1q-20 -20 -29.5 -38.5t-9.5 -33.5q0 -26 13 -37.5
t33 -11.5q11 0 22 2.5t25 12.5z" />
    <glyph glyph-name="iogonek" unicode="&#x12f;" horiz-adv-x="286" 
d="M210 -108q6 4 13.5 -5t10.5 -15q4 -8 -2 -14q-36 -45 -87 -45q-45 0 -75 27t-30 74q0 34 18.5 59t45.5 45q-13 15 -20 39.5t-7 59.5v407q0 4 6 7.5t15 5.5t19.5 3t19.5 1q13 0 18 -7.5t5 -18.5v-363q0 -56 15 -75.5t59 -6.5q3 1 7.5 1.5t15.5 3.5q4 1 7.5 -3.5t7 -12
t6.5 -16t5 -15.5q2 -9 -2 -14t-14 -9q-46 -17 -88 -17q-15 0 -30 3q-32 -35 -32 -65q0 -26 13 -37.5t33 -11.5q11 0 22 2.5t25 12.5zM77 735q0 4 6 7t15 5t19.5 3t19.5 1q13 0 18 -7.5t5 -18.5v-73q0 -11 -5 -18.5t-18 -7.5q-9 0 -19.5 1t-19.5 3t-15 5t-6 7v93z" />
    <glyph glyph-name="Idotaccent" unicode="&#x130;" horiz-adv-x="279" 
d="M184 14q0 -11 -5.5 -18.5t-18.5 -7.5q-8 0 -19.5 1t-21.5 3t-17 5t-7 7v712q0 4 7 7t17 5t21.5 3t19.5 1q13 0 18.5 -7.5t5.5 -18.5v-692zM98 907q0 4 6 7t15 5t19.5 3t19.5 1q13 0 18 -7.5t5 -18.5v-73q0 -11 -5 -18.5t-18 -7.5q-9 0 -19.5 1t-19.5 3t-15 5t-6 7v93z
" />
    <glyph glyph-name="dotlessi" unicode="&#x131;" horiz-adv-x="289" 
d="M259 75q4 1 8 -3.5t7.5 -12t6 -16t4.5 -15.5q3 -9 -1.5 -14t-13.5 -9q-46 -17 -88 -17q-22 0 -41 6.5t-32.5 22t-21.5 40t-8 60.5v407q0 4 6 7.5t15 5.5t19.5 3t19.5 1q13 0 18.5 -7.5t5.5 -18.5v-363q0 -56 14.5 -75.5t58.5 -6.5q3 1 7.5 1.5t15.5 3.5z" />
    <glyph glyph-name="IJ" unicode="&#x132;" horiz-adv-x="501" 
d="M184 14q0 -11 -5.5 -18.5t-18.5 -7.5q-8 0 -19.5 1t-21.5 3t-17 5t-7 7v712q0 4 7 7t17 5t21.5 3t19.5 1q13 0 18.5 -7.5t5.5 -18.5v-692zM184 -162q20 -5 33.5 -7t25.5 -3q24 -2 40 5q23 11 29 48.5t6 111.5v723q0 3 5.5 5.5t13 4t15.5 2t13 1.5q11 3 27 1
q10 -2 12.5 -8.5t2.5 -15.5v-741q0 -114 -32.5 -165.5t-105.5 -51.5q-24 0 -48 5t-50 13q-10 3 -14.5 9t-0.5 17q2 7 5 15.5t6.5 15.5t8 11.5t8.5 3.5z" />
    <glyph glyph-name="ij" unicode="&#x133;" horiz-adv-x="514" 
d="M255 75q4 1 7.5 -3.5t7 -12t6.5 -16t5 -15.5q2 -9 -2 -14t-14 -9q-46 -17 -88 -17q-22 0 -40.5 6.5t-32 22t-21.5 40t-8 60.5v407q0 4 6 7.5t15 5.5t19.5 3t19.5 1q13 0 18 -7.5t5 -18.5v-363q0 -56 15 -75.5t59 -6.5q3 1 7.5 1.5t15.5 3.5zM75 735q0 4 6 7t15 5t19.5 3
t19.5 1q13 0 18 -7.5t5 -18.5v-73q0 -11 -5 -18.5t-18 -7.5q-9 0 -19.5 1t-19.5 3t-15 5t-6 7v93zM228 -103q15 -5 33.5 -8.5t30.5 -3.5q22 0 34 13.5t18 36t7.5 51.5t1.5 60v478q0 4 6 7.5t15 5.5t19.5 3t19.5 1q13 0 18 -7.5t5 -18.5v-496q0 -108 -34.5 -158.5
t-101.5 -50.5q-15 0 -32.5 2.5t-49.5 13.5q-20 6 -16 24q2 7 5 15.5t6.5 15.5t7 12t7.5 4zM353 735q0 4 6 7t15 5t19.5 3t19.5 1q13 0 18 -7.5t5 -18.5v-73q0 -11 -5 -18.5t-18 -7.5q-9 0 -19.5 1t-19.5 3t-15 5t-6 7v93z" />
    <glyph glyph-name="Jcircumflex" unicode="&#x134;" horiz-adv-x="229" 
d="M-93 -162q20 -5 33.5 -7t25.5 -3q24 -2 40 5q23 11 29 48.5t6 111.5v723q0 3 5.5 5.5t13 4t15.5 2t13 1.5q11 3 27 1q10 -2 12.5 -8.5t2.5 -15.5v-741q0 -114 -32.5 -165.5t-105.5 -51.5q-24 0 -48 5t-50 13q-10 3 -14.5 9t-0.5 17q2 7 5 15.5t6.5 15.5t8 11.5t8.5 3.5z
M225 827q-4 -5 -10 -10.5t-12.5 -10t-11.5 -6.5t-8 0l-95 82l-94 -82q-3 -2 -8.5 0t-11.5 6.5t-12.5 10t-10.5 10.5q-7 8 -5 15t8 14l123 107q5 5 11 5t12 -5l122 -107q7 -7 9 -14t-6 -15z" />
    <glyph glyph-name="jcircumflex" unicode="&#x135;" horiz-adv-x="224" 
d="M-55 -103q15 -5 33.5 -8.5t30.5 -3.5q22 0 34 13.5t18 36t7.5 51.5t1.5 60v478q0 4 6 7.5t15 5.5t19.5 3t19.5 1q13 0 18 -7.5t5 -18.5v-496q0 -108 -34.5 -158.5t-101.5 -50.5q-15 0 -32.5 2.5t-49.5 13.5q-20 6 -16 24q2 7 5 15.5t6.5 15.5t7 12t7.5 4zM255 639
q-4 -5 -10 -10.5t-12.5 -10t-11.5 -6.5t-8 0l-95 82l-94 -82q-3 -2 -8.5 0t-11.5 6.5t-12.5 10t-10.5 10.5q-7 8 -5 15t8 14l123 107q5 5 11 5t12 -5l122 -107q7 -7 9 -14t-6 -15z" />
    <glyph glyph-name="uni0136" unicode="&#x136;" horiz-adv-x="632" 
d="M286 -322q-7 -12 -14.5 -18t-22.5 -6q-7 0 -8 5.5t0 10.5q0 2 0.5 4t0.5 4l38 159q1 3 7.5 6t16 5t20.5 3t20 1q12 0 18 -6t6 -14q0 -6 -3 -10z" />
    <glyph glyph-name="Lacute" unicode="&#x139;" horiz-adv-x="566" 
d="M140 0q-8 0 -19.5 1t-21.5 3t-17 5t-7 7v700q0 4 7 7t17 5t21.5 3t19.5 1q13 0 18.5 -7.5t5.5 -18.5v-629h334q9 0 16 -5t7 -17q0 -8 -1 -17.5t-3 -18t-4.5 -14t-6.5 -5.5h-366zM94 817q11 14 22 29t23 30q17 29 30 48t25 37q2 3 23 1t46 -7q8 -2 12 -7t2 -10q0 -3 -6 -9
l-122 -120q-5 -5 -11.5 -9.5t-13.5 -2.5q-3 1 -8.5 3t-11 4.5t-9 6t-1.5 6.5z" />
    <glyph glyph-name="lacute" unicode="&#x13a;" horiz-adv-x="280" 
d="M84 743q0 4 6 7t15 5t19.5 3t19.5 1q10 0 15 -4.5t7 -12t1.5 -16t-0.5 -16.5v-558q0 -35 5.5 -57t20.5 -28q7 -3 13 -2.5t13.5 2t18 4t26.5 4.5q4 1 7.5 -3.5t7 -12t6.5 -16t5 -15.5q2 -9 -2 -14t-14 -9q-46 -17 -88 -17q-22 0 -40.5 6.5t-32 22t-21.5 40t-8 60.5v626z
M106 825q11 14 22 29t23 30q17 29 30 48t25 37q2 3 23 1t46 -7q8 -2 12 -7t2 -10q0 -3 -6 -9l-122 -120q-5 -5 -11.5 -9.5t-13.5 -2.5q-3 1 -8.5 3t-11 4.5t-9 6t-1.5 6.5z" />
    <glyph glyph-name="uni013B" unicode="&#x13b;" horiz-adv-x="566" 
d="M140 0q-8 0 -19.5 1t-21.5 3t-17 5t-7 7v700q0 4 7 7t17 5t21.5 3t19.5 1q13 0 18.5 -7.5t5.5 -18.5v-629h334q9 0 16 -5t7 -17q0 -8 -1 -17.5t-3 -18t-4.5 -14t-6.5 -5.5h-366zM270 -322q-7 -12 -14.5 -18t-22.5 -6q-7 0 -8 5.5t0 10.5q0 2 0.5 4t0.5 4l38 159
q1 3 7.5 6t16 5t20.5 3t20 1q12 0 18 -6t6 -14q0 -6 -3 -10z" />
    <glyph glyph-name="uni013C" unicode="&#x13c;" horiz-adv-x="299" 
d="M91 743q0 4 6 7t15 5t19.5 3t19.5 1q10 0 15 -4.5t7 -12t1.5 -16t-0.5 -16.5v-558q0 -35 5.5 -57t20.5 -28q7 -3 13 -2.5t13.5 2t18 4t26.5 4.5q4 1 7.5 -3.5t7 -12t6.5 -16t5 -15.5q2 -9 -2 -14t-14 -9q-46 -17 -88 -17q-22 0 -40.5 6.5t-32 22t-21.5 40t-8 60.5v626z
M136 -322q-7 -12 -14.5 -18t-22.5 -6q-7 0 -8 5.5t0 10.5q0 2 0.5 4t0.5 4l38 159q1 3 7.5 6t16 5t20.5 3t20 1q12 0 18 -6t6 -14q0 -6 -3 -10z" />
    <glyph glyph-name="Lcaron" unicode="&#x13d;" horiz-adv-x="678" 
d="M252 0q-8 0 -19.5 1t-21.5 3t-17 5t-7 7v700q0 4 7 7t17 5t21.5 3t19.5 1q13 0 18.5 -7.5t5.5 -18.5v-629h334q9 0 16 -5t7 -17q0 -8 -1 -17.5t-3 -18t-4.5 -14t-6.5 -5.5h-366zM366 943q2 -7 3 -13.5t-4 -11.5q-3 -4 -7.5 -8.5l-10.5 -10.5l-109 -96q-3 -4 -6 -4
q-7 -4 -17 4q-15 13 -32.5 28t-34.5 30t-32.5 29.5t-27.5 27.5q-7 9 0 25q1 3 5 8.5t9 10.5t10 8t9 2q5 -2 11 -6t11 -9l84 -74l83 74q11 11 22 15q4 1 9 -2t10 -8t9 -10.5t6 -8.5z" />
    <glyph glyph-name="lcaron" unicode="&#x13e;" horiz-adv-x="609" 
d="M89 743q0 4 6 7t15 5t19.5 3t19.5 1q10 0 15 -4.5t7 -12t1.5 -16t-0.5 -16.5v-558q0 -35 5.5 -57t20.5 -28q7 -3 13 -2.5t13.5 2t18 4t26.5 4.5q4 1 7.5 -3.5t7 -12t6.5 -16t5 -15.5q2 -9 -2 -14t-14 -9q-46 -17 -88 -17q-22 0 -40.5 6.5t-32 22t-21.5 40t-8 60.5v626z
" />
    <glyph glyph-name="Ldot" unicode="&#x13f;" horiz-adv-x="601" 
d="M404 334q0 -21 -15.5 -36t-36.5 -15q-22 0 -38 15t-16 36q0 22 16 37t38 15q21 0 36.5 -15t15.5 -37zM159 4q-8 0 -19.5 1t-21.5 3t-17 5t-7 7v700q0 4 7 7t17 5t21.5 3t19.5 1q13 0 18.5 -7.5t5.5 -18.5v-629h334q9 0 16 -5t7 -17q0 -8 -1 -17.5t-3 -18t-4.5 -14
t-6.5 -5.5h-366z" />
    <glyph glyph-name="ldot" unicode="&#x140;" horiz-adv-x="581" 
d="M489 306q0 -20 -15.5 -35t-36.5 -15q-22 0 -37.5 15t-15.5 35q0 22 15.5 37t37.5 15q21 0 36.5 -15t15.5 -37zM91 746q0 4 6 7t15 5t19.5 3t18.5 1q11 0 16 -5t7 -12.5t1.5 -16t-0.5 -16.5v-557q0 -35 5.5 -57t20.5 -28q7 -3 13 -2.5t13.5 2t18 4t26.5 4.5q4 1 7.5 -3.5
t7 -12t6.5 -16t5 -15.5q2 -9 -2 -14t-14 -9q-46 -17 -88 -17q-22 0 -40.5 6.5t-32 22t-21.5 40t-8 60.5v626z" />
    <glyph glyph-name="Lslash" unicode="&#x141;" horiz-adv-x="609" 
d="M168 -11q-9 0 -20 1t-21.5 3t-17.5 5t-7 7v261l-110 -64q-9 -5 -18 -4t-16 12q-4 7 -8.5 16.5t-7 18t-3 15t3.5 8.5l159 91v345q0 4 7 7.5t17.5 5.5t21.5 3t20 1q13 0 18 -7.5t5 -18.5v-284l116 67q9 5 18.5 4t15.5 -12q4 -7 8 -16.5t7 -18t3 -15t-3 -8.5l-165 -95v-251
h334q10 0 16.5 -5.5t6.5 -16.5q0 -8 -1 -17.5t-3 -18t-4.5 -14t-6.5 -5.5h-365z" />
    <glyph glyph-name="lslash" unicode="&#x142;" horiz-adv-x="283" 
d="M74 279l-109 -62q-14 -9 -25 -0.5t-17.5 22.5t-8.5 27.5t2 15.5l158 91v370q0 4 6 7t15 5t19.5 3t19.5 1q10 0 15 -5t7 -12.5t1.5 -16t-0.5 -16.5v-288l123 71q15 8 25.5 -0.5t17 -22t8.5 -27.5t-2 -16l-172 -99v-175q0 -35 5.5 -57t20.5 -28q7 -3 13 -2.5t13.5 2t18 4
t26.5 4.5q4 1 7.5 -3.5t7 -12t6.5 -16t5 -15.5q2 -9 -2 -14t-14 -9q-46 -17 -88 -17q-22 0 -40.5 6.5t-32 22t-21.5 40t-8 60.5v162z" />
    <glyph glyph-name="Nacute" unicode="&#x143;" horiz-adv-x="788" 
d="M695 14q0 -11 -5.5 -18.5t-18.5 -7.5q-8 0 -18.5 1t-20 3.5t-16.5 5.5t-10 6l-420 561v-549q0 -11 -5.5 -19.5t-18.5 -8.5q-9 0 -20 1.5t-21 3.5t-17 5.5t-7 7.5v701q0 13 16 19t30 6q16 0 27 -6t16 -11l420 -562v554q0 6 5 11t12.5 8t16 4.5t15.5 1.5q15 0 27.5 -5
t12.5 -12v-701zM374 817q11 14 22 29t23 30q17 29 30 48t25 37q2 3 23 1t46 -7q8 -2 12 -7t2 -10q0 -3 -6 -9l-122 -120q-5 -5 -11.5 -9.5t-13.5 -2.5q-3 1 -8.5 3t-11 4.5t-9 6t-1.5 6.5z" />
    <glyph glyph-name="nacute" unicode="&#x144;" horiz-adv-x="528" 
d="M374 330q0 29 -1.5 54.5t-7 44t-17.5 29.5t-33 11q-34 0 -63.5 -4t-51.5 -10t-35 -13t-13 -13v-415q0 -11 -5 -18.5t-18 -7.5q-9 0 -19.5 1t-19.5 3t-15.5 5t-6.5 7v445q0 14 20 30t55 29.5t82.5 22.5t103.5 9q46 0 72 -15t38.5 -40.5t15.5 -58.5t3 -70v-342
q0 -11 -5.5 -18.5t-18.5 -7.5q-9 0 -19.5 1t-19.5 3t-15 5t-6 7v326zM252 686q11 14 22 29t23 30q17 29 30 48t25 37q2 3 23 1t46 -7q8 -2 12 -7t2 -10q0 -3 -6 -9l-122 -120q-5 -5 -11.5 -9.5t-13.5 -2.5q-3 1 -8.5 3t-11 4.5t-9 6t-1.5 6.5z" />
    <glyph glyph-name="uni0145" unicode="&#x145;" horiz-adv-x="788" 
d="M695 14q0 -11 -5.5 -18.5t-18.5 -7.5q-8 0 -18.5 1t-20 3.5t-16.5 5.5t-10 6l-420 561v-549q0 -11 -5.5 -19.5t-18.5 -8.5q-9 0 -20 1.5t-21 3.5t-17 5.5t-7 7.5v701q0 13 16 19t30 6q16 0 27 -6t16 -11l420 -562v554q0 6 5 11t12.5 8t16 4.5t15.5 1.5q15 0 27.5 -5
t12.5 -12v-701zM384 -322q-7 -12 -14.5 -18t-22.5 -6q-7 0 -8 5.5t0 10.5q0 2 0.5 4t0.5 4l38 159q1 3 7.5 6t16 5t20.5 3t20 1q12 0 18 -6t6 -14q0 -6 -3 -10z" />
    <glyph glyph-name="uni0146" unicode="&#x146;" horiz-adv-x="529" 
d="M375 330q0 29 -1.5 54.5t-7 44t-17.5 29.5t-33 11q-34 0 -63.5 -4t-51.5 -10t-35 -13t-13 -13v-415q0 -11 -5 -18.5t-18 -7.5q-9 0 -19.5 1t-19.5 3t-15.5 5t-6.5 7v445q0 14 20 30t55 29.5t82.5 22.5t103.5 9q46 0 72 -15t38.5 -40.5t15.5 -58.5t3 -70v-342
q0 -11 -5.5 -18.5t-18.5 -7.5q-9 0 -19.5 1t-19.5 3t-15 5t-6 7v326zM253 -322q-7 -12 -14.5 -18t-22.5 -6q-7 0 -8 5.5t0 10.5q0 2 0.5 4t0.5 4l38 159q1 3 7.5 6t16 5t20.5 3t20 1q12 0 18 -6t6 -14q0 -6 -3 -10z" />
    <glyph glyph-name="Ncaron" unicode="&#x147;" horiz-adv-x="788" 
d="M695 14q0 -11 -5.5 -18.5t-18.5 -7.5q-8 0 -18.5 1t-20 3.5t-16.5 5.5t-10 6l-420 561v-549q0 -11 -5.5 -19.5t-18.5 -8.5q-9 0 -20 1.5t-21 3.5t-17 5.5t-7 7.5v701q0 13 16 19t30 6q16 0 27 -6t16 -11l420 -562v554q0 6 5 11t12.5 8t16 4.5t15.5 1.5q15 0 27.5 -5
t12.5 -12v-701zM535 940q2 -7 3 -13.5t-4 -11.5q-3 -4 -7.5 -8.5l-10.5 -10.5l-109 -96q-3 -4 -6 -4q-7 -4 -17 4q-15 13 -32.5 28t-34.5 30t-32.5 29.5t-27.5 27.5q-7 9 0 25q1 3 5 8.5t9 10.5t10 8t9 2q5 -2 11 -6t11 -9l84 -74l83 74q11 11 22 15q4 1 9 -2t10 -8t9 -10.5
t6 -8.5z" />
    <glyph glyph-name="ncaron" unicode="&#x148;" horiz-adv-x="528" 
d="M374 330q0 29 -1.5 54.5t-7 44t-17.5 29.5t-33 11q-34 0 -63.5 -4t-51.5 -10t-35 -13t-13 -13v-415q0 -11 -5 -18.5t-18 -7.5q-9 0 -19.5 1t-19.5 3t-15.5 5t-6.5 7v445q0 14 20 30t55 29.5t82.5 22.5t103.5 9q46 0 72 -15t38.5 -40.5t15.5 -58.5t3 -70v-342
q0 -11 -5.5 -18.5t-18.5 -7.5q-9 0 -19.5 1t-19.5 3t-15 5t-6 7v326zM410 809q2 -7 3 -13.5t-4 -11.5q-3 -4 -7.5 -8.5l-10.5 -10.5l-109 -96q-3 -4 -6 -4q-7 -4 -17 4q-15 13 -32.5 28t-34.5 30t-32.5 29.5t-27.5 27.5q-7 9 0 25q1 3 5 8.5t9 10.5t10 8t9 2q5 -2 11 -6
t11 -9l84 -74l83 74q11 11 22 15q4 1 9 -2t10 -8t9 -10.5t6 -8.5z" />
    <glyph glyph-name="napostrophe" unicode="&#x149;" horiz-adv-x="528" 
d="M374 330q0 29 -1.5 54.5t-7 44t-17.5 29.5t-33 11q-34 0 -63.5 -4t-51.5 -10t-35 -13t-13 -13v-415q0 -11 -5 -18.5t-18 -7.5q-9 0 -19.5 1t-19.5 3t-15.5 5t-6.5 7v445q0 14 20 30t55 29.5t82.5 22.5t103.5 9q46 0 72 -15t38.5 -40.5t15.5 -58.5t3 -70v-342
q0 -11 -5.5 -18.5t-18.5 -7.5q-9 0 -19.5 1t-19.5 3t-15 5t-6 7v326zM133 613q-7 -12 -14.5 -18t-22.5 -6q-7 0 -8 5.5t0 10.5q0 2 0.5 4t0.5 4l38 159q1 3 7.5 6t16 5t20.5 3t20 1q12 0 18 -6t6 -14q0 -6 -3 -10z" />
    <glyph glyph-name="Eng" unicode="&#x14a;" horiz-adv-x="745" 
d="M495 -169q20 -1 33.5 5t22.5 20.5t14 38t8 58.5q5 2 7 13.5t3 37.5l-420 561v-549q0 -11 -5.5 -19.5t-18.5 -8.5q-9 0 -20 1.5t-21 3.5t-17 5.5t-7 7.5v701q0 13 16 19t30 6q16 0 27 -6t16 -11l420 -562v554q0 6 5 11t12.5 8t16 4.5t15.5 1.5q15 0 27.5 -5t12.5 -12v-750
q0 -114 -33 -165.5t-106 -51.5q-15 0 -32 2.5t-38 8.5q-13 3 -23 7t-15 13q-2 10 0 18.5t7 12.5q9 1 17.5 4.5t16.5 7.5t15 7t14 2z" />
    <glyph glyph-name="eng" unicode="&#x14b;" horiz-adv-x="529" 
d="M375 330q0 29 -1.5 54.5t-7 44t-17.5 29.5t-33 11q-34 0 -63.5 -4t-51.5 -10t-35 -13t-13 -13v-415q0 -11 -5 -18.5t-18 -7.5q-9 0 -19.5 1t-19.5 3t-15.5 5t-6.5 7v445q0 14 20 30t55 29.5t82.5 22.5t103.5 9q46 0 72 -15t38.5 -40.5t15.5 -58.5t3 -70v-342
q0 -32 -5.5 -67.5t-21 -66t-42 -50.5t-68.5 -20q-16 0 -33.5 2.5t-48.5 13.5q-21 7 -16 24q1 7 4 15.5t6.5 15.5t7.5 12t8 4q15 -5 33.5 -8.5t30.5 -3.5q19 0 30.5 10.5t18.5 28.5t9.5 42t2.5 51v313v0z" />
    <glyph glyph-name="Omacron" unicode="&#x14c;" horiz-adv-x="690" 
d="M341 -12q-71 0 -124 13.5t-88 45t-52 83t-17 127.5v205q0 76 17 127.5t52 83t88 45t124 13.5h8q71 0 124 -13.5t88 -45t52 -83t17 -127.5v-205q0 -76 -17 -127.5t-52 -83t-88 -45t-124 -13.5h-8zM155 291q0 -57 4.5 -99.5t23.5 -70.5t56 -42t102 -14h8q65 0 102 14t56 42
t23.5 70.5t4.5 99.5v137q0 57 -4.5 99.5t-23.5 70.5t-56 42t-102 14h-8q-65 0 -102 -14t-56 -42t-23.5 -70.5t-4.5 -99.5v-137zM222 798q-15 0 -15 15q0 11 2 25.5t8 14.5h236q6 0 11 -4t5 -12q0 -11 -3 -25t-8 -14h-236z" />
    <glyph glyph-name="omacron" unicode="&#x14d;" horiz-adv-x="511" 
d="M60 345q0 96 47 145.5t149 49.5q101 0 148 -49.5t47 -145.5v-162q0 -96 -47 -145.5t-148 -49.5q-102 0 -149 49.5t-47 145.5v162zM144 210q0 -35 3.5 -62.5t15.5 -47.5t34 -30.5t59 -10.5t59 10.5t33.5 30.5t15 47.5t3.5 62.5v108q0 34 -3.5 62t-15 48t-33.5 30.5
t-59 10.5t-59 -10.5t-34 -30.5t-15.5 -48t-3.5 -62v-108zM132 618q-15 0 -15 15q0 11 2 25.5t8 14.5h236q6 0 11 -4t5 -12q0 -11 -3 -25t-8 -14h-236z" />
    <glyph glyph-name="Obreve" unicode="&#x14e;" horiz-adv-x="690" 
d="M341 -12q-71 0 -124 13.5t-88 45t-52 83t-17 127.5v205q0 76 17 127.5t52 83t88 45t124 13.5h8q71 0 124 -13.5t88 -45t52 -83t17 -127.5v-205q0 -76 -17 -127.5t-52 -83t-88 -45t-124 -13.5h-8zM155 291q0 -57 4.5 -99.5t23.5 -70.5t56 -42t102 -14h8q65 0 102 14t56 42
t23.5 70.5t4.5 99.5v137q0 57 -4.5 99.5t-23.5 70.5t-56 42t-102 14h-8q-65 0 -102 -14t-56 -42t-23.5 -70.5t-4.5 -99.5v-137zM192 911q0 19 17 19q12 0 28.5 -3t16.5 -10q0 -18 8 -31.5t20.5 -21.5t28 -12t30.5 -4t30 4t27.5 12t20.5 21.5t8 31.5q0 3 5 5.5t11.5 4t14 2.5
t13.5 1q18 0 18 -19q0 -29 -13.5 -51.5t-34.5 -38t-47.5 -23.5t-53.5 -8q-26 0 -52.5 8t-47.5 23.5t-34.5 38t-13.5 51.5z" />
    <glyph glyph-name="obreve" unicode="&#x14f;" horiz-adv-x="511" 
d="M60 345q0 96 47 145.5t149 49.5q101 0 148 -49.5t47 -145.5v-162q0 -96 -47 -145.5t-148 -49.5q-102 0 -149 49.5t-47 145.5v162zM144 210q0 -35 3.5 -62.5t15.5 -47.5t34 -30.5t59 -10.5t59 10.5t33.5 30.5t15 47.5t3.5 62.5v108q0 34 -3.5 62t-15 48t-33.5 30.5
t-59 10.5t-59 -10.5t-34 -30.5t-15.5 -48t-3.5 -62v-108zM103 731q0 19 17 19q12 0 28.5 -3t16.5 -10q0 -18 8 -31.5t20.5 -21.5t28 -12t30.5 -4t30 4t27.5 12t20.5 21.5t8 31.5q0 3 5 5.5t11.5 4t14 2.5t13.5 1q18 0 18 -19q0 -29 -13.5 -51.5t-34.5 -38t-47.5 -23.5
t-53.5 -8q-26 0 -52.5 8t-47.5 23.5t-34.5 38t-13.5 51.5z" />
    <glyph glyph-name="Ohungarumlaut" unicode="&#x150;" horiz-adv-x="715" 
d="M341 -12q-71 0 -124 13.5t-88 45t-52 83t-17 127.5v205q0 76 17 127.5t52 83t88 45t124 13.5h8q71 0 124 -13.5t88 -45t52 -83t17 -127.5v-205q0 -76 -17 -127.5t-52 -83t-88 -45t-124 -13.5h-8zM155 291q0 -57 4.5 -99.5t23.5 -70.5t56 -42t102 -14h8q65 0 102 14t56 42
t23.5 70.5t4.5 99.5v137q0 57 -4.5 99.5t-23.5 70.5t-56 42t-102 14h-8q-65 0 -102 -14t-56 -42t-23.5 -70.5t-4.5 -99.5v-137zM474 941q6 9 14 9q2 0 17.5 -2.5t45.5 -7.5q13 -2 13 -6t-8 -10l-120 -121q-6 -7 -12 -7q-2 0 -9 3t-14 7t-11.5 8.5t-1.5 7.5zM339 941
q6 9 14 9q2 0 17.5 -2.5t45.5 -7.5q13 -2 13 -6t-8 -10l-120 -121q-6 -7 -12 -7q-2 0 -9 3t-14 7t-11.5 8.5t-1.5 7.5z" />
    <glyph glyph-name="ohungarumlaut" unicode="&#x151;" horiz-adv-x="497" 
d="M60 345q0 96 47 145.5t149 49.5q101 0 148 -49.5t47 -145.5v-162q0 -96 -47 -145.5t-148 -49.5q-102 0 -149 49.5t-47 145.5v162zM144 210q0 -35 3.5 -62.5t15.5 -47.5t34 -30.5t59 -10.5t59 10.5t33.5 30.5t15 47.5t3.5 62.5v108q0 34 -3.5 62t-15 48t-33.5 30.5
t-59 10.5t-59 -10.5t-34 -30.5t-15.5 -48t-3.5 -62v-108zM383 761q6 9 14 9q2 0 17.5 -2.5t45.5 -7.5q13 -2 13 -6t-8 -10l-120 -121q-6 -7 -12 -7q-2 0 -9 3t-14 7t-11.5 8.5t-1.5 7.5zM248 761q6 9 14 9q2 0 17.5 -2.5t45.5 -7.5q13 -2 13 -6t-8 -10l-120 -121
q-6 -7 -12 -7q-2 0 -9 3t-14 7t-11.5 8.5t-1.5 7.5z" />
    <glyph glyph-name="OE" unicode="&#x152;" horiz-adv-x="1030" 
d="M341 -12q-71 0 -124 13.5t-88 45t-52 83t-17 127.5v205q0 76 17 127.5t52 83t88 45t124 13.5h8q65 0 113 -12t81 -40q1 12 4.5 26t17.5 14h388q9 0 16 -5t7 -17q0 -8 -1 -17.5t-3 -18t-4.5 -14t-6.5 -5.5h-331v-238h294q9 0 16 -5t7 -16q0 -8 -1 -17.5t-3 -18t-5 -14.5
t-7 -6h-301v-250h323q9 0 16 -5t7 -17q0 -8 -1 -17.5t-3 -18t-4.5 -14t-6.5 -5.5h-357q-17 0 -27.5 3.5t-16.5 8.5t-9.5 12t-6.5 15q-33 -27 -81.5 -39t-113.5 -12h-8zM155 291q0 -57 4.5 -99.5t23.5 -70.5t56 -42t102 -14h8q65 0 102 14t56 42t23.5 70.5t4.5 99.5v137
q0 57 -4.5 99.5t-23.5 70.5t-56 42t-102 14h-8q-65 0 -102 -14t-56 -42t-23.5 -70.5t-4.5 -99.5v-137z" />
    <glyph glyph-name="oe" unicode="&#x153;" horiz-adv-x="802" 
d="M708 5q-23 -6 -53.5 -10.5t-69.5 -5.5q-14 -1 -26.5 -0.5t-24.5 2.5q-81 10 -122 61q-47 -64 -156 -64q-102 0 -149 49.5t-47 145.5v162q0 96 47 145.5t149 49.5q107 0 153 -63q25 39 68 51t109 12q58 0 90.5 -15.5t47.5 -40.5t18 -57.5t3 -66.5v-39q0 -14 -10 -27.5
t-41.5 -24t-89 -17t-153.5 -6.5q0 -39 4 -73.5t17 -59.5t36 -39.5t62 -14.5q15 0 28.5 1t29 3.5t33.5 5.5t41 7q4 1 8 -3.5t7 -12t5 -16t4 -15.5q2 -11 -3 -16.5t-15 -7.5zM144 221q0 -36 3.5 -66t15 -51.5t33.5 -33t60 -11.5q37 0 59 10.5t33.5 30.5t15 47.5t3.5 62.5v97
q0 36 -3 66t-14.5 51.5t-33.5 33t-60 11.5q-37 0 -59 -10.5t-34 -30.5t-15.5 -48t-3.5 -62v-97zM662 387q0 38 -19.5 60t-58.5 22q-37 0 -62 -6.5t-40.5 -24t-22.5 -48.5t-8 -79q90 2 145 9.5t66 26.5v40z" />
    <glyph glyph-name="Racute" unicode="&#x154;" horiz-adv-x="624" 
d="M75 693q0 11 5.5 18.5t18.5 7.5h217q62 0 108.5 -8.5t77 -32t46 -64.5t15.5 -106q0 -51 -9.5 -86t-28.5 -59t-47.5 -38t-66.5 -21l155 -276q11 -18 5 -29t-25 -11q-8 0 -18.5 1.5t-20 5t-18 8.5t-12.5 12l-163 283h-150v-284q0 -11 -5.5 -18.5t-18.5 -7.5q-8 0 -19.5 1
t-21.5 3.5t-17 5.5t-7 7v688zM164 642v-267h152q49 0 79 5.5t46 20.5t21 40.5t5 66.5t-5 67t-21 41t-46 20.5t-79 5.5h-152zM280 817q11 14 22 29t23 30q17 29 30 48t25 37q2 3 23 1t46 -7q8 -2 12 -7t2 -10q0 -3 -6 -9l-122 -120q-5 -5 -11.5 -9.5t-13.5 -2.5q-3 1 -8.5 3
t-11 4.5t-9 6t-1.5 6.5z" />
    <glyph glyph-name="racute" unicode="&#x155;" horiz-adv-x="431" 
d="M331 463q-11 2 -25 3.5t-28 1.5q-36 0 -71.5 -9.5t-53.5 -32.5v-412q0 -11 -5 -18.5t-18 -7.5q-9 0 -19.5 1t-19.5 3t-15 5t-6 7v445q6 24 25.5 41t47.5 28t61.5 16.5t66.5 5.5q12 0 26 -1t26 -2.5t21.5 -4.5t12.5 -7q4 -11 1 -20t-6 -14q-2 -3 -4 -8t-5 -9.5t-6 -8
t-6 -2.5zM244 637q11 14 22 29t23 30q17 29 30 48t25 37q2 3 23 1t46 -7q8 -2 12 -7t2 -10q0 -3 -6 -9l-122 -120q-5 -5 -11.5 -9.5t-13.5 -2.5q-3 1 -8.5 3t-11 4.5t-9 6t-1.5 6.5z" />
    <glyph glyph-name="uni0156" unicode="&#x156;" horiz-adv-x="624" 
d="M75 693q0 11 5.5 18.5t18.5 7.5h217q62 0 108.5 -8.5t77 -32t46 -64.5t15.5 -106q0 -51 -9.5 -86t-28.5 -59t-47.5 -38t-66.5 -21l155 -276q11 -18 5 -29t-25 -11q-8 0 -18.5 1.5t-20 5t-18 8.5t-12.5 12l-163 283h-150v-284q0 -11 -5.5 -18.5t-18.5 -7.5q-8 0 -19.5 1
t-21.5 3.5t-17 5.5t-7 7v688zM164 642v-267h152q49 0 79 5.5t46 20.5t21 40.5t5 66.5t-5 67t-21 41t-46 20.5t-79 5.5h-152zM289 -322q-7 -12 -14.5 -18t-22.5 -6q-7 0 -8 5.5t0 10.5q0 2 0.5 4t0.5 4l38 159q1 3 7.5 6t16 5t20.5 3t20 1q12 0 18 -6t6 -14q0 -6 -3 -10z" />
    <glyph glyph-name="uni0157" unicode="&#x157;" horiz-adv-x="424" 
d="M331 463q-11 2 -25 3.5t-28 1.5q-36 0 -71.5 -9.5t-53.5 -32.5v-412q0 -11 -5 -18.5t-18 -7.5q-9 0 -19.5 1t-19.5 3t-15 5t-6 7v445q6 24 25.5 41t47.5 28t61.5 16.5t66.5 5.5q12 0 26 -1t26 -2.5t21.5 -4.5t12.5 -7q4 -11 1 -20t-6 -14q-2 -3 -4 -8t-5 -9.5t-6 -8
t-6 -2.5zM195 -322q-7 -12 -14.5 -18t-22.5 -6q-7 0 -8 5.5t0 10.5q0 2 0.5 4t0.5 4l38 159q1 3 7.5 6t16 5t20.5 3t20 1q12 0 18 -6t6 -14q0 -6 -3 -10z" />
    <glyph glyph-name="Rcaron" unicode="&#x158;" horiz-adv-x="624" 
d="M75 693q0 11 5.5 18.5t18.5 7.5h217q62 0 108.5 -8.5t77 -32t46 -64.5t15.5 -106q0 -51 -9.5 -86t-28.5 -59t-47.5 -38t-66.5 -21l155 -276q11 -18 5 -29t-25 -11q-8 0 -18.5 1.5t-20 5t-18 8.5t-12.5 12l-163 283h-150v-284q0 -11 -5.5 -18.5t-18.5 -7.5q-8 0 -19.5 1
t-21.5 3.5t-17 5.5t-7 7v688zM164 642v-267h152q49 0 79 5.5t46 20.5t21 40.5t5 66.5t-5 67t-21 41t-46 20.5t-79 5.5h-152zM438 940q2 -7 3 -13.5t-4 -11.5q-3 -4 -7.5 -8.5l-10.5 -10.5l-109 -96q-3 -4 -6 -4q-7 -4 -17 4q-15 13 -32.5 28t-34.5 30t-32.5 29.5t-27.5 27.5
q-7 9 0 25q1 3 5 8.5t9 10.5t10 8t9 2q5 -2 11 -6t11 -9l84 -74l83 74q11 11 22 15q4 1 9 -2t10 -8t9 -10.5t6 -8.5z" />
    <glyph glyph-name="rcaron" unicode="&#x159;" horiz-adv-x="431" 
d="M331 463q-11 2 -25 3.5t-28 1.5q-36 0 -71.5 -9.5t-53.5 -32.5v-412q0 -11 -5 -18.5t-18 -7.5q-9 0 -19.5 1t-19.5 3t-15 5t-6 7v445q6 24 25.5 41t47.5 28t61.5 16.5t66.5 5.5q12 0 26 -1t26 -2.5t21.5 -4.5t12.5 -7q4 -11 1 -20t-6 -14q-2 -3 -4 -8t-5 -9.5t-6 -8
t-6 -2.5zM402 760q2 -7 3 -13.5t-4 -11.5q-3 -4 -7.5 -8.5l-10.5 -10.5l-109 -96q-3 -4 -6 -4q-7 -4 -17 4q-15 13 -32.5 28t-34.5 30t-32.5 29.5t-27.5 27.5q-7 9 0 25q1 3 5 8.5t9 10.5t10 8t9 2q5 -2 11 -6t11 -9l84 -74l83 74q11 11 22 15q4 1 9 -2t10 -8t9 -10.5
t6 -8.5z" />
    <glyph glyph-name="Sacute" unicode="&#x15a;" horiz-adv-x="559" 
d="M73 95q41 -14 86 -21.5t90 -7.5q48 0 83 13.5t47 41.5q8 17 6 39q-1 26 -12 48.5t-30 42.5q-33 39 -78 73.5t-86.5 71t-70.5 79t-29 96.5q0 44 20 74.5t52.5 49.5t73.5 27.5t84 8.5q3 0 6 -0.5t7 -0.5q14 0 38 -2.5t47.5 -7.5t40.5 -12t17 -16q0 -11 -4 -20
q-2 -7 -7 -18.5t-10 -15.5q-5 -5 -17 -1q-29 7 -57.5 12t-57.5 5q-26 0 -51.5 -4t-45.5 -13t-32.5 -24.5t-12.5 -38.5q0 -44 41 -89q17 -18 43 -39.5t56 -46t60 -51.5t54 -58t39 -65t15 -71q0 -47 -20.5 -78.5t-55 -50.5t-79 -27.5t-91.5 -8.5q-50 0 -94 9.5t-82 23.5
q-9 4 -13.5 9t-1.5 15q1 5 4.5 14t7.5 17.5t9 14t11 3.5zM265 817q11 14 22 29t23 30q17 29 30 48t25 37q2 3 23 1t46 -7q8 -2 12 -7t2 -10q0 -3 -6 -9l-122 -120q-5 -5 -11.5 -9.5t-13.5 -2.5q-3 1 -8.5 3t-11 4.5t-9 6t-1.5 6.5z" />
    <glyph glyph-name="sacute" unicode="&#x15b;" horiz-adv-x="458" 
d="M53 87q32 -10 66.5 -17.5t71.5 -7.5q22 0 43.5 2.5t38.5 9t27 17.5t10 29q0 17 -13.5 34.5t-33 34.5t-41.5 32t-39 27q-23 14 -46.5 29.5t-43 35t-31.5 43t-12 54.5q0 41 18.5 67t47 40.5t64 19.5t70.5 5q29 0 58 -4.5t56 -11.5q21 -5 18 -23q-2 -7 -4.5 -16t-5.5 -16.5
t-6.5 -12.5t-7.5 -4q-38 8 -64 11t-52 3q-19 0 -38 -2.5t-34 -8.5t-24 -17t-9 -28q0 -14 8 -26t20.5 -24t29 -23l34.5 -23q35 -23 66 -45.5t54 -46t36.5 -47.5t13.5 -51q0 -38 -17 -64t-45 -42.5t-64 -24t-74 -7.5q-42 0 -82.5 8t-75.5 20q-9 4 -14 9.5t-2 14.5q2 7 5 15.5
t6.5 16t8 12t8.5 3.5zM221 637q11 14 22 29t23 30q17 29 30 48t25 37q2 3 23 1t46 -7q8 -2 12 -7t2 -10q0 -3 -6 -9l-122 -120q-5 -5 -11.5 -9.5t-13.5 -2.5q-3 1 -8.5 3t-11 4.5t-9 6t-1.5 6.5z" />
    <glyph glyph-name="Scircumflex" unicode="&#x15c;" horiz-adv-x="546" 
d="M73 95q41 -14 86 -21.5t90 -7.5q48 0 83 13.5t47 41.5q8 17 6 39q-1 26 -12 48.5t-30 42.5q-33 39 -78 73.5t-86.5 71t-70.5 79t-29 96.5q0 44 20 74.5t52.5 49.5t73.5 27.5t84 8.5q3 0 6 -0.5t7 -0.5q14 0 38 -2.5t47.5 -7.5t40.5 -12t17 -16q0 -11 -4 -20
q-2 -7 -7 -18.5t-10 -15.5q-5 -5 -17 -1q-29 7 -57.5 12t-57.5 5q-26 0 -51.5 -4t-45.5 -13t-32.5 -24.5t-12.5 -38.5q0 -44 41 -89q17 -18 43 -39.5t56 -46t60 -51.5t54 -58t39 -65t15 -71q0 -47 -20.5 -78.5t-55 -50.5t-79 -27.5t-91.5 -8.5q-50 0 -94 9.5t-82 23.5
q-9 4 -13.5 9t-1.5 15q1 5 4.5 14t7.5 17.5t9 14t11 3.5zM424 831q-4 -5 -10 -10.5t-12.5 -10t-11.5 -6.5t-8 0l-95 82l-94 -82q-3 -2 -8.5 0t-11.5 6.5t-12.5 10t-10.5 10.5q-7 8 -5 15t8 14l123 107q5 5 11 5t12 -5l122 -107q7 -7 9 -14t-6 -15z" />
    <glyph glyph-name="scircumflex" unicode="&#x15d;" horiz-adv-x="458" 
d="M53 87q32 -10 66.5 -17.5t71.5 -7.5q22 0 43.5 2.5t38.5 9t27 17.5t10 29q0 17 -13.5 34.5t-33 34.5t-41.5 32t-39 27q-23 14 -46.5 29.5t-43 35t-31.5 43t-12 54.5q0 41 18.5 67t47 40.5t64 19.5t70.5 5q29 0 58 -4.5t56 -11.5q21 -5 18 -23q-2 -7 -4.5 -16t-5.5 -16.5
t-6.5 -12.5t-7.5 -4q-38 8 -64 11t-52 3q-19 0 -38 -2.5t-34 -8.5t-24 -17t-9 -28q0 -14 8 -26t20.5 -24t29 -23l34.5 -23q35 -23 66 -45.5t54 -46t36.5 -47.5t13.5 -51q0 -38 -17 -64t-45 -42.5t-64 -24t-74 -7.5q-42 0 -82.5 8t-75.5 20q-9 4 -14 9.5t-2 14.5q2 7 5 15.5
t6.5 16t8 12t8.5 3.5zM376 651q-4 -5 -10 -10.5t-12.5 -10t-11.5 -6.5t-8 0l-95 82l-94 -82q-3 -2 -8.5 0t-11.5 6.5t-12.5 10t-10.5 10.5q-7 8 -5 15t8 14l123 107q5 5 11 5t12 -5l122 -107q7 -7 9 -14t-6 -15z" />
    <glyph glyph-name="Scedilla" unicode="&#x15e;" horiz-adv-x="538" 
d="M199 -10q-40 3 -75.5 11.5t-67.5 20.5q-9 4 -13.5 9t-1.5 15q1 5 4.5 14t7.5 17.5t9 14t11 3.5q41 -14 86 -21.5t90 -7.5q48 0 83 13.5t47 41.5q8 17 6 39q-1 26 -12 48.5t-30 42.5q-33 39 -78 73.5t-86.5 71t-70.5 79t-29 96.5q0 44 20 74.5t52.5 49.5t73.5 27.5t84 8.5
q3 0 6 -0.5t7 -0.5q14 0 38 -2.5t47.5 -7.5t40.5 -12t17 -16q0 -11 -4 -20q-2 -7 -7 -18.5t-10 -15.5q-5 -5 -17 -1q-29 7 -57.5 12t-57.5 5q-26 0 -51.5 -4t-45.5 -13t-32.5 -24.5t-12.5 -38.5q0 -44 41 -89q17 -18 43 -39.5t56 -46t60 -51.5t54 -58t39 -65t15 -71
q0 -43 -18 -73.5t-48.5 -50t-70.5 -29t-83 -11.5l-11 -26q41 -4 62 -24t21 -46q0 -53 -33 -82.5t-90 -29.5q-20 0 -40.5 5.5t-34.5 16.5q-5 2 -8 8t6 26q2 6 8 5t10 -3q10 -5 23.5 -8.5t27.5 -3.5q32 0 49.5 15t17.5 40q0 14 -16 28t-49 14q-15 0 -22.5 2.5t-0.5 16.5z" />
    <glyph glyph-name="scedilla" unicode="&#x15f;" horiz-adv-x="446" 
d="M176 -11q-36 2 -70.5 9t-64.5 18q-9 4 -14 9.5t-2 14.5q2 7 5 15.5t6.5 16t8 12t8.5 3.5q32 -10 66.5 -17.5t71.5 -7.5q22 0 43.5 2.5t38.5 9t27 17.5t10 29q0 17 -13.5 34.5t-33 34.5t-41.5 32t-39 27q-23 14 -46.5 29.5t-43 35t-31.5 43t-12 54.5q0 41 18.5 67t47 40.5
t64 19.5t70.5 5q29 0 58 -4.5t56 -11.5q21 -5 18 -23q-2 -7 -4.5 -16t-5.5 -16.5t-6.5 -12.5t-7.5 -4q-38 8 -64 11t-52 3q-19 0 -38 -2.5t-34 -8.5t-24 -17t-9 -28q0 -14 8 -26t20.5 -24t29 -23l34.5 -23q35 -23 66 -45.5t54 -46t36.5 -47.5t13.5 -51q0 -33 -13 -57.5
t-35.5 -41t-52 -25.5t-62.5 -12l-14 -31q41 -4 62 -24t21 -46q0 -53 -33 -82.5t-90 -29.5q-20 0 -40.5 5.5t-34.5 16.5q-5 2 -8 8t6 26q2 6 8 5t10 -3q10 -5 23.5 -8.5t27.5 -3.5q32 0 49.5 15t17.5 40q0 14 -16 28t-49 14q-15 0 -22.5 2.5t-0.5 16.5z" />
    <glyph glyph-name="Scaron" unicode="&#x160;" horiz-adv-x="545" 
d="M73 95q41 -14 86 -21.5t90 -7.5q48 0 83 13.5t47 41.5q8 17 6 39q-1 26 -12 48.5t-30 42.5q-33 39 -78 73.5t-86.5 71t-70.5 79t-29 96.5q0 44 20 74.5t52.5 49.5t73.5 27.5t84 8.5q3 0 6 -0.5t7 -0.5q14 0 38 -2.5t47.5 -7.5t40.5 -12t17 -16q0 -11 -4 -20
q-2 -7 -7 -18.5t-10 -15.5q-5 -5 -17 -1q-29 7 -57.5 12t-57.5 5q-26 0 -51.5 -4t-45.5 -13t-32.5 -24.5t-12.5 -38.5q0 -44 41 -89q17 -18 43 -39.5t56 -46t60 -51.5t54 -58t39 -65t15 -71q0 -47 -20.5 -78.5t-55 -50.5t-79 -27.5t-91.5 -8.5q-50 0 -94 9.5t-82 23.5
q-9 4 -13.5 9t-1.5 15q1 5 4.5 14t7.5 17.5t9 14t11 3.5zM423 940q2 -7 3 -13.5t-4 -11.5q-3 -4 -7.5 -8.5l-10.5 -10.5l-109 -96q-3 -4 -6 -4q-7 -4 -17 4q-15 13 -32.5 28t-34.5 30t-32.5 29.5t-27.5 27.5q-7 9 0 25q1 3 5 8.5t9 10.5t10 8t9 2q5 -2 11 -6t11 -9l84 -74
l83 74q11 11 22 15q4 1 9 -2t10 -8t9 -10.5t6 -8.5z" />
    <glyph glyph-name="scaron" unicode="&#x161;" horiz-adv-x="458" 
d="M53 87q32 -10 66.5 -17.5t71.5 -7.5q22 0 43.5 2.5t38.5 9t27 17.5t10 29q0 17 -13.5 34.5t-33 34.5t-41.5 32t-39 27q-23 14 -46.5 29.5t-43 35t-31.5 43t-12 54.5q0 41 18.5 67t47 40.5t64 19.5t70.5 5q29 0 58 -4.5t56 -11.5q21 -5 18 -23q-2 -7 -4.5 -16t-5.5 -16.5
t-6.5 -12.5t-7.5 -4q-38 8 -64 11t-52 3q-19 0 -38 -2.5t-34 -8.5t-24 -17t-9 -28q0 -14 8 -26t20.5 -24t29 -23l34.5 -23q35 -23 66 -45.5t54 -46t36.5 -47.5t13.5 -51q0 -38 -17 -64t-45 -42.5t-64 -24t-74 -7.5q-42 0 -82.5 8t-75.5 20q-9 4 -14 9.5t-2 14.5q2 7 5 15.5
t6.5 16t8 12t8.5 3.5zM379 760q2 -7 3 -13.5t-4 -11.5q-3 -4 -7.5 -8.5l-10.5 -10.5l-109 -96q-3 -4 -6 -4q-7 -4 -17 4q-15 13 -32.5 28t-34.5 30t-32.5 29.5t-27.5 27.5q-7 9 0 25q1 3 5 8.5t9 10.5t10 8t9 2q5 -2 11 -6t11 -9l84 -74l83 74q11 11 22 15q4 1 9 -2t10 -8
t9 -10.5t6 -8.5z" />
    <glyph glyph-name="uni0162" unicode="&#x162;" horiz-adv-x="558" 
d="M324 14q0 -11 -5.5 -18.5t-18.5 -7.5q-9 0 -20 1t-21 3t-17 5t-7 7v638h-208q-11 0 -17.5 5t-6.5 17q0 8 1 17.5t3 18t5 14t7 5.5h510q10 0 17 -5t7 -17q0 -8 -1 -17.5t-3 -18t-4.5 -14t-6.5 -5.5h-214v-628zM266 -322q-7 -12 -14.5 -18t-22.5 -6q-7 0 -8 5.5t0 10.5
q0 2 0.5 4t0.5 4l38 159q1 3 7.5 6t16 5t20.5 3t20 1q12 0 18 -6t6 -14q0 -6 -3 -10z" />
    <glyph glyph-name="uni0163" unicode="&#x163;" horiz-adv-x="375" 
d="M338 5q-20 -8 -39 -11.5t-36 -4.5h-16.5t-15.5 1q-24 4 -41 14.5t-27.5 31t-15.5 50.5t-5 73v297h-70q-7 0 -12.5 2.5t-6.5 10.5q-2 5 -1.5 11t1.5 11q0 4 1 10.5t2 12.5t3.5 10t5.5 4h77v138q0 4 4.5 6t11.5 3.5t14 2.5t12 2q6 1 12 1.5t13 -0.5q10 -2 13 -8.5t3 -15.5
v-129h104q8 0 13.5 -2.5t6.5 -10.5q2 -13 -1 -21q0 -4 -1 -10.5t-2 -12.5t-3 -10.5t-5 -4.5h-112v-306q0 -30 3.5 -50.5t14.5 -28.5q9 -8 27 -7.5t49 11.5q2 0 5 1t5 1q5 0 10 -7q8 -11 11 -26.5t4 -22.5q0 -11 -16 -16zM159 -322q-7 -12 -14.5 -18t-22.5 -6q-7 0 -8 5.5
t0 10.5q0 2 0.5 4t0.5 4l38 159q1 3 7.5 6t16 5t20.5 3t20 1q12 0 18 -6t6 -14q0 -6 -3 -10z" />
    <glyph glyph-name="Tcaron" unicode="&#x164;" horiz-adv-x="558" 
d="M324 14q0 -11 -5.5 -18.5t-18.5 -7.5q-9 0 -20 1t-21 3t-17 5t-7 7v638h-208q-11 0 -17.5 5t-6.5 17q0 8 1 17.5t3 18t5 14t7 5.5h510q10 0 17 -5t7 -17q0 -8 -1 -17.5t-3 -18t-4.5 -14t-6.5 -5.5h-214v-628zM413 976q2 -7 3 -13.5t-4 -11.5q-3 -4 -7.5 -8.5l-10.5 -10.5
l-109 -96q-3 -4 -6 -4q-7 -4 -17 4q-15 13 -32.5 28t-34.5 30t-32.5 29.5t-27.5 27.5q-7 9 0 25q1 3 5 8.5t9 10.5t10 8t9 2q5 -2 11 -6t11 -9l84 -74l83 74q11 11 22 15q4 1 9 -2t10 -8t9 -10.5t6 -8.5z" />
    <glyph glyph-name="tcaron" unicode="&#x165;" horiz-adv-x="670" 
d="M330 5q-37 -14 -74 -16h-17t-15 1q-24 4 -41.5 14.5t-28 31t-15.5 50.5t-5 73v297h-84q-7 0 -12.5 2.5t-6.5 10.5q-2 5 -1.5 11t1.5 11q0 4 1 10.5t2 12.5t3.5 10t5.5 4h91v138q0 4 4.5 6t11.5 3.5t14.5 2.5t12.5 2t11 1.5t14 -0.5q10 -2 12.5 -8.5t3.5 -15.5v-129h104
q8 0 13 -2.5t7 -10.5q1 -6 0.5 -11t-1.5 -10q0 -4 -1 -10.5t-2.5 -12.5t-3 -10.5t-4.5 -4.5h-112v-306q0 -30 3 -50.5t14 -28.5q10 -8 28 -7.5t49 11.5q2 0 5 1t5 1q4 0 9 -7q8 -11 11.5 -26.5t3.5 -22.5q1 -11 -16 -16z" />
    <glyph glyph-name="Tbar" unicode="&#x166;" horiz-adv-x="592" 
d="M341 14q0 -11 -5.5 -18.5t-18.5 -7.5q-9 0 -20 1t-21 3t-17 5t-7 7v415h-144q-23 0 -23 23q0 8 0.5 18.5t2.5 20t4.5 16t7.5 6.5h152v139h-208q-11 0 -17.5 5t-6.5 17q0 8 1 17.5t3 18t5 14t7 5.5h510q10 0 17 -5t7 -17q0 -8 -1 -17.5t-3 -18t-4.5 -14t-6.5 -5.5h-214
v-139h122q9 0 17 -5.5t8 -18.5q0 -8 -1.5 -18.5t-3.5 -19.5t-5 -15.5t-7 -6.5h-130v-405v0z" />
    <glyph glyph-name="tbar" unicode="&#x167;" horiz-adv-x="354" 
d="M203 312v-162q0 -30 3.5 -50.5t14.5 -28.5q9 -8 27 -7.5t49 11.5q2 0 5 1t5 1q5 0 10 -7q8 -11 11 -26.5t4 -22.5q0 -11 -16 -16q-20 -8 -39 -11.5t-36 -4.5h-16.5t-15.5 1q-24 4 -41 14.5t-27.5 31t-15.5 50.5t-5 73v153h-74q-15 0 -15 15q0 11 2 25.5t8 14.5h79v89h-70
q-7 0 -12.5 2.5t-6.5 10.5q-2 5 -1.5 11t1.5 11q0 4 1 10.5t2 12.5t3.5 10t5.5 4h77v138q0 4 4.5 6t11.5 3.5t14 2.5t12 2q6 1 12 1.5t13 -0.5q10 -2 13 -8.5t3 -15.5v-129h104q8 0 13.5 -2.5t6.5 -10.5q2 -13 -1 -21q0 -4 -1 -10.5t-2 -12.5t-3 -10.5t-5 -4.5h-112v-89h74
q6 0 11 -4t5 -12q0 -11 -3 -25t-8 -14h-79z" />
    <glyph glyph-name="Utilde" unicode="&#x168;" horiz-adv-x="710" 
d="M551 714q0 4 7 7.5t17 5.5t21.5 3.5t19.5 1.5q13 0 18.5 -8.5t5.5 -19.5v-447q0 -76 -17 -127.5t-52 -83t-88 -45t-124 -13.5h-8q-71 0 -124 13.5t-88 45t-52 83t-17 127.5v457q0 4 7 7.5t17 5.5t21.5 3.5t19.5 1.5q13 0 18.5 -8.5t5.5 -19.5v-413q0 -57 5.5 -99.5
t25.5 -70.5t58 -42t103 -14h8q65 0 103 14t58 42t25.5 70.5t5.5 99.5v423zM304 896q15 0 28 -5t26 -11t26.5 -11t28.5 -5q14 0 25 6t19 20q2 4 7.5 4.5t28.5 -6.5q13 -4 10 -13q-1 -6 -3.5 -11.5t-5.5 -10.5q-15 -28 -36.5 -39.5t-41.5 -13.5q-5 -1 -9.5 -0.5t-8.5 0.5
q-13 2 -24.5 7t-23.5 10.5t-24 9.5t-26 4t-25 -5.5t-19 -20.5q-2 -5 -8 -5.5t-28 7.5q-13 4 -10 14q4 13 9 21q17 30 40.5 42t44.5 12z" />
    <glyph glyph-name="utilde" unicode="&#x169;" horiz-adv-x="529" 
d="M69 515q0 13 16 19t31 6t26 -5t11 -12v-325q0 -29 1.5 -54.5t7 -44.5t17.5 -29.5t33 -10.5q34 0 63.5 4t51.5 10t35 13t13 13v416q0 13 16 19t30 6q15 0 26.5 -5t11.5 -12v-444q0 -14 -20 -30t-55 -29.5t-82.5 -22.5t-103.5 -9q-46 0 -72 15t-38.5 40.5t-15.5 58.5t-3 70
v343zM211 716q15 0 28 -5t26 -11t26.5 -11t28.5 -5q14 0 25 6t19 20q2 4 7.5 4.5t28.5 -6.5q13 -4 10 -13q-1 -6 -3.5 -11.5t-5.5 -10.5q-15 -28 -36.5 -39.5t-41.5 -13.5q-5 -1 -9.5 -0.5t-8.5 0.5q-13 2 -24.5 7t-23.5 10.5t-24 9.5t-26 4t-25 -5.5t-19 -20.5
q-2 -5 -8 -5.5t-28 7.5q-13 4 -10 14q4 13 9 21q17 30 40.5 42t44.5 12z" />
    <glyph glyph-name="Umacron" unicode="&#x16a;" horiz-adv-x="710" 
d="M551 714q0 4 7 7.5t17 5.5t21.5 3.5t19.5 1.5q13 0 18.5 -8.5t5.5 -19.5v-447q0 -76 -17 -127.5t-52 -83t-88 -45t-124 -13.5h-8q-71 0 -124 13.5t-88 45t-52 83t-17 127.5v457q0 4 7 7.5t17 5.5t21.5 3.5t19.5 1.5q13 0 18.5 -8.5t5.5 -19.5v-413q0 -57 5.5 -99.5
t25.5 -70.5t58 -42t103 -14h8q65 0 103 14t58 42t25.5 70.5t5.5 99.5v423zM233 798q-15 0 -15 15q0 11 2 25.5t8 14.5h236q6 0 11 -4t5 -12q0 -11 -3 -25t-8 -14h-236z" />
    <glyph glyph-name="umacron" unicode="&#x16b;" horiz-adv-x="529" 
d="M69 515q0 13 16 19t31 6t26 -5t11 -12v-325q0 -29 1.5 -54.5t7 -44.5t17.5 -29.5t33 -10.5q34 0 63.5 4t51.5 10t35 13t13 13v416q0 13 16 19t30 6q15 0 26.5 -5t11.5 -12v-444q0 -14 -20 -30t-55 -29.5t-82.5 -22.5t-103.5 -9q-46 0 -72 15t-38.5 40.5t-15.5 58.5t-3 70
v343zM142 618q-15 0 -15 15q0 11 2 25.5t8 14.5h236q6 0 11 -4t5 -12q0 -11 -3 -25t-8 -14h-236z" />
    <glyph glyph-name="Ubreve" unicode="&#x16c;" horiz-adv-x="710" 
d="M551 714q0 4 7 7.5t17 5.5t21.5 3.5t19.5 1.5q13 0 18.5 -8.5t5.5 -19.5v-447q0 -76 -17 -127.5t-52 -83t-88 -45t-124 -13.5h-8q-71 0 -124 13.5t-88 45t-52 83t-17 127.5v457q0 4 7 7.5t17 5.5t21.5 3.5t19.5 1.5q13 0 18.5 -8.5t5.5 -19.5v-413q0 -57 5.5 -99.5
t25.5 -70.5t58 -42t103 -14h8q65 0 103 14t58 42t25.5 70.5t5.5 99.5v423zM204 911q0 19 17 19q12 0 28.5 -3t16.5 -10q0 -18 8 -31.5t20.5 -21.5t28 -12t30.5 -4t30 4t27.5 12t20.5 21.5t8 31.5q0 3 5 5.5t11.5 4t14 2.5t13.5 1q18 0 18 -19q0 -29 -13.5 -51.5t-34.5 -38
t-47.5 -23.5t-53.5 -8q-26 0 -52.5 8t-47.5 23.5t-34.5 38t-13.5 51.5z" />
    <glyph glyph-name="ubreve" unicode="&#x16d;" horiz-adv-x="529" 
d="M69 515q0 13 16 19t31 6t26 -5t11 -12v-325q0 -29 1.5 -54.5t7 -44.5t17.5 -29.5t33 -10.5q34 0 63.5 4t51.5 10t35 13t13 13v416q0 13 16 19t30 6q15 0 26.5 -5t11.5 -12v-444q0 -14 -20 -30t-55 -29.5t-82.5 -22.5t-103.5 -9q-46 0 -72 15t-38.5 40.5t-15.5 58.5t-3 70
v343zM113 731q0 19 17 19q12 0 28.5 -3t16.5 -10q0 -18 8 -31.5t20.5 -21.5t28 -12t30.5 -4t30 4t27.5 12t20.5 21.5t8 31.5q0 3 5 5.5t11.5 4t14 2.5t13.5 1q18 0 18 -19q0 -29 -13.5 -51.5t-34.5 -38t-47.5 -23.5t-53.5 -8q-26 0 -52.5 8t-47.5 23.5t-34.5 38t-13.5 51.5z
" />
    <glyph glyph-name="Uring" unicode="&#x16e;" horiz-adv-x="710" 
d="M551 714q0 4 7 7.5t17 5.5t21.5 3.5t19.5 1.5q13 0 18.5 -8.5t5.5 -19.5v-447q0 -76 -17 -127.5t-52 -83t-88 -45t-124 -13.5h-8q-71 0 -124 13.5t-88 45t-52 83t-17 127.5v457q0 4 7 7.5t17 5.5t21.5 3.5t19.5 1.5q13 0 18.5 -8.5t5.5 -19.5v-413q0 -57 5.5 -99.5
t25.5 -70.5t58 -42t103 -14h8q65 0 103 14t58 42t25.5 70.5t5.5 99.5v423zM354 799q-45 0 -72 28t-27 65q0 38 27 66t72 28t71.5 -28t26.5 -66t-26.5 -65.5t-71.5 -27.5zM353 840q24 0 39.5 15.5t15.5 37.5q0 21 -15.5 36.5t-39.5 15.5t-40 -15.5t-16 -36.5q0 -22 16 -37.5
t40 -15.5z" />
    <glyph glyph-name="uring" unicode="&#x16f;" horiz-adv-x="529" 
d="M69 515q0 13 16 19t31 6t26 -5t11 -12v-325q0 -29 1.5 -54.5t7 -44.5t17.5 -29.5t33 -10.5q34 0 63.5 4t51.5 10t35 13t13 13v416q0 13 16 19t30 6q15 0 26.5 -5t11.5 -12v-444q0 -14 -20 -30t-55 -29.5t-82.5 -22.5t-103.5 -9q-46 0 -72 15t-38.5 40.5t-15.5 58.5t-3 70
v343zM262 619q-45 0 -72 28t-27 65q0 38 27 66t72 28t71.5 -28t26.5 -66t-26.5 -65.5t-71.5 -27.5zM261 660q24 0 39.5 15.5t15.5 37.5q0 21 -15.5 36.5t-39.5 15.5t-40 -15.5t-16 -36.5q0 -22 16 -37.5t40 -15.5z" />
    <glyph glyph-name="Uhungarumlaut" unicode="&#x170;" horiz-adv-x="736" 
d="M551 714q0 4 7 7.5t17 5.5t21.5 3.5t19.5 1.5q13 0 18.5 -8.5t5.5 -19.5v-447q0 -76 -17 -127.5t-52 -83t-88 -45t-124 -13.5h-8q-71 0 -124 13.5t-88 45t-52 83t-17 127.5v457q0 4 7 7.5t17 5.5t21.5 3.5t19.5 1.5q13 0 18.5 -8.5t5.5 -19.5v-413q0 -57 5.5 -99.5
t25.5 -70.5t58 -42t103 -14h8q65 0 103 14t58 42t25.5 70.5t5.5 99.5v423zM485 941q6 9 14 9q2 0 17.5 -2.5t45.5 -7.5q13 -2 13 -6t-8 -10l-120 -121q-6 -7 -12 -7q-2 0 -9 3t-14 7t-11.5 8.5t-1.5 7.5zM350 941q6 9 14 9q2 0 17.5 -2.5t45.5 -7.5q13 -2 13 -6t-8 -10
l-120 -121q-6 -7 -12 -7q-2 0 -9 3t-14 7t-11.5 8.5t-1.5 7.5z" />
    <glyph glyph-name="uhungarumlaut" unicode="&#x171;" horiz-adv-x="544" 
d="M69 515q0 13 16 19t31 6t26 -5t11 -12v-325q0 -29 1.5 -54.5t7 -44.5t17.5 -29.5t33 -10.5q34 0 63.5 4t51.5 10t35 13t13 13v416q0 13 16 19t30 6q15 0 26.5 -5t11.5 -12v-444q0 -14 -20 -30t-55 -29.5t-82.5 -22.5t-103.5 -9q-46 0 -72 15t-38.5 40.5t-15.5 58.5t-3 70
v343zM390 761q6 9 14 9q2 0 17.5 -2.5t45.5 -7.5q13 -2 13 -6t-8 -10l-120 -121q-6 -7 -12 -7q-2 0 -9 3t-14 7t-11.5 8.5t-1.5 7.5zM255 761q6 9 14 9q2 0 17.5 -2.5t45.5 -7.5q13 -2 13 -6t-8 -10l-120 -121q-6 -7 -12 -7q-2 0 -9 3t-14 7t-11.5 8.5t-1.5 7.5z" />
    <glyph glyph-name="Uogonek" unicode="&#x172;" horiz-adv-x="710" 
d="M413 -119q6 4 13.5 -5t10.5 -15q4 -8 -2 -14q-36 -45 -87 -45q-45 0 -75 27t-30 74q0 27 12.5 49t32.5 39q-55 6 -96 23t-68 49t-40.5 79.5t-13.5 114.5v457q0 4 7 7.5t17 5.5t21.5 3.5t19.5 1.5q13 0 18.5 -8.5t5.5 -19.5v-413q0 -57 5.5 -99.5t25.5 -70.5t58 -42
t103 -14h8q65 0 103 14t58 42t25.5 70.5t5.5 99.5v423q0 4 7 7.5t17 5.5t21.5 3.5t19.5 1.5q13 0 18.5 -8.5t5.5 -19.5v-447q0 -76 -17 -127t-52 -82.5t-87.5 -45.5t-123.5 -14q-40 -39 -40 -73q0 -26 13 -37.5t33 -11.5q11 0 22 2.5t25 12.5z" />
    <glyph glyph-name="uogonek" unicode="&#x173;" horiz-adv-x="564" 
d="M468 -77q6 4 13.5 -5t10.5 -15q4 -8 -2 -14q-36 -45 -87 -45q-45 0 -75 27t-30 74q0 30 15 53q-25 -5 -52.5 -7.5t-56.5 -2.5q-46 0 -72 15t-38.5 40.5t-15.5 58.5t-3 70v343q0 13 16 19t31 6t26 -5t11 -12v-325q0 -29 1.5 -54.5t7 -44.5t17.5 -29.5t33 -10.5
q34 0 63.5 4t51.5 10t35 13t13 13v416q0 13 16 19t30 6q15 0 26.5 -5t11.5 -12v-444q0 -24 -50 -49q-40 -39 -40 -73q0 -26 13 -37.5t33 -11.5q11 0 22 2.5t25 12.5z" />
    <glyph glyph-name="Wcircumflex" unicode="&#x174;" horiz-adv-x="883" 
d="M474 707q2 8 10 13t19 7.5t23 3.5t22 1t18 -5.5t5 -16.5q-2 -8 -4 -15.5t-4 -15.5l-74 -230l100 -342l172 600q2 8 10 13t19 7.5t23 3.5t22 1q11 0 18.5 -5.5t5.5 -16.5l-10 -35l-214 -664q-2 -9 -8.5 -16t-17.5 -7q-10 0 -21.5 1.5t-21.5 3.5t-17.5 5.5t-8.5 8.5
l-97 303l-95 -299q-2 -9 -8.5 -16t-17.5 -7q-10 0 -21.5 1.5t-21.5 3.5t-17.5 5.5t-8.5 8.5l-215 668q-3 8 -5.5 17.5t-4.5 17.5q-3 11 5 16.5t18 5.5q14 0 34.5 -1.5t27.5 -10.5q13 -16 20 -37l168 -576zM578 831q-4 -5 -10 -10.5t-12.5 -10t-11.5 -6.5t-8 0l-95 82
l-94 -82q-3 -2 -8.5 0t-11.5 6.5t-12.5 10t-10.5 10.5q-7 8 -5 15t8 14l123 107q5 5 11 5t12 -5l122 -107q7 -7 9 -14t-6 -15z" />
    <glyph glyph-name="wcircumflex" unicode="&#x175;" horiz-adv-x="705" 
d="M585 524q1 5 8 8t15.5 5t18 3t16.5 1q12 0 17.5 -7.5t3.5 -18.5q0 -2 -0.5 -5t-0.5 -5l-139 -498q-2 -8 -7 -13.5t-14 -5.5q-8 0 -17 1t-17 3t-14 5t-7 7l-98 363l-96 -360q-2 -8 -7.5 -13.5t-13.5 -5.5q-15 0 -34 4t-22 12l-139 501q0 2 -0.5 5t-0.5 5q-2 11 3 18.5
t18 7.5q7 0 16.5 -0.5t18 -2.5t14.5 -5t8 -9l102 -409l97 412q2 8 14 11t23 3q14 0 25 -5t14 -18l97 -403zM511 651q-4 -5 -10 -10.5t-12.5 -10t-11.5 -6.5t-8 0l-95 82l-94 -82q-3 -2 -8.5 0t-11.5 6.5t-12.5 10t-10.5 10.5q-7 8 -5 15t8 14l123 107q5 5 11 5t12 -5
l122 -107q7 -7 9 -14t-6 -15z" />
    <glyph glyph-name="Ycircumflex" unicode="&#x176;" horiz-adv-x="591" 
d="M340 14q0 -11 -5 -18.5t-18 -7.5q-9 0 -20 1t-21.5 3t-17.5 5t-7 7v285l-213 406q-10 20 -3.5 28.5t23.5 8.5q20 0 40.5 -5t28.5 -19l169 -336l167 336q8 14 28.5 19t41.5 5q17 0 23.5 -8.5t-4.5 -28.5l-212 -405v-276zM439 831q-4 -5 -10 -10.5t-12.5 -10t-11.5 -6.5
t-8 0l-95 82l-94 -82q-3 -2 -8.5 0t-11.5 6.5t-12.5 10t-10.5 10.5q-7 8 -5 15t8 14l123 107q5 5 11 5t12 -5l122 -107q7 -7 9 -14t-6 -15z" />
    <glyph glyph-name="ycircumflex" unicode="&#x177;" horiz-adv-x="555" 
d="M330 -184q21 0 33 9.5t18 29t7 49t1 70.5v48q-36 -20 -83 -27.5t-95 -7.5q-47 0 -73 15.5t-38 41.5t-14.5 60t-2.5 72v347q0 8 11 13t26 5q14 0 30.5 -6t16.5 -17v-331q0 -27 1.5 -50.5t7.5 -41t18 -27t32 -9.5q32 0 61 3.5t51 8.5t35.5 11.5t15.5 12.5v428q0 8 10.5 13
t26.5 5q14 0 30 -6.5t16 -18.5v-551q0 -57 -3.5 -99t-18 -69t-43.5 -40t-79 -13q-57 0 -112 11t-110 35q-10 5 -14 10t-1 14q3 14 10.5 30t15.5 16q4 0 12 -2q48 -18 96 -30t105 -12zM418 651q-4 -5 -10 -10.5t-12.5 -10t-11.5 -6.5t-8 0l-95 82l-94 -82q-3 -2 -8.5 0
t-11.5 6.5t-12.5 10t-10.5 10.5q-7 8 -5 15t8 14l123 107q5 5 11 5t12 -5l122 -107q7 -7 9 -14t-6 -15z" />
    <glyph glyph-name="Ydieresis" unicode="&#x178;" horiz-adv-x="591" 
d="M340 14q0 -11 -5 -18.5t-18 -7.5q-9 0 -20 1t-21.5 3t-17.5 5t-7 7v285l-213 406q-10 20 -3.5 28.5t23.5 8.5q20 0 40.5 -5t28.5 -19l169 -336l167 336q8 14 28.5 19t41.5 5q17 0 23.5 -8.5t-4.5 -28.5l-212 -405v-276zM352 908q0 4 6 7t15 5t19.5 3t19.5 1q13 0 18 -7.5
t5 -18.5v-73q0 -11 -5 -18.5t-18 -7.5q-9 0 -19.5 1t-19.5 3t-15 5t-6 7v93zM167 908q0 4 6 7t15 5t19.5 3t19.5 1q13 0 18 -7.5t5 -18.5v-73q0 -11 -5 -18.5t-18 -7.5q-9 0 -19.5 1t-19.5 3t-15 5t-6 7v93z" />
    <glyph glyph-name="Zacute" unicode="&#x179;" horiz-adv-x="604" 
d="M49 0q-8 0 -12.5 6.5t-4.5 16.5q0 15 3.5 33.5t10.5 25.5l413 560h-366q-4 0 -6.5 5.5t-4.5 14t-3 18t-1 17.5q0 12 6.5 17t16.5 5h439q11 0 18.5 -5t7.5 -19t-4.5 -32.5t-9.5 -24.5l-407 -560h395q9 0 16 -5.5t7 -17.5q0 -8 -1 -17.5t-3 -18t-5 -14t-7 -5.5h-498z
M294 817q11 14 22 29t23 30q17 29 30 48t25 37q2 3 23 1t46 -7q8 -2 12 -7t2 -10q0 -3 -6 -9l-122 -120q-5 -5 -11.5 -9.5t-13.5 -2.5q-3 1 -8.5 3t-11 4.5t-9 6t-1.5 6.5z" />
    <glyph glyph-name="zacute" unicode="&#x17a;" horiz-adv-x="505" 
d="M81 0q-14 0 -26.5 1.5t-20.5 7.5q-8 10 -5 25q1 6 5.5 15.5t9.5 20.5t11 21.5t12 18.5l265 346h-263q-4 0 -6.5 5.5t-4 13t-2.5 16.5t-1 16q0 11 6.5 15.5t15.5 4.5h340q8 0 13 -2t7 -10q1 -11 -2 -24q-3 -16 -15 -39.5t-23 -37.5l-260 -342h298q9 0 15.5 -5t6.5 -16
q0 -7 -1 -16t-2.5 -16.5t-4.5 -13t-6 -5.5h-362zM212 637q11 14 22 29t23 30q17 29 30 48t25 37q2 3 23 1t46 -7q8 -2 12 -7t2 -10q0 -3 -6 -9l-122 -120q-5 -5 -11.5 -9.5t-13.5 -2.5q-3 1 -8.5 3t-11 4.5t-9 6t-1.5 6.5z" />
    <glyph glyph-name="Zdotaccent" unicode="&#x17b;" horiz-adv-x="598" 
d="M49 0q-8 0 -12.5 6.5t-4.5 16.5q0 15 3.5 33.5t10.5 25.5l413 560h-366q-4 0 -6.5 5.5t-4.5 14t-3 18t-1 17.5q0 12 6.5 17t16.5 5h439q11 0 18.5 -5t7.5 -19t-4.5 -32.5t-9.5 -24.5l-407 -560h395q9 0 16 -5.5t7 -17.5q0 -8 -1 -17.5t-3 -18t-5 -14t-7 -5.5h-498z
M276 907q0 4 6 7t15 5t19.5 3t19.5 1q13 0 18 -7.5t5 -18.5v-73q0 -11 -5 -18.5t-18 -7.5q-9 0 -19.5 1t-19.5 3t-15 5t-6 7v93z" />
    <glyph glyph-name="zdotaccent" unicode="&#x17c;" horiz-adv-x="482" 
d="M81 0q-14 0 -26.5 1.5t-20.5 7.5q-8 10 -5 25q1 6 5.5 15.5t9.5 20.5t11 21.5t12 18.5l265 346h-263q-4 0 -6.5 5.5t-4 13t-2.5 16.5t-1 16q0 11 6.5 15.5t15.5 4.5h340q8 0 13 -2t7 -10q1 -11 -2 -24q-3 -16 -15 -39.5t-23 -37.5l-260 -342h298q9 0 15.5 -5t6.5 -16
q0 -7 -1 -16t-2.5 -16.5t-4.5 -13t-6 -5.5h-362zM194 727q0 4 6 7t15 5t19.5 3t19.5 1q13 0 18 -7.5t5 -18.5v-73q0 -11 -5 -18.5t-18 -7.5q-9 0 -19.5 1t-19.5 3t-15 5t-6 7v93z" />
    <glyph glyph-name="Zcaron" unicode="&#x17d;" horiz-adv-x="598" 
d="M50 0q-8 0 -12.5 6.5t-4.5 16.5q0 15 3.5 33.5t10.5 25.5l413 560h-366q-4 0 -6.5 5.5t-4.5 14t-3 18t-1 17.5q0 12 6.5 17t16.5 5h439q11 0 18.5 -5t7.5 -19t-4.5 -32.5t-9.5 -24.5l-407 -560h395q9 0 16 -5.5t7 -17.5q0 -8 -1 -17.5t-3 -18t-5 -14t-7 -5.5h-498z
M453 940q2 -7 3 -13.5t-4 -11.5q-3 -4 -7.5 -8.5l-10.5 -10.5l-109 -96q-3 -4 -6 -4q-7 -4 -17 4q-15 13 -32.5 28t-34.5 30t-32.5 29.5t-27.5 27.5q-7 9 0 25q1 3 5 8.5t9 10.5t10 8t9 2q5 -2 11 -6t11 -9l84 -74l83 74q11 11 22 15q4 1 9 -2t10 -8t9 -10.5t6 -8.5z" />
    <glyph glyph-name="zcaron" unicode="&#x17e;" horiz-adv-x="482" 
d="M75 0q-14 0 -26.5 1.5t-20.5 7.5q-8 10 -5 25q1 6 5.5 15.5t9.5 20.5t11 21.5t12 18.5l265 346h-263q-4 0 -6.5 5.5t-4 13t-2.5 16.5t-1 16q0 11 6.5 15.5t15.5 4.5h340q8 0 13 -2t7 -10q1 -11 -2 -24q-3 -16 -15 -39.5t-23 -37.5l-260 -342h298q9 0 15.5 -5t6.5 -16
q0 -7 -1 -16t-2.5 -16.5t-4.5 -13t-6 -5.5h-362zM364 760q2 -7 3 -13.5t-4 -11.5q-3 -4 -7.5 -8.5l-10.5 -10.5l-109 -96q-3 -4 -6 -4q-7 -4 -17 4q-15 13 -32.5 28t-34.5 30t-32.5 29.5t-27.5 27.5q-7 9 0 25q1 3 5 8.5t9 10.5t10 8t9 2q5 -2 11 -6t11 -9l84 -74l83 74
q11 11 22 15q4 1 9 -2t10 -8t9 -10.5t6 -8.5z" />
    <glyph glyph-name="florin" unicode="&#x192;" horiz-adv-x="372" 
d="M328 663q-48 14 -68 14q-19 1 -29 -3q-22 -8 -29 -37.5t-7 -82.5v-26h108q7 0 12.5 -2.5t6.5 -10.5q2 -6 1.5 -11t-1.5 -10q-1 -4 -1.5 -10.5t-2 -12.5t-3.5 -10.5t-5 -4.5h-117v-638q0 -9 -2.5 -15.5t-12.5 -8.5q-17 -2 -26 1q-5 0 -12.5 1t-14.5 2.5t-11.5 4t-4.5 5.5
v648h-77q-8 0 -13 2.5t-7 10.5q-2 12 1 22q0 4 1 10.5t2 12.5t3 10t5 4h85v25q2 94 29 140t84 54q8 2 17 2h19q9 0 26.5 -2t34.5 -6t29.5 -10t12.5 -14q-2 -11 -4.5 -18t-6.5 -9q-2 -3 -4.5 -8t-5 -9.5t-6 -7.5t-6.5 -2z" />
    <glyph glyph-name="AEacute" unicode="&#x1fc;" horiz-adv-x="963" 
d="M466 212h-228l-107 -185q-6 -10 -15 -16t-19 -9.5t-20 -4.5t-17 -1q-15 0 -25 5.5t-3 18.5l15 27l389 636q15 25 26.5 30.5t26.5 5.5h388q10 0 16.5 -5t6.5 -17q0 -8 -1 -17.5t-3 -18t-4.5 -14t-6.5 -5.5h-330v-238h293q9 0 16 -5t7 -16q0 -8 -1 -17.5t-3 -18t-4.5 -14.5
t-6.5 -6h-301v-250h322q10 0 16.5 -5t6.5 -17q0 -8 -1 -17.5t-3 -18t-4.5 -14t-6.5 -5.5h-376q-13 0 -28 5t-15 12v195zM466 289v316l-182 -316h182zM489 801q11 14 22 29t23 30q17 29 30 48t25 37q2 3 23 1t46 -7q8 -2 12 -7t2 -10q0 -3 -6 -9l-122 -120q-5 -5 -11.5 -9.5
t-13.5 -2.5q-3 1 -8.5 3t-11 4.5t-9 6t-1.5 6.5z" />
    <glyph glyph-name="aeacute" unicode="&#x1fd;" horiz-adv-x="778" 
d="M549 -12q-89 0 -139 43q-20 -14 -53 -22.5t-67 -13t-64 -6t-44 -1.5q-42 0 -69 9.5t-42 29t-21 49t-6 68.5q0 29 3 56t14 48.5t32 35t57 16.5q13 2 26.5 2t28.5 -1q38 -2 74 -8t67 -18q-1 82 -14 126t-50 58q-18 5 -36 6.5t-42 0.5q-10 0 -19.5 -1t-26.5 -3l-43 -7
q-5 10 -10.5 25t-9.5 34q4 6 17.5 11t33 8.5t44 5t50.5 1.5q51 0 88.5 -17t60.5 -49q25 41 68 53.5t109 12.5q54 0 85.5 -13t48 -35t21 -51t4.5 -60v-60q0 -14 -10 -27.5t-41.5 -24t-89.5 -17t-153 -6.5q0 -35 3 -64.5t12 -53t25.5 -40t43.5 -23.5q10 -3 21.5 -4t24.5 -1
t25.5 1.5t26.5 3.5l31.5 4.5t40.5 6.5q5 -9 10 -25t9 -34q-3 -7 -17.5 -12.5t-35.5 -9t-47.5 -5.5t-54.5 -2zM184 59q66 0 108.5 7t53.5 15v120q-11 9 -53.5 19.5t-105.5 10.5q-32 0 -45 -20.5t-13 -58.5q0 -41 10 -67t45 -26zM641 387q0 38 -19.5 60t-57.5 22
q-36 0 -61 -6.5t-40.5 -23.5t-23 -46t-8.5 -75q100 0 155 5.5t55 21.5v42zM372 643q11 14 22 29t23 30q17 29 30 48t25 37q2 3 23 1t46 -7q8 -2 12 -7t2 -10q0 -3 -6 -9l-122 -120q-5 -5 -11.5 -9.5t-13.5 -2.5q-3 1 -8.5 3t-11 4.5t-9 6t-1.5 6.5z" />
    <glyph glyph-name="Oslashacute" unicode="&#x1fe;" horiz-adv-x="694" 
d="M492 773q6 -3 14.5 -6t15.5 -7t11 -8t2 -8l-17 -43q58 -27 86 -84.5t28 -154.5v-205q0 -76 -17 -127.5t-52 -83t-88 -45t-124 -13.5h-8q-57 0 -102 9l-16 -41q-3 -9 -10 -14t-18 -2q-7 3 -15.5 6.5t-15.5 8t-11.5 8.5t-2.5 8l19 48q-56 29 -82.5 85.5t-26.5 152.5v205
q0 76 17 127.5t52 83t88 45t124 13.5h8q26 0 50 -2t45 -6l15 37q4 8 12 12.5t19 0.5zM537 428q0 72 -8 120t-42 74l-217 -551q30 -6 73 -6h8q65 0 102 14t56 42t23.5 70.5t4.5 99.5v137zM157 291q0 -69 7.5 -116.5t38.5 -74.5l214 549q-14 2 -30.5 3.5t-35.5 1.5h-8
q-65 0 -102 -14t-56 -42t-23.5 -70.5t-4.5 -99.5v-137zM325 817q11 14 22 29t23 30q17 29 30 48t25 37q2 3 23 1t46 -7q8 -2 12 -7t2 -10q0 -3 -6 -9l-122 -120q-5 -5 -11.5 -9.5t-13.5 -2.5q-3 1 -8.5 3t-11 4.5t-9 6t-1.5 6.5z" />
    <glyph glyph-name="oslashacute" unicode="&#x1ff;" horiz-adv-x="530" 
d="M63 345q0 96 47 145.5t149 49.5q45 0 81 -11l43 84q8 12 18 20q8 6 19.5 1t21 -14.5t15.5 -19t4 -12.5l-46 -101l-2 -4q41 -50 41 -138v-162q0 -96 -47 -145.5t-148 -49.5q-29 0 -53 4t-44 12q-14 -33 -30 -67t-32 -51q-8 -8 -24 1q-17 10 -28.5 24.5t-7.5 19.5l59 119
q-36 48 -36 133v162zM370 307q0 24 -1 45t-5 39l-168 -319q24 -13 63 -13q37 0 59 10.5t33.5 30.5t15 47.5t3.5 62.5v97zM147 221q0 -20 0.5 -37t2.5 -32l3 5l154 305q-18 7 -48 7q-37 0 -59 -10.5t-34 -30.5t-15.5 -48t-3.5 -62v-97zM233 636q2 4 4.5 7.5t5.5 7.5
q12 18 24 37.5t24 37.5t22.5 32t19.5 22q-2 2 12 2t30.5 -2.5t30 -8t10.5 -14.5q-2 -4 -7 -9l-121 -119q-3 -3 -6 -3q-4 -4 -14.5 -6t-21.5 1q-17 7 -13 15z" />
    <glyph glyph-name="uni0218" unicode="&#x218;" horiz-adv-x="538" 
d="M73 95q41 -14 86 -21.5t90 -7.5q48 0 83 13.5t47 41.5q8 17 6 39q-1 26 -12 48.5t-30 42.5q-33 38 -78.5 71t-87 69t-70 79t-28.5 101q0 44 20 74.5t52.5 49.5t73.5 27.5t84 8.5q3 0 6 -0.5t7 -0.5q14 0 38 -2.5t47.5 -7.5t40.5 -12t17 -16q0 -11 -4 -20q-2 -7 -7 -18.5
t-10 -15.5q-5 -5 -17 -1q-29 7 -57.5 12t-57.5 5q-26 0 -51.5 -4t-45.5 -13t-32.5 -24.5t-12.5 -38.5q0 -44 41 -89q17 -19 43 -39.5t56 -44t60 -50t54 -57t39 -65.5t15 -75q0 -47 -20.5 -78.5t-55 -50.5t-79 -27.5t-91.5 -8.5q-50 0 -94 9.5t-82 23.5q-9 4 -13.5 9t-1.5 15
q1 5 4.5 14t7.5 17.5t9 14t11 3.5z" />
    <glyph glyph-name="uni0219" unicode="&#x219;" horiz-adv-x="451" 
d="M53 87q32 -10 66.5 -17.5t71.5 -7.5q22 0 43.5 2.5t38.5 9t27 17.5t10 29q0 17 -13.5 34.5t-33 34.5t-41.5 32t-39 27q-23 14 -46.5 29.5t-43 35t-31.5 43t-12 54.5q0 41 18.5 67t47 40.5t64 19.5t70.5 5q29 0 58 -4.5t56 -11.5q21 -5 18 -23q-2 -7 -4.5 -16t-5.5 -16.5
t-6.5 -12.5t-7.5 -4q-38 8 -64 11t-52 3q-19 0 -38 -2.5t-34 -8.5t-24 -17t-9 -28q0 -14 8 -26t20.5 -24t29 -23l34.5 -23q35 -23 66 -45.5t54 -46t36.5 -47.5t13.5 -51q0 -38 -17 -64t-45 -42.5t-64 -24t-74 -7.5q-42 0 -82.5 8t-75.5 20q-9 4 -14 9.5t-2 14.5q2 7 5 15.5
t6.5 16t8 12t8.5 3.5zM216 -322q-7 -12 -14.5 -18t-22.5 -6q-7 0 -8 5.5t0 10.5q0 2 0.5 4t0.5 4l38 159q1 3 7.5 6t16 5t20.5 3t20 1q12 0 18 -6t6 -14q0 -6 -3 -10z" />
    <glyph glyph-name="uni0237" unicode="&#x237;" horiz-adv-x="224" 
d="M-55 -103q15 -5 33.5 -8.5t30.5 -3.5q22 0 34 13.5t18 36t7.5 51.5t1.5 60v478q0 4 6 7.5t15 5.5t19.5 3t19.5 1q13 0 18 -7.5t5 -18.5v-496q0 -108 -34.5 -158.5t-101.5 -50.5q-15 0 -32.5 2.5t-49.5 13.5q-20 6 -16 24q2 7 5 15.5t6.5 15.5t7 12t7.5 4z" />
    <glyph glyph-name="circumflex" unicode="&#x2c6;" horiz-adv-x="261" 
d="M257 700q-4 -5 -10 -10.5t-12.5 -10t-11.5 -6.5t-8 0l-95 82l-94 -82q-3 -2 -8.5 0t-11.5 6.5t-12.5 10t-10.5 10.5q-7 8 -5 15t8 14l123 107q5 5 11 5t12 -5l122 -107q7 -7 9 -14t-6 -15z" />
    <glyph glyph-name="caron" unicode="&#x2c7;" horiz-adv-x="279" 
d="M269 809q2 -7 3 -13.5t-4 -11.5q-3 -4 -7.5 -8.5l-10.5 -10.5l-109 -96q-3 -4 -6 -4q-7 -4 -17 4q-15 13 -32.5 28t-34.5 30t-32.5 29.5t-27.5 27.5q-7 9 0 25q1 3 5 8.5t9 10.5t10 8t9 2q5 -2 11 -6t11 -9l84 -74l83 74q11 11 22 15q4 1 9 -2t10 -8t9 -10.5t6 -8.5z" />
    <glyph glyph-name="breve" unicode="&#x2d8;" horiz-adv-x="281" 
d="M-7 791q0 19 17 19q12 0 28.5 -3t16.5 -10q0 -18 8 -31.5t20.5 -21.5t28 -12t30.5 -4t30 4t27.5 12t20.5 21.5t8 31.5q0 3 5 5.5t11.5 4t14 2.5t13.5 1q18 0 18 -19q0 -29 -13.5 -51.5t-34.5 -38t-47.5 -23.5t-53.5 -8q-26 0 -52.5 8t-47.5 23.5t-34.5 38t-13.5 51.5z
" />
    <glyph glyph-name="dotaccent" unicode="&#x2d9;" horiz-adv-x="288" 
d="M98 776q0 4 6 7t15 5t19.5 3t19.5 1q13 0 18 -7.5t5 -18.5v-73q0 -11 -5 -18.5t-18 -7.5q-9 0 -19.5 1t-19.5 3t-15 5t-6 7v93z" />
    <glyph glyph-name="ring" unicode="&#x2da;" horiz-adv-x="287" 
d="M144 668q-45 0 -72 28t-27 65q0 38 27 66t72 28t71.5 -28t26.5 -66t-26.5 -65.5t-71.5 -27.5zM143 709q24 0 39.5 15.5t15.5 37.5q0 21 -15.5 36.5t-39.5 15.5t-40 -15.5t-16 -36.5q0 -22 16 -37.5t40 -15.5z" />
    <glyph glyph-name="ogonek" unicode="&#x2db;" horiz-adv-x="288" 
d="M271 -98q6 4 13.5 -5t10.5 -15q4 -8 -2 -14q-36 -45 -87 -45q-45 0 -75 27t-30 74q0 24 9.5 43t25.5 35.5t36 30t40 25.5l34 -26q-36 -26 -52 -51t-16 -45q0 -26 13 -37.5t33 -11.5q11 0 22 2.5t25 12.5z" />
    <glyph glyph-name="tilde" unicode="&#x2dc;" horiz-adv-x="267" 
d="M92 765q15 0 28 -5t26 -11t26.5 -11t28.5 -5q14 0 25 6t19 20q2 4 7.5 4.5t28.5 -6.5q13 -4 10 -13q-1 -6 -3.5 -11.5t-5.5 -10.5q-15 -28 -36.5 -39.5t-41.5 -13.5q-5 -1 -9.5 -0.5t-8.5 0.5q-13 2 -24.5 7t-23.5 10.5t-24 9.5t-26 4t-25 -5.5t-19 -20.5q-2 -5 -8 -5.5
t-28 7.5q-13 4 -10 14q4 13 9 21q17 30 40.5 42t44.5 12z" />
    <glyph glyph-name="hungarumlaut" unicode="&#x2dd;" horiz-adv-x="291" 
d="M241 810q6 9 14 9q2 0 17.5 -2.5t45.5 -7.5q13 -2 13 -6t-8 -10l-120 -121q-6 -7 -12 -7q-2 0 -9 3t-14 7t-11.5 8.5t-1.5 7.5zM106 810q6 9 14 9q2 0 17.5 -2.5t45.5 -7.5q13 -2 13 -6t-8 -10l-120 -121q-6 -7 -12 -7q-2 0 -9 3t-14 7t-11.5 8.5t-1.5 7.5z" />
    <glyph glyph-name="Iota" unicode="&#x399;" horiz-adv-x="208" 
d="M133 14q0 -11 -2.5 -18.5t-14.5 -7.5q-16 0 -28.5 4t-12.5 9v705q0 11 2.5 18.5t14.5 7.5q16 0 28.5 -4t12.5 -9v-705v0z" />
    <glyph glyph-name="Wgrave" unicode="&#x1e80;" horiz-adv-x="883" 
d="M474 707q2 8 10 13t19 7.5t23 3.5t22 1t18 -5.5t5 -16.5q-2 -8 -4 -15.5t-4 -15.5l-74 -230l100 -342l172 600q2 8 10 13t19 7.5t23 3.5t22 1q11 0 18.5 -5.5t5.5 -16.5l-10 -35l-214 -664q-2 -9 -8.5 -16t-17.5 -7q-10 0 -21.5 1.5t-21.5 3.5t-17.5 5.5t-8.5 8.5
l-97 303l-95 -299q-2 -9 -8.5 -16t-17.5 -7q-10 0 -21.5 1.5t-21.5 3.5t-17.5 5.5t-8.5 8.5l-215 668q-3 8 -5.5 17.5t-4.5 17.5q-3 11 5 16.5t18 5.5q14 0 34.5 -1.5t27.5 -10.5q13 -16 20 -37l168 -576zM450 827q3 -5 5.5 -9.5t3.5 -7.5q2 -3 -2.5 -6.5t-11.5 -6t-13.5 -4
t-8.5 -1.5q-3 0 -9 4t-10 8l-126 114q-3 4 -5.5 7t-2.5 6q0 11 17 16q19 4 36 6.5t22 2.5q9 0 15 -6z" />
    <glyph glyph-name="wgrave" unicode="&#x1e81;" horiz-adv-x="705" 
d="M585 524q1 5 8 8t15.5 5t18 3t16.5 1q12 0 17.5 -7.5t3.5 -18.5q0 -2 -0.5 -5t-0.5 -5l-139 -498q-2 -8 -7 -13.5t-14 -5.5q-8 0 -17 1t-17 3t-14 5t-7 7l-98 363l-96 -360q-2 -8 -7.5 -13.5t-13.5 -5.5q-15 0 -34 4t-22 12l-139 501q0 2 -0.5 5t-0.5 5q-2 11 3 18.5
t18 7.5q7 0 16.5 -0.5t18 -2.5t14.5 -5t8 -9l102 -409l97 412q2 8 14 11t23 3q14 0 25 -5t14 -18l97 -403zM388 647q3 -5 5.5 -9.5t3.5 -7.5q2 -3 -2.5 -6.5t-11.5 -6t-13.5 -4t-8.5 -1.5q-3 0 -9 4t-10 8l-126 114q-3 4 -5.5 7t-2.5 6q0 11 17 16q19 4 36 6.5t22 2.5
q9 0 15 -6z" />
    <glyph glyph-name="Wacute" unicode="&#x1e82;" horiz-adv-x="883" 
d="M474 707q2 8 10 13t19 7.5t23 3.5t22 1t18 -5.5t5 -16.5q-2 -8 -4 -15.5t-4 -15.5l-74 -230l100 -342l172 600q2 8 10 13t19 7.5t23 3.5t22 1q11 0 18.5 -5.5t5.5 -16.5l-10 -35l-214 -664q-2 -9 -8.5 -16t-17.5 -7q-10 0 -21.5 1.5t-21.5 3.5t-17.5 5.5t-8.5 8.5
l-97 303l-95 -299q-2 -9 -8.5 -16t-17.5 -7q-10 0 -21.5 1.5t-21.5 3.5t-17.5 5.5t-8.5 8.5l-215 668q-3 8 -5.5 17.5t-4.5 17.5q-3 11 5 16.5t18 5.5q14 0 34.5 -1.5t27.5 -10.5q13 -16 20 -37l168 -576zM416 817q11 14 22 29t23 30q17 29 30 48t25 37q2 3 23 1t46 -7
q8 -2 12 -7t2 -10q0 -3 -6 -9l-122 -120q-5 -5 -11.5 -9.5t-13.5 -2.5q-3 1 -8.5 3t-11 4.5t-9 6t-1.5 6.5z" />
    <glyph glyph-name="wacute" unicode="&#x1e83;" horiz-adv-x="705" 
d="M585 524q1 5 8 8t15.5 5t18 3t16.5 1q12 0 17.5 -7.5t3.5 -18.5q0 -2 -0.5 -5t-0.5 -5l-139 -498q-2 -8 -7 -13.5t-14 -5.5q-8 0 -17 1t-17 3t-14 5t-7 7l-98 363l-96 -360q-2 -8 -7.5 -13.5t-13.5 -5.5q-15 0 -34 4t-22 12l-139 501q0 2 -0.5 5t-0.5 5q-2 11 3 18.5
t18 7.5q7 0 16.5 -0.5t18 -2.5t14.5 -5t8 -9l102 -409l97 412q2 8 14 11t23 3q14 0 25 -5t14 -18l97 -403zM354 637q11 14 22 29t23 30q17 29 30 48t25 37q2 3 23 1t46 -7q8 -2 12 -7t2 -10q0 -3 -6 -9l-122 -120q-5 -5 -11.5 -9.5t-13.5 -2.5q-3 1 -8.5 3t-11 4.5t-9 6
t-1.5 6.5z" />
    <glyph glyph-name="Wdieresis" unicode="&#x1e84;" horiz-adv-x="883" 
d="M474 707q2 8 10 13t19 7.5t23 3.5t22 1t18 -5.5t5 -16.5q-2 -8 -4 -15.5t-4 -15.5l-74 -230l100 -342l172 600q2 8 10 13t19 7.5t23 3.5t22 1q11 0 18.5 -5.5t5.5 -16.5l-10 -35l-214 -664q-2 -9 -8.5 -16t-17.5 -7q-10 0 -21.5 1.5t-21.5 3.5t-17.5 5.5t-8.5 8.5
l-97 303l-95 -299q-2 -9 -8.5 -16t-17.5 -7q-10 0 -21.5 1.5t-21.5 3.5t-17.5 5.5t-8.5 8.5l-215 668q-3 8 -5.5 17.5t-4.5 17.5q-3 11 5 16.5t18 5.5q14 0 34.5 -1.5t27.5 -10.5q13 -16 20 -37l168 -576zM305 908q0 4 6 7t15 5t19.5 3t19.5 1q13 0 18 -7.5t5 -18.5v-73
q0 -11 -5 -18.5t-18 -7.5q-9 0 -19.5 1t-19.5 3t-15 5t-6 7v93zM490 908q0 4 6 7t15 5t19.5 3t19.5 1q13 0 18 -7.5t5 -18.5v-73q0 -11 -5 -18.5t-18 -7.5q-9 0 -19.5 1t-19.5 3t-15 5t-6 7v93z" />
    <glyph glyph-name="wdieresis" unicode="&#x1e85;" horiz-adv-x="705" 
d="M585 524q1 5 8 8t15.5 5t18 3t16.5 1q12 0 17.5 -7.5t3.5 -18.5q0 -2 -0.5 -5t-0.5 -5l-139 -498q-2 -8 -7 -13.5t-14 -5.5q-8 0 -17 1t-17 3t-14 5t-7 7l-98 363l-96 -360q-2 -8 -7.5 -13.5t-13.5 -5.5q-15 0 -34 4t-22 12l-139 501q0 2 -0.5 5t-0.5 5q-2 11 3 18.5
t18 7.5q7 0 16.5 -0.5t18 -2.5t14.5 -5t8 -9l102 -409l97 412q2 8 14 11t23 3q14 0 25 -5t14 -18l97 -403zM424 728q0 4 6 7t15 5t19.5 3t19.5 1q13 0 18 -7.5t5 -18.5v-73q0 -11 -5 -18.5t-18 -7.5q-9 0 -19.5 1t-19.5 3t-15 5t-6 7v93zM239 728q0 4 6 7t15 5t19.5 3
t19.5 1q13 0 18 -7.5t5 -18.5v-73q0 -11 -5 -18.5t-18 -7.5q-9 0 -19.5 1t-19.5 3t-15 5t-6 7v93z" />
    <glyph glyph-name="Ygrave" unicode="&#x1ef2;" horiz-adv-x="591" 
d="M340 14q0 -11 -5 -18.5t-18 -7.5q-9 0 -20 1t-21.5 3t-17.5 5t-7 7v285l-213 406q-10 20 -3.5 28.5t23.5 8.5q20 0 40.5 -5t28.5 -19l169 -336l167 336q8 14 28.5 19t41.5 5q17 0 23.5 -8.5t-4.5 -28.5l-212 -405v-276zM305 827q3 -5 5.5 -9.5t3.5 -7.5q2 -3 -2.5 -6.5
t-11.5 -6t-13.5 -4t-8.5 -1.5q-3 0 -9 4t-10 8l-126 114q-3 4 -5.5 7t-2.5 6q0 11 17 16q19 4 36 6.5t22 2.5q9 0 15 -6z" />
    <glyph glyph-name="ygrave" unicode="&#x1ef3;" horiz-adv-x="555" 
d="M330 -184q21 0 33 9.5t18 29t7 49t1 70.5v48q-36 -20 -83 -27.5t-95 -7.5q-47 0 -73 15.5t-38 41.5t-14.5 60t-2.5 72v347q0 8 11 13t26 5q14 0 30.5 -6t16.5 -17v-331q0 -27 1.5 -50.5t7.5 -41t18 -27t32 -9.5q32 0 61 3.5t51 8.5t35.5 11.5t15.5 12.5v428q0 8 10.5 13
t26.5 5q14 0 30 -6.5t16 -18.5v-551q0 -57 -3.5 -99t-18 -69t-43.5 -40t-79 -13q-57 0 -112 11t-110 35q-10 5 -14 10t-1 14q3 14 10.5 30t15.5 16q4 0 12 -2q48 -18 96 -30t105 -12zM292 647q3 -5 5.5 -9.5t3.5 -7.5q2 -3 -2.5 -6.5t-11.5 -6t-13.5 -4t-8.5 -1.5q-3 0 -9 4
t-10 8l-126 114q-3 4 -5.5 7t-2.5 6q0 11 17 16q19 4 36 6.5t22 2.5q9 0 15 -6z" />
    <glyph glyph-name="endash" unicode="&#x2013;" horiz-adv-x="495" 
d="M43 250q-11 0 -18.5 5t-7.5 18q0 9 1 19t3 19t5 15t8 6h420q10 0 17.5 -5.5t7.5 -18.5q0 -8 -1 -18t-3 -19t-5 -15t-7 -6h-420z" />
    <glyph glyph-name="emdash" unicode="&#x2014;" horiz-adv-x="772" 
d="M43 250q-11 0 -18.5 5t-7.5 18q0 9 1 19t3 19t5 15t8 6h697q10 0 17.5 -5.5t7.5 -18.5q0 -8 -1 -18t-3 -19t-5 -15t-7 -6h-697z" />
    <glyph glyph-name="quoteleft" unicode="&#x2018;" horiz-adv-x="195" 
d="M124 769q8 14 15.5 20.5t23.5 6.5q8 0 9 -5.5t1 -11.5q0 -2 -1 -4.5t-1 -4.5l-42 -174q-2 -7 -25 -11.5t-43 -4.5q-13 0 -19.5 6.5t-6.5 15.5q0 5 3 11z" />
    <glyph glyph-name="quoteright" unicode="&#x2019;" horiz-adv-x="202" 
d="M88 607q-8 -13 -16 -19.5t-24 -6.5q-8 0 -9 5.5t0 10.5q0 2 2 10l41 173q1 4 8 7t17 5t22 3.5t22 1.5q13 0 19.5 -6.5t6.5 -15.5q0 -7 -3 -11z" />
    <glyph glyph-name="quotesinglbase" unicode="&#x201a;" horiz-adv-x="188" 
d="M65 -67q-7 -12 -14.5 -18t-21.5 -6q-8 0 -8.5 5t0.5 10v4t1 4l38 159q1 3 7.5 6t16 5t20.5 3t20 1q12 0 18 -5.5t6 -13.5q0 -5 -3 -11z" />
    <glyph glyph-name="quotedblleft" unicode="&#x201c;" horiz-adv-x="349" 
d="M124 769q8 14 15.5 20.5t23.5 6.5q8 0 9 -5.5t1 -11.5q0 -2 -1 -4.5t-1 -4.5l-42 -174q-2 -7 -25 -11.5t-43 -4.5q-13 0 -19.5 6.5t-6.5 15.5q0 5 3 11zM274 769q8 14 16 20.5t24 6.5q8 0 9 -5.5t0 -11.5q0 -3 -2 -9l-41 -174q-1 -3 -8 -6t-17 -5.5t-22 -3.5t-22 -1
q-13 0 -19.5 6.5t-6.5 15.5q0 5 3 11z" />
    <glyph glyph-name="quotedblright" unicode="&#x201d;" horiz-adv-x="349" 
d="M171 613q2 -8 2 -11q0 -9 -6 -15.5t-20 -6.5q-20 0 -43 4.5t-25 11.5l-41 174q-2 2 -2 4.5v4.5q-1 6 -0.5 11.5t8.5 5.5q17 0 25 -6.5t15 -20.5zM321 613q3 -6 3 -11q0 -9 -6.5 -15.5t-19.5 -6.5q-10 0 -22 1t-22 3.5t-17 5.5t-8 6l-41 174q-2 6 -2 9q-1 6 0 11.5t9 5.5
q16 0 24 -6.5t16 -20.5z" />
    <glyph glyph-name="quotedblbase" unicode="&#x201e;" horiz-adv-x="351" 
d="M65 -69q-7 -12 -14.5 -18t-21.5 -6q-8 0 -8.5 5.5t0.5 10.5q0 5 1 8l38 159q1 3 7.5 6t16 5t20.5 3t20 1q12 0 18 -6t6 -14q0 -6 -3 -10zM229 -69q-7 -12 -14.5 -18t-22.5 -6q-7 0 -8 5.5t0 10.5q0 2 0.5 4t0.5 4l38 159q1 3 7.5 6t16 5t20.5 3t20 1q12 0 18 -6t6 -14
q0 -6 -3 -10z" />
    <glyph glyph-name="dagger" unicode="&#x2020;" horiz-adv-x="547" 
d="M277 732q15 0 27 -5t12 -12v-169h156q10 0 17.5 -5t7.5 -19q0 -8 -1 -18t-3 -19t-5 -15t-7 -6h-165v-623q0 -11 -5 -18.5t-18 -7.5q-8 0 -18.5 1t-20 3t-16 5t-6.5 7v633h-153q-11 0 -18.5 5.5t-7.5 17.5q0 9 1 19t3 19t5 15t8 6h162v161q0 13 15.5 19t29.5 6z" />
    <glyph glyph-name="daggerdbl" unicode="&#x2021;" horiz-adv-x="564" 
d="M232 464h-153q-11 0 -18.5 5.5t-7.5 17.5q0 9 1 19t3 19t5 15t8 6h162v161q0 13 15.5 19t29.5 6q15 0 27 -5t12 -12v-169h156q10 0 17.5 -5t7.5 -19q0 -8 -1 -18t-3 -19t-5 -15t-7 -6h-165v-101h156q10 0 17.5 -5t7.5 -18q0 -9 -1 -19t-3 -18.5t-5 -14.5t-7 -6h-165v-441
q0 -11 -5 -18.5t-18 -7.5q-8 0 -18.5 1t-20 3t-16 5t-6.5 7v451h-153q-11 0 -18.5 5t-7.5 18q0 9 1 19t3 18.5t5 14.5t8 6h162v101z" />
    <glyph glyph-name="bullet" unicode="&#x2022;" horiz-adv-x="378" 
d="M91 379q0 9 12.5 16t32 12t42.5 7.5t43 2.5q31 0 42 -19t11 -45v-158q0 -26 -11 -44.5t-42 -18.5q-20 0 -43 2.5t-42.5 7t-32 11.5t-12.5 16v210z" />
    <glyph glyph-name="onedotenleader" unicode="&#x2024;" horiz-adv-x="184" 
d="M50 97q0 4 6 7t15 5t19.5 3t19.5 1q13 0 18 -7.5t5 -18.5v-73q0 -11 -5 -18.5t-18 -7.5q-9 0 -19.5 1t-19.5 3t-15 5t-6 7v93z" />
    <glyph glyph-name="twodotenleader" unicode="&#x2025;" horiz-adv-x="367" 
d="M50 97q0 4 6 7t15 5t19.5 3t19.5 1q13 0 18 -7.5t5 -18.5v-73q0 -11 -5 -18.5t-18 -7.5q-9 0 -19.5 1t-19.5 3t-15 5t-6 7v93zM234 97q0 4 6 7t15 5t19.5 3t18.5 1q13 0 18.5 -7.5t5.5 -18.5v-73q0 -11 -5.5 -18.5t-18.5 -7.5q-8 0 -18.5 1t-19.5 3t-15 5t-6 7v93z" />
    <glyph glyph-name="ellipsis" unicode="&#x2026;" horiz-adv-x="551" 
d="M50 97q0 4 6 7t15 5t19.5 3t19.5 1q13 0 18 -7.5t5 -18.5v-73q0 -11 -5 -18.5t-18 -7.5q-9 0 -19.5 1t-19.5 3t-15 5t-6 7v93zM234 97q0 4 6 7t15 5t19.5 3t18.5 1q13 0 18.5 -7.5t5.5 -18.5v-73q0 -11 -5.5 -18.5t-18.5 -7.5q-8 0 -18.5 1t-19.5 3t-15 5t-6 7v93z
M417 97q0 4 6 7t15 5t19.5 3t19.5 1q13 0 18.5 -7.5t5.5 -18.5v-73q0 -11 -5.5 -18.5t-18.5 -7.5q-9 0 -19.5 1t-19.5 3t-15 5t-6 7v93z" />
    <glyph glyph-name="perthousand" unicode="&#x2030;" horiz-adv-x="1228" 
d="M548 238q0 67 34.5 102t105.5 35q72 0 106 -35t34 -102v-113q0 -67 -34 -102t-106 -35q-71 0 -105.5 35t-34.5 102v113zM624 155q0 -21 2 -38t8.5 -28.5t19.5 -18t34 -6.5q42 0 52.5 24.5t10.5 66.5v52q0 43 -10.5 67t-52.5 24t-53 -22.5t-11 -64.5v-56zM54 591
q0 67 34.5 102.5t104.5 35.5q72 0 106 -35.5t34 -102.5v-113q0 -66 -34 -101.5t-106 -35.5q-70 0 -104.5 35.5t-34.5 101.5v113zM129 509q0 -42 11 -66.5t53 -24.5q21 0 34 6.5t19.5 18t8.5 28.5t2 38v52q0 21 -2 38t-8.5 29t-19.5 18t-34 6q-41 0 -52.5 -23t-11.5 -63v-57z
M909 238q0 67 34.5 102t104.5 35q72 0 106 -35t34 -102v-113q0 -67 -34 -102t-106 -35q-70 0 -104.5 35t-34.5 102v113zM984 155q0 -42 11 -66.5t53 -24.5q21 0 34 6.5t19.5 18t8.5 28.5t2 38v52q0 21 -2 38t-8.5 29t-19.5 18t-34 6q-41 0 -52.5 -22.5t-11.5 -64.5v-56z
M644 752q11 -5 21.5 -14t5.5 -20l-381 -747q-5 -9 -12.5 -14t-17.5 0q-7 3 -15 7t-15 8t-11 8t-2 8l389 763q3 5 14 5.5t24 -4.5z" />
    <glyph glyph-name="guilsinglleft" unicode="&#x2039;" horiz-adv-x="341" 
d="M61 289l159 195q6 8 10 11t10 3q3 0 8 -3.5t10.5 -9t9.5 -11t4 -8.5q0 -4 -1 -8.5t-6 -10.5l-119 -158l119 -159q5 -5 6 -9.5t1 -8.5q0 -3 -4 -9t-9.5 -11t-10.5 -9t-8 -4q-6 0 -10 3.5t-10 10.5z" />
    <glyph glyph-name="guilsinglright" unicode="&#x203a;" horiz-adv-x="342" 
d="M118 93q-6 -7 -10 -10.5t-11 -3.5q-2 0 -7.5 4t-10.5 9t-9 11t-4 9q0 4 1 8.5t6 9.5l119 159l-119 158q-5 6 -6 10.5t-1 8.5q0 3 4 8.5t9 11t10.5 9t7.5 3.5q7 0 11 -3t10 -11l158 -195z" />
    <glyph glyph-name="fraction" unicode="&#x2044;" horiz-adv-x="433" 
d="M443 739q10 -5 11.5 -14t-2.5 -17l-405 -734q-5 -8 -12.5 -12.5t-17.5 0.5q-7 3 -15 7.5t-14.5 9.5t-10.5 9.5t-2 7.5l415 753q2 3 8 3.5t14 -1.5t16.5 -5.5t14.5 -6.5z" />
    <glyph glyph-name="uni2070" unicode="&#x2070;" 
 />
    <glyph glyph-name="uni2074" unicode="&#x2074;" 
 />
    <glyph glyph-name="uni2075" unicode="&#x2075;" 
 />
    <glyph glyph-name="uni2076" unicode="&#x2076;" 
 />
    <glyph glyph-name="uni2077" unicode="&#x2077;" 
 />
    <glyph glyph-name="uni2078" unicode="&#x2078;" 
 />
    <glyph glyph-name="uni2079" unicode="&#x2079;" 
 />
    <glyph glyph-name="uni207D" unicode="&#x207d;" 
 />
    <glyph glyph-name="uni207E" unicode="&#x207e;" 
 />
    <glyph glyph-name="uni2080" unicode="&#x2080;" 
 />
    <glyph glyph-name="uni2081" unicode="&#x2081;" 
 />
    <glyph glyph-name="uni2082" unicode="&#x2082;" 
 />
    <glyph glyph-name="uni2083" unicode="&#x2083;" 
 />
    <glyph glyph-name="uni2084" unicode="&#x2084;" 
 />
    <glyph glyph-name="uni2085" unicode="&#x2085;" 
 />
    <glyph glyph-name="uni2086" unicode="&#x2086;" 
 />
    <glyph glyph-name="uni2087" unicode="&#x2087;" 
 />
    <glyph glyph-name="uni2088" unicode="&#x2088;" 
 />
    <glyph glyph-name="uni2089" unicode="&#x2089;" 
 />
    <glyph glyph-name="uni208D" unicode="&#x208d;" 
 />
    <glyph glyph-name="uni208E" unicode="&#x208e;" 
 />
    <glyph glyph-name="Euro" unicode="&#x20ac;" horiz-adv-x="693" 
d="M613 72q7 0 12 -13t10 -22q2 -5 4 -10.5t2 -11.5q0 -10 -17.5 -17t-43 -11t-53 -6t-46.5 -2h-9q-71 0 -124 13.5t-88 45t-52 83t-17 127.5v8h-156q-6 7 -4 23q1 9 2.5 23t6.5 19h151v65h-127q-4 7 -4 24q1 9 2.5 23.5t6.5 18.5h122v2q0 75 17 126.5t52 83t88 45t124 13.5
h9q19 0 46.5 -2t53 -6t43 -11t17.5 -17q0 -6 -2 -11.5t-4 -10.5q-5 -10 -10 -22.5t-12 -12.5q-33 8 -64 12.5t-68 4.5h-9q-60 0 -96 -12t-55.5 -36t-26.5 -60.5t-8 -85.5h225q6 -9 4 -24q-2 -9 -3.5 -23.5t-6.5 -18.5h-219v-65h194q4 -8 4 -25q-2 -9 -3 -23t-6 -17h-189
q1 -51 7 -88.5t25.5 -62.5t56 -37t98.5 -12h4q38 0 70 4t66 12z" />
    <glyph glyph-name="trademark" unicode="&#x2122;" horiz-adv-x="864" 
d="M182 297q-18 0 -35 2t-28 4v342h-88q-10 0 -17.5 1.5t-12.5 6.5q0 17 2 32t5 25h278q7 0 13 -1t8 -7q0 -17 -2 -32t-4 -25h-111v-316q0 -10 -1.5 -18.5t-6.5 -13.5zM566 424l99 286h65l87 -405h-73l-54 269l-93 -269h-61l-94 269l-54 -269h-73l88 405h65z" />
    <glyph glyph-name="onethird" unicode="&#x2153;" horiz-adv-x="1100" 
d="M825 237q-6 0 -8.5 14.5t-3.5 23.5q-1 5 -1.5 11t1.5 12q1 9 6.5 11t13.5 2h23q44 0 76 18t32 59v8q0 79 -106 80q-26 0 -50.5 -3t-51.5 -8q-7 -1 -12 11t-8 26l-2 13q-3 17 18 22q26 5 50.5 8.5t50.5 3.5q40 0 76 -7.5t63.5 -25t43.5 -47t16 -73.5v-8q0 -34 -14 -65
t-39 -45q26 -15 44 -49t18 -72v-17q0 -41 -17.5 -69.5t-46.5 -46t-66 -25t-75 -7.5h-15h-10t-10 1q-12 1 -27 2t-28.5 3.5t-24 7t-11.5 12.5q-3 12 2 23q3 8 8 22t11 13q19 -3 38 -6.5t41 -4.5h15.5t15.5 1q22 1 42.5 4.5t36 12t25 22.5t9.5 35v20q0 21 -9 35.5t-24 23.5
t-35 13.5t-42 4.5h-39zM224 222q0 -9 -6 -16t-17 -7q-8 0 -19 1.5t-21 3.5t-17 5.5t-7 7.5v433l-66 -57q-2 -2 -7 0t-10 5q-11 7 -25 16t-14 24q0 6 5 13q18 20 43 40.5t50 39.5q12 10 31 16.5t33 8.5q10 1 33 -2q13 -2 13.5 -15t0.5 -25v-492zM702 741q10 -5 11.5 -13.5
t-2.5 -17.5l-405 -733q-5 -8 -13 -12.5t-18 -0.5q-6 3 -14 8t-14.5 9.5t-10.5 9t-2 7.5l415 754q1 3 7.5 3.5t14.5 -1.5t16.5 -5.5t14.5 -7.5z" />
    <glyph glyph-name="oneeighth" unicode="&#x215b;" horiz-adv-x="1094" 
d="M1036 397q0 -34 -9 -62t-27 -45q20 -17 33 -42t18 -60q3 -28 2 -50q-2 -45 -14.5 -73.5t-36 -45t-57.5 -22.5t-79 -6h-15q-45 0 -79.5 6t-57.5 22.5t-35.5 45.5t-14.5 75q-1 13 -0.5 25t2.5 24q5 34 18 59t33 42q-25 27 -33 77q-2 13 -2.5 25.5t0.5 26.5q2 39 13.5 64
t32.5 39.5t51.5 19.5t71.5 5h15q44 0 76 -6t53 -22.5t31 -46t10 -75.5zM866 65q33 0 52.5 3.5t30 13.5t14 27.5t3.5 44.5t-3.5 45.5t-14 30t-30 16.5t-52.5 5h-15q-33 0 -53 -5t-30.5 -16.5t-13.5 -30t-3 -45.5t3 -44.5t13.5 -27.5t30.5 -13.5t53 -3.5h15zM867 325
q26 0 42.5 3t26 11t13 22t3.5 37q0 25 -3.5 40t-12.5 23t-26 10.5t-44 2.5h-15q-27 0 -43.5 -2.5t-26 -10.5t-13 -23t-3.5 -40q0 -23 3.5 -37t13 -22t26 -11t42.5 -3h17zM218 222q-1 -9 -7 -16t-17 -7q-8 0 -19 1.5t-21 3.5t-16.5 5.5t-6.5 7.5v433l-59 -52q-2 -2 -7 -0.5
t-10 5.5q-12 7 -26 16t-14 24q0 6 10.5 17t25 24t30.5 25.5t27 21.5q13 11 31 18.5t56 7.5q8 0 15.5 -5t7.5 -14v-516zM705 759q9 -5 10.5 -13.5t-2.5 -17.5l-405 -733q-5 -8 -12.5 -12.5t-17.5 -0.5q-7 3 -15 8t-14.5 9.5t-10 9t-1.5 7.5l414 754q2 3 8 3.5t14.5 -1.5
t17 -5.5t14.5 -7.5z" />
    <glyph glyph-name="minus" unicode="&#x2212;" horiz-adv-x="374" 
d="M68 250v82h238v-82h-238z" />
    <glyph glyph-name="notequal" unicode="&#x2260;" horiz-adv-x="545" 
d="M523 398v-73h-194l-46 -110h240v-73h-271l-116 -273l-70 13l110 260h-150v73h181l45 110h-225v73h256l125 294l71 -14l-119 -280h163z" />
    <glyph glyph-name="lessequal" unicode="&#x2264;" horiz-adv-x="601" 
d="M521 589v-77l-393 -165l392 -164v-75l-484 208v63zM527 28v-71h-497v71h497z" />
    <glyph glyph-name="greaterequal" unicode="&#x2265;" horiz-adv-x="602" 
d="M122 564l419 -180v-88l-419 -181v77l343 148q-81 35 -171.5 74t-171.5 74v76zM575 32v-71h-492v71h492z" />
    <glyph glyph-name="uniE000" unicode="&#xe000;" horiz-adv-x="235" 
d="M31 16l7 -6v16l10 -2l4 -4q2 -2 3 -3.5t2 -2.5l-18 -5l10 -5l9 4q0 -1 0.5 -1.5t0.5 -1.5v3l2 -8h5l-11 -19q-2 3 -6 8t-11 10l4 2h-4v8l-5 -1zM76 -5l7 -11l-13 -4zM68 -25q-8 0 -8 2l10 3z" />
    <glyph glyph-name="uniE001" unicode="&#xe001;" horiz-adv-x="529" 
d="M62 -109q23 -5 50.5 -8.5t60.5 -3.5q36 0 72 4t65 17t47 36t18 61v26q0 31 -13 53.5t-35.5 37.5t-52 22t-63.5 7h-30q-4 0 -7.5 5.5t-6.5 14t-5 18t-2 17.5q0 10 6 15.5t14 5.5h18q34 0 64 7t52.5 21t35.5 36.5t13 53.5v14q0 28 -9 50.5t-30 38.5t-55 24.5t-83 8.5
q-26 0 -52 -3.5t-56 -7.5q-4 0 -8 5.5t-7.5 13.5t-6 17.5t-2.5 17.5q0 10 16.5 16t38 9.5t42.5 4.5t30 1q62 0 113 -9.5t87 -32t55.5 -60t19.5 -94.5v-14q0 -25 -7 -49t-18.5 -44.5t-27.5 -36t-34 -22.5q21 -8 39 -24.5t31.5 -38t21.5 -47t8 -52.5v-26q0 -56 -25 -93
t-65 -59.5t-91 -32t-102 -9.5q-16 0 -41.5 1.5t-50 5.5t-42 11t-17.5 17q0 2 2 10.5t5.5 18t8.5 17t11 7.5z" />
    <glyph glyph-name="uniE002" unicode="&#xe002;" horiz-adv-x="571" 
d="M47 -7q-11 0 -18 5t-7 17q0 13 3 29t9 24l347 475q8 11 24.5 17t30.5 6q11 0 16 -7t5 -17v-474h76q9 0 16 -5t7 -16q0 -8 -1 -17.5t-3 -17.5t-4.5 -13.5t-6.5 -5.5h-84v-151q0 -11 -5.5 -18.5t-18.5 -7.5q-9 0 -19.5 1t-20.5 3t-16.5 5t-6.5 7v161h-323zM370 415
l-248 -347h248v347z" />
    <glyph glyph-name="uniE003" unicode="&#xe003;" horiz-adv-x="580" 
d="M223 458l-32 -206q23 17 51 22.5t53 5.5q112 0 168.5 -55.5t56.5 -180.5v-4q0 -67 -21.5 -112t-57.5 -72.5t-84.5 -39t-102.5 -11.5q-18 0 -42 2t-50 5.5t-50.5 8.5t-42.5 11q-5 2 -9 4t-5 6q-4 12 3 27q3 8 8.5 21t12.5 12q46 -8 87.5 -14.5t83.5 -6.5q36 0 68 7.5
t56 25.5t38 48t14 74q0 41 -6.5 72.5t-24 52.5t-47 32t-74.5 11q-20 0 -41 -5.5t-38 -16.5q-8 -6 -15.5 -10t-19.5 -4h-44q-11 0 -15.5 4.5t-1.5 17.5q0 4 0.5 7.5t0.5 7.5l38 275q3 23 6 37q4 16 25.5 16.5t50.5 0.5h253q7 0 13 -2.5t7 -11.5q2 -4 2 -8v-9q-1 -5 -2 -13
t-2.5 -15t-4 -12t-6.5 -5h-257z" />
    <glyph glyph-name="uniE004" unicode="&#xe004;" horiz-adv-x="619" 
d="M440 650q-84 -43 -139 -93.5t-93 -119.5q22 9 49.5 17.5t70.5 7.5q59 -2 102.5 -15t72 -40.5t42.5 -71.5t14 -108v-4q0 -66 -15 -111t-45.5 -72.5t-77 -39.5t-108.5 -12h-7q-62 0 -108 12t-77 39.5t-46 72.5t-15 111v4q0 87 26.5 162t72.5 136.5t109.5 109.5t138.5 80
q10 4 16.5 1t11 -10t7.5 -16.5t5 -18.5q5 -16 -7 -21zM306 387q-50 0 -80 -11t-46 -32t-21 -52t-5 -71q0 -42 5 -72t20.5 -48.5t45.5 -27.5t81 -9h7q50 0 80 8.5t46 27.5t21 48.5t5 70.5t-5 72.5t-21 52.5t-46 32t-80 11h-7z" />
    <glyph glyph-name="uniE005" unicode="&#xe005;" horiz-adv-x="528" 
d="M401 459h-365q-4 0 -6.5 5.5t-4.5 14t-3 17.5t-1 17q0 12 7 17t16 5h440q10 0 17.5 -5t7.5 -18q0 -12 -4 -29.5t-9 -24.5l-337 -643q-5 -10 -22 -7.5t-30 9.5t-21 17.5t-4 18.5z" />
    <glyph glyph-name="uniE006" unicode="&#xe006;" horiz-adv-x="632" 
d="M547 533q0 -51 -16 -91.5t-45 -54.5q39 -22 62.5 -67.5t23.5 -113.5v-4q0 -66 -15 -108t-45.5 -66t-76.5 -32.5t-108 -8.5h-22q-62 0 -108 8.5t-76.5 32.5t-45.5 66t-15 108v4q0 68 23.5 113.5t62.5 68.5q-29 13 -45.5 54t-16.5 91v4q0 59 13.5 96.5t41 58.5t69 28.5
t97.5 7.5h22q56 0 97.5 -7.5t68.5 -28.5t40.5 -58.5t13.5 -96.5v-4zM327 63q49 0 79 5.5t46 20.5t21 41t5 67t-5 69.5t-21 46t-46 25.5t-79 8h-22q-50 0 -79.5 -8t-45.5 -25.5t-21 -46t-5 -69.5t5 -67t21 -41t45.5 -20.5t79.5 -5.5h22zM328 421q40 0 65.5 4.5t40 17t20 35
t5.5 58.5q0 39 -5 62t-19.5 35t-40 15.5t-67.5 3.5h-22q-42 0 -67.5 -3.5t-40 -15.5t-19.5 -35t-5 -62q0 -36 5.5 -58.5t20 -35t40 -17t65.5 -4.5h24z" />
    <glyph glyph-name="uniE007" unicode="&#xe007;" horiz-adv-x="619" 
d="M179 -121q84 43 139 93.5t93 119.5q-22 -9 -49.5 -17.5t-70.5 -7.5q-59 2 -102.5 15t-72 40.5t-42.5 71.5t-14 108v4q0 66 15 111t45.5 72.5t77 39.5t108.5 12h7q62 0 108 -12t77 -39.5t46 -72.5t15 -111v-4q0 -87 -26.5 -162t-72.5 -136.5t-109.5 -109.5t-138.5 -80
q-10 -5 -16.5 -1.5t-11 10.5t-7.5 16.5t-5 18.5q-5 16 7 21zM313 142q50 0 80 10.5t46 31.5t21 52t5 72q0 42 -5 72t-20.5 48.5t-45.5 27.5t-81 9h-7q-50 0 -80 -9t-46 -27.5t-21 -48t-5 -70.5t5 -72.5t21 -52.5t46 -32t80 -11h7z" />
    <glyph glyph-name="uniE008" unicode="&#xe008;" horiz-adv-x="435" 
d="M117 373q0 4 6 7t15 5t19.5 3t19.5 1q13 0 18 -7.5t5 -18.5v-73q0 -11 -5 -18.5t-18 -7.5q-9 0 -19.5 1t-19.5 3t-15 5t-6 7v93z" />
    <glyph glyph-name="uniE009" unicode="&#xe009;" horiz-adv-x="319" 
d="M128 -322q-7 -12 -14.5 -18t-22.5 -6q-7 0 -8 5.5t0 10.5q0 2 0.5 4t0.5 4l38 159q1 3 7.5 6t16 5t20.5 3t20 1q12 0 18 -6t6 -14q0 -6 -3 -10z" />
    <glyph glyph-name="uniE00A" unicode="&#xe00a;" horiz-adv-x="436" 
d="M283 15q0 -11 -5 -19t-18 -8q-8 0 -19 1.5t-21 3.5t-17 5.5t-7 7.5v424l-55 -49q-3 -2 -9.5 1t-14 8t-14.5 11.5t-11 11.5q-6 8 -4 15.5t9 12.5l84 75q27 22 79 24q13 0 18 -8.5t5 -19.5v-497v0z" />
    <glyph glyph-name="uniE00B" unicode="&#xe00b;" horiz-adv-x="540" 
d="M63 0q-11 0 -18.5 5t-7.5 18q0 14 4.5 32t15.5 24q172 94 255.5 159.5t83.5 116.5q0 36 -14.5 57.5t-36 33t-47.5 14.5t-49 3q-29 0 -60 -4t-66 -9q-4 -1 -7.5 4t-7 12.5t-6.5 16t-4 15.5q-2 11 2.5 16.5t14.5 7.5q32 8 63.5 12.5t68.5 4.5q49 0 93 -7.5t77.5 -27
t53 -53.5t19.5 -86q0 -39 -26 -79.5t-68.5 -79t-96.5 -72t-109 -59.5h300q9 0 16 -5t7 -16q0 -8 -1 -17.5t-3 -17.5t-4.5 -13.5t-6.5 -5.5h-435z" />
    <glyph glyph-name="uniE00C" unicode="&#xe00c;" horiz-adv-x="650" 
d="M299 -12q-110 1 -167 22t-57 66v546q0 18 20.5 37t54.5 35t77.5 26.5t88.5 10.5q121 0 190 -48t70 -145v-7q0 -98 -73 -153q42 -27 64 -67.5t23 -94.5v-34q-1 -194 -291 -194zM162 337v-250q5 -9 21 -14.5t38 -8.5t49 -4t54 -1q39 0 71 6.5t55 21t36 38t13 57.5v34
q-1 63 -44 91t-111 30h-182zM162 409h159q75 0 119.5 28t44.5 94v7q-1 55 -32.5 82t-88.5 35q-13 1 -24.5 2t-23.5 1q-39 0 -68 -6t-48 -14t-28.5 -15.5t-9.5 -9.5v-204z" />
    <glyph glyph-name="uniE00D" unicode="&#xe00d;" horiz-adv-x="657" 
d="M297 -12q-50 0 -91 4t-70 14.5t-45 27t-16 42.5v533q0 19 16.5 39t48.5 35.5t79 25.5t109 10q68 0 118.5 -20t84 -57.5t50 -91t16.5 -120.5v-153q0 -66 -16 -119.5t-48.5 -91t-81 -58t-113.5 -20.5h-41zM162 90q5 -9 20.5 -14.5t37 -8.5t47 -4.5t51.5 -1.5q52 0 88 18.5
t59 52t33.5 79t10.5 99.5v86q0 49 -9.5 94.5t-30 80t-53 55.5t-78.5 21q-45 0 -78 -4.5t-55 -11.5t-32.5 -15.5t-10.5 -14.5v-511z" />
    <glyph glyph-name="uniE00E" unicode="&#xe00e;" horiz-adv-x="609" 
d="M162 329v-239q4 -9 18.5 -15t35 -9.5t45 -5t49.5 -1.5q56 0 105.5 3.5t106.5 12.5q4 1 8 -4t7 -12.5t5 -16t4 -15.5q2 -12 -3 -17t-15 -7q-41 -6 -69.5 -9t-53 -4.5t-49.5 -1.5h-59q-50 0 -91 4.5t-70 15t-45 27.5t-16 41v548q0 18 16.5 36.5t48.5 34.5t79 26t109 10
q50 0 99.5 -2t100.5 -13q21 -3 18 -23q-2 -8 -4.5 -16.5t-5.5 -16t-6.5 -12t-7.5 -3.5q-42 6 -85 9.5t-99 3.5q-45 0 -78 -4.5t-55 -11t-32.5 -14.5t-10.5 -15v-211h302q9 0 15.5 -4.5t6.5 -15.5q0 -8 -1 -17t-3 -17t-4.5 -13.5t-6.5 -5.5h-309z" />
    <glyph glyph-name="uniE00F" unicode="&#xe00f;" horiz-adv-x="556" 
d="M156 329v-314q0 -11 -5.5 -19t-19.5 -8q-8 0 -19 1t-21 3t-16.5 5t-6.5 8v619q0 18 16.5 36.5t49.5 34.5t81.5 26t111.5 10q60 0 105.5 -2.5t88.5 -12.5q19 -3 18 -21q-1 -8 -3 -17t-5.5 -16.5t-7.5 -12t-8 -4.5q-42 6 -85 9.5t-99 3.5q-91 0 -133 -15.5t-42 -29.5v-211
h302q8 0 14.5 -4.5t6.5 -15.5q0 -8 -1 -17t-2.5 -17t-4 -13.5t-6.5 -5.5h-309z" />
    <glyph glyph-name="uniE010" unicode="&#xe010;" horiz-adv-x="434" 
d="M295 539q56 -6 89 -15l-15 -70q-27 7 -52 10t-47 3q-69 0 -97.5 -38t-28.5 -122v-86q0 -83 28.5 -122.5t91.5 -39.5q23 0 50 4.5t55 10.5l15 -70q-17 -5 -39.5 -9t-49.5 -6v-105h-77v106q-85 11 -121.5 61.5t-36.5 141.5v142q0 88 38 140t120 63v114h77v-113z" />
    <glyph glyph-name="uniE011" unicode="&#xe011;" horiz-adv-x="546" 
d="M178 574q0 -20 5.5 -37t15.5 -31q21 -31 51.5 -57.5t63.5 -52t65.5 -51.5t58.5 -55.5t42 -64.5t16 -78q0 -33 -13 -59t-35.5 -45t-53 -31.5t-65.5 -18.5v-87h-78v83q-64 1 -115 10.5t-86 25.5l14 77q16 -5 39.5 -11.5t50.5 -12t55.5 -9.5t55.5 -4q25 0 50 3.5t45 12.5
t32.5 24t13.5 37q0 14 -2.5 26.5t-9.5 24.5q-20 37 -50.5 66.5t-64.5 56.5t-68 53t-61 55.5t-44 64.5t-17 80q0 34 13 60.5t35 45t51.5 30t62.5 17.5v128h78v-122q39 -2 76 -8.5t66 -16.5l-17 -70q-23 5 -57 10.5t-69 7.5h-21.5t-21.5 -1q-21 -2 -40.5 -7t-34 -14
t-23.5 -22.5t-9 -32.5z" />
    <glyph glyph-name="uniE012" unicode="&#xe012;" horiz-adv-x="449" 
d="M82 -9q-13 -3 -28 -2q-19 3 -14 25q0 4 2 10l144 472q1 4 7.5 7.5t14.5 5t17 2.5t16 1t11 -4t7 -10t5 -13t4 -12l137 -449q1 -3 1 -10q5 -26 -21 -26t-45 22.5t-30 50.5q-9 13 -12.5 27t-5.5 27h-138q-2 -9 -4.5 -18t-4.5 -18l-22 -75q-1 -3 -6 -5.5t-11.5 -4t-13 -2
t-10.5 -1.5zM223 392l-52 -201h103z" />
    <glyph glyph-name="uniE013" unicode="&#xe013;" horiz-adv-x="506" 
d="M75 478q0 15 7.5 20.5t29.5 5.5h151q84 0 129.5 -35t45.5 -107q0 -30 -14.5 -59t-36.5 -42q12 -6 22.5 -18t18.5 -27t13 -31.5t5 -32.5v-11q-1 -69 -45 -105t-138 -36h-144q-16 0 -30 5.5t-14 10.5v462zM161 220v-146h98q46 0 73.5 14.5t27.5 52.5v11q0 35 -25 51.5
t-65 16.5h-109zM161 429v-134h97q42 0 67.5 15t25.5 54q0 35 -24.5 50t-63.5 15h-102z" />
    <glyph glyph-name="uniE014" unicode="&#xe014;" horiz-adv-x="439" 
d="M372 74q4 1 7.5 -4t6.5 -12.5t5.5 -16t4.5 -15.5q2 -11 -3 -16.5t-15 -7.5q-54 -15 -128 -15q-101 0 -145.5 52.5t-44.5 152.5v116q0 100 44.5 152.5t145.5 52.5q39 0 68.5 -3.5t59.5 -11.5q21 -3 18 -23q-2 -7 -4.5 -16t-5.5 -16.5t-6.5 -12t-7.5 -4.5q-29 5 -48 8.5
t-31.5 5t-22 2t-20.5 0.5q-33 0 -53.5 -12t-32.5 -33.5t-16 -51.5t-4 -65v-60q0 -35 4 -64.5t16 -51t32.5 -33.5t53.5 -12q11 0 20 0.5t22 2t31.5 4.5t48.5 8z" />
    <glyph glyph-name="uniE015" unicode="&#xe015;" horiz-adv-x="505" 
d="M244 504q51 0 88.5 -9.5t62.5 -32t37.5 -59t12.5 -90.5v-120q0 -55 -12.5 -92t-37.5 -59.5t-62.5 -32t-88.5 -9.5h-125q-16 0 -30.5 5.5t-14.5 10.5v462q0 11 5.5 18.5t18.5 7.5h146zM161 429v-355h83q39 0 61.5 9t33.5 26.5t14 43.5t3 61v76q0 35 -3 61t-14 43.5
t-33.5 26t-61.5 8.5h-83z" />
    <glyph glyph-name="uniE016" unicode="&#xe016;" horiz-adv-x="445" 
d="M161 220v-145h201q9 0 15.5 -5t6.5 -16q0 -8 -1 -17.5t-3 -17.5t-4.5 -13.5t-6.5 -5.5h-250q-16 0 -30 5.5t-14 10.5v462q0 11 5 18.5t18 7.5h264q9 0 15.5 -5t6.5 -16q0 -8 -1 -17t-3 -17.5t-5 -14t-7 -5.5h-207v-134h188q9 0 16 -5t7 -16q0 -8 -1 -17.5t-3 -17.5
t-5 -13.5t-7 -5.5h-195z" />
    <glyph glyph-name="uniE017" unicode="&#xe017;" horiz-adv-x="408" 
d="M161 220v-205q0 -11 -5.5 -19t-19.5 -8q-9 0 -19.5 1t-20 3.5t-15.5 5.5t-6 7v473q0 11 5 18.5t18 7.5h264q9 0 15.5 -5t6.5 -16q0 -8 -1 -17t-3 -17.5t-5 -14t-7 -5.5h-207v-134h172q9 0 16 -5t7 -16q0 -8 -1 -17.5t-3 -17.5t-5 -13.5t-7 -5.5h-179z" />
    <glyph glyph-name="uniE018" unicode="&#xe018;" horiz-adv-x="480" 
d="M232 70q9 -1 26 -1.5t34.5 1.5t30 8t12.5 19v130q0 4 6.5 7t16.5 5.5t20.5 3.5t18.5 1q18 0 20.5 -12t2.5 -25v-155q0 -18 -17.5 -29t-42 -18t-51 -9.5t-44.5 -3.5h-6q-54 0 -92 11t-62 35.5t-34.5 65t-10.5 99.5v118q0 53 12 90t37 59.5t62 32.5t88 10h5q39 0 69.5 -5
t54.5 -13q21 -5 17 -25q-2 -7 -4.5 -15.5t-6 -16t-7.5 -12.5t-7 -4q-47 9 -70.5 12.5t-45.5 3.5h-5q-39 0 -61 -8.5t-33 -26t-13.5 -43.5t-2.5 -61v-93q0 -32 2 -56t10.5 -41t25 -26.5t45.5 -12.5z" />
    <glyph glyph-name="uniE019" unicode="&#xe019;" horiz-adv-x="531" 
d="M433 513q13 0 18 -7t5 -18v-475q0 -11 -5 -18t-18 -7q-8 0 -19 1t-20.5 3t-16 5t-6.5 7v219h-211v-210q0 -11 -5.5 -18t-17.5 -7q-9 0 -19.5 1t-20 3t-16 5t-6.5 7v493q0 4 6.5 7t16 5t20 3t19.5 1q12 0 17.5 -7t5.5 -18v-187h211v196q0 4 6.5 7t16 5t20.5 3t19 1z" />
    <glyph glyph-name="uniE01A" unicode="&#xe01a;" horiz-adv-x="235" 
d="M137 513q12 0 17.5 -7t5.5 -18v-475q0 -11 -5.5 -18t-17.5 -7q-9 0 -19.5 1t-20 3t-16 5t-6.5 7v493q0 4 6.5 7t16 5t20 3t19.5 1z" />
    </font>
</defs>
</svg>
